<?xml version="1.0" encoding="UTF-8" standalone="no"?>
<svg
   width="1.70667in"
   height="1.70667in"
   viewBox="0 0 512 512"
   version="1.1"
   id="svg186"
   sodipodi:docname="logo-monochrome.svg"
   inkscape:version="1.2 (1:1.2+202206011327+fc4e4096c5)"
   xmlns:inkscape="http://www.inkscape.org/namespaces/inkscape"
   xmlns:sodipodi="http://sodipodi.sourceforge.net/DTD/sodipodi-0.dtd"
   xmlns="http://www.w3.org/2000/svg"
   xmlns:svg="http://www.w3.org/2000/svg">
  <defs
     id="defs190" />
  <sodipodi:namedview
     id="namedview188"
     pagecolor="#ffffff"
     bordercolor="#000000"
     borderopacity="0.25"
     inkscape:showpageshadow="2"
     inkscape:pageopacity="0.0"
     inkscape:pagecheckerboard="0"
     inkscape:deskcolor="#d1d1d1"
     inkscape:document-units="in"
     showgrid="false"
     inkscape:zoom="3.4533833"
     inkscape:cx="30.694537"
     inkscape:cy="91.938825"
     inkscape:window-width="1920"
     inkscape:window-height="1016"
     inkscape:window-x="0"
     inkscape:window-y="27"
     inkscape:window-maximized="1"
     inkscape:current-layer="svg186" />
  <path
     id="Selection"
     style="display:inline;fill:#000000;fill-opacity:1"
     d="M 279.27189 31.158384 C 276.07284 30.917291 272.6947 30.970835 268.9997 31.420835 L 246.0017 36.437914 L 230.99929 41.107094 L 218.9998 42.608556 C 209.72981 44.238555 192.8023 48.441364 184.00231 51.50136 C 130.87237 70.041342 84.918887 108.64241 59.258913 159.00236 C 51.578921 174.08235 44.402844 192.52228 40.502848 209.00226 C 37.61285 221.21225 35.017488 243.44925 34.997488 255.99924 L 36.102222 277.00139 L 36.102222 286.99893 C 42.062216 333.92888 63.258657 379.78066 96.038624 414.00063 C 112.00861 430.67061 138.99726 450.07833 159.99723 459.97832 L 172.00283 464.86722 C 188.67281 472.01721 209.91249 478.02119 228.00247 479.96119 L 235.99806 479.96119 L 246.0017 480.99878 C 266.85168 481.23878 287.65111 480.33952 308.00108 475.49952 L 317.99862 472.41726 L 332.00006 468.29739 C 341.33005 464.96739 350.31197 460.62 359.00196 455.95 L 376.00021 446.45906 C 414.57018 421.60908 444.18903 385.53853 461.19902 342.99857 C 464.52901 334.67858 469.40304 320.59887 471.34304 311.99888 L 473.60744 297.99744 C 474.69744 291.98745 475.92001 288.29015 476.00001 282.00016 L 477.00099 258.00119 L 476.00001 242.99878 C 475.86001 230.47879 472.48188 214.15153 469.15188 202.00154 C 462.35351 177.18391 451.3032 153.6378 436.54697 132.65964 C 426.64573 118.58358 415.07564 105.66494 402.00114 94.293022 C 390.23115 84.053032 373.79292 72.669684 360.00293 65.319692 L 343.0413 57.287482 C 337.5213 54.357484 339.7781 52.721764 329.99811 47.16177 C 322.84812 43.091774 314.7501 41.22738 307.00011 38.647383 C 296.86012 35.264886 288.86907 31.881665 279.27189 31.158384 z M 339.00078 74.249117 C 344.16077 75.449116 350.59806 80.041924 354.99806 83.141921 C 364.00805 89.511915 372.41709 96.228254 380.29708 103.91825 L 394.46942 118.292 C 418.88939 146.57197 435.05232 182.07984 440.28231 218.9998 C 441.38231 226.74979 442.98837 234.11781 442.99837 241.9978 L 442.99837 257.00021 C 442.96837 277.08019 435.05925 309.49228 427.12926 328.00226 C 403.07929 384.16221 360.26031 421.98878 301.00037 436.88876 L 291.00283 439.53768 L 270.00067 441.08797 L 259.99703 441.9974 L 255.99924 441.9974 L 246.0017 441.08797 L 227.00149 439.70248 C 218.6515 438.46248 200.93887 433.0887 192.99888 429.8087 C 169.8289 420.24871 147.7794 407.03911 130.16941 388.90912 C 114.61943 372.89914 99.941369 350.75809 91.601377 329.99811 L 86.437813 314.00083 L 83.849928 306.09069 L 82.012773 294.71986 L 79.089195 278.00237 L 79.089195 260.99801 C 79.019195 247.14802 79.200325 245.67297 81.750323 232.04299 L 84.490796 216.99785 C 91.470789 191.02788 104.38973 166.75188 121.45971 146.0019 C 135.1097 129.42192 159.51746 110.55814 178.99744 101.31815 L 202.00154 92.510799 C 208.21154 90.440801 225.03929 85.28139 230.99929 85.35139 C 234.93928 85.411389 242.0617 88.362154 246.0017 89.642152 C 252.25169 91.67215 265.63263 94.921028 272.00262 95.001028 C 289.50261 95.201028 290.45915 92.62137 305.99914 87.591375 L 322.99739 82.238603 C 328.34739 80.068605 333.83078 75.379116 339.00078 74.249117 z M 265.13008 112.91481 C 260.52618 112.77825 256.08894 112.9239 252.00144 113.4214 L 241.9978 114.2881 C 230.92781 115.6481 218.41128 119.07884 208.00129 123.05883 C 174.23132 135.98882 144.83101 163.36183 129.32103 196.0018 C 91.541065 275.51172 132.09891 374.20938 217.99883 399.41936 C 229.79881 402.88935 243.65925 405.84893 255.99924 405.99893 C 283.48921 406.31893 304.28716 402.19139 328.99714 389.75141 C 344.38712 382.01142 360.36908 370.08 371.56907 357.00001 C 392.28905 332.81003 407.62088 300.34869 408.00088 267.99872 C 408.15088 255.09874 408.10727 242.7183 405.54727 229.99831 C 398.88728 196.89835 379.55219 165.31263 353.00221 144.51265 C 338.91223 133.47266 323.02912 125.32266 305.99914 119.98267 C 294.23915 116.28517 278.94178 113.3245 265.13008 112.91481 z M 159.00236 191.00303 L 227.00149 233.31862 L 241.9978 242.79736 L 248.40038 248.21117 L 248.99852 259.00216 L 247.97923 264.8188 L 228.00247 278.66154 L 158.00139 322.00252 L 158.00139 309.00206 L 158.56901 302.31872 L 174.99965 290.423 L 204.99836 271.31293 L 228.00247 257.00021 L 176.00062 222.99759 L 158.56901 210.66852 L 158.00139 203.99739 L 159.00236 191.00303 z " />
</svg>
