<?xml version="1.0" encoding="UTF-8" standalone="no"?>
<svg
   width="1.70667in"
   height="1.70667in"
   viewBox="0 0 512 512"
   version="1.1"
   id="svg186"
   sodipodi:docname="logo-semi-transparent-bg.svg"
   inkscape:version="1.2 (1:1.2+202206011327+fc4e4096c5)"
   xmlns:inkscape="http://www.inkscape.org/namespaces/inkscape"
   xmlns:sodipodi="http://sodipodi.sourceforge.net/DTD/sodipodi-0.dtd"
   xmlns="http://www.w3.org/2000/svg"
   xmlns:svg="http://www.w3.org/2000/svg">
  <defs
     id="defs190" />
  <sodipodi:namedview
     id="namedview188"
     pagecolor="#ffffff"
     bordercolor="#000000"
     borderopacity="0.25"
     inkscape:showpageshadow="2"
     inkscape:pageopacity="0.0"
     inkscape:pagecheckerboard="0"
     inkscape:deskcolor="#d1d1d1"
     inkscape:document-units="in"
     showgrid="false"
     inkscape:zoom="3.4533833"
     inkscape:cx="30.694537"
     inkscape:cy="91.938825"
     inkscape:window-width="1920"
     inkscape:window-height="1016"
     inkscape:window-x="0"
     inkscape:window-y="27"
     inkscape:window-maximized="1"
     inkscape:current-layer="svg186" />
  <path
     style="display:inline;fill:#000000;fill-opacity:1"
     d="m 269,31.42 -23,5.02 -15,4.67 -12,1.5 c -9.27,1.63 -26.2,5.83 -35,8.89 C 130.87,70.04 84.92,108.64 59.26,159 51.58,174.08 44.4,192.52 40.5,209 37.61,221.21 35.02,243.45 35,256 l 1.1,21 v 10 c 5.96,46.93 27.16,92.78 59.94,127 15.97,16.67 42.96,36.08 63.96,45.98 l 12,4.89 c 16.67,7.15 37.91,13.15 56,15.09 h 8 l 10,1.04 c 20.85,0.24 41.65,-0.66 62,-5.5 l 10,-3.08 14,-4.12 c 9.33,-3.33 18.31,-7.68 27,-12.35 l 17,-9.49 c 38.57,-24.85 68.19,-60.92 85.2,-103.46 3.33,-8.32 8.2,-22.4 10.14,-31 l 2.27,-14 c 1.09,-6.01 2.31,-9.71 2.39,-16 l 1,-24 -1,-15 c -0.14,-12.52 -3.52,-28.85 -6.85,-41 -6.79838,-24.81766 -17.84788,-48.36393 -32.60413,-69.34211 C 426.64462,118.58181 415.07451,105.66193 402,94.29 390.23,84.05 373.79,72.67 360,65.32 L 343.04,57.29 C 337.52,54.36 339.78,52.72 330,47.16 322.85,43.09 314.75,41.23 307,38.65 293.48,34.14 283.78,29.62 269,31.42 Z"
     id="Selection"
     sodipodi:nodetypes="ccccccccccccccccccccccccccccscccccc" />
  <path
     style="fill:#ffffff;fill-opacity:0.48565215"
     d="m 339,74.25 c 5.16,1.2 11.6,5.79 16,8.89 9.01,6.37 17.42,13.09 25.3,20.78 0,0 14.17,14.37 14.17,14.37 24.42,28.28 40.58,63.79 45.81,100.71 1.1,7.75 2.71,15.12 2.72,23 0,0 0,15 0,15 -0.03,20.08 -7.94,52.49 -15.87,71 -24.05,56.16 -66.87,93.99 -126.13,108.89 0,0 -10,2.65 -10,2.65 0,0 -21,1.55 -21,1.55 0,0 -10,0.91 -10,0.91 0,0 -4,0 -4,0 0,0 -10,-0.91 -10,-0.91 0,0 -19,-1.39 -19,-1.39 -8.35,-1.24 -26.06,-6.61 -34,-9.89 -23.17,-9.56 -45.22,-22.77 -62.83,-40.9 C 114.62,372.9 99.94,350.76 91.6,330 c 0,0 -5.16,-16 -5.16,-16 0,0 -2.59,-7.91 -2.59,-7.91 0,0 -1.84,-11.37 -1.84,-11.37 0,0 -2.92,-16.72 -2.92,-16.72 0,0 0,-17 0,-17 -0.07,-13.85 0.11,-15.33 2.66,-28.96 0,0 2.74,-15.04 2.74,-15.04 6.98,-25.97 19.9,-50.25 36.97,-71 13.65,-16.58 38.06,-35.44 57.54,-44.68 0,0 23,-8.81 23,-8.81 6.21,-2.07 23.04,-7.23 29,-7.16 3.94,0.06 11.06,3.01 15,4.29 6.25,2.03 19.63,5.28 26,5.36 17.5,0.2 18.46,-2.38 34,-7.41 0,0 17,-5.35 17,-5.35 5.35,-2.17 10.83,-6.86 16,-7.99 z"
     id="path1009" />
  <path
     style="fill:#000000;fill-opacity:1"
     d="m 252,113.42 c 0,0 -10,0.87 -10,0.87 -11.07,1.36 -23.59,4.79 -34,8.77 -33.77,12.93 -63.17,40.3 -78.68,72.94 -37.78,79.51 2.78,178.21 88.68,203.42 11.8,3.47 25.66,6.43 38,6.58 27.49,0.32 48.29,-3.81 73,-16.25 15.39,-7.74 31.37,-19.67 42.57,-32.75 20.72,-24.19 36.05,-56.65 36.43,-89 0.15,-12.9 0.11,-25.28 -2.45,-38 -6.66,-33.1 -26,-64.69 -52.55,-85.49 -14.09,-11.04 -29.97,-19.19 -47,-24.53 -15.68,-4.93 -37.65,-8.55 -54,-6.56 z"
     id="path1013" />
  <path
     style="fill:#ffffff;fill-opacity:0.45464629"
     d="m 159,191 c 0,0 68,42.32 68,42.32 0,0 15,9.48 15,9.48 0,0 6.4,5.41 6.4,5.41 0,0 0.6,10.79 0.6,10.79 0,0 -1.02,5.82 -1.02,5.82 0,0 -19.98,13.84 -19.98,13.84 0,0 -70,43.34 -70,43.34 0,0 0,-13 0,-13 0,0 0.57,-6.68 0.57,-6.68 0,0 16.43,-11.9 16.43,-11.9 0,0 30,-19.11 30,-19.11 0,0 23,-14.31 23,-14.31 0,0 -52,-34 -52,-34 0,0 -17.43,-12.33 -17.43,-12.33 0,0 -0.57,-6.67 -0.57,-6.67 0,0 1,-13 1,-13 z"
     id="path1015" />
</svg>
