<?xml version="1.0" encoding="UTF-8" standalone="no"?>
<!DOCTYPE svg PUBLIC "-//W3C//DTD SVG 1.1//EN"
 "http://www.w3.org/Graphics/SVG/1.1/DTD/svg11.dtd">
<!-- Generated by graphviz version 2.43.0 (0)
 -->
<!-- Title: G Pages: 1 -->
<svg width="95pt" height="126pt"
 viewBox="0.00 0.00 95.25 125.92" xmlns="http://www.w3.org/2000/svg" xmlns:xlink="http://www.w3.org/1999/xlink">
<g id="graph0" class="graph" transform="scale(1 1) rotate(0) translate(4 121.92)">
<title>G</title><style>.edge>path:hover{stroke-width:8}</style>
<polygon fill="white" stroke="transparent" points="-4,4 -4,-121.92 91.25,-121.92 91.25,4 -4,4"/>
<!-- pytermor_utilstr -->
<g id="node1" class="node">
<title>pytermor_utilstr</title><style>.edge>path:hover{stroke-width:8}</style>
<polygon fill="#17d317" stroke="black" points="87.38,-85.47 87.38,-104.46 61.75,-117.88 25.5,-117.88 -0.13,-104.46 -0.13,-85.47 25.5,-72.04 61.75,-72.04 87.38,-85.47"/>
<text text-anchor="middle" x="43.63" y="-97.96" font-family="Helvetica,sans-Serif" font-size="10.00" fill="#000000">pytermor.</text>
<text text-anchor="middle" x="43.63" y="-86.96" font-family="Helvetica,sans-Serif" font-size="10.00" fill="#000000">utilstr</text>
</g>
<!-- pytermor -->
<g id="node2" class="node">
<title>pytermor</title><style>.edge>path:hover{stroke-width:8}</style>
<polygon fill="#1e7a1e" stroke="black" points="78.71,-10.54 78.71,-25.46 58.16,-36 29.09,-36 8.54,-25.46 8.54,-10.54 29.09,0 58.16,0 78.71,-10.54"/>
<text text-anchor="middle" x="43.63" y="-15.5" font-family="Helvetica,sans-Serif" font-size="10.00" fill="#ffffff">pytermor</text>
</g>
<!-- pytermor_utilstr&#45;&gt;pytermor -->
<g id="edge2" class="edge">
<title>pytermor_utilstr&#45;&gt;pytermor</title><style>.edge>path:hover{stroke-width:8}</style>
<path fill="none" stroke="black" d="M37.41,-71.88C36.82,-63.86 36.72,-54.71 37.1,-46.29"/>
<polygon fill="#17d317" stroke="black" points="40.6,-46.4 37.85,-36.17 33.62,-45.89 40.6,-46.4"/>
</g>
<!-- pytermor&#45;&gt;pytermor_utilstr -->
<g id="edge1" class="edge">
<title>pytermor&#45;&gt;pytermor_utilstr</title><style>.edge>path:hover{stroke-width:8}</style>
<path fill="none" stroke="black" d="M49.4,-36.17C50.21,-43.79 50.52,-53.01 50.31,-61.83"/>
<polygon fill="#1e7a1e" stroke="black" points="46.82,-61.72 49.84,-71.88 53.81,-62.05 46.82,-61.72"/>
</g>
</g>
</svg>
