<?xml version="1.0" encoding="UTF-8" standalone="no"?>
<!DOCTYPE svg PUBLIC "-//W3C//DTD SVG 1.1//EN"
 "http://www.w3.org/Graphics/SVG/1.1/DTD/svg11.dtd">
<!-- Generated by graphviz version 2.43.0 (0)
 -->
<!-- Title: G Pages: 1 -->
<svg width="102pt" height="116pt"
 viewBox="0.00 0.00 102.30 116.00" xmlns="http://www.w3.org/2000/svg" xmlns:xlink="http://www.w3.org/1999/xlink">
<g id="graph0" class="graph" transform="scale(1 1) rotate(0) translate(4 112)">
<title>G</title><style>.edge>path:hover{stroke-width:8}</style>
<polygon fill="white" stroke="transparent" points="-4,4 -4,-112 98.3,-112 98.3,4 -4,4"/>
<!-- pytermor_text -->
<g id="node1" class="node">
<title>pytermor_text</title><style>.edge>path:hover{stroke-width:8}</style>
<polygon fill="#35a135" stroke="black" points="94.45,-82.54 94.45,-97.46 66.74,-108 27.56,-108 -0.15,-97.46 -0.15,-82.54 27.56,-72 66.74,-72 94.45,-82.54"/>
<text text-anchor="middle" x="47.15" y="-87.5" font-family="Helvetica,sans-Serif" font-size="10.00" fill="#ffffff">pytermor.text</text>
</g>
<!-- pytermor -->
<g id="node2" class="node">
<title>pytermor</title><style>.edge>path:hover{stroke-width:8}</style>
<polygon fill="#35a135" stroke="black" points="82.24,-10.54 82.24,-25.46 61.68,-36 32.62,-36 12.06,-25.46 12.06,-10.54 32.62,0 61.68,0 82.24,-10.54"/>
<text text-anchor="middle" x="47.15" y="-15.5" font-family="Helvetica,sans-Serif" font-size="10.00" fill="#ffffff">pytermor</text>
</g>
<!-- pytermor_text&#45;&gt;pytermor -->
<g id="edge2" class="edge">
<title>pytermor_text&#45;&gt;pytermor</title><style>.edge>path:hover{stroke-width:8}</style>
<path fill="none" stroke="black" d="M41.23,-71.7C40.44,-63.98 40.21,-54.71 40.55,-46.11"/>
<polygon fill="#35a135" stroke="black" points="44.05,-46.32 41.26,-36.1 37.07,-45.84 44.05,-46.32"/>
</g>
<!-- pytermor&#45;&gt;pytermor_text -->
<g id="edge1" class="edge">
<title>pytermor&#45;&gt;pytermor_text</title><style>.edge>path:hover{stroke-width:8}</style>
<path fill="none" stroke="black" d="M53.05,-36.1C53.85,-43.79 54.09,-53.05 53.75,-61.67"/>
<polygon fill="#35a135" stroke="black" points="50.26,-61.48 53.07,-71.7 57.24,-61.96 50.26,-61.48"/>
</g>
</g>
</svg>
