<?xml version="1.0" encoding="UTF-8" standalone="no"?>
<!DOCTYPE svg PUBLIC "-//W3C//DTD SVG 1.1//EN"
 "http://www.w3.org/Graphics/SVG/1.1/DTD/svg11.dtd">
<!-- Generated by graphviz version 2.43.0 (0)
 -->
<!-- Title: G Pages: 1 -->
<svg width="95pt" height="126pt"
 viewBox="0.00 0.00 95.25 125.92" xmlns="http://www.w3.org/2000/svg" xmlns:xlink="http://www.w3.org/1999/xlink">
<g id="graph0" class="graph" transform="scale(1 1) rotate(0) translate(4 121.92)">
<title>G</title><style>.edge>path:hover{stroke-width:8}</style>
<polygon fill="white" stroke="transparent" points="-4,4 -4,-121.92 91.25,-121.92 91.25,4 -4,4"/>
<!-- pytermor -->
<g id="node1" class="node">
<title>pytermor</title><style>.edge>path:hover{stroke-width:8}</style>
<polygon fill="#38a838" stroke="black" points="78.71,-92.47 78.71,-107.38 58.16,-117.92 29.09,-117.92 8.54,-107.38 8.54,-92.47 29.09,-81.92 58.16,-81.92 78.71,-92.47"/>
<text text-anchor="middle" x="43.63" y="-97.42" font-family="Helvetica,sans-Serif" font-size="10.00" fill="#ffffff">pytermor</text>
</g>
<!-- pytermor_render -->
<g id="node2" class="node">
<title>pytermor_render</title><style>.edge>path:hover{stroke-width:8}</style>
<polygon fill="#339933" stroke="black" points="87.38,-13.47 87.38,-32.46 61.75,-45.88 25.5,-45.88 -0.13,-32.46 -0.13,-13.47 25.5,-0.04 61.75,-0.04 87.38,-13.47"/>
<text text-anchor="middle" x="43.63" y="-25.96" font-family="Helvetica,sans-Serif" font-size="10.00" fill="#ffffff">pytermor.</text>
<text text-anchor="middle" x="43.63" y="-14.96" font-family="Helvetica,sans-Serif" font-size="10.00" fill="#ffffff">render</text>
</g>
<!-- pytermor&#45;&gt;pytermor_render -->
<g id="edge1" class="edge">
<title>pytermor&#45;&gt;pytermor_render</title><style>.edge>path:hover{stroke-width:8}</style>
<path fill="none" stroke="black" d="M37.87,-81.91C37.04,-74.27 36.73,-65 36.94,-56.13"/>
<polygon fill="#38a838" stroke="black" points="40.44,-56.18 37.41,-46.03 33.45,-55.85 40.44,-56.18"/>
</g>
<!-- pytermor_render&#45;&gt;pytermor -->
<g id="edge2" class="edge">
<title>pytermor_render&#45;&gt;pytermor</title><style>.edge>path:hover{stroke-width:8}</style>
<path fill="none" stroke="black" d="M49.84,-46.03C50.43,-54.09 50.53,-63.3 50.14,-71.75"/>
<polygon fill="#339933" stroke="black" points="46.64,-71.68 49.39,-81.91 53.62,-72.2 46.64,-71.68"/>
</g>
</g>
</svg>
