<?xml version="1.0" encoding="UTF-8" standalone="no"?>
<!DOCTYPE svg PUBLIC "-//W3C//DTD SVG 1.1//EN"
 "http://www.w3.org/Graphics/SVG/1.1/DTD/svg11.dtd">
<!-- Generated by graphviz version 2.43.0 (0)
 -->
<!-- Title: G Pages: 1 -->
<svg width="145pt" height="270pt"
 viewBox="0.00 0.00 144.85 269.92" xmlns="http://www.w3.org/2000/svg" xmlns:xlink="http://www.w3.org/1999/xlink">
<g id="graph0" class="graph" transform="scale(1 1) rotate(0) translate(4 265.92)">
<title>G</title><style>.edge>path:hover{stroke-width:8}</style>
<polygon fill="white" stroke="transparent" points="-4,4 -4,-265.92 140.85,-265.92 140.85,4 -4,4"/>
<!-- pytermor_renderer -->
<g id="node1" class="node">
<title>pytermor_renderer</title><style>.edge>path:hover{stroke-width:8}</style>
<polygon fill="#2bac2b" stroke="black" points="127.9,-229.47 127.9,-248.46 102.27,-261.88 66.03,-261.88 40.4,-248.46 40.4,-229.47 66.03,-216.04 102.27,-216.04 127.9,-229.47"/>
<text text-anchor="middle" x="84.15" y="-241.96" font-family="Helvetica,sans-Serif" font-size="10.00" fill="#ffffff">pytermor.</text>
<text text-anchor="middle" x="84.15" y="-230.96" font-family="Helvetica,sans-Serif" font-size="10.00" fill="#ffffff">renderer</text>
</g>
<!-- pytermor_text -->
<g id="node2" class="node">
<title>pytermor_text</title><style>.edge>path:hover{stroke-width:8}</style>
<polygon fill="#339933" stroke="black" points="94.45,-154.54 94.45,-169.46 66.74,-180 27.56,-180 -0.15,-169.46 -0.15,-154.54 27.56,-144 66.74,-144 94.45,-154.54"/>
<text text-anchor="middle" x="47.15" y="-159.5" font-family="Helvetica,sans-Serif" font-size="10.00" fill="#ffffff">pytermor.text</text>
</g>
<!-- pytermor_renderer&#45;&gt;pytermor_text -->
<g id="edge2" class="edge">
<title>pytermor_renderer&#45;&gt;pytermor_text</title><style>.edge>path:hover{stroke-width:8}</style>
<path fill="none" stroke="black" d="M73.25,-215.88C69.12,-207.5 64.37,-197.89 60.07,-189.18"/>
<polygon fill="#2bac2b" stroke="black" points="63.19,-187.59 55.63,-180.17 56.91,-190.69 63.19,-187.59"/>
</g>
<!-- pytermor -->
<g id="node3" class="node">
<title>pytermor</title><style>.edge>path:hover{stroke-width:8}</style>
<polygon fill="#1e7a1e" stroke="black" points="88.24,-82.54 88.24,-97.46 67.68,-108 38.62,-108 18.06,-97.46 18.06,-82.54 38.62,-72 67.68,-72 88.24,-82.54"/>
<text text-anchor="middle" x="53.15" y="-87.5" font-family="Helvetica,sans-Serif" font-size="10.00" fill="#ffffff">pytermor</text>
</g>
<!-- pytermor_text&#45;&gt;pytermor -->
<g id="edge4" class="edge">
<title>pytermor_text&#45;&gt;pytermor</title><style>.edge>path:hover{stroke-width:8}</style>
<path fill="none" stroke="black" d="M48.63,-143.7C49.29,-135.98 50.09,-126.71 50.83,-118.11"/>
<polygon fill="#339933" stroke="black" points="54.32,-118.37 51.68,-108.1 47.34,-117.77 54.32,-118.37"/>
</g>
<!-- pytermor_style -->
<g id="node4" class="node">
<title>pytermor_style</title><style>.edge>path:hover{stroke-width:8}</style>
<polygon fill="#23c823" stroke="black" points="137.05,-10.54 137.05,-25.46 107.82,-36 66.48,-36 37.25,-25.46 37.25,-10.54 66.48,0 107.82,0 137.05,-10.54"/>
<text text-anchor="middle" x="87.15" y="-15.5" font-family="Helvetica,sans-Serif" font-size="10.00" fill="#000000">pytermor.style</text>
</g>
<!-- pytermor&#45;&gt;pytermor_style -->
<g id="edge1" class="edge">
<title>pytermor&#45;&gt;pytermor_style</title><style>.edge>path:hover{stroke-width:8}</style>
<path fill="none" stroke="black" d="M61.55,-71.7C65.42,-63.73 70.1,-54.1 74.39,-45.26"/>
<polygon fill="#1e7a1e" stroke="black" points="77.62,-46.63 78.84,-36.1 71.32,-43.57 77.62,-46.63"/>
</g>
<!-- pytermor_style&#45;&gt;pytermor_renderer -->
<g id="edge3" class="edge">
<title>pytermor_style&#45;&gt;pytermor_renderer</title><style>.edge>path:hover{stroke-width:8}</style>
<path fill="none" stroke="black" d="M91.7,-36.01C98.95,-65.47 111.48,-127.85 103.15,-180 101.76,-188.72 99.26,-197.91 96.52,-206.33"/>
<polygon fill="#23c823" stroke="black" points="93.2,-205.21 93.24,-215.8 99.82,-207.49 93.2,-205.21"/>
</g>
</g>
</svg>
