<?xml version="1.0" encoding="UTF-8" standalone="no"?>
<!DOCTYPE svg PUBLIC "-//W3C//DTD SVG 1.1//EN"
 "http://www.w3.org/Graphics/SVG/1.1/DTD/svg11.dtd">
<!-- Generated by graphviz version 2.43.0 (0)
 -->
<!-- Title: G Pages: 1 -->
<svg width="124pt" height="198pt"
 viewBox="0.00 0.00 123.74 197.92" xmlns="http://www.w3.org/2000/svg" xmlns:xlink="http://www.w3.org/1999/xlink">
<g id="graph0" class="graph" transform="scale(1 1) rotate(0) translate(4 193.92)">
<title>G</title><style>.edge>path:hover{stroke-width:8}</style>
<polygon fill="white" stroke="transparent" points="-4,4 -4,-193.92 119.74,-193.92 119.74,4 -4,4"/>
<!-- pytermor_renderer -->
<g id="node1" class="node">
<title>pytermor_renderer</title><style>.edge>path:hover{stroke-width:8}</style>
<polygon fill="#2bac2b" stroke="black" points="109.8,-157.47 109.8,-176.46 84.17,-189.88 47.92,-189.88 22.29,-176.46 22.29,-157.47 47.92,-144.04 84.17,-144.04 109.8,-157.47"/>
<text text-anchor="middle" x="66.04" y="-169.96" font-family="Helvetica,sans-Serif" font-size="10.00" fill="#ffffff">pytermor.</text>
<text text-anchor="middle" x="66.04" y="-158.96" font-family="Helvetica,sans-Serif" font-size="10.00" fill="#ffffff">renderer</text>
</g>
<!-- pytermor -->
<g id="node3" class="node">
<title>pytermor</title><style>.edge>path:hover{stroke-width:8}</style>
<polygon fill="#267326" stroke="black" points="70.13,-82.54 70.13,-97.46 49.58,-108 20.51,-108 -0.04,-97.46 -0.04,-82.54 20.51,-72 49.58,-72 70.13,-82.54"/>
<text text-anchor="middle" x="35.04" y="-87.5" font-family="Helvetica,sans-Serif" font-size="10.00" fill="#ffffff">pytermor</text>
</g>
<!-- pytermor_renderer&#45;&gt;pytermor -->
<g id="edge2" class="edge">
<title>pytermor_renderer&#45;&gt;pytermor</title><style>.edge>path:hover{stroke-width:8}</style>
<path fill="none" stroke="black" d="M56.91,-143.88C53.48,-135.59 49.56,-126.09 45.98,-117.45"/>
<polygon fill="#2bac2b" stroke="black" points="49.2,-116.08 42.15,-108.17 42.73,-118.75 49.2,-116.08"/>
</g>
<!-- pytermor_style -->
<g id="node2" class="node">
<title>pytermor_style</title><style>.edge>path:hover{stroke-width:8}</style>
<polygon fill="#21bf21" stroke="black" points="115.94,-10.54 115.94,-25.46 86.71,-36 45.38,-36 16.15,-25.46 16.15,-10.54 45.38,0 86.71,0 115.94,-10.54"/>
<text text-anchor="middle" x="66.04" y="-15.5" font-family="Helvetica,sans-Serif" font-size="10.00" fill="#ffffff">pytermor.style</text>
</g>
<!-- pytermor_style&#45;&gt;pytermor_renderer -->
<g id="edge3" class="edge">
<title>pytermor_style&#45;&gt;pytermor_renderer</title><style>.edge>path:hover{stroke-width:8}</style>
<path fill="none" stroke="black" d="M71.45,-36.47C74.34,-46.71 77.59,-59.96 79.04,-72 80.96,-87.88 80.81,-92.1 79.04,-108 78.1,-116.53 76.4,-125.63 74.53,-134.04"/>
<polygon fill="#21bf21" stroke="black" points="71.1,-133.32 72.2,-143.86 77.91,-134.93 71.1,-133.32"/>
</g>
<!-- pytermor&#45;&gt;pytermor_style -->
<g id="edge1" class="edge">
<title>pytermor&#45;&gt;pytermor_style</title><style>.edge>path:hover{stroke-width:8}</style>
<path fill="none" stroke="black" d="M42.71,-71.7C46.24,-63.73 50.5,-54.1 54.41,-45.26"/>
<polygon fill="#267326" stroke="black" points="57.62,-46.67 58.47,-36.1 51.22,-43.83 57.62,-46.67"/>
</g>
</g>
</svg>
