<?xml version="1.0" encoding="UTF-8" standalone="no"?>
<!DOCTYPE svg PUBLIC "-//W3C//DTD SVG 1.1//EN"
 "http://www.w3.org/Graphics/SVG/1.1/DTD/svg11.dtd">
<!-- Generated by graphviz version 2.43.0 (0)
 -->
<!-- Title: G Pages: 1 -->
<svg width="120pt" height="116pt"
 viewBox="0.00 0.00 120.14 116.00" xmlns="http://www.w3.org/2000/svg" xmlns:xlink="http://www.w3.org/1999/xlink">
<g id="graph0" class="graph" transform="scale(1 1) rotate(0) translate(4 112)">
<title>G</title><style>.edge>path:hover{stroke-width:8}</style>
<polygon fill="white" stroke="transparent" points="-4,4 -4,-112 116.14,-112 116.14,4 -4,4"/>
<!-- pytermor_style -->
<g id="node1" class="node">
<title>pytermor_style</title><style>.edge>path:hover{stroke-width:8}</style>
<polygon fill="#21bf21" stroke="black" points="112.21,-82.54 112.21,-97.46 79.32,-108 32.82,-108 -0.07,-97.46 -0.07,-82.54 32.82,-72 79.32,-72 112.21,-82.54"/>
<text text-anchor="middle" x="56.07" y="-87.5" font-family="Helvetica,sans-Serif" font-size="10.00" fill="#ffffff">pytermor.style</text>
</g>
<!-- pytermor -->
<g id="node2" class="node">
<title>pytermor</title><style>.edge>path:hover{stroke-width:8}</style>
<polygon fill="#267326" stroke="black" points="95.58,-10.54 95.58,-25.46 72.44,-36 39.71,-36 16.56,-25.46 16.56,-10.54 39.71,0 72.44,0 95.58,-10.54"/>
<text text-anchor="middle" x="56.07" y="-15.5" font-family="Helvetica,sans-Serif" font-size="10.00" fill="#ffffff">pytermor</text>
</g>
<!-- pytermor_style&#45;&gt;pytermor -->
<g id="edge2" class="edge">
<title>pytermor_style&#45;&gt;pytermor</title><style>.edge>path:hover{stroke-width:8}</style>
<path fill="none" stroke="black" d="M50.15,-71.7C49.36,-63.98 49.13,-54.71 49.48,-46.11"/>
<polygon fill="#21bf21" stroke="black" points="52.97,-46.32 50.18,-36.1 45.99,-45.84 52.97,-46.32"/>
</g>
<!-- pytermor&#45;&gt;pytermor_style -->
<g id="edge1" class="edge">
<title>pytermor&#45;&gt;pytermor_style</title><style>.edge>path:hover{stroke-width:8}</style>
<path fill="none" stroke="black" d="M61.97,-36.1C62.77,-43.79 63.01,-53.05 62.67,-61.67"/>
<polygon fill="#267326" stroke="black" points="59.18,-61.48 61.99,-71.7 66.16,-61.96 59.18,-61.48"/>
</g>
</g>
</svg>
