<?xml version="1.0" encoding="UTF-8" standalone="no"?>
<!DOCTYPE svg PUBLIC "-//W3C//DTD SVG 1.1//EN"
 "http://www.w3.org/Graphics/SVG/1.1/DTD/svg11.dtd">
<!-- Generated by graphviz version 2.43.0 (0)
 -->
<!-- Title: G Pages: 1 -->
<svg width="144pt" height="270pt"
 viewBox="0.00 0.00 143.85 269.92" xmlns="http://www.w3.org/2000/svg" xmlns:xlink="http://www.w3.org/1999/xlink">
<g id="graph0" class="graph" transform="scale(1 1) rotate(0) translate(4 265.92)">
<title>G</title><style>.edge>path:hover{stroke-width:8}</style>
<polygon fill="white" stroke="transparent" points="-4,4 -4,-265.92 139.85,-265.92 139.85,4 -4,4"/>
<!-- pytermor -->
<g id="node1" class="node">
<title>pytermor</title><style>.edge>path:hover{stroke-width:8}</style>
<polygon fill="#1e7a1e" stroke="black" points="123.79,-236.47 123.79,-251.38 103.23,-261.92 74.16,-261.92 53.61,-251.38 53.61,-236.47 74.16,-225.92 103.23,-225.92 123.79,-236.47"/>
<text text-anchor="middle" x="88.7" y="-241.42" font-family="Helvetica,sans-Serif" font-size="10.00" fill="#ffffff">pytermor</text>
</g>
<!-- pytermor_style -->
<g id="node3" class="node">
<title>pytermor_style</title><style>.edge>path:hover{stroke-width:8}</style>
<polygon fill="#23c823" stroke="black" points="99.6,-164.47 99.6,-179.38 70.37,-189.92 29.03,-189.92 -0.2,-179.38 -0.2,-164.47 29.03,-153.92 70.37,-153.92 99.6,-164.47"/>
<text text-anchor="middle" x="49.7" y="-169.42" font-family="Helvetica,sans-Serif" font-size="10.00" fill="#000000">pytermor.style</text>
</g>
<!-- pytermor&#45;&gt;pytermor_style -->
<g id="edge1" class="edge">
<title>pytermor&#45;&gt;pytermor_style</title><style>.edge>path:hover{stroke-width:8}</style>
<path fill="none" stroke="black" d="M79.06,-225.62C74.57,-217.57 69.14,-207.82 64.17,-198.9"/>
<polygon fill="#1e7a1e" stroke="black" points="67.15,-197.06 59.23,-190.03 61.04,-200.47 67.15,-197.06"/>
</g>
<!-- pytermor_text -->
<g id="node2" class="node">
<title>pytermor_text</title><style>.edge>path:hover{stroke-width:8}</style>
<polygon fill="#339933" stroke="black" points="136,-10.54 136,-25.46 108.29,-36 69.11,-36 41.4,-25.46 41.4,-10.54 69.11,0 108.29,0 136,-10.54"/>
<text text-anchor="middle" x="88.7" y="-15.5" font-family="Helvetica,sans-Serif" font-size="10.00" fill="#ffffff">pytermor.text</text>
</g>
<!-- pytermor_text&#45;&gt;pytermor -->
<g id="edge4" class="edge">
<title>pytermor_text&#45;&gt;pytermor</title><style>.edge>path:hover{stroke-width:8}</style>
<path fill="none" stroke="black" d="M95.6,-36.36C99.31,-46.57 103.56,-59.82 105.7,-72 109.44,-93.37 112.36,-169.86 108.7,-189.92 107.09,-198.73 104.1,-207.97 100.91,-216.22"/>
<polygon fill="#339933" stroke="black" points="97.58,-215.13 97,-225.71 104.05,-217.8 97.58,-215.13"/>
</g>
<!-- pytermor_renderer -->
<g id="node4" class="node">
<title>pytermor_renderer</title><style>.edge>path:hover{stroke-width:8}</style>
<polygon fill="#28a328" stroke="black" points="96.45,-85.47 96.45,-104.46 70.82,-117.88 34.58,-117.88 8.95,-104.46 8.95,-85.47 34.58,-72.04 70.82,-72.04 96.45,-85.47"/>
<text text-anchor="middle" x="52.7" y="-97.96" font-family="Helvetica,sans-Serif" font-size="10.00" fill="#ffffff">pytermor.</text>
<text text-anchor="middle" x="52.7" y="-86.96" font-family="Helvetica,sans-Serif" font-size="10.00" fill="#ffffff">renderer</text>
</g>
<!-- pytermor_style&#45;&gt;pytermor_renderer -->
<g id="edge3" class="edge">
<title>pytermor_style&#45;&gt;pytermor_renderer</title><style>.edge>path:hover{stroke-width:8}</style>
<path fill="none" stroke="black" d="M50.38,-153.91C50.69,-146.27 51.06,-137 51.41,-128.13"/>
<polygon fill="#23c823" stroke="black" points="54.91,-128.16 51.82,-118.03 47.92,-127.88 54.91,-128.16"/>
</g>
<!-- pytermor_renderer&#45;&gt;pytermor_text -->
<g id="edge2" class="edge">
<title>pytermor_renderer&#45;&gt;pytermor_text</title><style>.edge>path:hover{stroke-width:8}</style>
<path fill="none" stroke="black" d="M63.31,-71.88C67.28,-63.59 71.85,-54.09 75.99,-45.45"/>
<polygon fill="#28a328" stroke="black" points="79.28,-46.7 80.45,-36.17 72.97,-43.67 79.28,-46.7"/>
</g>
</g>
</svg>
