<?xml version="1.0" encoding="UTF-8" standalone="no"?>
<!DOCTYPE svg PUBLIC "-//W3C//DTD SVG 1.1//EN"
 "http://www.w3.org/Graphics/SVG/1.1/DTD/svg11.dtd">
<!-- Generated by graphviz version 2.43.0 (0)
 -->
<!-- Title: G Pages: 1 -->
<svg width="484pt" height="629pt"
 viewBox="0.00 0.00 484.00 628.71" xmlns="http://www.w3.org/2000/svg" xmlns:xlink="http://www.w3.org/1999/xlink">
<g id="graph0" class="graph" transform="scale(1 1) rotate(0) translate(4 624.71)">
<title>G</title><style>.edge>path:hover{stroke-width:8}</style>
<polygon fill="white" stroke="transparent" points="-4,4 -4,-624.71 480,-624.71 480,4 -4,4"/>
<g id="clust1" class="cluster">
<title>cluster_pytermor</title><style>.edge>path:hover{stroke-width:8}</style>
<polygon fill="none" stroke="black" points="8,-8 8,-612.71 468,-612.71 468,-8 8,-8"/>
<text text-anchor="middle" x="238" y="-597.51" font-family="Times,serif" font-size="14.00">pytermor</text>
</g>
<!-- pytermor -->
<g id="node1" class="node">
<title>pytermor</title><style>.edge>path:hover{stroke-width:8}</style>
<ellipse fill="#732626" stroke="black" cx="117" cy="-34" rx="32.25" ry="18"/>
<text text-anchor="middle" x="117" y="-31.5" font-family="Helvetica,sans-Serif" font-size="10.00" fill="#ffffff">pytermor</text>
</g>
<!-- pytermor__version -->
<g id="node2" class="node">
<title>pytermor__version</title><style>.edge>path:hover{stroke-width:8}</style>
<ellipse fill="#c24747" stroke="black" cx="420" cy="-109.21" rx="40.11" ry="21.43"/>
<text text-anchor="middle" x="420" y="-112.21" font-family="Helvetica,sans-Serif" font-size="10.00" fill="#ffffff">pytermor.</text>
<text text-anchor="middle" x="420" y="-101.21" font-family="Helvetica,sans-Serif" font-size="10.00" fill="#ffffff">_version</text>
</g>
<!-- pytermor__version&#45;&gt;pytermor -->
<g id="edge1" class="edge">
<title>pytermor__version&#45;&gt;pytermor</title><style>.edge>path:hover{stroke-width:8}</style>
<path fill="none" stroke="black" d="M388.86,-95.66C381.44,-92.92 373.5,-90.19 366,-88 293.71,-66.9 207.35,-50.41 157.67,-41.74"/>
<polygon fill="#000000" stroke="black" points="158.09,-38.26 147.64,-40.01 156.9,-45.16 158.09,-38.26"/>
</g>
<!-- pytermor_ansi -->
<g id="node3" class="node">
<title>pytermor_ansi</title><style>.edge>path:hover{stroke-width:8}</style>
<ellipse fill="#e61919" stroke="black" cx="118" cy="-485.28" rx="44.3" ry="18"/>
<text text-anchor="middle" x="118" y="-482.78" font-family="Helvetica,sans-Serif" font-size="10.00" fill="#ffffff">pytermor.ansi</text>
</g>
<!-- pytermor_ansi&#45;&gt;pytermor -->
<g id="edge2" class="edge">
<title>pytermor_ansi&#45;&gt;pytermor</title><style>.edge>path:hover{stroke-width:8}</style>
<path fill="none" stroke="black" d="M99.79,-468.62C89.3,-458.78 76.54,-445.34 68,-431.28 46.26,-395.48 37,-384.17 37,-342.28 37,-342.28 37,-342.28 37,-186.64 37,-141.99 33.71,-126.68 56,-88 63.72,-74.6 76.11,-62.91 87.7,-53.95"/>
<polygon fill="#000000" stroke="black" points="89.94,-56.65 95.93,-47.92 85.8,-51.01 89.94,-56.65"/>
</g>
<!-- pytermor_color -->
<g id="node4" class="node">
<title>pytermor_color</title><style>.edge>path:hover{stroke-width:8}</style>
<ellipse fill="#e90c0c" stroke="black" cx="183" cy="-413.28" rx="45.83" ry="18"/>
<text text-anchor="middle" x="183" y="-410.78" font-family="Helvetica,sans-Serif" font-size="10.00" fill="#ffffff">pytermor.color</text>
</g>
<!-- pytermor_ansi&#45;&gt;pytermor_color -->
<g id="edge3" class="edge">
<title>pytermor_ansi&#45;&gt;pytermor_color</title><style>.edge>path:hover{stroke-width:8}</style>
<path fill="none" stroke="black" d="M133.08,-468.04C141.36,-459.12 151.79,-447.89 160.97,-438"/>
<polygon fill="#000000" stroke="black" points="163.77,-440.14 168.01,-430.43 158.64,-435.37 163.77,-440.14"/>
</g>
<!-- pytermor_cval -->
<g id="node6" class="node">
<title>pytermor_cval</title><style>.edge>path:hover{stroke-width:8}</style>
<ellipse fill="#c43131" stroke="black" cx="120" cy="-341.28" rx="44.3" ry="18"/>
<text text-anchor="middle" x="120" y="-338.78" font-family="Helvetica,sans-Serif" font-size="10.00" fill="#ffffff">pytermor.cval</text>
</g>
<!-- pytermor_ansi&#45;&gt;pytermor_cval -->
<g id="edge4" class="edge">
<title>pytermor_ansi&#45;&gt;pytermor_cval</title><style>.edge>path:hover{stroke-width:8}</style>
<path fill="none" stroke="black" d="M118.24,-467.15C118.58,-442.95 119.21,-398.49 119.61,-369.67"/>
<polygon fill="#000000" stroke="black" points="123.12,-369.52 119.76,-359.47 116.12,-369.42 123.12,-369.52"/>
</g>
<!-- pytermor_renderer -->
<g id="node7" class="node">
<title>pytermor_renderer</title><style>.edge>path:hover{stroke-width:8}</style>
<ellipse fill="#ac2b2b" stroke="black" cx="207" cy="-187.64" rx="40.11" ry="21.43"/>
<text text-anchor="middle" x="207" y="-190.64" font-family="Helvetica,sans-Serif" font-size="10.00" fill="#ffffff">pytermor.</text>
<text text-anchor="middle" x="207" y="-179.64" font-family="Helvetica,sans-Serif" font-size="10.00" fill="#ffffff">renderer</text>
</g>
<!-- pytermor_ansi&#45;&gt;pytermor_renderer -->
<g id="edge5" class="edge">
<title>pytermor_ansi&#45;&gt;pytermor_renderer</title><style>.edge>path:hover{stroke-width:8}</style>
<path fill="none" stroke="black" d="M106.39,-467.58C87.66,-438.58 54.12,-376.88 67,-323.28 76.14,-285.23 79.9,-273.07 107,-244.85 123.36,-227.82 146.02,-214.5 165.64,-205.12"/>
<polygon fill="#000000" stroke="black" points="167.35,-208.18 174.98,-200.82 164.43,-201.82 167.35,-208.18"/>
</g>
<!-- pytermor_color&#45;&gt;pytermor -->
<g id="edge6" class="edge">
<title>pytermor_color&#45;&gt;pytermor</title><style>.edge>path:hover{stroke-width:8}</style>
<path fill="none" stroke="black" d="M185.47,-395.3C187.33,-376.14 187.48,-344.83 173,-323.28 154.36,-295.55 124.42,-315.79 107,-287.28 63.26,-215.69 90.51,-110.14 107.05,-61.42"/>
<polygon fill="#000000" stroke="black" points="110.38,-62.51 110.39,-51.92 103.77,-60.19 110.38,-62.51"/>
</g>
<!-- pytermor_color&#45;&gt;pytermor_cval -->
<g id="edge7" class="edge">
<title>pytermor_color&#45;&gt;pytermor_cval</title><style>.edge>path:hover{stroke-width:8}</style>
<path fill="none" stroke="black" d="M168.39,-396.04C160.36,-387.12 150.25,-375.89 141.35,-366"/>
<polygon fill="#000000" stroke="black" points="143.82,-363.52 134.53,-358.43 138.62,-368.2 143.82,-363.52"/>
</g>
<!-- pytermor_color&#45;&gt;pytermor_renderer -->
<g id="edge8" class="edge">
<title>pytermor_color&#45;&gt;pytermor_renderer</title><style>.edge>path:hover{stroke-width:8}</style>
<path fill="none" stroke="black" d="M189.21,-395.19C197.49,-371.39 211.73,-326.74 217,-287.28 219.5,-268.59 218.66,-263.64 217,-244.85 216.25,-236.38 214.88,-227.28 213.39,-218.91"/>
<polygon fill="#000000" stroke="black" points="216.78,-217.99 211.48,-208.82 209.9,-219.3 216.78,-217.99"/>
</g>
<!-- pytermor_style -->
<g id="node8" class="node">
<title>pytermor_style</title><style>.edge>path:hover{stroke-width:8}</style>
<ellipse fill="#bf2121" stroke="black" cx="162" cy="-266.07" rx="45.83" ry="18"/>
<text text-anchor="middle" x="162" y="-263.57" font-family="Helvetica,sans-Serif" font-size="10.00" fill="#ffffff">pytermor.style</text>
</g>
<!-- pytermor_color&#45;&gt;pytermor_style -->
<g id="edge9" class="edge">
<title>pytermor_color&#45;&gt;pytermor_style</title><style>.edge>path:hover{stroke-width:8}</style>
<path fill="none" stroke="black" d="M186.65,-395.33C189.91,-377.26 193.42,-347.92 188,-323.28 185.74,-312.99 181.4,-302.34 176.9,-293.12"/>
<polygon fill="#000000" stroke="black" points="179.94,-291.38 172.24,-284.1 173.72,-294.59 179.94,-291.38"/>
</g>
<!-- pytermor_text -->
<g id="node9" class="node">
<title>pytermor_text</title><style>.edge>path:hover{stroke-width:8}</style>
<ellipse fill="#993333" stroke="black" cx="180" cy="-109.21" rx="43.62" ry="18"/>
<text text-anchor="middle" x="180" y="-106.71" font-family="Helvetica,sans-Serif" font-size="10.00" fill="#ffffff">pytermor.text</text>
</g>
<!-- pytermor_color&#45;&gt;pytermor_text -->
<g id="edge10" class="edge">
<title>pytermor_color&#45;&gt;pytermor_text</title><style>.edge>path:hover{stroke-width:8}</style>
<path fill="none" stroke="black" d="M196.1,-395.71C226.6,-354.97 296.79,-247.33 256,-166.43 247.8,-150.16 232.43,-137.44 217.65,-128.24"/>
<polygon fill="#000000" stroke="black" points="218.99,-124.97 208.58,-122.97 215.47,-131.02 218.99,-124.97"/>
</g>
<!-- pytermor_common -->
<g id="node5" class="node">
<title>pytermor_common</title><style>.edge>path:hover{stroke-width:8}</style>
<ellipse fill="#f91010" stroke="black" cx="265" cy="-560.49" rx="40.11" ry="21.43"/>
<text text-anchor="middle" x="265" y="-563.49" font-family="Helvetica,sans-Serif" font-size="10.00" fill="#ffffff">pytermor.</text>
<text text-anchor="middle" x="265" y="-552.49" font-family="Helvetica,sans-Serif" font-size="10.00" fill="#ffffff">common</text>
</g>
<!-- pytermor_common&#45;&gt;pytermor -->
<g id="edge11" class="edge">
<title>pytermor_common&#45;&gt;pytermor</title><style>.edge>path:hover{stroke-width:8}</style>
<path fill="none" stroke="black" d="M224.76,-557.33C181.11,-553.07 111.46,-540.47 65,-503.28 29.92,-475.19 17,-459.22 17,-414.28 17,-414.28 17,-414.28 17,-186.64 17,-142.08 10.25,-125.06 35,-88 46.36,-70.99 65.22,-58.24 82,-49.52"/>
<polygon fill="#000000" stroke="black" points="83.61,-52.63 91.04,-45.08 80.52,-46.34 83.61,-52.63"/>
</g>
<!-- pytermor_common&#45;&gt;pytermor_ansi -->
<g id="edge12" class="edge">
<title>pytermor_common&#45;&gt;pytermor_ansi</title><style>.edge>path:hover{stroke-width:8}</style>
<path fill="none" stroke="black" d="M236.66,-545.38C213.03,-533.61 179.23,-516.78 153.75,-504.08"/>
<polygon fill="#000000" stroke="black" points="155.28,-500.94 144.77,-499.61 152.16,-507.2 155.28,-500.94"/>
</g>
<!-- pytermor_common&#45;&gt;pytermor_color -->
<g id="edge13" class="edge">
<title>pytermor_common&#45;&gt;pytermor_color</title><style>.edge>path:hover{stroke-width:8}</style>
<path fill="none" stroke="black" d="M253.94,-539.91C239.41,-514.17 213.84,-468.9 197.7,-440.3"/>
<polygon fill="#000000" stroke="black" points="200.58,-438.29 192.61,-431.3 194.48,-441.73 200.58,-438.29"/>
</g>
<!-- pytermor_common&#45;&gt;pytermor_renderer -->
<g id="edge14" class="edge">
<title>pytermor_common&#45;&gt;pytermor_renderer</title><style>.edge>path:hover{stroke-width:8}</style>
<path fill="none" stroke="black" d="M265.5,-538.92C265.72,-520.2 265.51,-491.81 263,-467.28 252.77,-367.28 244.09,-342.92 222,-244.85 220.08,-236.31 217.73,-227.1 215.48,-218.66"/>
<polygon fill="#000000" stroke="black" points="218.81,-217.57 212.8,-208.84 212.05,-219.41 218.81,-217.57"/>
</g>
<!-- pytermor_common&#45;&gt;pytermor_style -->
<g id="edge15" class="edge">
<title>pytermor_common&#45;&gt;pytermor_style</title><style>.edge>path:hover{stroke-width:8}</style>
<path fill="none" stroke="black" d="M264.08,-539.17C262.11,-507.53 256.08,-444.96 238,-395.28 223.91,-356.56 197.95,-316.41 180.33,-291.58"/>
<polygon fill="#000000" stroke="black" points="183.17,-289.53 174.48,-283.47 177.49,-293.63 183.17,-289.53"/>
</g>
<!-- pytermor_common&#45;&gt;pytermor_text -->
<g id="edge16" class="edge">
<title>pytermor_common&#45;&gt;pytermor_text</title><style>.edge>path:hover{stroke-width:8}</style>
<path fill="none" stroke="black" d="M267.6,-538.93C276.23,-467.55 301.48,-231.22 266,-166.43 256.24,-148.6 238.14,-135.51 221.06,-126.47"/>
<polygon fill="#000000" stroke="black" points="222.24,-123.15 211.73,-121.86 219.14,-129.43 222.24,-123.15"/>
</g>
<!-- pytermor_utilstr -->
<g id="node11" class="node">
<title>pytermor_utilstr</title><style>.edge>path:hover{stroke-width:8}</style>
<ellipse fill="#e61919" stroke="black" cx="346" cy="-266.07" rx="40.11" ry="21.43"/>
<text text-anchor="middle" x="346" y="-269.07" font-family="Helvetica,sans-Serif" font-size="10.00" fill="#ffffff">pytermor.</text>
<text text-anchor="middle" x="346" y="-258.07" font-family="Helvetica,sans-Serif" font-size="10.00" fill="#ffffff">utilstr</text>
</g>
<!-- pytermor_common&#45;&gt;pytermor_utilstr -->
<g id="edge17" class="edge">
<title>pytermor_common&#45;&gt;pytermor_utilstr</title><style>.edge>path:hover{stroke-width:8}</style>
<path fill="none" stroke="black" d="M282.71,-541.23C291.7,-530.9 301.98,-517.28 308,-503.28 337.85,-433.9 344.47,-343.9 345.79,-297.59"/>
<polygon fill="#000000" stroke="black" points="349.29,-297.66 346.02,-287.59 342.3,-297.51 349.29,-297.66"/>
</g>
<!-- pytermor_utilsys -->
<g id="node12" class="node">
<title>pytermor_utilsys</title><style>.edge>path:hover{stroke-width:8}</style>
<ellipse fill="#cc3333" stroke="black" cx="405" cy="-187.64" rx="40.11" ry="21.43"/>
<text text-anchor="middle" x="405" y="-190.64" font-family="Helvetica,sans-Serif" font-size="10.00" fill="#ffffff">pytermor.</text>
<text text-anchor="middle" x="405" y="-179.64" font-family="Helvetica,sans-Serif" font-size="10.00" fill="#ffffff">utilsys</text>
</g>
<!-- pytermor_common&#45;&gt;pytermor_utilsys -->
<g id="edge18" class="edge">
<title>pytermor_common&#45;&gt;pytermor_utilsys</title><style>.edge>path:hover{stroke-width:8}</style>
<path fill="none" stroke="black" d="M294.01,-545.73C335.01,-524.01 405,-477.66 405,-414.28 405,-414.28 405,-414.28 405,-340.28 405,-298.36 405,-249.92 405,-219.29"/>
<polygon fill="#000000" stroke="black" points="408.5,-219.24 405,-209.24 401.5,-219.24 408.5,-219.24"/>
</g>
<!-- pytermor_cval&#45;&gt;pytermor -->
<g id="edge19" class="edge">
<title>pytermor_cval&#45;&gt;pytermor</title><style>.edge>path:hover{stroke-width:8}</style>
<path fill="none" stroke="black" d="M109.86,-323.57C104.01,-313.37 96.87,-299.9 92,-287.28 59.99,-204.22 41.31,-171.56 72,-88 76.31,-76.26 84.51,-65.34 92.74,-56.49"/>
<polygon fill="#000000" stroke="black" points="95.32,-58.86 99.88,-49.29 90.35,-53.93 95.32,-58.86"/>
</g>
<!-- pytermor_cval&#45;&gt;pytermor_style -->
<g id="edge20" class="edge">
<title>pytermor_cval&#45;&gt;pytermor_style</title><style>.edge>path:hover{stroke-width:8}</style>
<path fill="none" stroke="black" d="M129.53,-323.67C134.76,-314.56 141.35,-303.07 147.23,-292.82"/>
<polygon fill="#000000" stroke="black" points="150.42,-294.28 152.36,-283.87 144.35,-290.8 150.42,-294.28"/>
</g>
<!-- pytermor_renderer&#45;&gt;pytermor -->
<g id="edge21" class="edge">
<title>pytermor_renderer&#45;&gt;pytermor</title><style>.edge>path:hover{stroke-width:8}</style>
<path fill="none" stroke="black" d="M176.87,-173.45C159.27,-164.09 138.35,-149.74 127,-130.43 114.91,-109.85 113.22,-82.42 114.07,-62.25"/>
<polygon fill="#000000" stroke="black" points="117.57,-62.37 114.74,-52.16 110.59,-61.91 117.57,-62.37"/>
</g>
<!-- pytermor_renderer&#45;&gt;pytermor_text -->
<g id="edge22" class="edge">
<title>pytermor_renderer&#45;&gt;pytermor_text</title><style>.edge>path:hover{stroke-width:8}</style>
<path fill="none" stroke="black" d="M199.91,-166.56C196.68,-157.43 192.82,-146.51 189.37,-136.73"/>
<polygon fill="#000000" stroke="black" points="192.58,-135.32 185.95,-127.06 185.98,-137.65 192.58,-135.32"/>
</g>
<!-- pytermor_style&#45;&gt;pytermor -->
<g id="edge23" class="edge">
<title>pytermor_style&#45;&gt;pytermor</title><style>.edge>path:hover{stroke-width:8}</style>
<path fill="none" stroke="black" d="M153.16,-248.24C140.62,-223.32 118.26,-174.77 110,-130.43 105.74,-107.55 108.23,-81.14 111.37,-61.91"/>
<polygon fill="#000000" stroke="black" points="114.82,-62.5 113.14,-52.04 107.93,-61.26 114.82,-62.5"/>
</g>
<!-- pytermor_style&#45;&gt;pytermor_renderer -->
<g id="edge24" class="edge">
<title>pytermor_style&#45;&gt;pytermor_renderer</title><style>.edge>path:hover{stroke-width:8}</style>
<path fill="none" stroke="black" d="M171.99,-248.1C177.35,-238.99 184.11,-227.51 190.26,-217.07"/>
<polygon fill="#000000" stroke="black" points="193.39,-218.65 195.45,-208.25 187.36,-215.09 193.39,-218.65"/>
</g>
<!-- pytermor_style&#45;&gt;pytermor_text -->
<g id="edge25" class="edge">
<title>pytermor_style&#45;&gt;pytermor_text</title><style>.edge>path:hover{stroke-width:8}</style>
<path fill="none" stroke="black" d="M158.96,-247.79C156.01,-227.96 152.69,-194.55 158,-166.43 159.91,-156.29 163.61,-145.64 167.43,-136.37"/>
<polygon fill="#000000" stroke="black" points="170.75,-137.51 171.55,-126.94 164.34,-134.71 170.75,-137.51"/>
</g>
<!-- pytermor_text&#45;&gt;pytermor -->
<g id="edge26" class="edge">
<title>pytermor_text&#45;&gt;pytermor</title><style>.edge>path:hover{stroke-width:8}</style>
<path fill="none" stroke="black" d="M166.02,-91.96C157.5,-82.07 146.48,-69.26 137.04,-58.29"/>
<polygon fill="#000000" stroke="black" points="139.69,-56 130.51,-50.7 134.38,-60.56 139.69,-56"/>
</g>
<!-- pytermor_utilnum -->
<g id="node10" class="node">
<title>pytermor_utilnum</title><style>.edge>path:hover{stroke-width:8}</style>
<ellipse fill="#c04040" stroke="black" cx="282" cy="-109.21" rx="40.11" ry="21.43"/>
<text text-anchor="middle" x="282" y="-112.21" font-family="Helvetica,sans-Serif" font-size="10.00" fill="#ffffff">pytermor.</text>
<text text-anchor="middle" x="282" y="-101.21" font-family="Helvetica,sans-Serif" font-size="10.00" fill="#ffffff">utilnum</text>
</g>
<!-- pytermor_utilnum&#45;&gt;pytermor -->
<g id="edge27" class="edge">
<title>pytermor_utilnum&#45;&gt;pytermor</title><style>.edge>path:hover{stroke-width:8}</style>
<path fill="none" stroke="black" d="M252.12,-94.95C223.54,-82.28 180.51,-63.18 150.72,-49.96"/>
<polygon fill="#000000" stroke="black" points="152.11,-46.75 141.55,-45.89 149.27,-53.15 152.11,-46.75"/>
</g>
<!-- pytermor_utilstr&#45;&gt;pytermor -->
<g id="edge28" class="edge">
<title>pytermor_utilstr&#45;&gt;pytermor</title><style>.edge>path:hover{stroke-width:8}</style>
<path fill="none" stroke="black" d="M347.13,-244.55C348.98,-203.04 350.67,-111.06 331,-88 308.9,-62.09 214.15,-46.6 158.41,-39.55"/>
<polygon fill="#000000" stroke="black" points="158.83,-36.08 148.48,-38.34 157.98,-43.03 158.83,-36.08"/>
</g>
<!-- pytermor_utilstr&#45;&gt;pytermor_renderer -->
<g id="edge29" class="edge">
<title>pytermor_utilstr&#45;&gt;pytermor_renderer</title><style>.edge>path:hover{stroke-width:8}</style>
<path fill="none" stroke="black" d="M318.87,-250.15C297.25,-238.26 266.78,-221.51 243.1,-208.49"/>
<polygon fill="#000000" stroke="black" points="244.51,-205.27 234.06,-203.52 241.14,-211.4 244.51,-205.27"/>
</g>
<!-- pytermor_utilstr&#45;&gt;pytermor_text -->
<g id="edge30" class="edge">
<title>pytermor_utilstr&#45;&gt;pytermor_text</title><style>.edge>path:hover{stroke-width:8}</style>
<path fill="none" stroke="black" d="M333.28,-245.89C326.38,-235.17 317.87,-221.47 311,-208.85 301.03,-190.55 305.53,-181.37 291,-166.43 280.16,-155.27 246.38,-138.88 218.91,-126.67"/>
<polygon fill="#000000" stroke="black" points="220.07,-123.35 209.51,-122.54 217.26,-129.76 220.07,-123.35"/>
</g>
<!-- pytermor_utilstr&#45;&gt;pytermor_utilnum -->
<g id="edge31" class="edge">
<title>pytermor_utilstr&#45;&gt;pytermor_utilnum</title><style>.edge>path:hover{stroke-width:8}</style>
<path fill="none" stroke="black" d="M339.68,-244.73C333.2,-224.57 322.48,-192.94 311,-166.43 307.03,-157.25 302.21,-147.49 297.65,-138.72"/>
<polygon fill="#000000" stroke="black" points="300.64,-136.87 292.86,-129.67 294.45,-140.15 300.64,-136.87"/>
</g>
<!-- pytermor_utilsys&#45;&gt;pytermor -->
<g id="edge32" class="edge">
<title>pytermor_utilsys&#45;&gt;pytermor</title><style>.edge>path:hover{stroke-width:8}</style>
<path fill="none" stroke="black" d="M393.14,-167.16C386.59,-156.36 378.31,-142.67 371,-130.43 359.78,-111.63 363.65,-100.95 346,-88 290.55,-47.33 208.88,-37.24 159.53,-35.09"/>
<polygon fill="#000000" stroke="black" points="159.62,-31.59 149.51,-34.74 159.38,-38.59 159.62,-31.59"/>
</g>
<!-- pytermor_utilsys&#45;&gt;pytermor_text -->
<g id="edge33" class="edge">
<title>pytermor_utilsys&#45;&gt;pytermor_text</title><style>.edge>path:hover{stroke-width:8}</style>
<path fill="none" stroke="black" d="M370.89,-176.03C336.07,-165.07 280.53,-147.25 233,-130.43 228.76,-128.93 224.35,-127.32 219.95,-125.69"/>
<polygon fill="#000000" stroke="black" points="221.05,-122.36 210.46,-122.12 218.59,-128.91 221.05,-122.36"/>
</g>
</g>
</svg>
