<?xml version="1.0" encoding="UTF-8" standalone="no"?>
<!DOCTYPE svg PUBLIC "-//W3C//DTD SVG 1.1//EN"
 "http://www.w3.org/Graphics/SVG/1.1/DTD/svg11.dtd">
<!-- Generated by graphviz version 2.43.0 (0)
 -->
<!-- Title: G Pages: 1 -->
<svg width="508pt" height="369pt"
 viewBox="0.00 0.00 507.93 369.00" xmlns="http://www.w3.org/2000/svg" xmlns:xlink="http://www.w3.org/1999/xlink">
<g id="graph0" class="graph" transform="scale(1 1) rotate(0) translate(4 365)">
<title>G</title><style>.edge>path:hover{stroke-width:8}</style>
<polygon fill="white" stroke="transparent" points="-4,4 -4,-365 503.93,-365 503.93,4 -4,4"/>
<!-- pytermor -->
<g id="node1" class="node">
<title>pytermor</title><style>.edge>path:hover{stroke-width:8}</style>
<polygon fill="#406b96" stroke="black" points="331.6,-36 328.6,-40 307.6,-40 304.6,-36 269.6,-36 269.6,0 331.6,0 331.6,-36"/>
<text text-anchor="middle" x="300.6" y="-15.5" font-family="Helvetica,sans-Serif" font-size="10.00" fill="#ffffff">pytermor</text>
</g>
<!-- abc -->
<g id="node2" class="node">
<title>abc</title><style>.edge>path:hover{stroke-width:8}</style>
<polygon fill="#e78522" stroke="black" points="146.6,-361 143.6,-365 122.6,-365 119.6,-361 92.6,-361 92.6,-325 146.6,-325 146.6,-361"/>
<text text-anchor="middle" x="119.6" y="-340.5" font-family="Helvetica,sans-Serif" font-size="10.00" fill="#000000">abc</text>
</g>
<!-- abc&#45;&gt;pytermor -->
<g id="edge2" class="edge">
<title>abc&#45;&gt;pytermor</title><style>.edge>path:hover{stroke-width:8}</style>
<path fill="none" stroke="black" d="M92.43,-337.61C65.65,-331.68 26.13,-318.26 7.6,-289 -15.22,-252.95 19.5,-235.21 43.6,-200"/>
<path fill="none" stroke="black" d="M43.6,-198C106.89,-97.95 282.65,-245.01 300.6,-128"/>
<path fill="none" stroke="black" d="M300.6,-126C304.18,-102.72 310.44,-94.4 300.6,-73"/>
<path fill="none" stroke="black" d="M300.6,-72C296.94,-64.04 296.01,-54.66 296.28,-46.02"/>
<polygon fill="#e78522" stroke="black" points="299.77,-46.26 297.1,-36 292.79,-45.69 299.77,-46.26"/>
</g>
<!-- functools -->
<g id="node5" class="node">
<title>functools</title><style>.edge>path:hover{stroke-width:8}</style>
<polygon fill="#24d024" stroke="black" points="150.6,-289 147.6,-293 126.6,-293 123.6,-289 88.6,-289 88.6,-253 150.6,-253 150.6,-289"/>
<text text-anchor="middle" x="119.6" y="-268.5" font-family="Helvetica,sans-Serif" font-size="10.00" fill="#000000">functools</text>
</g>
<!-- abc&#45;&gt;functools -->
<g id="edge1" class="edge">
<title>abc&#45;&gt;functools</title><style>.edge>path:hover{stroke-width:8}</style>
<path fill="none" stroke="black" d="M119.6,-324.7C119.6,-316.98 119.6,-307.71 119.6,-299.11"/>
<polygon fill="#e78522" stroke="black" points="123.1,-299.1 119.6,-289.1 116.1,-299.1 123.1,-299.1"/>
</g>
<!-- typing -->
<g id="node12" class="node">
<title>typing</title><style>.edge>path:hover{stroke-width:8}</style>
<polygon fill="#db0570" stroke="black" points="399.6,-217 396.6,-221 375.6,-221 372.6,-217 345.6,-217 345.6,-181 399.6,-181 399.6,-217"/>
<text text-anchor="middle" x="372.6" y="-196.5" font-family="Helvetica,sans-Serif" font-size="10.00" fill="#ffffff">typing</text>
</g>
<!-- abc&#45;&gt;typing -->
<g id="edge3" class="edge">
<title>abc&#45;&gt;typing</title><style>.edge>path:hover{stroke-width:8}</style>
<path fill="none" stroke="black" d="M146.63,-340.76C187.05,-337.66 264.01,-326.83 315.6,-289 337.22,-273.15 352.73,-246.41 362.06,-226.36"/>
<polygon fill="#e78522" stroke="black" points="365.3,-227.7 366.15,-217.14 358.9,-224.87 365.3,-227.7"/>
</g>
<!-- copy -->
<g id="node3" class="node">
<title>copy</title><style>.edge>path:hover{stroke-width:8}</style>
<polygon fill="#c2c247" stroke="black" points="70.6,-289 67.6,-293 46.6,-293 43.6,-289 16.6,-289 16.6,-253 70.6,-253 70.6,-289"/>
<text text-anchor="middle" x="43.6" y="-268.5" font-family="Helvetica,sans-Serif" font-size="10.00" fill="#000000">copy</text>
</g>
<!-- copy&#45;&gt;pytermor -->
<g id="edge5" class="edge">
<title>copy&#45;&gt;pytermor</title><style>.edge>path:hover{stroke-width:8}</style>
<path fill="none" stroke="black" d="M38.57,-252.87C35.18,-237.64 33.03,-215.44 43.6,-200"/>
</g>
<!-- dataclasses -->
<g id="node4" class="node">
<title>dataclasses</title><style>.edge>path:hover{stroke-width:8}</style>
<polygon fill="#70a838" stroke="black" points="145.6,-217 142.6,-221 121.6,-221 118.6,-217 71.6,-217 71.6,-181 145.6,-181 145.6,-217"/>
<text text-anchor="middle" x="108.6" y="-196.5" font-family="Helvetica,sans-Serif" font-size="10.00" fill="#000000">dataclasses</text>
</g>
<!-- copy&#45;&gt;dataclasses -->
<g id="edge4" class="edge">
<title>copy&#45;&gt;dataclasses</title><style>.edge>path:hover{stroke-width:8}</style>
<path fill="none" stroke="black" d="M59.67,-252.7C67.54,-244.22 77.16,-233.86 85.78,-224.58"/>
<polygon fill="#c2c247" stroke="black" points="88.48,-226.81 92.72,-217.1 83.35,-222.05 88.48,-226.81"/>
</g>
<!-- dataclasses&#45;&gt;pytermor -->
<g id="edge6" class="edge">
<title>dataclasses&#45;&gt;pytermor</title><style>.edge>path:hover{stroke-width:8}</style>
<path fill="none" stroke="black" d="M145.75,-184.25C148.75,-183.15 151.73,-182.05 154.6,-181 219.43,-157.26 289.18,-196.08 300.6,-128"/>
</g>
<!-- functools&#45;&gt;pytermor -->
<g id="edge8" class="edge">
<title>functools&#45;&gt;pytermor</title><style>.edge>path:hover{stroke-width:8}</style>
<path fill="none" stroke="black" d="M92.14,-252.85C67.21,-236.22 35.5,-211.84 43.6,-200"/>
</g>
<!-- functools&#45;&gt;dataclasses -->
<g id="edge7" class="edge">
<title>functools&#45;&gt;dataclasses</title><style>.edge>path:hover{stroke-width:8}</style>
<path fill="none" stroke="black" d="M116.89,-252.7C115.67,-244.98 114.22,-235.71 112.87,-227.11"/>
<polygon fill="#24d024" stroke="black" points="116.3,-226.44 111.29,-217.1 109.39,-227.53 116.3,-226.44"/>
</g>
<!-- functools&#45;&gt;typing -->
<g id="edge9" class="edge">
<title>functools&#45;&gt;typing</title><style>.edge>path:hover{stroke-width:8}</style>
<path fill="none" stroke="black" d="M160.79,-262.52C202.91,-254.3 270.19,-239.61 335.68,-216.98"/>
<polygon fill="#24d024" stroke="black" points="159.88,-259.13 150.72,-264.45 161.2,-266 159.88,-259.13"/>
<polygon fill="#24d024" stroke="black" points="337.06,-220.2 345.33,-213.58 334.73,-213.6 337.06,-220.2"/>
</g>
<!-- future -->
<g id="node6" class="node">
<title>future</title><style>.edge>path:hover{stroke-width:8}</style>
<polygon fill="#f91010" stroke="black" points="217.6,-217 214.6,-221 193.6,-221 190.6,-217 163.6,-217 163.6,-181 217.6,-181 217.6,-217"/>
<text text-anchor="middle" x="190.6" y="-196.5" font-family="Helvetica,sans-Serif" font-size="10.00" fill="#ffffff">future</text>
</g>
<!-- future&#45;&gt;pytermor -->
<g id="edge10" class="edge">
<title>future&#45;&gt;pytermor</title><style>.edge>path:hover{stroke-width:8}</style>
<path fill="none" stroke="black" d="M217.87,-186.29C249.4,-171.91 297.4,-147.09 300.6,-128"/>
</g>
<!-- logging -->
<g id="node7" class="node">
<title>logging</title><style>.edge>path:hover{stroke-width:8}</style>
<polygon fill="#3db87a" stroke="black" points="471.6,-217 468.6,-221 447.6,-221 444.6,-217 417.6,-217 417.6,-181 471.6,-181 471.6,-217"/>
<text text-anchor="middle" x="444.6" y="-196.5" font-family="Helvetica,sans-Serif" font-size="10.00" fill="#000000">logging</text>
</g>
<!-- logging&#45;&gt;pytermor -->
<g id="edge11" class="edge">
<title>logging&#45;&gt;pytermor</title><style>.edge>path:hover{stroke-width:8}</style>
<path fill="none" stroke="black" d="M417.46,-185.2C375.66,-165.44 300.34,-129.58 300.6,-128"/>
</g>
<!-- math -->
<g id="node8" class="node">
<title>math</title><style>.edge>path:hover{stroke-width:8}</style>
<polygon fill="#3bcece" stroke="black" points="327.6,-217 324.6,-221 303.6,-221 300.6,-217 273.6,-217 273.6,-181 327.6,-181 327.6,-217"/>
<text text-anchor="middle" x="300.6" y="-196.5" font-family="Helvetica,sans-Serif" font-size="10.00" fill="#000000">math</text>
</g>
<!-- math&#45;&gt;pytermor -->
<g id="edge12" class="edge">
<title>math&#45;&gt;pytermor</title><style>.edge>path:hover{stroke-width:8}</style>
<path fill="none" stroke="black" d="M299.03,-180.9C298.1,-166.64 297.61,-145.86 300.6,-128"/>
</g>
<!-- re -->
<g id="node9" class="node">
<title>re</title><style>.edge>path:hover{stroke-width:8}</style>
<polygon fill="#2626d9" stroke="black" points="306.6,-289 303.6,-293 282.6,-293 279.6,-289 252.6,-289 252.6,-253 306.6,-253 306.6,-289"/>
<text text-anchor="middle" x="279.6" y="-268.5" font-family="Helvetica,sans-Serif" font-size="10.00" fill="#ffffff">re</text>
</g>
<!-- re&#45;&gt;pytermor -->
<g id="edge15" class="edge">
<title>re&#45;&gt;pytermor</title><style>.edge>path:hover{stroke-width:8}</style>
<path fill="none" stroke="black" d="M272.13,-252.96C265.23,-234.82 257.1,-205.41 264.6,-181 272.97,-153.78 295.89,-156.08 300.6,-128"/>
</g>
<!-- re&#45;&gt;dataclasses -->
<g id="edge13" class="edge">
<title>re&#45;&gt;dataclasses</title><style>.edge>path:hover{stroke-width:8}</style>
<path fill="none" stroke="black" d="M252.51,-258.91C226.39,-248.22 186.35,-231.83 155.13,-219.05"/>
<polygon fill="#2626d9" stroke="black" points="156.33,-215.76 145.75,-215.21 153.68,-222.23 156.33,-215.76"/>
</g>
<!-- re&#45;&gt;logging -->
<g id="edge14" class="edge">
<title>re&#45;&gt;logging</title><style>.edge>path:hover{stroke-width:8}</style>
<path fill="none" stroke="black" d="M306.96,-259.24C331.34,-249.54 368.18,-234.63 408.37,-217"/>
<polygon fill="#2626d9" stroke="black" points="409.81,-220.2 417.55,-212.96 406.98,-213.79 409.81,-220.2"/>
</g>
<!-- re&#45;&gt;typing -->
<g id="edge16" class="edge">
<title>re&#45;&gt;typing</title><style>.edge>path:hover{stroke-width:8}</style>
<path fill="none" stroke="black" d="M302.59,-252.7C314.42,-243.8 329,-232.82 341.78,-223.2"/>
<polygon fill="#2626d9" stroke="black" points="344,-225.91 349.88,-217.1 339.79,-220.32 344,-225.91"/>
</g>
<!-- shutil -->
<g id="node10" class="node">
<title>shutil</title><style>.edge>path:hover{stroke-width:8}</style>
<polygon fill="#7f4cb3" stroke="black" points="454.6,-145 451.6,-149 430.6,-149 427.6,-145 400.6,-145 400.6,-109 454.6,-109 454.6,-145"/>
<text text-anchor="middle" x="427.6" y="-124.5" font-family="Helvetica,sans-Serif" font-size="10.00" fill="#ffffff">shutil</text>
</g>
<!-- shutil&#45;&gt;pytermor -->
<g id="edge17" class="edge">
<title>shutil&#45;&gt;pytermor</title><style>.edge>path:hover{stroke-width:8}</style>
<path fill="none" stroke="black" d="M400.54,-124.63C368.6,-121.3 317.66,-110.12 300.6,-73"/>
</g>
<!-- sys -->
<g id="node11" class="node">
<title>sys</title><style>.edge>path:hover{stroke-width:8}</style>
<polygon fill="#e722e7" stroke="black" points="428.6,-289 425.6,-293 404.6,-293 401.6,-289 374.6,-289 374.6,-253 428.6,-253 428.6,-289"/>
<text text-anchor="middle" x="401.6" y="-268.5" font-family="Helvetica,sans-Serif" font-size="10.00" fill="#ffffff">sys</text>
</g>
<!-- sys&#45;&gt;pytermor -->
<g id="edge20" class="edge">
<title>sys&#45;&gt;pytermor</title><style>.edge>path:hover{stroke-width:8}</style>
<path fill="none" stroke="black" d="M428.76,-263.45C458.64,-254.46 502.17,-235.24 499.6,-200"/>
<path fill="none" stroke="black" d="M499.6,-198C492.8,-104.49 286.39,-220.67 300.6,-128"/>
</g>
<!-- sys&#45;&gt;dataclasses -->
<g id="edge18" class="edge">
<title>sys&#45;&gt;dataclasses</title><style>.edge>path:hover{stroke-width:8}</style>
<path fill="none" stroke="black" d="M374.48,-264.69C322.7,-254.47 210.68,-231.97 155.53,-216.99"/>
<polygon fill="#e722e7" stroke="black" points="156.18,-213.54 145.61,-214.19 154.29,-220.27 156.18,-213.54"/>
</g>
<!-- sys&#45;&gt;logging -->
<g id="edge19" class="edge">
<title>sys&#45;&gt;logging</title><style>.edge>path:hover{stroke-width:8}</style>
<path fill="none" stroke="black" d="M412.23,-252.7C417.23,-244.56 423.3,-234.69 428.82,-225.7"/>
<polygon fill="#e722e7" stroke="black" points="431.85,-227.46 434.1,-217.1 425.88,-223.79 431.85,-227.46"/>
</g>
<!-- sys&#45;&gt;shutil -->
<g id="edge21" class="edge">
<title>sys&#45;&gt;shutil</title><style>.edge>path:hover{stroke-width:8}</style>
<path fill="none" stroke="black" d="M499.6,-198C498.01,-176.03 480.45,-158.7 463.08,-146.78"/>
<polygon fill="#e722e7" stroke="black" points="464.94,-143.82 454.64,-141.36 461.16,-149.71 464.94,-143.82"/>
</g>
<!-- sys&#45;&gt;typing -->
<g id="edge22" class="edge">
<title>sys&#45;&gt;typing</title><style>.edge>path:hover{stroke-width:8}</style>
<path fill="none" stroke="black" d="M394.44,-252.7C391.17,-244.81 387.23,-235.3 383.6,-226.55"/>
<polygon fill="#e722e7" stroke="black" points="386.75,-225 379.69,-217.1 380.28,-227.68 386.75,-225"/>
</g>
<!-- typing&#45;&gt;pytermor -->
<g id="edge24" class="edge">
<title>typing&#45;&gt;pytermor</title><style>.edge>path:hover{stroke-width:8}</style>
<path fill="none" stroke="black" d="M347.61,-180.75C325.93,-164.77 298.34,-141.5 300.6,-128"/>
</g>
</g>
</svg>
