<?xml version="1.0" encoding="UTF-8" standalone="no"?>
<!DOCTYPE svg PUBLIC "-//W3C//DTD SVG 1.1//EN"
 "http://www.w3.org/Graphics/SVG/1.1/DTD/svg11.dtd">
<!-- Generated by graphviz version 2.43.0 (0)
 -->
<!-- Title: G Pages: 1 -->
<svg width="504pt" height="635pt"
 viewBox="0.00 0.00 504.00 635.13" xmlns="http://www.w3.org/2000/svg" xmlns:xlink="http://www.w3.org/1999/xlink">
<g id="graph0" class="graph" transform="scale(1 1) rotate(0) translate(4 631.13)">
<title>G</title><style>.edge>path:hover{stroke-width:8}</style>
<polygon fill="white" stroke="transparent" points="-4,4 -4,-631.13 500,-631.13 500,4 -4,4"/>
<g id="clust1" class="cluster">
<title>cluster_pytermor</title><style>.edge>path:hover{stroke-width:8}</style>
<polygon fill="none" stroke="black" points="8,-8 8,-619.13 488,-619.13 488,-8 8,-8"/>
<text text-anchor="middle" x="248" y="-603.93" font-family="Times,serif" font-size="14.00">pytermor</text>
</g>
<!-- pytermor -->
<g id="node1" class="node">
<title>pytermor</title><style>.edge>path:hover{stroke-width:8}</style>
<ellipse fill="#7a1e1e" stroke="black" cx="226" cy="-34" rx="32.25" ry="18"/>
<text text-anchor="middle" x="226" y="-31.5" font-family="Helvetica,sans-Serif" font-size="10.00" fill="#ffffff">pytermor</text>
</g>
<!-- pytermor__version -->
<g id="node2" class="node">
<title>pytermor__version</title><style>.edge>path:hover{stroke-width:8}</style>
<ellipse fill="#c24747" stroke="black" cx="440" cy="-109.21" rx="40.11" ry="21.43"/>
<text text-anchor="middle" x="440" y="-112.21" font-family="Helvetica,sans-Serif" font-size="10.00" fill="#ffffff">pytermor.</text>
<text text-anchor="middle" x="440" y="-101.21" font-family="Helvetica,sans-Serif" font-size="10.00" fill="#ffffff">_version</text>
</g>
<!-- pytermor__version&#45;&gt;pytermor -->
<g id="edge1" class="edge">
<title>pytermor__version&#45;&gt;pytermor</title><style>.edge>path:hover{stroke-width:8}</style>
<path fill="none" stroke="black" d="M408.09,-96.04C400.85,-93.34 393.17,-90.53 386,-88 344.11,-73.23 295.64,-57.34 263.13,-46.85"/>
<polygon fill="#000000" stroke="black" points="264.16,-43.51 253.57,-43.78 262.02,-50.17 264.16,-43.51"/>
</g>
<!-- pytermor_ansi -->
<g id="node3" class="node">
<title>pytermor_ansi</title><style>.edge>path:hover{stroke-width:8}</style>
<ellipse fill="#e61919" stroke="black" cx="156" cy="-491.71" rx="44.3" ry="18"/>
<text text-anchor="middle" x="156" y="-489.21" font-family="Helvetica,sans-Serif" font-size="10.00" fill="#ffffff">pytermor.ansi</text>
</g>
<!-- pytermor_ansi&#45;&gt;pytermor -->
<g id="edge2" class="edge">
<title>pytermor_ansi&#45;&gt;pytermor</title><style>.edge>path:hover{stroke-width:8}</style>
<path fill="none" stroke="black" d="M136.04,-475.49C124.99,-465.91 112.09,-452.57 105,-437.71 83.03,-391.67 92.13,-374.15 96,-323.28 100.03,-270.24 108.49,-130.85 140,-88 152.62,-70.83 172.64,-58.02 190.18,-49.3"/>
<polygon fill="#000000" stroke="black" points="192.05,-52.29 199.61,-44.87 189.07,-45.96 192.05,-52.29"/>
</g>
<!-- pytermor_color -->
<g id="node4" class="node">
<title>pytermor_color</title><style>.edge>path:hover{stroke-width:8}</style>
<ellipse fill="#ef0606" stroke="black" cx="229" cy="-419.71" rx="45.83" ry="18"/>
<text text-anchor="middle" x="229" y="-417.21" font-family="Helvetica,sans-Serif" font-size="10.00" fill="#ffffff">pytermor.color</text>
</g>
<!-- pytermor_ansi&#45;&gt;pytermor_color -->
<g id="edge3" class="edge">
<title>pytermor_ansi&#45;&gt;pytermor_color</title><style>.edge>path:hover{stroke-width:8}</style>
<path fill="none" stroke="black" d="M172.56,-474.82C182.18,-465.6 194.45,-453.83 205.1,-443.62"/>
<polygon fill="#000000" stroke="black" points="207.71,-445.97 212.5,-436.53 202.86,-440.92 207.71,-445.97"/>
</g>
<!-- pytermor_index_256 -->
<g id="node6" class="node">
<title>pytermor_index_256</title><style>.edge>path:hover{stroke-width:8}</style>
<ellipse fill="#c43131" stroke="black" cx="156" cy="-344.49" rx="43.27" ry="21.43"/>
<text text-anchor="middle" x="156" y="-347.49" font-family="Helvetica,sans-Serif" font-size="10.00" fill="#ffffff">pytermor.</text>
<text text-anchor="middle" x="156" y="-336.49" font-family="Helvetica,sans-Serif" font-size="10.00" fill="#ffffff">index_256</text>
</g>
<!-- pytermor_ansi&#45;&gt;pytermor_index_256 -->
<g id="edge4" class="edge">
<title>pytermor_ansi&#45;&gt;pytermor_index_256</title><style>.edge>path:hover{stroke-width:8}</style>
<path fill="none" stroke="black" d="M156,-473.48C156,-449.52 156,-405.77 156,-376.17"/>
<polygon fill="#000000" stroke="black" points="159.5,-375.96 156,-365.96 152.5,-375.96 159.5,-375.96"/>
</g>
<!-- pytermor_renderer -->
<g id="node8" class="node">
<title>pytermor_renderer</title><style>.edge>path:hover{stroke-width:8}</style>
<ellipse fill="#ac2b2b" stroke="black" cx="179" cy="-187.64" rx="40.11" ry="21.43"/>
<text text-anchor="middle" x="179" y="-190.64" font-family="Helvetica,sans-Serif" font-size="10.00" fill="#ffffff">pytermor.</text>
<text text-anchor="middle" x="179" y="-179.64" font-family="Helvetica,sans-Serif" font-size="10.00" fill="#ffffff">renderer</text>
</g>
<!-- pytermor_ansi&#45;&gt;pytermor_renderer -->
<g id="edge5" class="edge">
<title>pytermor_ansi&#45;&gt;pytermor_renderer</title><style>.edge>path:hover{stroke-width:8}</style>
<path fill="none" stroke="black" d="M144.51,-474.22C125.15,-444.37 89.46,-379.25 104,-323.28 114.45,-283.03 139.86,-242.02 158.21,-216.01"/>
<polygon fill="#000000" stroke="black" points="161.13,-217.95 164.13,-207.79 155.45,-213.86 161.13,-217.95"/>
</g>
<!-- pytermor_color&#45;&gt;pytermor -->
<g id="edge6" class="edge">
<title>pytermor_color&#45;&gt;pytermor</title><style>.edge>path:hover{stroke-width:8}</style>
<path fill="none" stroke="black" d="M273.36,-415.04C306.05,-409.74 348.41,-396.88 370,-365.71 380.82,-350.09 364.97,-147.85 321,-88 306.87,-68.77 283.56,-55.62 263.56,-47.22"/>
<polygon fill="#000000" stroke="black" points="264.65,-43.89 254.06,-43.47 262.08,-50.4 264.65,-43.89"/>
</g>
<!-- pytermor_color&#45;&gt;pytermor_index_256 -->
<g id="edge7" class="edge">
<title>pytermor_color&#45;&gt;pytermor_index_256</title><style>.edge>path:hover{stroke-width:8}</style>
<path fill="none" stroke="black" d="M212.8,-402.46C203.61,-393.24 191.89,-381.49 181.49,-371.06"/>
<polygon fill="#000000" stroke="black" points="183.75,-368.36 174.21,-363.75 178.79,-373.31 183.75,-368.36"/>
</g>
<!-- pytermor_index_rgb -->
<g id="node7" class="node">
<title>pytermor_index_rgb</title><style>.edge>path:hover{stroke-width:8}</style>
<ellipse fill="#c04040" stroke="black" cx="319" cy="-344.49" rx="41.94" ry="21.43"/>
<text text-anchor="middle" x="319" y="-347.49" font-family="Helvetica,sans-Serif" font-size="10.00" fill="#ffffff">pytermor.</text>
<text text-anchor="middle" x="319" y="-336.49" font-family="Helvetica,sans-Serif" font-size="10.00" fill="#ffffff">index_rgb</text>
</g>
<!-- pytermor_color&#45;&gt;pytermor_index_rgb -->
<g id="edge8" class="edge">
<title>pytermor_color&#45;&gt;pytermor_index_rgb</title><style>.edge>path:hover{stroke-width:8}</style>
<path fill="none" stroke="black" d="M248.09,-403.18C260.25,-393.28 276.25,-380.27 289.97,-369.11"/>
<polygon fill="#000000" stroke="black" points="292.19,-371.82 297.74,-362.79 287.77,-366.39 292.19,-371.82"/>
</g>
<!-- pytermor_color&#45;&gt;pytermor_renderer -->
<g id="edge9" class="edge">
<title>pytermor_color&#45;&gt;pytermor_renderer</title><style>.edge>path:hover{stroke-width:8}</style>
<path fill="none" stroke="black" d="M226.66,-401.48C223.17,-377.64 216.15,-336.09 208,-323.28 193.87,-301.08 172.65,-310.87 161,-287.28 150.21,-265.41 156.61,-237.94 164.63,-217.55"/>
<polygon fill="#000000" stroke="black" points="167.93,-218.73 168.63,-208.16 161.49,-215.99 167.93,-218.73"/>
</g>
<!-- pytermor_style -->
<g id="node9" class="node">
<title>pytermor_style</title><style>.edge>path:hover{stroke-width:8}</style>
<ellipse fill="#c82323" stroke="black" cx="216" cy="-266.07" rx="45.83" ry="18"/>
<text text-anchor="middle" x="216" y="-263.57" font-family="Helvetica,sans-Serif" font-size="10.00" fill="#ffffff">pytermor.style</text>
</g>
<!-- pytermor_color&#45;&gt;pytermor_style -->
<g id="edge10" class="edge">
<title>pytermor_color&#45;&gt;pytermor_style</title><style>.edge>path:hover{stroke-width:8}</style>
<path fill="none" stroke="black" d="M228.23,-401.44C227.31,-382.31 225.55,-350.55 223,-323.28 222.12,-313.85 220.91,-303.56 219.74,-294.39"/>
<polygon fill="#000000" stroke="black" points="223.19,-293.72 218.42,-284.26 216.24,-294.63 223.19,-293.72"/>
</g>
<!-- pytermor_text -->
<g id="node10" class="node">
<title>pytermor_text</title><style>.edge>path:hover{stroke-width:8}</style>
<ellipse fill="#a13535" stroke="black" cx="258" cy="-109.21" rx="43.62" ry="18"/>
<text text-anchor="middle" x="258" y="-106.71" font-family="Helvetica,sans-Serif" font-size="10.00" fill="#ffffff">pytermor.text</text>
</g>
<!-- pytermor_color&#45;&gt;pytermor_text -->
<g id="edge11" class="edge">
<title>pytermor_color&#45;&gt;pytermor_text</title><style>.edge>path:hover{stroke-width:8}</style>
<path fill="none" stroke="black" d="M236.32,-401.69C246.49,-377.02 264.4,-329.64 271,-287.28 279.24,-234.42 270.33,-171.86 263.74,-137.04"/>
<polygon fill="#000000" stroke="black" points="267.16,-136.3 261.79,-127.16 260.3,-137.65 267.16,-136.3"/>
</g>
<!-- pytermor_common -->
<g id="node5" class="node">
<title>pytermor_common</title><style>.edge>path:hover{stroke-width:8}</style>
<ellipse fill="#f91010" stroke="black" cx="190" cy="-566.92" rx="40.11" ry="21.43"/>
<text text-anchor="middle" x="190" y="-569.92" font-family="Helvetica,sans-Serif" font-size="10.00" fill="#ffffff">pytermor.</text>
<text text-anchor="middle" x="190" y="-558.92" font-family="Helvetica,sans-Serif" font-size="10.00" fill="#ffffff">common</text>
</g>
<!-- pytermor_common&#45;&gt;pytermor -->
<g id="edge12" class="edge">
<title>pytermor_common&#45;&gt;pytermor</title><style>.edge>path:hover{stroke-width:8}</style>
<path fill="none" stroke="black" d="M154.19,-557.1C129.59,-549.05 98.51,-534.52 82,-509.71 55.37,-469.68 73.36,-449.71 76,-401.71 77.94,-366.56 98.24,-115.67 120,-88 136.73,-66.73 164.25,-53.32 187.06,-45.32"/>
<polygon fill="#000000" stroke="black" points="188.42,-48.55 196.82,-42.11 186.23,-41.9 188.42,-48.55"/>
</g>
<!-- pytermor_common&#45;&gt;pytermor_ansi -->
<g id="edge13" class="edge">
<title>pytermor_common&#45;&gt;pytermor_ansi</title><style>.edge>path:hover{stroke-width:8}</style>
<path fill="none" stroke="black" d="M180.71,-545.91C176.84,-537.58 172.29,-527.79 168.16,-518.9"/>
<polygon fill="#000000" stroke="black" points="171.28,-517.3 163.9,-509.71 164.93,-520.25 171.28,-517.3"/>
</g>
<!-- pytermor_common&#45;&gt;pytermor_color -->
<g id="edge14" class="edge">
<title>pytermor_common&#45;&gt;pytermor_color</title><style>.edge>path:hover{stroke-width:8}</style>
<path fill="none" stroke="black" d="M197.29,-546.05C201.06,-535.36 205.58,-521.91 209,-509.71 214.74,-489.25 219.96,-465.79 223.62,-448.1"/>
<polygon fill="#000000" stroke="black" points="227.13,-448.4 225.69,-437.9 220.27,-447 227.13,-448.4"/>
</g>
<!-- pytermor_common&#45;&gt;pytermor_renderer -->
<g id="edge15" class="edge">
<title>pytermor_common&#45;&gt;pytermor_renderer</title><style>.edge>path:hover{stroke-width:8}</style>
<path fill="none" stroke="black" d="M157.75,-554.01C138.31,-545.01 115.03,-530.58 103,-509.71 61.6,-437.87 87.17,-405.72 96,-323.28 99.8,-287.82 94.68,-275.45 113,-244.85 121.04,-231.42 133.44,-219.63 145.33,-210.35"/>
<polygon fill="#000000" stroke="black" points="147.48,-213.12 153.42,-204.35 143.31,-207.5 147.48,-213.12"/>
</g>
<!-- pytermor_common&#45;&gt;pytermor_text -->
<g id="edge16" class="edge">
<title>pytermor_common&#45;&gt;pytermor_text</title><style>.edge>path:hover{stroke-width:8}</style>
<path fill="none" stroke="black" d="M213.38,-549.39C254.45,-518.75 338.2,-448.63 370,-365.71 376.75,-348.1 374.52,-341.59 370,-323.28 365.07,-303.32 301.56,-188.18 272.43,-135.96"/>
<polygon fill="#000000" stroke="black" points="275.34,-134 267.41,-126.98 269.23,-137.41 275.34,-134"/>
</g>
<!-- pytermor_utilstr -->
<g id="node12" class="node">
<title>pytermor_utilstr</title><style>.edge>path:hover{stroke-width:8}</style>
<ellipse fill="#e61919" stroke="black" cx="420" cy="-266.07" rx="40.11" ry="21.43"/>
<text text-anchor="middle" x="420" y="-269.07" font-family="Helvetica,sans-Serif" font-size="10.00" fill="#ffffff">pytermor.</text>
<text text-anchor="middle" x="420" y="-258.07" font-family="Helvetica,sans-Serif" font-size="10.00" fill="#ffffff">utilstr</text>
</g>
<!-- pytermor_common&#45;&gt;pytermor_utilstr -->
<g id="edge17" class="edge">
<title>pytermor_common&#45;&gt;pytermor_utilstr</title><style>.edge>path:hover{stroke-width:8}</style>
<path fill="none" stroke="black" d="M228.84,-561.21C284.53,-553.61 382.82,-536.67 405,-509.71 455.19,-448.7 440,-347.18 428.21,-297.01"/>
<polygon fill="#000000" stroke="black" points="431.56,-295.99 425.77,-287.12 424.77,-297.67 431.56,-295.99"/>
</g>
<!-- pytermor_index_256&#45;&gt;pytermor -->
<g id="edge18" class="edge">
<title>pytermor_index_256&#45;&gt;pytermor</title><style>.edge>path:hover{stroke-width:8}</style>
<path fill="none" stroke="black" d="M147.83,-323.53C135.44,-290.4 114.85,-222.2 130,-166.43 142.1,-121.89 177.83,-80.69 202.12,-56.69"/>
<polygon fill="#000000" stroke="black" points="204.79,-58.98 209.56,-49.52 199.93,-53.94 204.79,-58.98"/>
</g>
<!-- pytermor_index_256&#45;&gt;pytermor_style -->
<g id="edge19" class="edge">
<title>pytermor_index_256&#45;&gt;pytermor_style</title><style>.edge>path:hover{stroke-width:8}</style>
<path fill="none" stroke="black" d="M171.14,-324.21C178.92,-314.3 188.48,-302.12 196.78,-291.55"/>
<polygon fill="#000000" stroke="black" points="199.68,-293.52 203.1,-283.5 194.17,-289.2 199.68,-293.52"/>
</g>
<!-- pytermor_index_rgb&#45;&gt;pytermor -->
<g id="edge20" class="edge">
<title>pytermor_index_rgb&#45;&gt;pytermor</title><style>.edge>path:hover{stroke-width:8}</style>
<path fill="none" stroke="black" d="M320.78,-322.98C325.04,-269.6 333.86,-127.71 311,-88 300.46,-69.69 280.78,-56.82 263.01,-48.35"/>
<polygon fill="#000000" stroke="black" points="263.96,-44.95 253.4,-44.09 261.12,-51.35 263.96,-44.95"/>
</g>
<!-- pytermor_renderer&#45;&gt;pytermor -->
<g id="edge21" class="edge">
<title>pytermor_renderer&#45;&gt;pytermor</title><style>.edge>path:hover{stroke-width:8}</style>
<path fill="none" stroke="black" d="M178.45,-166.34C178.54,-145.93 180.45,-113.86 190,-88 193.82,-77.67 200.06,-67.4 206.29,-58.7"/>
<polygon fill="#000000" stroke="black" points="209.2,-60.66 212.42,-50.56 203.61,-56.44 209.2,-60.66"/>
</g>
<!-- pytermor_renderer&#45;&gt;pytermor_text -->
<g id="edge22" class="edge">
<title>pytermor_renderer&#45;&gt;pytermor_text</title><style>.edge>path:hover{stroke-width:8}</style>
<path fill="none" stroke="black" d="M197.72,-168.53C208.65,-157.95 222.55,-144.51 234.24,-133.2"/>
<polygon fill="#000000" stroke="black" points="236.8,-135.59 241.56,-126.12 231.94,-130.56 236.8,-135.59"/>
</g>
<!-- pytermor_style&#45;&gt;pytermor -->
<g id="edge23" class="edge">
<title>pytermor_style&#45;&gt;pytermor</title><style>.edge>path:hover{stroke-width:8}</style>
<path fill="none" stroke="black" d="M220.62,-247.99C223.37,-236.93 226.6,-222.15 228,-208.85 229.98,-190.1 233.29,-184.53 228,-166.43 222.68,-148.2 210.32,-148.65 205,-130.43 199.71,-112.33 201.46,-106.52 205,-88 206.73,-78.92 210,-69.4 213.45,-60.98"/>
<polygon fill="#000000" stroke="black" points="216.71,-62.26 217.5,-51.69 210.29,-59.46 216.71,-62.26"/>
</g>
<!-- pytermor_style&#45;&gt;pytermor_renderer -->
<g id="edge24" class="edge">
<title>pytermor_style&#45;&gt;pytermor_renderer</title><style>.edge>path:hover{stroke-width:8}</style>
<path fill="none" stroke="black" d="M207.79,-248.1C203.45,-239.15 198.01,-227.91 193.03,-217.62"/>
<polygon fill="#000000" stroke="black" points="196.14,-216.01 188.63,-208.53 189.84,-219.06 196.14,-216.01"/>
</g>
<!-- pytermor_style&#45;&gt;pytermor_text -->
<g id="edge25" class="edge">
<title>pytermor_style&#45;&gt;pytermor_text</title><style>.edge>path:hover{stroke-width:8}</style>
<path fill="none" stroke="black" d="M225.64,-248.38C231.52,-237.47 238.72,-222.72 243,-208.85 250.27,-185.28 254.1,-157.41 256.06,-137.32"/>
<polygon fill="#000000" stroke="black" points="259.55,-137.58 256.94,-127.31 252.58,-136.96 259.55,-137.58"/>
</g>
<!-- pytermor_text&#45;&gt;pytermor -->
<g id="edge26" class="edge">
<title>pytermor_text&#45;&gt;pytermor</title><style>.edge>path:hover{stroke-width:8}</style>
<path fill="none" stroke="black" d="M250.58,-91.23C246.63,-82.21 241.7,-70.92 237.29,-60.83"/>
<polygon fill="#000000" stroke="black" points="240.48,-59.4 233.27,-51.64 234.07,-62.2 240.48,-59.4"/>
</g>
<!-- pytermor_utilnum -->
<g id="node11" class="node">
<title>pytermor_utilnum</title><style>.edge>path:hover{stroke-width:8}</style>
<ellipse fill="#c04040" stroke="black" cx="420" cy="-187.64" rx="40.11" ry="21.43"/>
<text text-anchor="middle" x="420" y="-190.64" font-family="Helvetica,sans-Serif" font-size="10.00" fill="#ffffff">pytermor.</text>
<text text-anchor="middle" x="420" y="-179.64" font-family="Helvetica,sans-Serif" font-size="10.00" fill="#ffffff">utilnum</text>
</g>
<!-- pytermor_utilnum&#45;&gt;pytermor -->
<g id="edge27" class="edge">
<title>pytermor_utilnum&#45;&gt;pytermor</title><style>.edge>path:hover{stroke-width:8}</style>
<path fill="none" stroke="black" d="M404.9,-167.82C396.3,-156.99 385.4,-143.05 376,-130.43 362.21,-111.9 363.88,-102.62 346,-88 321.88,-68.27 289.26,-54.49 264.12,-45.93"/>
<polygon fill="#000000" stroke="black" points="265.13,-42.58 254.54,-42.8 262.96,-49.24 265.13,-42.58"/>
</g>
<!-- pytermor_utilstr&#45;&gt;pytermor -->
<g id="edge28" class="edge">
<title>pytermor_utilstr&#45;&gt;pytermor</title><style>.edge>path:hover{stroke-width:8}</style>
<path fill="none" stroke="black" d="M440.9,-247.88C451.51,-237.76 463.32,-224.01 469,-208.85 475.62,-191.2 479.16,-182.31 469,-166.43 448.42,-134.27 419.31,-156.04 391,-130.43 374.77,-115.74 382.74,-102.1 366,-88 337.25,-63.78 296.29,-50.01 266.1,-42.61"/>
<polygon fill="#000000" stroke="black" points="266.84,-39.19 256.31,-40.34 265.26,-46.01 266.84,-39.19"/>
</g>
<!-- pytermor_utilstr&#45;&gt;pytermor_renderer -->
<g id="edge29" class="edge">
<title>pytermor_utilstr&#45;&gt;pytermor_renderer</title><style>.edge>path:hover{stroke-width:8}</style>
<path fill="none" stroke="black" d="M386.24,-254.36C343.42,-240.78 269.53,-217.35 222.53,-202.44"/>
<polygon fill="#000000" stroke="black" points="223.51,-199.08 212.92,-199.4 221.4,-205.76 223.51,-199.08"/>
</g>
<!-- pytermor_utilstr&#45;&gt;pytermor_text -->
<g id="edge30" class="edge">
<title>pytermor_utilstr&#45;&gt;pytermor_text</title><style>.edge>path:hover{stroke-width:8}</style>
<path fill="none" stroke="black" d="M401.1,-247C371.58,-218.78 314.57,-164.29 282.13,-133.28"/>
<polygon fill="#000000" stroke="black" points="284.47,-130.68 274.82,-126.3 279.64,-135.74 284.47,-130.68"/>
</g>
<!-- pytermor_utilstr&#45;&gt;pytermor_utilnum -->
<g id="edge31" class="edge">
<title>pytermor_utilstr&#45;&gt;pytermor_utilnum</title><style>.edge>path:hover{stroke-width:8}</style>
<path fill="none" stroke="black" d="M420,-244.59C420,-236.73 420,-227.58 420,-218.99"/>
<polygon fill="#000000" stroke="black" points="423.5,-218.91 420,-208.91 416.5,-218.91 423.5,-218.91"/>
</g>
<!-- pytermor_utilsys -->
<g id="node13" class="node">
<title>pytermor_utilsys</title><style>.edge>path:hover{stroke-width:8}</style>
<ellipse fill="#c24747" stroke="black" cx="56" cy="-109.21" rx="40.11" ry="21.43"/>
<text text-anchor="middle" x="56" y="-112.21" font-family="Helvetica,sans-Serif" font-size="10.00" fill="#ffffff">pytermor.</text>
<text text-anchor="middle" x="56" y="-101.21" font-family="Helvetica,sans-Serif" font-size="10.00" fill="#ffffff">utilsys</text>
</g>
<!-- pytermor_utilsys&#45;&gt;pytermor -->
<g id="edge32" class="edge">
<title>pytermor_utilsys&#45;&gt;pytermor</title><style>.edge>path:hover{stroke-width:8}</style>
<path fill="none" stroke="black" d="M86.39,-95.12C115.95,-82.39 160.79,-63.08 191.63,-49.8"/>
<polygon fill="#000000" stroke="black" points="193.32,-52.89 201.12,-45.72 190.55,-46.46 193.32,-52.89"/>
</g>
</g>
</svg>
