<?xml version="1.0" encoding="UTF-8" standalone="no"?>
<!DOCTYPE svg PUBLIC "-//W3C//DTD SVG 1.1//EN"
 "http://www.w3.org/Graphics/SVG/1.1/DTD/svg11.dtd">
<!-- Generated by graphviz version 2.43.0 (0)
 -->
<!-- Title: G Pages: 1 -->
<svg width="514pt" height="629pt"
 viewBox="0.00 0.00 514.00 628.71" xmlns="http://www.w3.org/2000/svg" xmlns:xlink="http://www.w3.org/1999/xlink">
<g id="graph0" class="graph" transform="scale(1 1) rotate(0) translate(4 624.71)">
<title>G</title><style>.edge>path:hover{stroke-width:8}</style>
<polygon fill="white" stroke="transparent" points="-4,4 -4,-624.71 510,-624.71 510,4 -4,4"/>
<g id="clust1" class="cluster">
<title>cluster_pytermor</title><style>.edge>path:hover{stroke-width:8}</style>
<polygon fill="none" stroke="black" points="8,-8 8,-612.71 498,-612.71 498,-8 8,-8"/>
<text text-anchor="middle" x="253" y="-597.51" font-family="Times,serif" font-size="14.00">pytermor</text>
</g>
<!-- pytermor -->
<g id="node1" class="node">
<title>pytermor</title><style>.edge>path:hover{stroke-width:8}</style>
<ellipse fill="#732626" stroke="black" cx="117" cy="-34" rx="36.49" ry="18"/>
<text text-anchor="middle" x="117" y="-31.5" font-family="Helvetica,sans-Serif" font-size="10.00" fill="#ffffff">pytermor</text>
</g>
<!-- pytermor__version -->
<g id="node2" class="node">
<title>pytermor__version</title><style>.edge>path:hover{stroke-width:8}</style>
<ellipse fill="#c24747" stroke="black" cx="445" cy="-109.21" rx="45.01" ry="21.43"/>
<text text-anchor="middle" x="445" y="-112.21" font-family="Helvetica,sans-Serif" font-size="10.00" fill="#ffffff">pytermor.</text>
<text text-anchor="middle" x="445" y="-101.21" font-family="Helvetica,sans-Serif" font-size="10.00" fill="#ffffff">_version</text>
</g>
<!-- pytermor__version&#45;&gt;pytermor -->
<g id="edge1" class="edge">
<title>pytermor__version&#45;&gt;pytermor</title><style>.edge>path:hover{stroke-width:8}</style>
<path fill="none" stroke="black" d="M410.3,-95.45C402.38,-92.78 393.95,-90.13 386,-88 307.99,-67.06 215.21,-50.59 161.51,-41.87"/>
<polygon fill="#000000" stroke="black" points="161.74,-38.36 151.31,-40.23 160.63,-45.27 161.74,-38.36"/>
</g>
<!-- pytermor_ansi -->
<g id="node3" class="node">
<title>pytermor_ansi</title><style>.edge>path:hover{stroke-width:8}</style>
<ellipse fill="#e61919" stroke="black" cx="122" cy="-485.28" rx="49.4" ry="18"/>
<text text-anchor="middle" x="122" y="-482.78" font-family="Helvetica,sans-Serif" font-size="10.00" fill="#ffffff">pytermor.ansi</text>
</g>
<!-- pytermor_ansi&#45;&gt;pytermor -->
<g id="edge2" class="edge">
<title>pytermor_ansi&#45;&gt;pytermor</title><style>.edge>path:hover{stroke-width:8}</style>
<path fill="none" stroke="black" d="M102.01,-468.66C90.71,-458.94 77.07,-445.59 68,-431.28 45.57,-395.9 37,-384.17 37,-342.28 37,-342.28 37,-342.28 37,-186.64 37,-141.82 35.56,-126.8 58,-88 65.36,-75.27 76.85,-63.94 87.73,-55.06"/>
<polygon fill="#000000" stroke="black" points="90.1,-57.65 95.87,-48.76 85.82,-52.11 90.1,-57.65"/>
</g>
<!-- pytermor_color -->
<g id="node4" class="node">
<title>pytermor_color</title><style>.edge>path:hover{stroke-width:8}</style>
<ellipse fill="#e90c0c" stroke="black" cx="193" cy="-413.28" rx="51.61" ry="18"/>
<text text-anchor="middle" x="193" y="-410.78" font-family="Helvetica,sans-Serif" font-size="10.00" fill="#ffffff">pytermor.color</text>
</g>
<!-- pytermor_ansi&#45;&gt;pytermor_color -->
<g id="edge3" class="edge">
<title>pytermor_ansi&#45;&gt;pytermor_color</title><style>.edge>path:hover{stroke-width:8}</style>
<path fill="none" stroke="black" d="M138.47,-468.04C147.61,-459.03 159.14,-447.66 169.24,-437.71"/>
<polygon fill="#000000" stroke="black" points="171.96,-439.94 176.62,-430.43 167.04,-434.95 171.96,-439.94"/>
</g>
<!-- pytermor_cval -->
<g id="node6" class="node">
<title>pytermor_cval</title><style>.edge>path:hover{stroke-width:8}</style>
<ellipse fill="#c43131" stroke="black" cx="125" cy="-341.28" rx="49.4" ry="18"/>
<text text-anchor="middle" x="125" y="-338.78" font-family="Helvetica,sans-Serif" font-size="10.00" fill="#ffffff">pytermor.cval</text>
</g>
<!-- pytermor_ansi&#45;&gt;pytermor_cval -->
<g id="edge4" class="edge">
<title>pytermor_ansi&#45;&gt;pytermor_cval</title><style>.edge>path:hover{stroke-width:8}</style>
<path fill="none" stroke="black" d="M122.36,-467.15C122.87,-442.95 123.81,-398.49 124.42,-369.67"/>
<polygon fill="#000000" stroke="black" points="127.92,-369.54 124.64,-359.47 120.93,-369.39 127.92,-369.54"/>
</g>
<!-- pytermor_renderer -->
<g id="node7" class="node">
<title>pytermor_renderer</title><style>.edge>path:hover{stroke-width:8}</style>
<ellipse fill="#ac2b2b" stroke="black" cx="215" cy="-187.64" rx="45.01" ry="21.43"/>
<text text-anchor="middle" x="215" y="-190.64" font-family="Helvetica,sans-Serif" font-size="10.00" fill="#ffffff">pytermor.</text>
<text text-anchor="middle" x="215" y="-179.64" font-family="Helvetica,sans-Serif" font-size="10.00" fill="#ffffff">renderer</text>
</g>
<!-- pytermor_ansi&#45;&gt;pytermor_renderer -->
<g id="edge5" class="edge">
<title>pytermor_ansi&#45;&gt;pytermor_renderer</title><style>.edge>path:hover{stroke-width:8}</style>
<path fill="none" stroke="black" d="M109.67,-467.66C89.77,-438.79 54.03,-377.27 67,-323.28 76.14,-285.23 79.45,-272.63 107,-244.85 124.49,-227.22 148.68,-213.93 169.73,-204.71"/>
<polygon fill="#000000" stroke="black" points="171.28,-207.86 179.15,-200.76 168.57,-201.4 171.28,-207.86"/>
</g>
<!-- pytermor_color&#45;&gt;pytermor -->
<g id="edge6" class="edge">
<title>pytermor_color&#45;&gt;pytermor</title><style>.edge>path:hover{stroke-width:8}</style>
<path fill="none" stroke="black" d="M195.69,-395.15C197.75,-375.85 198.09,-344.41 183,-323.28 161.28,-292.86 127.39,-318.6 107,-287.28 82.84,-250.16 97.3,-131.92 103,-88 104.13,-79.28 106.27,-69.95 108.54,-61.58"/>
<polygon fill="#000000" stroke="black" points="111.91,-62.54 111.32,-51.96 105.18,-60.6 111.91,-62.54"/>
</g>
<!-- pytermor_color&#45;&gt;pytermor_cval -->
<g id="edge7" class="edge">
<title>pytermor_color&#45;&gt;pytermor_cval</title><style>.edge>path:hover{stroke-width:8}</style>
<path fill="none" stroke="black" d="M177.23,-396.04C168.47,-387.03 157.43,-375.66 147.76,-365.71"/>
<polygon fill="#000000" stroke="black" points="150.16,-363.16 140.69,-358.43 145.14,-368.04 150.16,-363.16"/>
</g>
<!-- pytermor_color&#45;&gt;pytermor_renderer -->
<g id="edge8" class="edge">
<title>pytermor_color&#45;&gt;pytermor_renderer</title><style>.edge>path:hover{stroke-width:8}</style>
<path fill="none" stroke="black" d="M200.51,-395.34C212.96,-365.3 235.84,-300.63 229,-244.85 227.94,-236.19 225.99,-226.95 223.87,-218.51"/>
<polygon fill="#000000" stroke="black" points="227.22,-217.47 221.26,-208.71 220.46,-219.27 227.22,-217.47"/>
</g>
<!-- pytermor_style -->
<g id="node8" class="node">
<title>pytermor_style</title><style>.edge>path:hover{stroke-width:8}</style>
<ellipse fill="#bf2121" stroke="black" cx="168" cy="-266.07" rx="51.61" ry="18"/>
<text text-anchor="middle" x="168" y="-263.57" font-family="Helvetica,sans-Serif" font-size="10.00" fill="#ffffff">pytermor.style</text>
</g>
<!-- pytermor_color&#45;&gt;pytermor_style -->
<g id="edge9" class="edge">
<title>pytermor_color&#45;&gt;pytermor_style</title><style>.edge>path:hover{stroke-width:8}</style>
<path fill="none" stroke="black" d="M196.92,-395.27C200.42,-377.14 204.12,-347.75 198,-323.28 195.34,-312.66 190.25,-301.84 185.01,-292.57"/>
<polygon fill="#000000" stroke="black" points="187.95,-290.66 179.8,-283.89 181.94,-294.26 187.95,-290.66"/>
</g>
<!-- pytermor_text -->
<g id="node9" class="node">
<title>pytermor_text</title><style>.edge>path:hover{stroke-width:8}</style>
<ellipse fill="#993333" stroke="black" cx="185" cy="-109.21" rx="48.72" ry="18"/>
<text text-anchor="middle" x="185" y="-106.71" font-family="Helvetica,sans-Serif" font-size="10.00" fill="#ffffff">pytermor.text</text>
</g>
<!-- pytermor_color&#45;&gt;pytermor_text -->
<g id="edge10" class="edge">
<title>pytermor_color&#45;&gt;pytermor_text</title><style>.edge>path:hover{stroke-width:8}</style>
<path fill="none" stroke="black" d="M206.68,-395.62C238.54,-354.67 311.83,-246.62 269,-166.43 259.86,-149.32 242.96,-136.5 226.69,-127.47"/>
<polygon fill="#000000" stroke="black" points="228.27,-124.34 217.78,-122.83 225.04,-130.55 228.27,-124.34"/>
</g>
<!-- pytermor_common -->
<g id="node5" class="node">
<title>pytermor_common</title><style>.edge>path:hover{stroke-width:8}</style>
<ellipse fill="#f91010" stroke="black" cx="278" cy="-560.49" rx="45.01" ry="21.43"/>
<text text-anchor="middle" x="278" y="-563.49" font-family="Helvetica,sans-Serif" font-size="10.00" fill="#ffffff">pytermor.</text>
<text text-anchor="middle" x="278" y="-552.49" font-family="Helvetica,sans-Serif" font-size="10.00" fill="#ffffff">common</text>
</g>
<!-- pytermor_common&#45;&gt;pytermor -->
<g id="edge11" class="edge">
<title>pytermor_common&#45;&gt;pytermor</title><style>.edge>path:hover{stroke-width:8}</style>
<path fill="none" stroke="black" d="M232.78,-558C185.94,-554.28 112.89,-542.09 64,-503.28 28.96,-475.47 17,-459.01 17,-414.28 17,-414.28 17,-414.28 17,-186.64 17,-141.91 12.01,-125.1 37,-88 47.74,-72.06 65.04,-59.72 80.82,-50.98"/>
<polygon fill="#000000" stroke="black" points="82.63,-53.98 89.87,-46.25 79.38,-47.78 82.63,-53.98"/>
</g>
<!-- pytermor_common&#45;&gt;pytermor_ansi -->
<g id="edge12" class="edge">
<title>pytermor_common&#45;&gt;pytermor_ansi</title><style>.edge>path:hover{stroke-width:8}</style>
<path fill="none" stroke="black" d="M246.81,-544.85C221.94,-533.18 187,-516.79 160.42,-504.31"/>
<polygon fill="#000000" stroke="black" points="161.57,-500.98 151.03,-499.9 158.6,-507.32 161.57,-500.98"/>
</g>
<!-- pytermor_common&#45;&gt;pytermor_color -->
<g id="edge13" class="edge">
<title>pytermor_common&#45;&gt;pytermor_color</title><style>.edge>path:hover{stroke-width:8}</style>
<path fill="none" stroke="black" d="M266.54,-539.91C251.41,-514.06 224.74,-468.5 208.02,-439.93"/>
<polygon fill="#000000" stroke="black" points="211.03,-438.16 202.96,-431.3 204.99,-441.7 211.03,-438.16"/>
</g>
<!-- pytermor_common&#45;&gt;pytermor_renderer -->
<g id="edge14" class="edge">
<title>pytermor_common&#45;&gt;pytermor_renderer</title><style>.edge>path:hover{stroke-width:8}</style>
<path fill="none" stroke="black" d="M279.13,-538.93C279.88,-520.2 280.36,-491.82 278,-467.28 275.56,-441.96 248.77,-300.07 234,-244.85 231.67,-236.13 228.7,-226.78 225.81,-218.27"/>
<polygon fill="#000000" stroke="black" points="229.09,-217.04 222.5,-208.74 222.48,-219.34 229.09,-217.04"/>
</g>
<!-- pytermor_common&#45;&gt;pytermor_style -->
<g id="edge15" class="edge">
<title>pytermor_common&#45;&gt;pytermor_style</title><style>.edge>path:hover{stroke-width:8}</style>
<path fill="none" stroke="black" d="M277.89,-539.05C277.08,-507.25 272.97,-444.48 254,-395.28 238.67,-355.51 209.2,-315.67 189.07,-291.2"/>
<polygon fill="#000000" stroke="black" points="191.74,-288.94 182.64,-283.51 186.37,-293.43 191.74,-288.94"/>
</g>
<!-- pytermor_common&#45;&gt;pytermor_text -->
<g id="edge16" class="edge">
<title>pytermor_common&#45;&gt;pytermor_text</title><style>.edge>path:hover{stroke-width:8}</style>
<path fill="none" stroke="black" d="M280.76,-538.88C289.96,-467.3 316.91,-230.41 280,-166.43 269.19,-147.68 249.43,-134.54 230.72,-125.7"/>
<polygon fill="#000000" stroke="black" points="231.94,-122.41 221.38,-121.58 229.12,-128.81 231.94,-122.41"/>
</g>
<!-- pytermor_utilstr -->
<g id="node11" class="node">
<title>pytermor_utilstr</title><style>.edge>path:hover{stroke-width:8}</style>
<ellipse fill="#e61919" stroke="black" cx="363" cy="-266.07" rx="45.01" ry="21.43"/>
<text text-anchor="middle" x="363" y="-269.07" font-family="Helvetica,sans-Serif" font-size="10.00" fill="#ffffff">pytermor.</text>
<text text-anchor="middle" x="363" y="-258.07" font-family="Helvetica,sans-Serif" font-size="10.00" fill="#ffffff">utilstr</text>
</g>
<!-- pytermor_common&#45;&gt;pytermor_utilstr -->
<g id="edge17" class="edge">
<title>pytermor_common&#45;&gt;pytermor_utilstr</title><style>.edge>path:hover{stroke-width:8}</style>
<path fill="none" stroke="black" d="M294.49,-540.71C302.76,-530.34 312.22,-516.83 318,-503.28 347.73,-433.61 357.92,-344.03 361.34,-297.77"/>
<polygon fill="#000000" stroke="black" points="364.85,-297.72 362.04,-287.51 357.87,-297.25 364.85,-297.72"/>
</g>
<!-- pytermor_utilsys -->
<g id="node12" class="node">
<title>pytermor_utilsys</title><style>.edge>path:hover{stroke-width:8}</style>
<ellipse fill="#cc3333" stroke="black" cx="425" cy="-187.64" rx="45.01" ry="21.43"/>
<text text-anchor="middle" x="425" y="-190.64" font-family="Helvetica,sans-Serif" font-size="10.00" fill="#ffffff">pytermor.</text>
<text text-anchor="middle" x="425" y="-179.64" font-family="Helvetica,sans-Serif" font-size="10.00" fill="#ffffff">utilsys</text>
</g>
<!-- pytermor_common&#45;&gt;pytermor_utilsys -->
<g id="edge18" class="edge">
<title>pytermor_common&#45;&gt;pytermor_utilsys</title><style>.edge>path:hover{stroke-width:8}</style>
<path fill="none" stroke="black" d="M310.33,-545.53C354.15,-524.17 427,-478.94 427,-414.28 427,-414.28 427,-414.28 427,-340.28 427,-298.36 426.23,-249.92 425.64,-219.29"/>
<polygon fill="#000000" stroke="black" points="429.14,-219.17 425.44,-209.24 422.14,-219.31 429.14,-219.17"/>
</g>
<!-- pytermor_cval&#45;&gt;pytermor -->
<g id="edge19" class="edge">
<title>pytermor_cval&#45;&gt;pytermor</title><style>.edge>path:hover{stroke-width:8}</style>
<path fill="none" stroke="black" d="M112.91,-323.82C105.95,-313.7 97.53,-300.24 92,-287.28 77.88,-254.19 76.48,-244.54 72,-208.85 65.31,-155.56 53.48,-138.42 72,-88 76.14,-76.72 83.87,-66.2 91.76,-57.56"/>
<polygon fill="#000000" stroke="black" points="94.48,-59.78 98.96,-50.17 89.47,-54.89 94.48,-59.78"/>
</g>
<!-- pytermor_cval&#45;&gt;pytermor_style -->
<g id="edge20" class="edge">
<title>pytermor_cval&#45;&gt;pytermor_style</title><style>.edge>path:hover{stroke-width:8}</style>
<path fill="none" stroke="black" d="M134.97,-323.3C140.29,-314.24 146.95,-302.91 152.89,-292.8"/>
<polygon fill="#000000" stroke="black" points="156.03,-294.35 158.08,-283.95 150,-290.8 156.03,-294.35"/>
</g>
<!-- pytermor_renderer&#45;&gt;pytermor -->
<g id="edge21" class="edge">
<title>pytermor_renderer&#45;&gt;pytermor</title><style>.edge>path:hover{stroke-width:8}</style>
<path fill="none" stroke="black" d="M180.59,-173.55C161.54,-164.44 139.29,-150.32 127,-130.43 114.46,-110.12 112.82,-82.66 113.81,-62.41"/>
<polygon fill="#000000" stroke="black" points="117.32,-62.5 114.55,-52.27 110.33,-61.99 117.32,-62.5"/>
</g>
<!-- pytermor_renderer&#45;&gt;pytermor_text -->
<g id="edge22" class="edge">
<title>pytermor_renderer&#45;&gt;pytermor_text</title><style>.edge>path:hover{stroke-width:8}</style>
<path fill="none" stroke="black" d="M207.12,-166.56C203.5,-157.34 199.16,-146.28 195.29,-136.42"/>
<polygon fill="#000000" stroke="black" points="198.52,-135.09 191.61,-127.06 192.01,-137.65 198.52,-135.09"/>
</g>
<!-- pytermor_style&#45;&gt;pytermor -->
<g id="edge23" class="edge">
<title>pytermor_style&#45;&gt;pytermor</title><style>.edge>path:hover{stroke-width:8}</style>
<path fill="none" stroke="black" d="M158.15,-248.38C144.17,-223.63 119.25,-175.29 110,-130.43 105.3,-107.64 107.84,-81.22 111.1,-61.97"/>
<polygon fill="#000000" stroke="black" points="114.55,-62.55 112.95,-52.08 107.67,-61.26 114.55,-62.55"/>
</g>
<!-- pytermor_style&#45;&gt;pytermor_renderer -->
<g id="edge24" class="edge">
<title>pytermor_style&#45;&gt;pytermor_renderer</title><style>.edge>path:hover{stroke-width:8}</style>
<path fill="none" stroke="black" d="M178.43,-248.1C184.04,-238.99 191.1,-227.51 197.52,-217.07"/>
<polygon fill="#000000" stroke="black" points="200.68,-218.6 202.94,-208.25 194.72,-214.94 200.68,-218.6"/>
</g>
<!-- pytermor_style&#45;&gt;pytermor_text -->
<g id="edge25" class="edge">
<title>pytermor_style&#45;&gt;pytermor_text</title><style>.edge>path:hover{stroke-width:8}</style>
<path fill="none" stroke="black" d="M163.97,-247.77C159.98,-227.93 155.25,-194.52 161,-166.43 163.08,-156.24 167.09,-145.62 171.24,-136.39"/>
<polygon fill="#000000" stroke="black" points="174.4,-137.88 175.54,-127.34 168.08,-134.87 174.4,-137.88"/>
</g>
<!-- pytermor_text&#45;&gt;pytermor -->
<g id="edge26" class="edge">
<title>pytermor_text&#45;&gt;pytermor</title><style>.edge>path:hover{stroke-width:8}</style>
<path fill="none" stroke="black" d="M169.91,-91.96C160.71,-82.07 148.82,-69.26 138.63,-58.29"/>
<polygon fill="#000000" stroke="black" points="140.95,-55.65 131.58,-50.7 135.82,-60.41 140.95,-55.65"/>
</g>
<!-- pytermor_utilnum -->
<g id="node10" class="node">
<title>pytermor_utilnum</title><style>.edge>path:hover{stroke-width:8}</style>
<ellipse fill="#c04040" stroke="black" cx="297" cy="-109.21" rx="45.01" ry="21.43"/>
<text text-anchor="middle" x="297" y="-112.21" font-family="Helvetica,sans-Serif" font-size="10.00" fill="#ffffff">pytermor.</text>
<text text-anchor="middle" x="297" y="-101.21" font-family="Helvetica,sans-Serif" font-size="10.00" fill="#ffffff">utilnum</text>
</g>
<!-- pytermor_utilnum&#45;&gt;pytermor -->
<g id="edge27" class="edge">
<title>pytermor_utilnum&#45;&gt;pytermor</title><style>.edge>path:hover{stroke-width:8}</style>
<path fill="none" stroke="black" d="M263.57,-94.61C232.42,-81.95 186.08,-63.1 153.88,-50"/>
<polygon fill="#000000" stroke="black" points="154.95,-46.66 144.37,-46.13 152.31,-53.14 154.95,-46.66"/>
</g>
<!-- pytermor_utilstr&#45;&gt;pytermor -->
<g id="edge28" class="edge">
<title>pytermor_utilstr&#45;&gt;pytermor</title><style>.edge>path:hover{stroke-width:8}</style>
<path fill="none" stroke="black" d="M364.53,-244.86C367.2,-203.48 370.73,-111.06 351,-88 327,-59.95 224.06,-45.34 163,-39"/>
<polygon fill="#000000" stroke="black" points="163.14,-35.5 152.84,-37.98 162.44,-42.46 163.14,-35.5"/>
</g>
<!-- pytermor_utilstr&#45;&gt;pytermor_renderer -->
<g id="edge29" class="edge">
<title>pytermor_utilstr&#45;&gt;pytermor_renderer</title><style>.edge>path:hover{stroke-width:8}</style>
<path fill="none" stroke="black" d="M333.41,-249.78C310.52,-237.96 278.63,-221.5 253.72,-208.63"/>
<polygon fill="#000000" stroke="black" points="255.03,-205.37 244.54,-203.9 251.82,-211.59 255.03,-205.37"/>
</g>
<!-- pytermor_utilstr&#45;&gt;pytermor_text -->
<g id="edge30" class="edge">
<title>pytermor_utilstr&#45;&gt;pytermor_text</title><style>.edge>path:hover{stroke-width:8}</style>
<path fill="none" stroke="black" d="M348.97,-245.71C341.49,-235.06 332.35,-221.48 325,-208.85 314.42,-190.67 319.01,-181.17 304,-166.43 292.27,-154.91 256.11,-138.57 226.71,-126.48"/>
<polygon fill="#000000" stroke="black" points="228.02,-123.23 217.44,-122.71 225.38,-129.72 228.02,-123.23"/>
</g>
<!-- pytermor_utilstr&#45;&gt;pytermor_utilnum -->
<g id="edge31" class="edge">
<title>pytermor_utilstr&#45;&gt;pytermor_utilnum</title><style>.edge>path:hover{stroke-width:8}</style>
<path fill="none" stroke="black" d="M355.83,-244.81C348.57,-224.71 336.76,-193.13 325,-166.43 321.03,-157.41 316.38,-147.76 312.01,-139.05"/>
<polygon fill="#000000" stroke="black" points="315.09,-137.36 307.44,-130.03 308.84,-140.53 315.09,-137.36"/>
</g>
<!-- pytermor_utilsys&#45;&gt;pytermor -->
<g id="edge32" class="edge">
<title>pytermor_utilsys&#45;&gt;pytermor</title><style>.edge>path:hover{stroke-width:8}</style>
<path fill="none" stroke="black" d="M413.14,-167.16C406.59,-156.36 398.31,-142.67 391,-130.43 379.78,-111.63 383.76,-100.79 366,-88 333.89,-64.88 224.91,-48.18 162.28,-40.22"/>
<polygon fill="#000000" stroke="black" points="162.63,-36.74 152.27,-38.98 161.76,-43.69 162.63,-36.74"/>
</g>
<!-- pytermor_utilsys&#45;&gt;pytermor_text -->
<g id="edge33" class="edge">
<title>pytermor_utilsys&#45;&gt;pytermor_text</title><style>.edge>path:hover{stroke-width:8}</style>
<path fill="none" stroke="black" d="M387.58,-175.51C350.7,-164.44 292.8,-146.79 243,-130.43 238.37,-128.9 233.54,-127.28 228.74,-125.64"/>
<polygon fill="#000000" stroke="black" points="229.57,-122.23 218.97,-122.28 227.29,-128.85 229.57,-122.23"/>
</g>
</g>
</svg>
