<?xml version="1.0" encoding="UTF-8" standalone="no"?>
<!DOCTYPE svg PUBLIC "-//W3C//DTD SVG 1.1//EN"
 "http://www.w3.org/Graphics/SVG/1.1/DTD/svg11.dtd">
<!-- Generated by graphviz version 2.43.0 (0)
 -->
<!-- Title: G Pages: 1 -->
<svg width="556pt" height="563pt"
 viewBox="0.00 0.00 556.00 563.13" xmlns="http://www.w3.org/2000/svg" xmlns:xlink="http://www.w3.org/1999/xlink">
<g id="graph0" class="graph" transform="scale(1 1) rotate(0) translate(4 559.13)">
<title>G</title><style>.edge>path:hover{stroke-width:8}</style>
<polygon fill="white" stroke="transparent" points="-4,4 -4,-559.13 552,-559.13 552,4 -4,4"/>
<g id="clust1" class="cluster">
<title>cluster_pytermor</title><style>.edge>path:hover{stroke-width:8}</style>
<polygon fill="none" stroke="black" points="8,-8 8,-547.13 540,-547.13 540,-8 8,-8"/>
<text text-anchor="middle" x="274" y="-531.93" font-family="Times,serif" font-size="14.00">pytermor</text>
</g>
<!-- pytermor -->
<g id="node1" class="node">
<title>pytermor</title><style>.edge>path:hover{stroke-width:8}</style>
<ellipse fill="#7a1e1e" stroke="black" cx="251" cy="-34" rx="32.25" ry="18"/>
<text text-anchor="middle" x="251" y="-31.5" font-family="Helvetica,sans-Serif" font-size="10.00" fill="#ffffff">pytermor</text>
</g>
<!-- pytermor__version -->
<g id="node2" class="node">
<title>pytermor__version</title><style>.edge>path:hover{stroke-width:8}</style>
<ellipse fill="#c24747" stroke="black" cx="492" cy="-109.21" rx="40.11" ry="21.43"/>
<text text-anchor="middle" x="492" y="-112.21" font-family="Helvetica,sans-Serif" font-size="10.00" fill="#ffffff">pytermor.</text>
<text text-anchor="middle" x="492" y="-101.21" font-family="Helvetica,sans-Serif" font-size="10.00" fill="#ffffff">_version</text>
</g>
<!-- pytermor__version&#45;&gt;pytermor -->
<g id="edge1" class="edge">
<title>pytermor__version&#45;&gt;pytermor</title><style>.edge>path:hover{stroke-width:8}</style>
<path fill="none" stroke="black" d="M460.46,-95.91C453.13,-93.19 445.32,-90.4 438,-88 387.3,-71.36 327.88,-55.05 289.86,-45.02"/>
<polygon fill="#000000" stroke="black" points="290.29,-41.51 279.73,-42.36 288.52,-48.28 290.29,-41.51"/>
</g>
<!-- pytermor_ansi -->
<g id="node3" class="node">
<title>pytermor_ansi</title><style>.edge>path:hover{stroke-width:8}</style>
<ellipse fill="#e61919" stroke="black" cx="163" cy="-419.71" rx="44.3" ry="18"/>
<text text-anchor="middle" x="163" y="-417.21" font-family="Helvetica,sans-Serif" font-size="10.00" fill="#ffffff">pytermor.ansi</text>
</g>
<!-- pytermor_ansi&#45;&gt;pytermor -->
<g id="edge2" class="edge">
<title>pytermor_ansi&#45;&gt;pytermor</title><style>.edge>path:hover{stroke-width:8}</style>
<path fill="none" stroke="black" d="M138.71,-404.41C102.09,-380.83 37,-330.05 37,-267.07 37,-267.07 37,-267.07 37,-186.64 37,-102.1 149.56,-60.42 211.41,-43.91"/>
<polygon fill="#000000" stroke="black" points="212.43,-47.26 221.24,-41.38 210.69,-40.48 212.43,-47.26"/>
</g>
<!-- pytermor_color -->
<g id="node4" class="node">
<title>pytermor_color</title><style>.edge>path:hover{stroke-width:8}</style>
<ellipse fill="#e90c0c" stroke="black" cx="228" cy="-344.49" rx="45.83" ry="18"/>
<text text-anchor="middle" x="228" y="-341.99" font-family="Helvetica,sans-Serif" font-size="10.00" fill="#ffffff">pytermor.color</text>
</g>
<!-- pytermor_ansi&#45;&gt;pytermor_color -->
<g id="edge3" class="edge">
<title>pytermor_ansi&#45;&gt;pytermor_color</title><style>.edge>path:hover{stroke-width:8}</style>
<path fill="none" stroke="black" d="M177.43,-402.46C186.09,-392.69 197.28,-380.1 206.92,-369.23"/>
<polygon fill="#000000" stroke="black" points="209.59,-371.5 213.61,-361.7 204.36,-366.85 209.59,-371.5"/>
</g>
<!-- pytermor_cval -->
<g id="node6" class="node">
<title>pytermor_cval</title><style>.edge>path:hover{stroke-width:8}</style>
<ellipse fill="#b83d3d" stroke="black" cx="100" cy="-266.07" rx="44.3" ry="18"/>
<text text-anchor="middle" x="100" y="-263.57" font-family="Helvetica,sans-Serif" font-size="10.00" fill="#ffffff">pytermor.cval</text>
</g>
<!-- pytermor_ansi&#45;&gt;pytermor_cval -->
<g id="edge4" class="edge">
<title>pytermor_ansi&#45;&gt;pytermor_cval</title><style>.edge>path:hover{stroke-width:8}</style>
<path fill="none" stroke="black" d="M156.02,-401.9C145.09,-375.6 123.86,-324.5 110.91,-293.32"/>
<polygon fill="#000000" stroke="black" points="114.08,-291.84 107.01,-283.95 107.62,-294.53 114.08,-291.84"/>
</g>
<!-- pytermor_renderer -->
<g id="node7" class="node">
<title>pytermor_renderer</title><style>.edge>path:hover{stroke-width:8}</style>
<ellipse fill="#a32828" stroke="black" cx="294" cy="-187.64" rx="40.11" ry="21.43"/>
<text text-anchor="middle" x="294" y="-190.64" font-family="Helvetica,sans-Serif" font-size="10.00" fill="#ffffff">pytermor.</text>
<text text-anchor="middle" x="294" y="-179.64" font-family="Helvetica,sans-Serif" font-size="10.00" fill="#ffffff">renderer</text>
</g>
<!-- pytermor_ansi&#45;&gt;pytermor_renderer -->
<g id="edge5" class="edge">
<title>pytermor_ansi&#45;&gt;pytermor_renderer</title><style>.edge>path:hover{stroke-width:8}</style>
<path fill="none" stroke="black" d="M162.93,-401.45C163.27,-382.05 165.15,-349.79 173,-323.28 184.11,-285.76 187.26,-274.32 213,-244.85 225.52,-230.52 242.44,-218.03 257.58,-208.49"/>
<polygon fill="#000000" stroke="black" points="259.52,-211.41 266.24,-203.22 255.88,-205.43 259.52,-211.41"/>
</g>
<!-- pytermor_color&#45;&gt;pytermor -->
<g id="edge6" class="edge">
<title>pytermor_color&#45;&gt;pytermor</title><style>.edge>path:hover{stroke-width:8}</style>
<path fill="none" stroke="black" d="M218.78,-326.85C213.29,-315.96 206.85,-301.21 204,-287.28 200.22,-268.81 203.52,-263.7 204,-244.85 205.79,-174.48 202.98,-154.52 226,-88 229.19,-78.78 233.5,-69.03 237.64,-60.44"/>
<polygon fill="#000000" stroke="black" points="240.85,-61.84 242.18,-51.33 234.59,-58.72 240.85,-61.84"/>
</g>
<!-- pytermor_color&#45;&gt;pytermor_cval -->
<g id="edge7" class="edge">
<title>pytermor_color&#45;&gt;pytermor_cval</title><style>.edge>path:hover{stroke-width:8}</style>
<path fill="none" stroke="black" d="M203.92,-329.12C183.81,-317.11 154.94,-299.87 132.73,-286.61"/>
<polygon fill="#000000" stroke="black" points="134.35,-283.5 123.97,-281.38 130.76,-289.51 134.35,-283.5"/>
</g>
<!-- pytermor_color&#45;&gt;pytermor_renderer -->
<g id="edge8" class="edge">
<title>pytermor_color&#45;&gt;pytermor_renderer</title><style>.edge>path:hover{stroke-width:8}</style>
<path fill="none" stroke="black" d="M263.02,-332.75C284.47,-324.16 310.18,-309.75 323,-287.28 335.63,-265.13 325.13,-236.98 313.39,-216.43"/>
<polygon fill="#000000" stroke="black" points="316.35,-214.57 308.16,-207.85 310.37,-218.21 316.35,-214.57"/>
</g>
<!-- pytermor_style -->
<g id="node8" class="node">
<title>pytermor_style</title><style>.edge>path:hover{stroke-width:8}</style>
<ellipse fill="#c82323" stroke="black" cx="268" cy="-266.07" rx="45.83" ry="18"/>
<text text-anchor="middle" x="268" y="-263.57" font-family="Helvetica,sans-Serif" font-size="10.00" fill="#ffffff">pytermor.style</text>
</g>
<!-- pytermor_color&#45;&gt;pytermor_style -->
<g id="edge9" class="edge">
<title>pytermor_color&#45;&gt;pytermor_style</title><style>.edge>path:hover{stroke-width:8}</style>
<path fill="none" stroke="black" d="M236.88,-326.53C242.06,-316.64 248.69,-303.95 254.51,-292.85"/>
<polygon fill="#000000" stroke="black" points="257.61,-294.46 259.15,-283.98 251.41,-291.22 257.61,-294.46"/>
</g>
<!-- pytermor_text -->
<g id="node9" class="node">
<title>pytermor_text</title><style>.edge>path:hover{stroke-width:8}</style>
<ellipse fill="#993333" stroke="black" cx="314" cy="-109.21" rx="43.62" ry="18"/>
<text text-anchor="middle" x="314" y="-106.71" font-family="Helvetica,sans-Serif" font-size="10.00" fill="#ffffff">pytermor.text</text>
</g>
<!-- pytermor_color&#45;&gt;pytermor_text -->
<g id="edge10" class="edge">
<title>pytermor_color&#45;&gt;pytermor_text</title><style>.edge>path:hover{stroke-width:8}</style>
<path fill="none" stroke="black" d="M222.23,-326.5C218.79,-315.47 214.76,-300.7 213,-287.28 205.9,-233.15 203.59,-211.08 235,-166.43 246.01,-150.77 262.82,-137.94 278.11,-128.5"/>
<polygon fill="#000000" stroke="black" points="280.03,-131.43 286.88,-123.34 276.49,-125.4 280.03,-131.43"/>
</g>
<!-- pytermor_common -->
<g id="node5" class="node">
<title>pytermor_common</title><style>.edge>path:hover{stroke-width:8}</style>
<ellipse fill="#f91010" stroke="black" cx="333" cy="-494.92" rx="40.11" ry="21.43"/>
<text text-anchor="middle" x="333" y="-497.92" font-family="Helvetica,sans-Serif" font-size="10.00" fill="#ffffff">pytermor.</text>
<text text-anchor="middle" x="333" y="-486.92" font-family="Helvetica,sans-Serif" font-size="10.00" fill="#ffffff">common</text>
</g>
<!-- pytermor_common&#45;&gt;pytermor -->
<g id="edge11" class="edge">
<title>pytermor_common&#45;&gt;pytermor</title><style>.edge>path:hover{stroke-width:8}</style>
<path fill="none" stroke="black" d="M292.66,-493.04C207.47,-488.84 17,-465.96 17,-345.49 17,-345.49 17,-345.49 17,-186.64 17,-139.66 20.1,-119.46 55,-88 97.54,-49.65 165.03,-38.63 208.67,-35.7"/>
<polygon fill="#000000" stroke="black" points="208.89,-39.19 218.68,-35.14 208.5,-32.2 208.89,-39.19"/>
</g>
<!-- pytermor_common&#45;&gt;pytermor_ansi -->
<g id="edge12" class="edge">
<title>pytermor_common&#45;&gt;pytermor_ansi</title><style>.edge>path:hover{stroke-width:8}</style>
<path fill="none" stroke="black" d="M302.61,-480.83C274.43,-468.69 232.36,-450.58 201.77,-437.4"/>
<polygon fill="#000000" stroke="black" points="202.85,-434.06 192.28,-433.31 200.08,-440.48 202.85,-434.06"/>
</g>
<!-- pytermor_common&#45;&gt;pytermor_color -->
<g id="edge13" class="edge">
<title>pytermor_common&#45;&gt;pytermor_color</title><style>.edge>path:hover{stroke-width:8}</style>
<path fill="none" stroke="black" d="M319.49,-474.82C300.71,-448.28 266.7,-400.2 245.86,-370.74"/>
<polygon fill="#000000" stroke="black" points="248.47,-368.37 239.84,-362.23 242.76,-372.42 248.47,-368.37"/>
</g>
<!-- pytermor_common&#45;&gt;pytermor_renderer -->
<g id="edge14" class="edge">
<title>pytermor_common&#45;&gt;pytermor_renderer</title><style>.edge>path:hover{stroke-width:8}</style>
<path fill="none" stroke="black" d="M336.44,-473.66C342.98,-430.49 354.49,-326.67 330,-244.85 326.93,-234.61 321.4,-224.45 315.58,-215.64"/>
<polygon fill="#000000" stroke="black" points="318.36,-213.5 309.74,-207.33 312.63,-217.53 318.36,-213.5"/>
</g>
<!-- pytermor_common&#45;&gt;pytermor_style -->
<g id="edge15" class="edge">
<title>pytermor_common&#45;&gt;pytermor_style</title><style>.edge>path:hover{stroke-width:8}</style>
<path fill="none" stroke="black" d="M327.23,-473.79C315.5,-432.84 288.86,-339.86 275.68,-293.86"/>
<polygon fill="#000000" stroke="black" points="278.98,-292.66 272.86,-284.01 272.25,-294.59 278.98,-292.66"/>
</g>
<!-- pytermor_common&#45;&gt;pytermor_text -->
<g id="edge16" class="edge">
<title>pytermor_common&#45;&gt;pytermor_text</title><style>.edge>path:hover{stroke-width:8}</style>
<path fill="none" stroke="black" d="M339.13,-473.83C342.08,-463.2 345.34,-449.86 347,-437.71 363.34,-318.24 373.68,-283.04 343,-166.43 340.19,-155.75 335.12,-144.8 329.99,-135.42"/>
<polygon fill="#000000" stroke="black" points="332.96,-133.56 324.93,-126.65 326.9,-137.06 332.96,-133.56"/>
</g>
<!-- pytermor_utilmisc -->
<g id="node10" class="node">
<title>pytermor_utilmisc</title><style>.edge>path:hover{stroke-width:8}</style>
<ellipse fill="#e61919" stroke="black" cx="432" cy="-344.49" rx="40.11" ry="21.43"/>
<text text-anchor="middle" x="432" y="-347.49" font-family="Helvetica,sans-Serif" font-size="10.00" fill="#ffffff">pytermor.</text>
<text text-anchor="middle" x="432" y="-336.49" font-family="Helvetica,sans-Serif" font-size="10.00" fill="#ffffff">utilmisc</text>
</g>
<!-- pytermor_common&#45;&gt;pytermor_utilmisc -->
<g id="edge17" class="edge">
<title>pytermor_common&#45;&gt;pytermor_utilmisc</title><style>.edge>path:hover{stroke-width:8}</style>
<path fill="none" stroke="black" d="M349.12,-475.19C358.03,-464.5 369.07,-450.68 378,-437.71 392.21,-417.04 406.47,-392.49 416.76,-373.92"/>
<polygon fill="#000000" stroke="black" points="419.88,-375.52 421.62,-365.07 413.74,-372.15 419.88,-375.52"/>
</g>
<!-- pytermor_utilstr -->
<g id="node12" class="node">
<title>pytermor_utilstr</title><style>.edge>path:hover{stroke-width:8}</style>
<ellipse fill="#d31717" stroke="black" cx="492" cy="-266.07" rx="40.11" ry="21.43"/>
<text text-anchor="middle" x="492" y="-269.07" font-family="Helvetica,sans-Serif" font-size="10.00" fill="#ffffff">pytermor.</text>
<text text-anchor="middle" x="492" y="-258.07" font-family="Helvetica,sans-Serif" font-size="10.00" fill="#ffffff">utilstr</text>
</g>
<!-- pytermor_common&#45;&gt;pytermor_utilstr -->
<g id="edge18" class="edge">
<title>pytermor_common&#45;&gt;pytermor_utilstr</title><style>.edge>path:hover{stroke-width:8}</style>
<path fill="none" stroke="black" d="M360.06,-479.17C394.66,-458.71 453.4,-418.21 481,-365.71 491.99,-344.79 494.37,-317.99 494.2,-297.6"/>
<polygon fill="#000000" stroke="black" points="497.7,-297.49 493.91,-287.59 490.7,-297.69 497.7,-297.49"/>
</g>
<!-- pytermor_cval&#45;&gt;pytermor -->
<g id="edge19" class="edge">
<title>pytermor_cval&#45;&gt;pytermor</title><style>.edge>path:hover{stroke-width:8}</style>
<path fill="none" stroke="black" d="M103.15,-247.95C110.07,-214.15 129.38,-137.83 170,-88 182.69,-72.43 201.19,-59.84 217.31,-50.85"/>
<polygon fill="#000000" stroke="black" points="219.28,-53.77 226.46,-45.98 215.99,-47.59 219.28,-53.77"/>
</g>
<!-- pytermor_renderer&#45;&gt;pytermor -->
<g id="edge20" class="edge">
<title>pytermor_renderer&#45;&gt;pytermor</title><style>.edge>path:hover{stroke-width:8}</style>
<path fill="none" stroke="black" d="M280.05,-167.59C273.14,-157.14 265.35,-143.65 261,-130.43 253.67,-108.13 251.38,-81.47 250.8,-62"/>
<polygon fill="#000000" stroke="black" points="254.3,-61.94 250.64,-52 247.3,-62.06 254.3,-61.94"/>
</g>
<!-- pytermor_renderer&#45;&gt;pytermor_text -->
<g id="edge21" class="edge">
<title>pytermor_renderer&#45;&gt;pytermor_text</title><style>.edge>path:hover{stroke-width:8}</style>
<path fill="none" stroke="black" d="M299.25,-166.56C301.6,-157.6 304.4,-146.9 306.93,-137.24"/>
<polygon fill="#000000" stroke="black" points="310.38,-137.87 309.53,-127.31 303.61,-136.1 310.38,-137.87"/>
</g>
<!-- pytermor_style&#45;&gt;pytermor -->
<g id="edge22" class="edge">
<title>pytermor_style&#45;&gt;pytermor</title><style>.edge>path:hover{stroke-width:8}</style>
<path fill="none" stroke="black" d="M255.03,-248.42C247.57,-237.76 238.92,-223.27 235,-208.85 221.24,-158.22 233.4,-96.58 242.72,-61.96"/>
<polygon fill="#000000" stroke="black" points="246.15,-62.7 245.49,-52.13 239.41,-60.8 246.15,-62.7"/>
</g>
<!-- pytermor_style&#45;&gt;pytermor_renderer -->
<g id="edge23" class="edge">
<title>pytermor_style&#45;&gt;pytermor_renderer</title><style>.edge>path:hover{stroke-width:8}</style>
<path fill="none" stroke="black" d="M273.77,-248.1C276.73,-239.4 280.43,-228.53 283.85,-218.48"/>
<polygon fill="#000000" stroke="black" points="287.23,-219.4 287.14,-208.81 280.6,-217.15 287.23,-219.4"/>
</g>
<!-- pytermor_style&#45;&gt;pytermor_text -->
<g id="edge24" class="edge">
<title>pytermor_style&#45;&gt;pytermor_text</title><style>.edge>path:hover{stroke-width:8}</style>
<path fill="none" stroke="black" d="M257.61,-248.29C246.52,-228.07 232.17,-193.43 245,-166.43 252.23,-151.2 265.84,-138.74 279.06,-129.46"/>
<polygon fill="#000000" stroke="black" points="281.2,-132.24 287.63,-123.82 277.35,-126.39 281.2,-132.24"/>
</g>
<!-- pytermor_text&#45;&gt;pytermor -->
<g id="edge25" class="edge">
<title>pytermor_text&#45;&gt;pytermor</title><style>.edge>path:hover{stroke-width:8}</style>
<path fill="none" stroke="black" d="M300.02,-91.96C291.5,-82.07 280.48,-69.26 271.04,-58.29"/>
<polygon fill="#000000" stroke="black" points="273.69,-56 264.51,-50.7 268.38,-60.56 273.69,-56"/>
</g>
<!-- pytermor_utilmisc&#45;&gt;pytermor -->
<g id="edge26" class="edge">
<title>pytermor_utilmisc&#45;&gt;pytermor</title><style>.edge>path:hover{stroke-width:8}</style>
<path fill="none" stroke="black" d="M432.51,-323.26C432.62,-276.27 426.55,-158.42 367,-88 347.5,-64.94 315.85,-51.41 290.53,-43.8"/>
<polygon fill="#000000" stroke="black" points="291.4,-40.4 280.83,-41.07 289.51,-47.14 291.4,-40.4"/>
</g>
<!-- pytermor_utilmisc&#45;&gt;pytermor_renderer -->
<g id="edge27" class="edge">
<title>pytermor_utilmisc&#45;&gt;pytermor_renderer</title><style>.edge>path:hover{stroke-width:8}</style>
<path fill="none" stroke="black" d="M419.18,-324.04C405.22,-303.45 381.71,-270.46 358,-244.85 347.49,-233.5 334.88,-222.04 323.65,-212.45"/>
<polygon fill="#000000" stroke="black" points="325.67,-209.58 315.76,-205.83 321.17,-214.94 325.67,-209.58"/>
</g>
<!-- pytermor_utilmisc&#45;&gt;pytermor_text -->
<g id="edge28" class="edge">
<title>pytermor_utilmisc&#45;&gt;pytermor_text</title><style>.edge>path:hover{stroke-width:8}</style>
<path fill="none" stroke="black" d="M425.54,-323.28C414.33,-289.51 389.41,-220.04 358,-166.43 351.51,-155.34 343.06,-144.02 335.3,-134.47"/>
<polygon fill="#000000" stroke="black" points="337.82,-132.03 328.73,-126.58 332.45,-136.51 337.82,-132.03"/>
</g>
<!-- pytermor_utilmisc&#45;&gt;pytermor_utilstr -->
<g id="edge29" class="edge">
<title>pytermor_utilmisc&#45;&gt;pytermor_utilstr</title><style>.edge>path:hover{stroke-width:8}</style>
<path fill="none" stroke="black" d="M446.83,-324.6C454.04,-315.41 462.84,-304.21 470.75,-294.13"/>
<polygon fill="#000000" stroke="black" points="473.71,-296.03 477.13,-286.01 468.2,-291.71 473.71,-296.03"/>
</g>
<!-- pytermor_utilnum -->
<g id="node11" class="node">
<title>pytermor_utilnum</title><style>.edge>path:hover{stroke-width:8}</style>
<ellipse fill="#c04040" stroke="black" cx="492" cy="-187.64" rx="40.11" ry="21.43"/>
<text text-anchor="middle" x="492" y="-190.64" font-family="Helvetica,sans-Serif" font-size="10.00" fill="#ffffff">pytermor.</text>
<text text-anchor="middle" x="492" y="-179.64" font-family="Helvetica,sans-Serif" font-size="10.00" fill="#ffffff">utilnum</text>
</g>
<!-- pytermor_utilnum&#45;&gt;pytermor -->
<g id="edge30" class="edge">
<title>pytermor_utilnum&#45;&gt;pytermor</title><style>.edge>path:hover{stroke-width:8}</style>
<path fill="none" stroke="black" d="M474.54,-168.36C464.75,-157.7 452.62,-143.76 443,-130.43 430.2,-112.67 435.12,-101.64 418,-88 381.73,-59.1 329.44,-45.83 293.06,-39.81"/>
<polygon fill="#000000" stroke="black" points="293.2,-36.3 282.79,-38.24 292.14,-43.21 293.2,-36.3"/>
</g>
<!-- pytermor_utilstr&#45;&gt;pytermor -->
<g id="edge31" class="edge">
<title>pytermor_utilstr&#45;&gt;pytermor</title><style>.edge>path:hover{stroke-width:8}</style>
<path fill="none" stroke="black" d="M473.38,-247.15C463.34,-236.71 451.34,-222.87 443,-208.85 428.35,-184.22 418.37,-108.16 398,-88 369.55,-59.85 325.07,-46.54 292.48,-40.32"/>
<polygon fill="#000000" stroke="black" points="292.81,-36.82 282.36,-38.54 291.6,-43.72 292.81,-36.82"/>
</g>
<!-- pytermor_utilstr&#45;&gt;pytermor_renderer -->
<g id="edge32" class="edge">
<title>pytermor_utilstr&#45;&gt;pytermor_renderer</title><style>.edge>path:hover{stroke-width:8}</style>
<path fill="none" stroke="black" d="M460.19,-252.79C426.27,-239.69 372.43,-218.91 335.27,-204.57"/>
<polygon fill="#000000" stroke="black" points="336.32,-201.22 325.73,-200.89 333.8,-207.75 336.32,-201.22"/>
</g>
<!-- pytermor_utilstr&#45;&gt;pytermor_text -->
<g id="edge33" class="edge">
<title>pytermor_utilstr&#45;&gt;pytermor_text</title><style>.edge>path:hover{stroke-width:8}</style>
<path fill="none" stroke="black" d="M471.93,-247.6C439.38,-219.29 375.16,-163.42 339.45,-132.36"/>
<polygon fill="#000000" stroke="black" points="341.71,-129.68 331.87,-125.76 337.12,-134.96 341.71,-129.68"/>
</g>
<!-- pytermor_utilstr&#45;&gt;pytermor_utilnum -->
<g id="edge34" class="edge">
<title>pytermor_utilstr&#45;&gt;pytermor_utilnum</title><style>.edge>path:hover{stroke-width:8}</style>
<path fill="none" stroke="black" d="M492,-244.59C492,-236.73 492,-227.58 492,-218.99"/>
<polygon fill="#000000" stroke="black" points="495.5,-218.91 492,-208.91 488.5,-218.91 495.5,-218.91"/>
</g>
</g>
</svg>
