<?xml version="1.0" encoding="UTF-8" standalone="no"?>
<!DOCTYPE svg PUBLIC "-//W3C//DTD SVG 1.1//EN"
 "http://www.w3.org/Graphics/SVG/1.1/DTD/svg11.dtd">
<!-- Generated by graphviz version 2.43.0 (0)
 -->
<!-- Title: G Pages: 1 -->
<svg width="484pt" height="629pt"
 viewBox="0.00 0.00 484.00 628.71" xmlns="http://www.w3.org/2000/svg" xmlns:xlink="http://www.w3.org/1999/xlink">
<g id="graph0" class="graph" transform="scale(1 1) rotate(0) translate(4 624.71)">
<title>G</title><style>.edge>path:hover{stroke-width:8}</style>
<polygon fill="white" stroke="transparent" points="-4,4 -4,-624.71 480,-624.71 480,4 -4,4"/>
<g id="clust1" class="cluster">
<title>cluster_pytermor</title><style>.edge>path:hover{stroke-width:8}</style>
<polygon fill="none" stroke="black" points="8,-8 8,-612.71 468,-612.71 468,-8 8,-8"/>
<text text-anchor="middle" x="238" y="-597.51" font-family="Times,serif" font-size="14.00">pytermor</text>
</g>
<!-- pytermor -->
<g id="node1" class="node">
<title>pytermor</title><style>.edge>path:hover{stroke-width:8}</style>
<ellipse fill="#732626" stroke="black" cx="117" cy="-34" rx="32.25" ry="18"/>
<text text-anchor="middle" x="117" y="-31.5" font-family="Helvetica,sans-Serif" font-size="10.00" fill="#ffffff">pytermor</text>
</g>
<!-- pytermor__version -->
<g id="node2" class="node">
<title>pytermor__version</title><style>.edge>path:hover{stroke-width:8}</style>
<ellipse fill="#c24747" stroke="black" cx="420" cy="-109.21" rx="40.11" ry="21.43"/>
<text text-anchor="middle" x="420" y="-112.21" font-family="Helvetica,sans-Serif" font-size="10.00" fill="#ffffff">pytermor.</text>
<text text-anchor="middle" x="420" y="-101.21" font-family="Helvetica,sans-Serif" font-size="10.00" fill="#ffffff">_version</text>
</g>
<!-- pytermor__version&#45;&gt;pytermor -->
<g id="edge1" class="edge">
<title>pytermor__version&#45;&gt;pytermor</title><style>.edge>path:hover{stroke-width:8}</style>
<path fill="none" stroke="black" d="M388.86,-95.66C381.44,-92.92 373.5,-90.19 366,-88 293.71,-66.9 207.35,-50.41 157.67,-41.74"/>
<polygon fill="#000000" stroke="black" points="158.09,-38.26 147.64,-40.01 156.9,-45.16 158.09,-38.26"/>
</g>
<!-- pytermor_ansi -->
<g id="node3" class="node">
<title>pytermor_ansi</title><style>.edge>path:hover{stroke-width:8}</style>
<ellipse fill="#e61919" stroke="black" cx="158" cy="-485.28" rx="44.3" ry="18"/>
<text text-anchor="middle" x="158" y="-482.78" font-family="Helvetica,sans-Serif" font-size="10.00" fill="#ffffff">pytermor.ansi</text>
</g>
<!-- pytermor_ansi&#45;&gt;pytermor -->
<g id="edge2" class="edge">
<title>pytermor_ansi&#45;&gt;pytermor</title><style>.edge>path:hover{stroke-width:8}</style>
<path fill="none" stroke="black" d="M133.22,-470.14C97.82,-447.87 37,-401.07 37,-342.28 37,-342.28 37,-342.28 37,-186.64 37,-141.41 39.29,-127.11 62,-88 69.15,-75.69 79.96,-64.39 90.12,-55.41"/>
<polygon fill="#000000" stroke="black" points="92.65,-57.86 98.04,-48.74 88.14,-52.51 92.65,-57.86"/>
</g>
<!-- pytermor_color -->
<g id="node4" class="node">
<title>pytermor_color</title><style>.edge>path:hover{stroke-width:8}</style>
<ellipse fill="#e90c0c" stroke="black" cx="190" cy="-413.28" rx="45.83" ry="18"/>
<text text-anchor="middle" x="190" y="-410.78" font-family="Helvetica,sans-Serif" font-size="10.00" fill="#ffffff">pytermor.color</text>
</g>
<!-- pytermor_ansi&#45;&gt;pytermor_color -->
<g id="edge3" class="edge">
<title>pytermor_ansi&#45;&gt;pytermor_color</title><style>.edge>path:hover{stroke-width:8}</style>
<path fill="none" stroke="black" d="M165.75,-467.33C169.44,-459.25 173.94,-449.4 178.06,-440.39"/>
<polygon fill="#000000" stroke="black" points="181.35,-441.62 182.33,-431.07 174.98,-438.71 181.35,-441.62"/>
</g>
<!-- pytermor_cval -->
<g id="node6" class="node">
<title>pytermor_cval</title><style>.edge>path:hover{stroke-width:8}</style>
<ellipse fill="#c43131" stroke="black" cx="120" cy="-341.28" rx="44.3" ry="18"/>
<text text-anchor="middle" x="120" y="-338.78" font-family="Helvetica,sans-Serif" font-size="10.00" fill="#ffffff">pytermor.cval</text>
</g>
<!-- pytermor_ansi&#45;&gt;pytermor_cval -->
<g id="edge4" class="edge">
<title>pytermor_ansi&#45;&gt;pytermor_cval</title><style>.edge>path:hover{stroke-width:8}</style>
<path fill="none" stroke="black" d="M149.46,-467.49C144.58,-457.25 138.71,-443.78 135,-431.28 128.96,-410.9 125.11,-387.14 122.82,-369.29"/>
<polygon fill="#000000" stroke="black" points="126.29,-368.8 121.63,-359.29 119.34,-369.63 126.29,-368.8"/>
</g>
<!-- pytermor_renderer -->
<g id="node7" class="node">
<title>pytermor_renderer</title><style>.edge>path:hover{stroke-width:8}</style>
<ellipse fill="#ac2b2b" stroke="black" cx="314" cy="-187.64" rx="40.11" ry="21.43"/>
<text text-anchor="middle" x="314" y="-190.64" font-family="Helvetica,sans-Serif" font-size="10.00" fill="#ffffff">pytermor.</text>
<text text-anchor="middle" x="314" y="-179.64" font-family="Helvetica,sans-Serif" font-size="10.00" fill="#ffffff">renderer</text>
</g>
<!-- pytermor_ansi&#45;&gt;pytermor_renderer -->
<g id="edge5" class="edge">
<title>pytermor_ansi&#45;&gt;pytermor_renderer</title><style>.edge>path:hover{stroke-width:8}</style>
<path fill="none" stroke="black" d="M189.09,-472.3C207.83,-463.57 230.76,-450 245,-431.28 294.16,-366.66 308.31,-268.38 312.37,-219.08"/>
<polygon fill="#000000" stroke="black" points="315.86,-219.28 313.11,-209.05 308.88,-218.77 315.86,-219.28"/>
</g>
<!-- pytermor_color&#45;&gt;pytermor -->
<g id="edge6" class="edge">
<title>pytermor_color&#45;&gt;pytermor</title><style>.edge>path:hover{stroke-width:8}</style>
<path fill="none" stroke="black" d="M194.28,-395.36C201.4,-363.05 212.06,-291.66 181,-244.85 160.78,-214.38 126.4,-239.86 107,-208.85 97,-192.87 106.28,-185.27 107,-166.43 108.37,-130.25 111.87,-88.6 114.34,-62.05"/>
<polygon fill="#000000" stroke="black" points="117.83,-62.28 115.29,-51.99 110.86,-61.61 117.83,-62.28"/>
</g>
<!-- pytermor_color&#45;&gt;pytermor_cval -->
<g id="edge7" class="edge">
<title>pytermor_color&#45;&gt;pytermor_cval</title><style>.edge>path:hover{stroke-width:8}</style>
<path fill="none" stroke="black" d="M173.76,-396.04C164.75,-387.03 153.39,-375.66 143.43,-365.71"/>
<polygon fill="#000000" stroke="black" points="145.69,-363.02 136.15,-358.43 140.74,-367.97 145.69,-363.02"/>
</g>
<!-- pytermor_color&#45;&gt;pytermor_renderer -->
<g id="edge8" class="edge">
<title>pytermor_color&#45;&gt;pytermor_renderer</title><style>.edge>path:hover{stroke-width:8}</style>
<path fill="none" stroke="black" d="M207.84,-396.38C218.2,-386.46 230.95,-373.01 240,-359.28 242.09,-356.11 281.04,-265.53 301.57,-217.66"/>
<polygon fill="#000000" stroke="black" points="304.81,-218.99 305.53,-208.42 298.37,-216.23 304.81,-218.99"/>
</g>
<!-- pytermor_style -->
<g id="node8" class="node">
<title>pytermor_style</title><style>.edge>path:hover{stroke-width:8}</style>
<ellipse fill="#bf2121" stroke="black" cx="126" cy="-266.07" rx="45.83" ry="18"/>
<text text-anchor="middle" x="126" y="-263.57" font-family="Helvetica,sans-Serif" font-size="10.00" fill="#ffffff">pytermor.style</text>
</g>
<!-- pytermor_color&#45;&gt;pytermor_style -->
<g id="edge9" class="edge">
<title>pytermor_color&#45;&gt;pytermor_style</title><style>.edge>path:hover{stroke-width:8}</style>
<path fill="none" stroke="black" d="M189.27,-395.09C187.92,-376.56 184.05,-346.59 173,-323.28 167.38,-311.42 158.66,-300 150.25,-290.58"/>
<polygon fill="#000000" stroke="black" points="152.72,-288.09 143.34,-283.18 147.61,-292.87 152.72,-288.09"/>
</g>
<!-- pytermor_text -->
<g id="node9" class="node">
<title>pytermor_text</title><style>.edge>path:hover{stroke-width:8}</style>
<ellipse fill="#993333" stroke="black" cx="180" cy="-109.21" rx="43.62" ry="18"/>
<text text-anchor="middle" x="180" y="-106.71" font-family="Helvetica,sans-Serif" font-size="10.00" fill="#ffffff">pytermor.text</text>
</g>
<!-- pytermor_color&#45;&gt;pytermor_text -->
<g id="edge10" class="edge">
<title>pytermor_color&#45;&gt;pytermor_text</title><style>.edge>path:hover{stroke-width:8}</style>
<path fill="none" stroke="black" d="M197.17,-395.44C201.17,-385.19 205.78,-371.71 208,-359.28 223.09,-274.89 233.94,-249.3 212,-166.43 209.16,-155.68 203.73,-144.84 198.13,-135.58"/>
<polygon fill="#000000" stroke="black" points="200.92,-133.45 192.58,-126.92 195.03,-137.22 200.92,-133.45"/>
</g>
<!-- pytermor_common -->
<g id="node5" class="node">
<title>pytermor_common</title><style>.edge>path:hover{stroke-width:8}</style>
<ellipse fill="#f91010" stroke="black" cx="221" cy="-560.49" rx="40.11" ry="21.43"/>
<text text-anchor="middle" x="221" y="-563.49" font-family="Helvetica,sans-Serif" font-size="10.00" fill="#ffffff">pytermor.</text>
<text text-anchor="middle" x="221" y="-552.49" font-family="Helvetica,sans-Serif" font-size="10.00" fill="#ffffff">common</text>
</g>
<!-- pytermor_common&#45;&gt;pytermor -->
<g id="edge11" class="edge">
<title>pytermor_common&#45;&gt;pytermor</title><style>.edge>path:hover{stroke-width:8}</style>
<path fill="none" stroke="black" d="M184.53,-551.25C125.85,-535.59 17,-495.57 17,-414.28 17,-414.28 17,-414.28 17,-186.64 17,-141.72 13.76,-125.15 39,-88 49.92,-71.92 67.48,-59.36 83.18,-50.51"/>
<polygon fill="#000000" stroke="black" points="84.97,-53.52 92.14,-45.73 81.67,-47.35 84.97,-53.52"/>
</g>
<!-- pytermor_common&#45;&gt;pytermor_ansi -->
<g id="edge12" class="edge">
<title>pytermor_common&#45;&gt;pytermor_ansi</title><style>.edge>path:hover{stroke-width:8}</style>
<path fill="none" stroke="black" d="M204.78,-540.64C196.91,-531.5 187.38,-520.42 178.97,-510.65"/>
<polygon fill="#000000" stroke="black" points="181.41,-508.12 172.24,-502.83 176.11,-512.69 181.41,-508.12"/>
</g>
<!-- pytermor_common&#45;&gt;pytermor_color -->
<g id="edge13" class="edge">
<title>pytermor_common&#45;&gt;pytermor_color</title><style>.edge>path:hover{stroke-width:8}</style>
<path fill="none" stroke="black" d="M220.36,-539.07C219.4,-520.2 217,-491.51 211,-467.28 208.78,-458.3 205.38,-448.82 201.96,-440.39"/>
<polygon fill="#000000" stroke="black" points="205.14,-438.92 198.01,-431.08 198.69,-441.65 205.14,-438.92"/>
</g>
<!-- pytermor_common&#45;&gt;pytermor_renderer -->
<g id="edge14" class="edge">
<title>pytermor_common&#45;&gt;pytermor_renderer</title><style>.edge>path:hover{stroke-width:8}</style>
<path fill="none" stroke="black" d="M242.92,-542.66C255.14,-532.36 269.89,-518.31 280,-503.28 303.72,-468.01 315,-456.78 315,-414.28 315,-414.28 315,-414.28 315,-340.28 315,-298.36 314.61,-249.92 314.32,-219.29"/>
<polygon fill="#000000" stroke="black" points="317.82,-219.21 314.22,-209.24 310.82,-219.28 317.82,-219.21"/>
</g>
<!-- pytermor_common&#45;&gt;pytermor_style -->
<g id="edge15" class="edge">
<title>pytermor_common&#45;&gt;pytermor_style</title><style>.edge>path:hover{stroke-width:8}</style>
<path fill="none" stroke="black" d="M185.04,-550.75C159.15,-542.63 125.34,-527.99 105,-503.28 53.03,-440.16 34.8,-398.43 67,-323.28 72.92,-309.47 84.08,-297.44 95.12,-288.09"/>
<polygon fill="#000000" stroke="black" points="97.41,-290.74 103.06,-281.77 93.06,-285.26 97.41,-290.74"/>
</g>
<!-- pytermor_common&#45;&gt;pytermor_text -->
<g id="edge16" class="edge">
<title>pytermor_common&#45;&gt;pytermor_text</title><style>.edge>path:hover{stroke-width:8}</style>
<path fill="none" stroke="black" d="M226,-539.23C231.92,-514.09 241.42,-469.84 245,-431.28 253.5,-339.64 241.68,-220.17 221,-166.43 216.62,-155.03 209.3,-143.87 202.06,-134.54"/>
<polygon fill="#000000" stroke="black" points="204.55,-132.06 195.51,-126.53 199.13,-136.49 204.55,-132.06"/>
</g>
<!-- pytermor_utilstr -->
<g id="node11" class="node">
<title>pytermor_utilstr</title><style>.edge>path:hover{stroke-width:8}</style>
<ellipse fill="#e61919" stroke="black" cx="374" cy="-266.07" rx="40.11" ry="21.43"/>
<text text-anchor="middle" x="374" y="-269.07" font-family="Helvetica,sans-Serif" font-size="10.00" fill="#ffffff">pytermor.</text>
<text text-anchor="middle" x="374" y="-258.07" font-family="Helvetica,sans-Serif" font-size="10.00" fill="#ffffff">utilstr</text>
</g>
<!-- pytermor_common&#45;&gt;pytermor_utilstr -->
<g id="edge17" class="edge">
<title>pytermor_common&#45;&gt;pytermor_utilstr</title><style>.edge>path:hover{stroke-width:8}</style>
<path fill="none" stroke="black" d="M254.81,-548.43C276.62,-539.58 303.84,-525.01 320,-503.28 366.33,-440.99 373.93,-345.76 374.56,-297.44"/>
<polygon fill="#000000" stroke="black" points="378.06,-297.34 374.59,-287.32 371.06,-297.31 378.06,-297.34"/>
</g>
<!-- pytermor_cval&#45;&gt;pytermor -->
<g id="edge18" class="edge">
<title>pytermor_cval&#45;&gt;pytermor</title><style>.edge>path:hover{stroke-width:8}</style>
<path fill="none" stroke="black" d="M99.89,-324.98C89.1,-315.47 76.85,-302.22 71,-287.28 57.37,-252.47 40.18,-198.97 79,-88 82.74,-77.31 89.36,-66.88 96.04,-58.14"/>
<polygon fill="#000000" stroke="black" points="98.79,-60.3 102.36,-50.33 93.35,-55.9 98.79,-60.3"/>
</g>
<!-- pytermor_cval&#45;&gt;pytermor_style -->
<g id="edge19" class="edge">
<title>pytermor_cval&#45;&gt;pytermor_style</title><style>.edge>path:hover{stroke-width:8}</style>
<path fill="none" stroke="black" d="M121.42,-322.93C122.12,-314.45 122.97,-304.04 123.75,-294.52"/>
<polygon fill="#000000" stroke="black" points="127.26,-294.54 124.59,-284.29 120.28,-293.97 127.26,-294.54"/>
</g>
<!-- pytermor_renderer&#45;&gt;pytermor -->
<g id="edge20" class="edge">
<title>pytermor_renderer&#45;&gt;pytermor</title><style>.edge>path:hover{stroke-width:8}</style>
<path fill="none" stroke="black" d="M291.68,-169.68C279.16,-159.34 263.91,-145.28 253,-130.43 240.66,-113.62 247.83,-102.65 233,-88 211.68,-66.94 180.48,-53.33 155.8,-45.18"/>
<polygon fill="#000000" stroke="black" points="156.61,-41.77 146.02,-42.12 154.52,-48.45 156.61,-41.77"/>
</g>
<!-- pytermor_renderer&#45;&gt;pytermor_text -->
<g id="edge21" class="edge">
<title>pytermor_renderer&#45;&gt;pytermor_text</title><style>.edge>path:hover{stroke-width:8}</style>
<path fill="none" stroke="black" d="M287.53,-171.54C266.25,-159.4 236.24,-142.29 213.32,-129.22"/>
<polygon fill="#000000" stroke="black" points="215.03,-126.16 204.61,-124.25 211.56,-132.25 215.03,-126.16"/>
</g>
<!-- pytermor_style&#45;&gt;pytermor -->
<g id="edge22" class="edge">
<title>pytermor_style&#45;&gt;pytermor</title><style>.edge>path:hover{stroke-width:8}</style>
<path fill="none" stroke="black" d="M112.64,-248.48C104.96,-237.85 96.04,-223.35 92,-208.85 77.57,-157.11 80.26,-140.41 92,-88 94.1,-78.62 98.05,-68.95 102.21,-60.48"/>
<polygon fill="#000000" stroke="black" points="105.37,-61.98 106.89,-51.5 99.16,-58.74 105.37,-61.98"/>
</g>
<!-- pytermor_style&#45;&gt;pytermor_renderer -->
<g id="edge23" class="edge">
<title>pytermor_style&#45;&gt;pytermor_renderer</title><style>.edge>path:hover{stroke-width:8}</style>
<path fill="none" stroke="black" d="M156.62,-252.62C188.39,-239.7 238.23,-219.44 273.29,-205.19"/>
<polygon fill="#000000" stroke="black" points="274.82,-208.35 282.76,-201.34 272.18,-201.86 274.82,-208.35"/>
</g>
<!-- pytermor_style&#45;&gt;pytermor_text -->
<g id="edge24" class="edge">
<title>pytermor_style&#45;&gt;pytermor_text</title><style>.edge>path:hover{stroke-width:8}</style>
<path fill="none" stroke="black" d="M156.08,-252.39C173.82,-243.15 194.74,-228.75 205,-208.85 217.01,-185.57 206.72,-156.16 195.93,-135.54"/>
<polygon fill="#000000" stroke="black" points="198.95,-133.76 191.02,-126.74 192.83,-137.17 198.95,-133.76"/>
</g>
<!-- pytermor_text&#45;&gt;pytermor -->
<g id="edge25" class="edge">
<title>pytermor_text&#45;&gt;pytermor</title><style>.edge>path:hover{stroke-width:8}</style>
<path fill="none" stroke="black" d="M166.02,-91.96C157.5,-82.07 146.48,-69.26 137.04,-58.29"/>
<polygon fill="#000000" stroke="black" points="139.69,-56 130.51,-50.7 134.38,-60.56 139.69,-56"/>
</g>
<!-- pytermor_utilnum -->
<g id="node10" class="node">
<title>pytermor_utilnum</title><style>.edge>path:hover{stroke-width:8}</style>
<ellipse fill="#c04040" stroke="black" cx="302" cy="-109.21" rx="40.11" ry="21.43"/>
<text text-anchor="middle" x="302" y="-112.21" font-family="Helvetica,sans-Serif" font-size="10.00" fill="#ffffff">pytermor.</text>
<text text-anchor="middle" x="302" y="-101.21" font-family="Helvetica,sans-Serif" font-size="10.00" fill="#ffffff">utilnum</text>
</g>
<!-- pytermor_utilnum&#45;&gt;pytermor -->
<g id="edge26" class="edge">
<title>pytermor_utilnum&#45;&gt;pytermor</title><style>.edge>path:hover{stroke-width:8}</style>
<path fill="none" stroke="black" d="M270.62,-95.79C237.78,-82.8 186.34,-62.44 152.15,-48.91"/>
<polygon fill="#000000" stroke="black" points="153.15,-45.54 142.57,-45.12 150.58,-52.05 153.15,-45.54"/>
</g>
<!-- pytermor_utilstr&#45;&gt;pytermor -->
<g id="edge27" class="edge">
<title>pytermor_utilstr&#45;&gt;pytermor</title><style>.edge>path:hover{stroke-width:8}</style>
<path fill="none" stroke="black" d="M379.37,-244.94C381.94,-234.29 384.72,-220.96 386,-208.85 387.98,-190.1 389.93,-184.87 386,-166.43 385.5,-164.09 352.84,-89.51 351,-88 321.98,-64.2 217.89,-47.65 158.78,-39.93"/>
<polygon fill="#000000" stroke="black" points="159.01,-36.43 148.65,-38.64 158.12,-43.38 159.01,-36.43"/>
</g>
<!-- pytermor_utilstr&#45;&gt;pytermor_renderer -->
<g id="edge28" class="edge">
<title>pytermor_utilstr&#45;&gt;pytermor_renderer</title><style>.edge>path:hover{stroke-width:8}</style>
<path fill="none" stroke="black" d="M359.17,-246.17C351.96,-236.99 343.16,-225.78 335.25,-215.71"/>
<polygon fill="#000000" stroke="black" points="337.8,-213.28 328.87,-207.58 332.29,-217.61 337.8,-213.28"/>
</g>
<!-- pytermor_utilstr&#45;&gt;pytermor_text -->
<g id="edge29" class="edge">
<title>pytermor_utilstr&#45;&gt;pytermor_text</title><style>.edge>path:hover{stroke-width:8}</style>
<path fill="none" stroke="black" d="M374.28,-244.74C374.21,-219.39 372.56,-177.97 363,-166.43 358.46,-160.94 277.92,-137.59 225.21,-122.76"/>
<polygon fill="#000000" stroke="black" points="225.97,-119.34 215.4,-120.01 224.08,-126.08 225.97,-119.34"/>
</g>
<!-- pytermor_utilstr&#45;&gt;pytermor_utilnum -->
<g id="edge30" class="edge">
<title>pytermor_utilstr&#45;&gt;pytermor_utilnum</title><style>.edge>path:hover{stroke-width:8}</style>
<path fill="none" stroke="black" d="M380.28,-244.96C385.58,-224.13 390.5,-191.22 378,-166.43 369.98,-150.53 355.11,-138.01 340.64,-128.86"/>
<polygon fill="#000000" stroke="black" points="342.13,-125.68 331.74,-123.6 338.57,-131.7 342.13,-125.68"/>
</g>
<!-- pytermor_utilsys -->
<g id="node12" class="node">
<title>pytermor_utilsys</title><style>.edge>path:hover{stroke-width:8}</style>
<ellipse fill="#ce3b3b" stroke="black" cx="156" cy="-187.64" rx="40.11" ry="21.43"/>
<text text-anchor="middle" x="156" y="-190.64" font-family="Helvetica,sans-Serif" font-size="10.00" fill="#ffffff">pytermor.</text>
<text text-anchor="middle" x="156" y="-179.64" font-family="Helvetica,sans-Serif" font-size="10.00" fill="#ffffff">utilsys</text>
</g>
<!-- pytermor_utilsys&#45;&gt;pytermor -->
<g id="edge31" class="edge">
<title>pytermor_utilsys&#45;&gt;pytermor</title><style>.edge>path:hover{stroke-width:8}</style>
<path fill="none" stroke="black" d="M143.78,-167.37C137.71,-156.85 130.87,-143.37 127,-130.43 120.35,-108.18 117.98,-81.86 117.2,-62.5"/>
<polygon fill="#000000" stroke="black" points="120.69,-62.16 116.9,-52.27 113.69,-62.36 120.69,-62.16"/>
</g>
<!-- pytermor_utilsys&#45;&gt;pytermor_text -->
<g id="edge32" class="edge">
<title>pytermor_utilsys&#45;&gt;pytermor_text</title><style>.edge>path:hover{stroke-width:8}</style>
<path fill="none" stroke="black" d="M162.31,-166.56C165.15,-157.5 168.55,-146.67 171.61,-136.94"/>
<polygon fill="#000000" stroke="black" points="174.97,-137.9 174.63,-127.31 168.3,-135.8 174.97,-137.9"/>
</g>
</g>
</svg>
