<?xml version="1.0" encoding="UTF-8" standalone="no"?>
<!DOCTYPE svg PUBLIC "-//W3C//DTD SVG 1.1//EN"
 "http://www.w3.org/Graphics/SVG/1.1/DTD/svg11.dtd">
<!-- Generated by graphviz version 2.43.0 (0)
 -->
<!-- Title: G Pages: 1 -->
<svg width="512pt" height="531pt"
 viewBox="0.00 0.00 512.00 531.37" xmlns="http://www.w3.org/2000/svg" xmlns:xlink="http://www.w3.org/1999/xlink">
<g id="graph0" class="graph" transform="scale(1 1) rotate(0) translate(4 527.37)">
<title>G</title><style>.edge>path:hover{stroke-width:8}</style>
<polygon fill="white" stroke="transparent" points="-4,4 -4,-527.37 508,-527.37 508,4 -4,4"/>
<g id="clust1" class="cluster">
<title>cluster_pytermor</title><style>.edge>path:hover{stroke-width:8}</style>
<polygon fill="none" stroke="black" points="8,-8 8,-515.37 496,-515.37 496,-8 8,-8"/>
<text text-anchor="middle" x="252" y="-500.17" font-family="Times,serif" font-size="14.00">pytermor</text>
</g>
<!-- pytermor -->
<g id="node1" class="node">
<title>pytermor</title><style>.edge>path:hover{stroke-width:8}</style>
<ellipse fill="#a13535" stroke="black" cx="356" cy="-34" rx="32.25" ry="18"/>
<text text-anchor="middle" x="356" y="-31.5" font-family="Helvetica,sans-Serif" font-size="10.00" fill="#ffffff">pytermor</text>
</g>
<!-- pytermor__version -->
<g id="node2" class="node">
<title>pytermor__version</title><style>.edge>path:hover{stroke-width:8}</style>
<ellipse fill="#c24747" stroke="black" cx="448" cy="-109.21" rx="40.11" ry="21.43"/>
<text text-anchor="middle" x="448" y="-112.21" font-family="Helvetica,sans-Serif" font-size="10.00" fill="#ffffff">pytermor.</text>
<text text-anchor="middle" x="448" y="-101.21" font-family="Helvetica,sans-Serif" font-size="10.00" fill="#ffffff">_version</text>
</g>
<!-- pytermor__version&#45;&gt;pytermor -->
<g id="edge1" class="edge">
<title>pytermor__version&#45;&gt;pytermor</title><style>.edge>path:hover{stroke-width:8}</style>
<path fill="none" stroke="black" d="M426.2,-90.86C412.87,-80.26 395.76,-66.64 381.77,-55.5"/>
<polygon fill="#000000" stroke="black" points="383.94,-52.76 373.94,-49.28 379.59,-58.24 383.94,-52.76"/>
</g>
<!-- pytermor_ansi -->
<g id="node3" class="node">
<title>pytermor_ansi</title><style>.edge>path:hover{stroke-width:8}</style>
<ellipse fill="#db2f2f" stroke="black" cx="444" cy="-267.42" rx="44.3" ry="18"/>
<text text-anchor="middle" x="444" y="-264.92" font-family="Helvetica,sans-Serif" font-size="10.00" fill="#ffffff">pytermor.ansi</text>
</g>
<!-- pytermor_ansi&#45;&gt;pytermor -->
<g id="edge2" class="edge">
<title>pytermor_ansi&#45;&gt;pytermor</title><style>.edge>path:hover{stroke-width:8}</style>
<path fill="none" stroke="black" d="M439.54,-249.22C434.17,-229.13 424.54,-194.99 414,-166.43 410.14,-155.97 383.41,-96.07 367.62,-60.85"/>
<polygon fill="#000000" stroke="black" points="370.77,-59.33 363.48,-51.64 364.38,-62.19 370.77,-59.33"/>
</g>
<!-- pytermor_color -->
<g id="node4" class="node">
<title>pytermor_color</title><style>.edge>path:hover{stroke-width:8}</style>
<ellipse fill="#c43131" stroke="black" cx="343" cy="-184.43" rx="45.83" ry="18"/>
<text text-anchor="middle" x="343" y="-181.93" font-family="Helvetica,sans-Serif" font-size="10.00" fill="#ffffff">pytermor.color</text>
</g>
<!-- pytermor_ansi&#45;&gt;pytermor_color -->
<g id="edge3" class="edge">
<title>pytermor_ansi&#45;&gt;pytermor_color</title><style>.edge>path:hover{stroke-width:8}</style>
<path fill="none" stroke="black" d="M424.53,-250.8C409.16,-238.48 387.53,-221.13 370.41,-207.4"/>
<polygon fill="#000000" stroke="black" points="372.41,-204.52 362.41,-200.99 368.03,-209.98 372.41,-204.52"/>
</g>
<!-- pytermor_text -->
<g id="node6" class="node">
<title>pytermor_text</title><style>.edge>path:hover{stroke-width:8}</style>
<ellipse fill="#a13535" stroke="black" cx="293" cy="-109.21" rx="43.62" ry="18"/>
<text text-anchor="middle" x="293" y="-106.71" font-family="Helvetica,sans-Serif" font-size="10.00" fill="#ffffff">pytermor.text</text>
</g>
<!-- pytermor_ansi&#45;&gt;pytermor_text -->
<g id="edge4" class="edge">
<title>pytermor_ansi&#45;&gt;pytermor_text</title><style>.edge>path:hover{stroke-width:8}</style>
<path fill="none" stroke="black" d="M439.77,-249.29C433.7,-227.7 420.66,-190.5 398,-166.43 380.79,-148.15 356.29,-134.56 335.28,-125.33"/>
<polygon fill="#000000" stroke="black" points="336.49,-122.04 325.92,-121.4 333.78,-128.5 336.49,-122.04"/>
</g>
<!-- pytermor_color&#45;&gt;pytermor -->
<g id="edge5" class="edge">
<title>pytermor_color&#45;&gt;pytermor</title><style>.edge>path:hover{stroke-width:8}</style>
<path fill="none" stroke="black" d="M344.49,-166.4C346.71,-141.04 350.91,-93.06 353.58,-62.63"/>
<polygon fill="#000000" stroke="black" points="357.1,-62.55 354.49,-52.29 350.13,-61.94 357.1,-62.55"/>
</g>
<!-- pytermor_color&#45;&gt;pytermor_text -->
<g id="edge6" class="edge">
<title>pytermor_color&#45;&gt;pytermor_text</title><style>.edge>path:hover{stroke-width:8}</style>
<path fill="none" stroke="black" d="M331.65,-166.81C325.26,-157.45 317.15,-145.58 310.01,-135.12"/>
<polygon fill="#000000" stroke="black" points="312.83,-133.04 304.3,-126.76 307.05,-136.99 312.83,-133.04"/>
</g>
<!-- pytermor_common -->
<g id="node5" class="node">
<title>pytermor_common</title><style>.edge>path:hover{stroke-width:8}</style>
<ellipse fill="#db2f2f" stroke="black" cx="342" cy="-267.42" rx="40.11" ry="21.43"/>
<text text-anchor="middle" x="342" y="-270.42" font-family="Helvetica,sans-Serif" font-size="10.00" fill="#ffffff">pytermor.</text>
<text text-anchor="middle" x="342" y="-259.42" font-family="Helvetica,sans-Serif" font-size="10.00" fill="#ffffff">common</text>
</g>
<!-- pytermor_common&#45;&gt;pytermor_color -->
<g id="edge7" class="edge">
<title>pytermor_common&#45;&gt;pytermor_color</title><style>.edge>path:hover{stroke-width:8}</style>
<path fill="none" stroke="black" d="M342.25,-245.98C342.38,-235.93 342.53,-223.67 342.66,-212.82"/>
<polygon fill="#000000" stroke="black" points="346.16,-212.61 342.79,-202.57 339.17,-212.53 346.16,-212.61"/>
</g>
<!-- pytermor_common&#45;&gt;pytermor_text -->
<g id="edge8" class="edge">
<title>pytermor_common&#45;&gt;pytermor_text</title><style>.edge>path:hover{stroke-width:8}</style>
<path fill="none" stroke="black" d="M321.45,-249.14C309.17,-237.4 294.69,-220.72 288,-202.43 280.33,-181.43 282.49,-155.96 286.06,-137.11"/>
<polygon fill="#000000" stroke="black" points="289.53,-137.63 288.19,-127.12 282.68,-136.17 289.53,-137.63"/>
</g>
<!-- pytermor_util -->
<g id="node7" class="node">
<title>pytermor_util</title><style>.edge>path:hover{stroke-width:8}</style>
<ellipse fill="#a32828" stroke="black" cx="218" cy="-184.43" rx="41.41" ry="18"/>
<text text-anchor="middle" x="218" y="-181.93" font-family="Helvetica,sans-Serif" font-size="10.00" fill="#ffffff">pytermor.util</text>
</g>
<!-- pytermor_common&#45;&gt;pytermor_util -->
<g id="edge9" class="edge">
<title>pytermor_common&#45;&gt;pytermor_util</title><style>.edge>path:hover{stroke-width:8}</style>
<path fill="none" stroke="black" d="M317.5,-250.42C297.74,-237.51 269.83,-219.28 248.6,-205.41"/>
<polygon fill="#000000" stroke="black" points="250.24,-202.3 239.95,-199.77 246.41,-208.16 250.24,-202.3"/>
</g>
<!-- pytermor_text&#45;&gt;pytermor -->
<g id="edge10" class="edge">
<title>pytermor_text&#45;&gt;pytermor</title><style>.edge>path:hover{stroke-width:8}</style>
<path fill="none" stroke="black" d="M306.98,-91.96C315.5,-82.07 326.52,-69.26 335.96,-58.29"/>
<polygon fill="#000000" stroke="black" points="338.62,-60.56 342.49,-50.7 333.31,-56 338.62,-60.56"/>
</g>
<!-- pytermor_util&#45;&gt;pytermor -->
<g id="edge11" class="edge">
<title>pytermor_util&#45;&gt;pytermor</title><style>.edge>path:hover{stroke-width:8}</style>
<path fill="none" stroke="black" d="M217.59,-166.3C217.98,-145.54 221.62,-110.53 240,-88 259.09,-64.6 290.77,-51.09 316.2,-43.57"/>
<polygon fill="#000000" stroke="black" points="317.24,-46.92 325.95,-40.89 315.38,-40.17 317.24,-46.92"/>
</g>
<!-- pytermor_util&#45;&gt;pytermor_text -->
<g id="edge12" class="edge">
<title>pytermor_util&#45;&gt;pytermor_text</title><style>.edge>path:hover{stroke-width:8}</style>
<path fill="none" stroke="black" d="M234.27,-167.54C244.59,-157.47 258.11,-144.27 269.57,-133.08"/>
<polygon fill="#000000" stroke="black" points="272.05,-135.56 276.76,-126.07 267.16,-130.55 272.05,-135.56"/>
</g>
<!-- pytermor_util_auto_float -->
<g id="node8" class="node">
<title>pytermor_util_auto_float</title><style>.edge>path:hover{stroke-width:8}</style>
<ellipse fill="#ce3b3b" stroke="black" cx="93" cy="-361.4" rx="41.94" ry="28.98"/>
<text text-anchor="middle" x="93" y="-369.9" font-family="Helvetica,sans-Serif" font-size="10.00" fill="#ffffff">pytermor.</text>
<text text-anchor="middle" x="93" y="-358.9" font-family="Helvetica,sans-Serif" font-size="10.00" fill="#ffffff">util.</text>
<text text-anchor="middle" x="93" y="-347.9" font-family="Helvetica,sans-Serif" font-size="10.00" fill="#ffffff">auto_float</text>
</g>
<!-- pytermor_util_auto_float&#45;&gt;pytermor_util -->
<g id="edge13" class="edge">
<title>pytermor_util_auto_float&#45;&gt;pytermor_util</title><style>.edge>path:hover{stroke-width:8}</style>
<path fill="none" stroke="black" d="M71.3,-336.52C50.36,-310.47 24.85,-268.49 47,-238.43 74.23,-201.49 126.93,-189.53 166.66,-186.02"/>
<polygon fill="#000000" stroke="black" points="167,-189.5 176.72,-185.29 166.49,-182.52 167,-189.5"/>
</g>
<!-- pytermor_util_prefixed_unit -->
<g id="node9" class="node">
<title>pytermor_util_prefixed_unit</title><style>.edge>path:hover{stroke-width:8}</style>
<ellipse fill="#c04040" stroke="black" cx="107" cy="-267.42" rx="50.82" ry="28.98"/>
<text text-anchor="middle" x="107" y="-275.92" font-family="Helvetica,sans-Serif" font-size="10.00" fill="#ffffff">pytermor.</text>
<text text-anchor="middle" x="107" y="-264.92" font-family="Helvetica,sans-Serif" font-size="10.00" fill="#ffffff">util.</text>
<text text-anchor="middle" x="107" y="-253.92" font-family="Helvetica,sans-Serif" font-size="10.00" fill="#ffffff">prefixed_unit</text>
</g>
<!-- pytermor_util_auto_float&#45;&gt;pytermor_util_prefixed_unit -->
<g id="edge14" class="edge">
<title>pytermor_util_auto_float&#45;&gt;pytermor_util_prefixed_unit</title><style>.edge>path:hover{stroke-width:8}</style>
<path fill="none" stroke="black" d="M97.28,-332.3C98.52,-324.1 99.91,-315 101.23,-306.3"/>
<polygon fill="#000000" stroke="black" points="104.71,-306.76 102.75,-296.34 97.78,-305.7 104.71,-306.76"/>
</g>
<!-- pytermor_util_prefixed_unit&#45;&gt;pytermor_util -->
<g id="edge15" class="edge">
<title>pytermor_util_prefixed_unit&#45;&gt;pytermor_util</title><style>.edge>path:hover{stroke-width:8}</style>
<path fill="none" stroke="black" d="M137.63,-244.07C153.76,-232.3 173.43,-217.95 189.27,-206.39"/>
<polygon fill="#000000" stroke="black" points="191.62,-209.01 197.64,-200.29 187.49,-203.35 191.62,-209.01"/>
</g>
<!-- pytermor_util_stdlib_ext -->
<g id="node10" class="node">
<title>pytermor_util_stdlib_ext</title><style>.edge>path:hover{stroke-width:8}</style>
<ellipse fill="#cc3333" stroke="black" cx="220" cy="-361.4" rx="41.94" ry="28.98"/>
<text text-anchor="middle" x="220" y="-369.9" font-family="Helvetica,sans-Serif" font-size="10.00" fill="#ffffff">pytermor.</text>
<text text-anchor="middle" x="220" y="-358.9" font-family="Helvetica,sans-Serif" font-size="10.00" fill="#ffffff">util.</text>
<text text-anchor="middle" x="220" y="-347.9" font-family="Helvetica,sans-Serif" font-size="10.00" fill="#ffffff">stdlib_ext</text>
</g>
<!-- pytermor_util_stdlib_ext&#45;&gt;pytermor_util -->
<g id="edge16" class="edge">
<title>pytermor_util_stdlib_ext&#45;&gt;pytermor_util</title><style>.edge>path:hover{stroke-width:8}</style>
<path fill="none" stroke="black" d="M245.13,-338.04C255.91,-326.77 267.33,-312.15 273,-296.41 281.74,-272.17 283.08,-262.14 273,-238.43 267.68,-225.91 257.79,-214.91 247.85,-206.23"/>
<polygon fill="#000000" stroke="black" points="249.91,-203.39 239.95,-199.78 245.48,-208.81 249.91,-203.39"/>
</g>
<!-- pytermor_util_time_delta -->
<g id="node12" class="node">
<title>pytermor_util_time_delta</title><style>.edge>path:hover{stroke-width:8}</style>
<ellipse fill="#c04040" stroke="black" cx="220" cy="-267.42" rx="43.68" ry="28.98"/>
<text text-anchor="middle" x="220" y="-275.92" font-family="Helvetica,sans-Serif" font-size="10.00" fill="#ffffff">pytermor.</text>
<text text-anchor="middle" x="220" y="-264.92" font-family="Helvetica,sans-Serif" font-size="10.00" fill="#ffffff">util.</text>
<text text-anchor="middle" x="220" y="-253.92" font-family="Helvetica,sans-Serif" font-size="10.00" fill="#ffffff">time_delta</text>
</g>
<!-- pytermor_util_stdlib_ext&#45;&gt;pytermor_util_time_delta -->
<g id="edge17" class="edge">
<title>pytermor_util_stdlib_ext&#45;&gt;pytermor_util_time_delta</title><style>.edge>path:hover{stroke-width:8}</style>
<path fill="none" stroke="black" d="M220,-332.3C220,-324.26 220,-315.36 220,-306.82"/>
<polygon fill="#000000" stroke="black" points="223.5,-306.66 220,-296.66 216.5,-306.66 223.5,-306.66"/>
</g>
<!-- pytermor_util_string_filter -->
<g id="node11" class="node">
<title>pytermor_util_string_filter</title><style>.edge>path:hover{stroke-width:8}</style>
<ellipse fill="#ce3b3b" stroke="black" cx="141" cy="-455.38" rx="45.92" ry="28.98"/>
<text text-anchor="middle" x="141" y="-463.88" font-family="Helvetica,sans-Serif" font-size="10.00" fill="#ffffff">pytermor.</text>
<text text-anchor="middle" x="141" y="-452.88" font-family="Helvetica,sans-Serif" font-size="10.00" fill="#ffffff">util.</text>
<text text-anchor="middle" x="141" y="-441.88" font-family="Helvetica,sans-Serif" font-size="10.00" fill="#ffffff">string_filter</text>
</g>
<!-- pytermor_util_string_filter&#45;&gt;pytermor_util -->
<g id="edge18" class="edge">
<title>pytermor_util_string_filter&#45;&gt;pytermor_util</title><style>.edge>path:hover{stroke-width:8}</style>
<path fill="none" stroke="black" d="M102.03,-439.52C80.51,-429.17 55.47,-413.09 42,-390.39 7.49,-332.25 -5.62,-292.48 35,-238.43 51.19,-216.89 120.88,-201.3 169.43,-192.81"/>
<polygon fill="#000000" stroke="black" points="170.17,-196.23 179.44,-191.11 168.99,-189.33 170.17,-196.23"/>
</g>
<!-- pytermor_util_string_filter&#45;&gt;pytermor_util_stdlib_ext -->
<g id="edge19" class="edge">
<title>pytermor_util_string_filter&#45;&gt;pytermor_util_stdlib_ext</title><style>.edge>path:hover{stroke-width:8}</style>
<path fill="none" stroke="black" d="M162.59,-429.25C171.79,-418.53 182.64,-405.89 192.42,-394.51"/>
<polygon fill="#000000" stroke="black" points="195.12,-396.74 198.99,-386.87 189.81,-392.17 195.12,-396.74"/>
</g>
<!-- pytermor_util_time_delta&#45;&gt;pytermor_util -->
<g id="edge20" class="edge">
<title>pytermor_util_time_delta&#45;&gt;pytermor_util</title><style>.edge>path:hover{stroke-width:8}</style>
<path fill="none" stroke="black" d="M219.3,-238.09C219.1,-229.84 218.87,-220.86 218.67,-212.68"/>
<polygon fill="#000000" stroke="black" points="222.17,-212.43 218.42,-202.52 215.17,-212.61 222.17,-212.43"/>
</g>
</g>
</svg>
