<?xml version="1.0" encoding="UTF-8" standalone="no"?>
<!DOCTYPE svg PUBLIC "-//W3C//DTD SVG 1.1//EN"
 "http://www.w3.org/Graphics/SVG/1.1/DTD/svg11.dtd">
<!-- Generated by graphviz version 2.43.0 (0)
 -->
<!-- Title: G Pages: 1 -->
<svg width="428pt" height="754pt"
 viewBox="0.00 0.00 428.00 753.80" xmlns="http://www.w3.org/2000/svg" xmlns:xlink="http://www.w3.org/1999/xlink">
<g id="graph0" class="graph" transform="scale(1 1) rotate(0) translate(4 749.8)">
<title>G</title><style>.edge>path:hover{stroke-width:8}</style>
<polygon fill="white" stroke="transparent" points="-4,4 -4,-749.8 424,-749.8 424,4 -4,4"/>
<g id="clust1" class="cluster">
<title>cluster_pytermor</title><style>.edge>path:hover{stroke-width:8}</style>
<polygon fill="none" stroke="black" points="8,-8 8,-737.8 412,-737.8 412,-8 8,-8"/>
<text text-anchor="middle" x="210" y="-722.6" font-family="Times,serif" font-size="14.00">pytermor</text>
</g>
<!-- pytermor -->
<g id="node1" class="node">
<title>pytermor</title><style>.edge>path:hover{stroke-width:8}</style>
<ellipse fill="#a83838" stroke="black" cx="275" cy="-34" rx="32.25" ry="18"/>
<text text-anchor="middle" x="275" y="-31.5" font-family="Helvetica,sans-Serif" font-size="10.00" fill="#ffffff">pytermor</text>
</g>
<!-- pytermor__version -->
<g id="node2" class="node">
<title>pytermor__version</title><style>.edge>path:hover{stroke-width:8}</style>
<ellipse fill="#c24747" stroke="black" cx="364" cy="-109.21" rx="40.11" ry="21.43"/>
<text text-anchor="middle" x="364" y="-112.21" font-family="Helvetica,sans-Serif" font-size="10.00" fill="#ffffff">pytermor.</text>
<text text-anchor="middle" x="364" y="-101.21" font-family="Helvetica,sans-Serif" font-size="10.00" fill="#ffffff">_version</text>
</g>
<!-- pytermor__version&#45;&gt;pytermor -->
<g id="edge1" class="edge">
<title>pytermor__version&#45;&gt;pytermor</title><style>.edge>path:hover{stroke-width:8}</style>
<path fill="none" stroke="black" d="M342.91,-90.86C330.14,-80.36 313.77,-66.89 300.31,-55.82"/>
<polygon fill="#000000" stroke="black" points="302.3,-52.93 292.35,-49.28 297.85,-58.33 302.3,-52.93"/>
</g>
<!-- pytermor_ansi -->
<g id="node3" class="node">
<title>pytermor_ansi</title><style>.edge>path:hover{stroke-width:8}</style>
<ellipse fill="#e61919" stroke="black" cx="240" cy="-610.37" rx="44.3" ry="18"/>
<text text-anchor="middle" x="240" y="-607.87" font-family="Helvetica,sans-Serif" font-size="10.00" fill="#ffffff">pytermor.ansi</text>
</g>
<!-- pytermor_ansi&#45;&gt;pytermor -->
<g id="edge2" class="edge">
<title>pytermor_ansi&#45;&gt;pytermor</title><style>.edge>path:hover{stroke-width:8}</style>
<path fill="none" stroke="black" d="M203.71,-600.01C145.32,-582.5 37,-538.91 37,-456.38 37,-456.38 37,-456.38 37,-360.4 37,-271.37 31.74,-236.23 87,-166.43 119.52,-125.35 131.99,-117.91 175,-88 196.03,-73.38 221.57,-59.9 241.58,-50.2"/>
<polygon fill="#000000" stroke="black" points="243.11,-53.35 250.62,-45.89 240.09,-47.03 243.11,-53.35"/>
</g>
<!-- pytermor_color -->
<g id="node4" class="node">
<title>pytermor_color</title><style>.edge>path:hover{stroke-width:8}</style>
<ellipse fill="#c43131" stroke="black" cx="358" cy="-538.37" rx="45.83" ry="18"/>
<text text-anchor="middle" x="358" y="-535.87" font-family="Helvetica,sans-Serif" font-size="10.00" fill="#ffffff">pytermor.color</text>
</g>
<!-- pytermor_ansi&#45;&gt;pytermor_color -->
<g id="edge3" class="edge">
<title>pytermor_ansi&#45;&gt;pytermor_color</title><style>.edge>path:hover{stroke-width:8}</style>
<path fill="none" stroke="black" d="M263.88,-595.21C281.44,-584.79 305.52,-570.51 324.93,-558.99"/>
<polygon fill="#000000" stroke="black" points="326.94,-561.87 333.75,-553.76 323.37,-555.85 326.94,-561.87"/>
</g>
<!-- pytermor_render -->
<g id="node6" class="node">
<title>pytermor_render</title><style>.edge>path:hover{stroke-width:8}</style>
<ellipse fill="#993333" stroke="black" cx="224" cy="-109.21" rx="40.11" ry="21.43"/>
<text text-anchor="middle" x="224" y="-112.21" font-family="Helvetica,sans-Serif" font-size="10.00" fill="#ffffff">pytermor.</text>
<text text-anchor="middle" x="224" y="-101.21" font-family="Helvetica,sans-Serif" font-size="10.00" fill="#ffffff">render</text>
</g>
<!-- pytermor_ansi&#45;&gt;pytermor_render -->
<g id="edge4" class="edge">
<title>pytermor_ansi&#45;&gt;pytermor_render</title><style>.edge>path:hover{stroke-width:8}</style>
<path fill="none" stroke="black" d="M252.87,-593.07C292.74,-540.5 408.21,-371.13 353,-238.43 333.82,-192.32 289.11,-154.26 257.74,-131.89"/>
<polygon fill="#000000" stroke="black" points="259.48,-128.84 249.27,-126 255.48,-134.58 259.48,-128.84"/>
</g>
<!-- pytermor_util_string_filter -->
<g id="node11" class="node">
<title>pytermor_util_string_filter</title><style>.edge>path:hover{stroke-width:8}</style>
<ellipse fill="#d92626" stroke="black" cx="172" cy="-455.38" rx="45.92" ry="28.98"/>
<text text-anchor="middle" x="172" y="-463.88" font-family="Helvetica,sans-Serif" font-size="10.00" fill="#ffffff">pytermor.</text>
<text text-anchor="middle" x="172" y="-452.88" font-family="Helvetica,sans-Serif" font-size="10.00" fill="#ffffff">util.</text>
<text text-anchor="middle" x="172" y="-441.88" font-family="Helvetica,sans-Serif" font-size="10.00" fill="#ffffff">string_filter</text>
</g>
<!-- pytermor_ansi&#45;&gt;pytermor_util_string_filter -->
<g id="edge5" class="edge">
<title>pytermor_ansi&#45;&gt;pytermor_util_string_filter</title><style>.edge>path:hover{stroke-width:8}</style>
<path fill="none" stroke="black" d="M232.46,-592.42C221.84,-568.52 202.2,-524.32 188.18,-492.79"/>
<polygon fill="#000000" stroke="black" points="191.29,-491.16 184.03,-483.45 184.89,-494.01 191.29,-491.16"/>
</g>
<!-- pytermor_color&#45;&gt;pytermor -->
<g id="edge6" class="edge">
<title>pytermor_color&#45;&gt;pytermor</title><style>.edge>path:hover{stroke-width:8}</style>
<path fill="none" stroke="black" d="M365.43,-520.36C378.21,-489.51 403,-422 403,-362.4 403,-362.4 403,-362.4 403,-266.42 403,-220.91 408.32,-202.82 381,-166.43 360.94,-139.71 337.39,-155.23 315,-130.43 297.39,-110.92 286.85,-82.55 281.04,-61.81"/>
<polygon fill="#000000" stroke="black" points="284.4,-60.83 278.49,-52.03 277.63,-62.59 284.4,-60.83"/>
</g>
<!-- pytermor_color&#45;&gt;pytermor_render -->
<g id="edge7" class="edge">
<title>pytermor_color&#45;&gt;pytermor_render</title><style>.edge>path:hover{stroke-width:8}</style>
<path fill="none" stroke="black" d="M362.13,-520.11C369.23,-488.85 383,-420.7 383,-362.4 383,-362.4 383,-362.4 383,-266.42 383,-221.48 396.04,-201.54 368,-166.43 355.2,-150.4 306.36,-133.47 269.07,-122.43"/>
<polygon fill="#000000" stroke="black" points="269.96,-119.05 259.38,-119.62 268.01,-125.77 269.96,-119.05"/>
</g>
<!-- pytermor_common -->
<g id="node5" class="node">
<title>pytermor_common</title><style>.edge>path:hover{stroke-width:8}</style>
<ellipse fill="#db2f2f" stroke="black" cx="240" cy="-685.59" rx="40.11" ry="21.43"/>
<text text-anchor="middle" x="240" y="-688.59" font-family="Helvetica,sans-Serif" font-size="10.00" fill="#ffffff">pytermor.</text>
<text text-anchor="middle" x="240" y="-677.59" font-family="Helvetica,sans-Serif" font-size="10.00" fill="#ffffff">common</text>
</g>
<!-- pytermor_common&#45;&gt;pytermor_ansi -->
<g id="edge8" class="edge">
<title>pytermor_common&#45;&gt;pytermor_ansi</title><style>.edge>path:hover{stroke-width:8}</style>
<path fill="none" stroke="black" d="M240,-664.19C240,-656.34 240,-647.24 240,-638.83"/>
<polygon fill="#000000" stroke="black" points="243.5,-638.68 240,-628.68 236.5,-638.68 243.5,-638.68"/>
</g>
<!-- pytermor_common&#45;&gt;pytermor_color -->
<g id="edge9" class="edge">
<title>pytermor_common&#45;&gt;pytermor_color</title><style>.edge>path:hover{stroke-width:8}</style>
<path fill="none" stroke="black" d="M258.27,-666.38C268.78,-655.63 282.03,-641.58 293,-628.37 310.34,-607.51 328.41,-582.45 341.09,-564.25"/>
<polygon fill="#000000" stroke="black" points="344.04,-566.13 346.85,-555.91 338.28,-562.15 344.04,-566.13"/>
</g>
<!-- pytermor_common&#45;&gt;pytermor_render -->
<g id="edge10" class="edge">
<title>pytermor_common&#45;&gt;pytermor_render</title><style>.edge>path:hover{stroke-width:8}</style>
<path fill="none" stroke="black" d="M202.17,-677.9C138.55,-664.23 17,-626.69 17,-539.37 17,-539.37 17,-539.37 17,-360.4 17,-268.75 18.82,-227.67 87,-166.43 112.49,-143.53 148.58,-129.24 177.31,-120.79"/>
<polygon fill="#000000" stroke="black" points="178.45,-124.11 187.14,-118.05 176.57,-117.37 178.45,-124.11"/>
</g>
<!-- pytermor_render&#45;&gt;pytermor -->
<g id="edge11" class="edge">
<title>pytermor_render&#45;&gt;pytermor</title><style>.edge>path:hover{stroke-width:8}</style>
<path fill="none" stroke="black" d="M237.4,-88.98C243.64,-80.02 251.13,-69.27 257.78,-59.72"/>
<polygon fill="#000000" stroke="black" points="260.75,-61.59 263.59,-51.38 255,-57.58 260.75,-61.59"/>
</g>
<!-- pytermor_util -->
<g id="node7" class="node">
<title>pytermor_util</title><style>.edge>path:hover{stroke-width:8}</style>
<ellipse fill="#a13535" stroke="black" cx="203" cy="-184.43" rx="41.41" ry="18"/>
<text text-anchor="middle" x="203" y="-181.93" font-family="Helvetica,sans-Serif" font-size="10.00" fill="#ffffff">pytermor.util</text>
</g>
<!-- pytermor_util&#45;&gt;pytermor_render -->
<g id="edge12" class="edge">
<title>pytermor_util&#45;&gt;pytermor_render</title><style>.edge>path:hover{stroke-width:8}</style>
<path fill="none" stroke="black" d="M207.87,-166.45C210.12,-158.59 212.87,-149.02 215.45,-140.02"/>
<polygon fill="#000000" stroke="black" points="218.87,-140.8 218.26,-130.22 212.14,-138.87 218.87,-140.8"/>
</g>
<!-- pytermor_util_auto_float -->
<g id="node8" class="node">
<title>pytermor_util_auto_float</title><style>.edge>path:hover{stroke-width:8}</style>
<ellipse fill="#ce3b3b" stroke="black" cx="279" cy="-361.4" rx="41.94" ry="28.98"/>
<text text-anchor="middle" x="279" y="-369.9" font-family="Helvetica,sans-Serif" font-size="10.00" fill="#ffffff">pytermor.</text>
<text text-anchor="middle" x="279" y="-358.9" font-family="Helvetica,sans-Serif" font-size="10.00" fill="#ffffff">util.</text>
<text text-anchor="middle" x="279" y="-347.9" font-family="Helvetica,sans-Serif" font-size="10.00" fill="#ffffff">auto_float</text>
</g>
<!-- pytermor_util_auto_float&#45;&gt;pytermor_util -->
<g id="edge13" class="edge">
<title>pytermor_util_auto_float&#45;&gt;pytermor_util</title><style>.edge>path:hover{stroke-width:8}</style>
<path fill="none" stroke="black" d="M258.42,-336.18C249.55,-324.73 239.69,-310.5 233,-296.41 220.13,-269.33 212.04,-235.82 207.54,-212.75"/>
<polygon fill="#000000" stroke="black" points="210.93,-211.83 205.67,-202.64 204.05,-213.11 210.93,-211.83"/>
</g>
<!-- pytermor_util_prefixed_unit -->
<g id="node9" class="node">
<title>pytermor_util_prefixed_unit</title><style>.edge>path:hover{stroke-width:8}</style>
<ellipse fill="#c04040" stroke="black" cx="293" cy="-267.42" rx="50.82" ry="28.98"/>
<text text-anchor="middle" x="293" y="-275.92" font-family="Helvetica,sans-Serif" font-size="10.00" fill="#ffffff">pytermor.</text>
<text text-anchor="middle" x="293" y="-264.92" font-family="Helvetica,sans-Serif" font-size="10.00" fill="#ffffff">util.</text>
<text text-anchor="middle" x="293" y="-253.92" font-family="Helvetica,sans-Serif" font-size="10.00" fill="#ffffff">prefixed_unit</text>
</g>
<!-- pytermor_util_auto_float&#45;&gt;pytermor_util_prefixed_unit -->
<g id="edge14" class="edge">
<title>pytermor_util_auto_float&#45;&gt;pytermor_util_prefixed_unit</title><style>.edge>path:hover{stroke-width:8}</style>
<path fill="none" stroke="black" d="M283.28,-332.3C284.52,-324.1 285.91,-315 287.23,-306.3"/>
<polygon fill="#000000" stroke="black" points="290.71,-306.76 288.75,-296.34 283.78,-305.7 290.71,-306.76"/>
</g>
<!-- pytermor_util_prefixed_unit&#45;&gt;pytermor_util -->
<g id="edge15" class="edge">
<title>pytermor_util_prefixed_unit&#45;&gt;pytermor_util</title><style>.edge>path:hover{stroke-width:8}</style>
<path fill="none" stroke="black" d="M266.48,-242.56C254.23,-231.53 239.77,-218.52 227.75,-207.7"/>
<polygon fill="#000000" stroke="black" points="230.02,-205.03 220.25,-200.95 225.34,-210.24 230.02,-205.03"/>
</g>
<!-- pytermor_util_stdlib_ext -->
<g id="node10" class="node">
<title>pytermor_util_stdlib_ext</title><style>.edge>path:hover{stroke-width:8}</style>
<ellipse fill="#cc3333" stroke="black" cx="142" cy="-361.4" rx="41.94" ry="28.98"/>
<text text-anchor="middle" x="142" y="-369.9" font-family="Helvetica,sans-Serif" font-size="10.00" fill="#ffffff">pytermor.</text>
<text text-anchor="middle" x="142" y="-358.9" font-family="Helvetica,sans-Serif" font-size="10.00" fill="#ffffff">util.</text>
<text text-anchor="middle" x="142" y="-347.9" font-family="Helvetica,sans-Serif" font-size="10.00" fill="#ffffff">stdlib_ext</text>
</g>
<!-- pytermor_util_stdlib_ext&#45;&gt;pytermor_util -->
<g id="edge16" class="edge">
<title>pytermor_util_stdlib_ext&#45;&gt;pytermor_util</title><style>.edge>path:hover{stroke-width:8}</style>
<path fill="none" stroke="black" d="M156.11,-334.11C161.86,-322.73 168.25,-309.13 173,-296.41 183.43,-268.49 191.9,-235.37 197.15,-212.62"/>
<polygon fill="#000000" stroke="black" points="200.61,-213.18 199.4,-202.66 193.78,-211.65 200.61,-213.18"/>
</g>
<!-- pytermor_util_time_delta -->
<g id="node12" class="node">
<title>pytermor_util_time_delta</title><style>.edge>path:hover{stroke-width:8}</style>
<ellipse fill="#c04040" stroke="black" cx="120" cy="-267.42" rx="43.68" ry="28.98"/>
<text text-anchor="middle" x="120" y="-275.92" font-family="Helvetica,sans-Serif" font-size="10.00" fill="#ffffff">pytermor.</text>
<text text-anchor="middle" x="120" y="-264.92" font-family="Helvetica,sans-Serif" font-size="10.00" fill="#ffffff">util.</text>
<text text-anchor="middle" x="120" y="-253.92" font-family="Helvetica,sans-Serif" font-size="10.00" fill="#ffffff">time_delta</text>
</g>
<!-- pytermor_util_stdlib_ext&#45;&gt;pytermor_util_time_delta -->
<g id="edge17" class="edge">
<title>pytermor_util_stdlib_ext&#45;&gt;pytermor_util_time_delta</title><style>.edge>path:hover{stroke-width:8}</style>
<path fill="none" stroke="black" d="M135.28,-332.3C133.32,-324.1 131.14,-315 129.06,-306.3"/>
<polygon fill="#000000" stroke="black" points="132.41,-305.25 126.68,-296.34 125.6,-306.88 132.41,-305.25"/>
</g>
<!-- pytermor_util_string_filter&#45;&gt;pytermor_render -->
<g id="edge18" class="edge">
<title>pytermor_util_string_filter&#45;&gt;pytermor_render</title><style>.edge>path:hover{stroke-width:8}</style>
<path fill="none" stroke="black" d="M138.44,-435.21C121.86,-424.12 102.91,-408.73 91,-390.39 53.75,-333.05 38.07,-300.38 67,-238.43 91.02,-186.99 147.12,-149.46 185.32,-128.74"/>
<polygon fill="#000000" stroke="black" points="187.41,-131.6 194.62,-123.84 184.14,-125.41 187.41,-131.6"/>
</g>
<!-- pytermor_util_string_filter&#45;&gt;pytermor_util -->
<g id="edge19" class="edge">
<title>pytermor_util_string_filter&#45;&gt;pytermor_util</title><style>.edge>path:hover{stroke-width:8}</style>
<path fill="none" stroke="black" d="M182.75,-427.09C186.68,-415.89 190.72,-402.69 193,-390.39 204.61,-327.63 204.87,-252.33 203.98,-212.78"/>
<polygon fill="#000000" stroke="black" points="207.47,-212.51 203.7,-202.61 200.47,-212.7 207.47,-212.51"/>
</g>
<!-- pytermor_util_string_filter&#45;&gt;pytermor_util_stdlib_ext -->
<g id="edge20" class="edge">
<title>pytermor_util_string_filter&#45;&gt;pytermor_util_stdlib_ext</title><style>.edge>path:hover{stroke-width:8}</style>
<path fill="none" stroke="black" d="M163,-426.79C160.21,-418.24 157.09,-408.67 154.13,-399.58"/>
<polygon fill="#000000" stroke="black" points="157.42,-398.4 150.99,-389.98 150.77,-400.57 157.42,-398.4"/>
</g>
<!-- pytermor_util_time_delta&#45;&gt;pytermor_util -->
<g id="edge21" class="edge">
<title>pytermor_util_time_delta&#45;&gt;pytermor_util</title><style>.edge>path:hover{stroke-width:8}</style>
<path fill="none" stroke="black" d="M144.01,-242.99C155.21,-232.06 168.5,-219.1 179.62,-208.24"/>
<polygon fill="#000000" stroke="black" points="182.21,-210.6 186.92,-201.11 177.32,-205.59 182.21,-210.6"/>
</g>
</g>
</svg>
