<?xml version="1.0" encoding="UTF-8" standalone="no"?>
<!DOCTYPE svg PUBLIC "-//W3C//DTD SVG 1.1//EN"
 "http://www.w3.org/Graphics/SVG/1.1/DTD/svg11.dtd">
<!-- Generated by graphviz version 2.43.0 (0)
 -->
<!-- Title: G Pages: 1 -->
<svg width="620pt" height="610pt"
 viewBox="0.00 0.00 620.00 609.80" xmlns="http://www.w3.org/2000/svg" xmlns:xlink="http://www.w3.org/1999/xlink">
<g id="graph0" class="graph" transform="scale(1 1) rotate(0) translate(4 605.8)">
<title>G</title><style>.edge>path:hover{stroke-width:8}</style>
<polygon fill="white" stroke="transparent" points="-4,4 -4,-605.8 616,-605.8 616,4 -4,4"/>
<g id="clust1" class="cluster">
<title>cluster_pytermor</title><style>.edge>path:hover{stroke-width:8}</style>
<polygon fill="none" stroke="black" points="8,-8 8,-593.8 604,-593.8 604,-8 8,-8"/>
<text text-anchor="middle" x="306" y="-578.6" font-family="Times,serif" font-size="14.00">pytermor</text>
</g>
<!-- pytermor -->
<g id="node1" class="node">
<title>pytermor</title><style>.edge>path:hover{stroke-width:8}</style>
<ellipse fill="#793434" stroke="black" cx="437" cy="-34" rx="32.25" ry="18"/>
<text text-anchor="middle" x="437" y="-31.5" font-family="Helvetica,sans-Serif" font-size="10.00" fill="#ffffff">pytermor</text>
</g>
<!-- pytermor__version -->
<g id="node2" class="node">
<title>pytermor__version</title><style>.edge>path:hover{stroke-width:8}</style>
<ellipse fill="#c24747" stroke="black" cx="556" cy="-109.21" rx="40.11" ry="21.43"/>
<text text-anchor="middle" x="556" y="-112.21" font-family="Helvetica,sans-Serif" font-size="10.00" fill="#ffffff">pytermor.</text>
<text text-anchor="middle" x="556" y="-101.21" font-family="Helvetica,sans-Serif" font-size="10.00" fill="#ffffff">_version</text>
</g>
<!-- pytermor__version&#45;&gt;pytermor -->
<g id="edge1" class="edge">
<title>pytermor__version&#45;&gt;pytermor</title><style>.edge>path:hover{stroke-width:8}</style>
<path fill="none" stroke="black" d="M530.47,-92.51C511.76,-80.99 486.3,-65.33 466.68,-53.26"/>
<polygon fill="#000000" stroke="black" points="468.47,-50.25 458.12,-47.99 464.8,-56.21 468.47,-50.25"/>
</g>
<!-- pytermor_ansi -->
<g id="node3" class="node">
<title>pytermor_ansi</title><style>.edge>path:hover{stroke-width:8}</style>
<ellipse fill="#e72222" stroke="black" cx="484" cy="-533.81" rx="44.3" ry="18"/>
<text text-anchor="middle" x="484" y="-531.31" font-family="Helvetica,sans-Serif" font-size="10.00" fill="#ffffff">pytermor.ansi</text>
</g>
<!-- pytermor_ansi&#45;&gt;pytermor -->
<g id="edge2" class="edge">
<title>pytermor_ansi&#45;&gt;pytermor</title><style>.edge>path:hover{stroke-width:8}</style>
<path fill="none" stroke="black" d="M499.1,-516.43C522.88,-489.4 568.1,-432.64 585,-374.84 592.23,-350.1 590.29,-342.07 585,-316.85 579.29,-289.65 499.06,-111.36 484,-88 477.09,-77.29 468.08,-66.56 459.79,-57.59"/>
<polygon fill="#000000" stroke="black" points="462.19,-55.04 452.77,-50.2 457.12,-59.86 462.19,-55.04"/>
</g>
<!-- pytermor_color -->
<g id="node4" class="node">
<title>pytermor_color</title><style>.edge>path:hover{stroke-width:8}</style>
<ellipse fill="#e90c0c" stroke="black" cx="448" cy="-439.83" rx="45.83" ry="18"/>
<text text-anchor="middle" x="448" y="-437.33" font-family="Helvetica,sans-Serif" font-size="10.00" fill="#ffffff">pytermor.color</text>
</g>
<!-- pytermor_ansi&#45;&gt;pytermor_color -->
<g id="edge3" class="edge">
<title>pytermor_ansi&#45;&gt;pytermor_color</title><style>.edge>path:hover{stroke-width:8}</style>
<path fill="none" stroke="black" d="M477.4,-515.94C472.1,-502.41 464.57,-483.17 458.46,-467.55"/>
<polygon fill="#000000" stroke="black" points="461.59,-465.94 454.68,-457.9 455.07,-468.49 461.59,-465.94"/>
</g>
<!-- pytermor_index -->
<g id="node6" class="node">
<title>pytermor_index</title><style>.edge>path:hover{stroke-width:8}</style>
<ellipse fill="#c43131" stroke="black" cx="529" cy="-345.84" rx="47.19" ry="18"/>
<text text-anchor="middle" x="529" y="-343.34" font-family="Helvetica,sans-Serif" font-size="10.00" fill="#ffffff">pytermor.index</text>
</g>
<!-- pytermor_ansi&#45;&gt;pytermor_index -->
<g id="edge4" class="edge">
<title>pytermor_ansi&#45;&gt;pytermor_index</title><style>.edge>path:hover{stroke-width:8}</style>
<path fill="none" stroke="black" d="M489.45,-515.8C493.46,-502.96 498.91,-484.88 503,-468.82 511.24,-436.47 518.98,-398.84 523.84,-374.03"/>
<polygon fill="#000000" stroke="black" points="527.34,-374.39 525.8,-363.91 520.46,-373.06 527.34,-374.39"/>
</g>
<!-- pytermor_renderer -->
<g id="node7" class="node">
<title>pytermor_renderer</title><style>.edge>path:hover{stroke-width:8}</style>
<ellipse fill="#ac2b2b" stroke="black" cx="318" cy="-187.64" rx="40.11" ry="21.43"/>
<text text-anchor="middle" x="318" y="-190.64" font-family="Helvetica,sans-Serif" font-size="10.00" fill="#ffffff">pytermor.</text>
<text text-anchor="middle" x="318" y="-179.64" font-family="Helvetica,sans-Serif" font-size="10.00" fill="#ffffff">renderer</text>
</g>
<!-- pytermor_ansi&#45;&gt;pytermor_renderer -->
<g id="edge5" class="edge">
<title>pytermor_ansi&#45;&gt;pytermor_renderer</title><style>.edge>path:hover{stroke-width:8}</style>
<path fill="none" stroke="black" d="M455.71,-519.65C435.36,-508.77 408.82,-491.46 393,-468.82 378.53,-448.1 340.63,-287.57 324.95,-219.25"/>
<polygon fill="#000000" stroke="black" points="328.27,-218.08 322.63,-209.12 321.45,-219.64 328.27,-218.08"/>
</g>
<!-- pytermor_color&#45;&gt;pytermor -->
<g id="edge6" class="edge">
<title>pytermor_color&#45;&gt;pytermor</title><style>.edge>path:hover{stroke-width:8}</style>
<path fill="none" stroke="black" d="M450.9,-421.43C456.25,-389.9 467.63,-325.73 473,-316.85 486.07,-295.23 506.18,-303.69 517,-280.85 523.85,-266.39 520.39,-260.49 517,-244.85 514.04,-231.2 469.87,-143.52 465,-130.43 456.57,-107.76 448.98,-81.33 443.84,-62.04"/>
<polygon fill="#000000" stroke="black" points="447.16,-60.92 441.25,-52.13 440.39,-62.69 447.16,-60.92"/>
</g>
<!-- pytermor_color&#45;&gt;pytermor_index -->
<g id="edge7" class="edge">
<title>pytermor_color&#45;&gt;pytermor_index</title><style>.edge>path:hover{stroke-width:8}</style>
<path fill="none" stroke="black" d="M462.48,-422.38C475.15,-407.99 493.71,-386.92 508.01,-370.68"/>
<polygon fill="#000000" stroke="black" points="510.66,-372.96 514.64,-363.15 505.41,-368.34 510.66,-372.96"/>
</g>
<!-- pytermor_color&#45;&gt;pytermor_renderer -->
<g id="edge8" class="edge">
<title>pytermor_color&#45;&gt;pytermor_renderer</title><style>.edge>path:hover{stroke-width:8}</style>
<path fill="none" stroke="black" d="M439.27,-422.02C417.46,-380.04 360.38,-270.2 333.03,-217.57"/>
<polygon fill="#000000" stroke="black" points="336,-215.69 328.29,-208.43 329.79,-218.92 336,-215.69"/>
</g>
<!-- pytermor_style -->
<g id="node8" class="node">
<title>pytermor_style</title><style>.edge>path:hover{stroke-width:8}</style>
<ellipse fill="#d02424" stroke="black" cx="462" cy="-262.85" rx="45.83" ry="18"/>
<text text-anchor="middle" x="462" y="-260.35" font-family="Helvetica,sans-Serif" font-size="10.00" fill="#ffffff">pytermor.style</text>
</g>
<!-- pytermor_color&#45;&gt;pytermor_style -->
<g id="edge9" class="edge">
<title>pytermor_color&#45;&gt;pytermor_style</title><style>.edge>path:hover{stroke-width:8}</style>
<path fill="none" stroke="black" d="M449.37,-421.73C451.79,-391.42 456.87,-328 459.79,-291.44"/>
<polygon fill="#000000" stroke="black" points="463.32,-291.27 460.63,-281.02 456.34,-290.71 463.32,-291.27"/>
</g>
<!-- pytermor_text -->
<g id="node9" class="node">
<title>pytermor_text</title><style>.edge>path:hover{stroke-width:8}</style>
<ellipse fill="#a13535" stroke="black" cx="374" cy="-109.21" rx="43.62" ry="18"/>
<text text-anchor="middle" x="374" y="-106.71" font-family="Helvetica,sans-Serif" font-size="10.00" fill="#ffffff">pytermor.text</text>
</g>
<!-- pytermor_color&#45;&gt;pytermor_text -->
<g id="edge10" class="edge">
<title>pytermor_color&#45;&gt;pytermor_text</title><style>.edge>path:hover{stroke-width:8}</style>
<path fill="none" stroke="black" d="M443.22,-421.85C435.18,-393 418.69,-332.53 407,-280.85 395.59,-230.4 384.66,-170.99 378.69,-137.25"/>
<polygon fill="#000000" stroke="black" points="382.11,-136.48 376.93,-127.24 375.21,-137.7 382.11,-136.48"/>
</g>
<!-- pytermor_common -->
<g id="node5" class="node">
<title>pytermor_common</title><style>.edge>path:hover{stroke-width:8}</style>
<ellipse fill="#f31616" stroke="black" cx="343" cy="-533.81" rx="40.11" ry="21.43"/>
<text text-anchor="middle" x="343" y="-536.81" font-family="Helvetica,sans-Serif" font-size="10.00" fill="#ffffff">pytermor.</text>
<text text-anchor="middle" x="343" y="-525.81" font-family="Helvetica,sans-Serif" font-size="10.00" fill="#ffffff">common</text>
</g>
<!-- pytermor_common&#45;&gt;pytermor -->
<g id="edge11" class="edge">
<title>pytermor_common&#45;&gt;pytermor</title><style>.edge>path:hover{stroke-width:8}</style>
<path fill="none" stroke="black" d="M311.46,-520.39C296.88,-515.02 279.24,-509.01 263,-504.82 170.46,-480.95 121.99,-532.81 51,-468.82 9.2,-431.14 17,-403.12 17,-346.84 17,-346.84 17,-346.84 17,-186.64 17,-106.64 289.96,-57.08 395.78,-40.87"/>
<polygon fill="#000000" stroke="black" points="396.41,-44.31 405.77,-39.36 395.36,-37.39 396.41,-44.31"/>
</g>
<!-- pytermor_common&#45;&gt;pytermor_color -->
<g id="edge12" class="edge">
<title>pytermor_common&#45;&gt;pytermor_color</title><style>.edge>path:hover{stroke-width:8}</style>
<path fill="none" stroke="black" d="M363.25,-515.07C379.99,-500.41 403.88,-479.48 422.03,-463.58"/>
<polygon fill="#000000" stroke="black" points="424.7,-465.89 429.92,-456.67 420.09,-460.62 424.7,-465.89"/>
</g>
<!-- pytermor_common&#45;&gt;pytermor_renderer -->
<g id="edge13" class="edge">
<title>pytermor_common&#45;&gt;pytermor_renderer</title><style>.edge>path:hover{stroke-width:8}</style>
<path fill="none" stroke="black" d="M342.47,-512.51C341.77,-488.29 340.34,-446.58 338,-410.84 333.5,-342.07 325.59,-261.56 321.19,-218.85"/>
<polygon fill="#000000" stroke="black" points="324.66,-218.42 320.15,-208.83 317.7,-219.14 324.66,-218.42"/>
</g>
<!-- pytermor_common&#45;&gt;pytermor_text -->
<g id="edge14" class="edge">
<title>pytermor_common&#45;&gt;pytermor_text</title><style>.edge>path:hover{stroke-width:8}</style>
<path fill="none" stroke="black" d="M344.54,-512.34C348.38,-461.18 358.68,-323.6 367,-208.85 368.75,-184.73 370.69,-157.27 372.09,-137.47"/>
<polygon fill="#000000" stroke="black" points="375.59,-137.54 372.8,-127.32 368.61,-137.05 375.59,-137.54"/>
</g>
<!-- pytermor_util -->
<g id="node10" class="node">
<title>pytermor_util</title><style>.edge>path:hover{stroke-width:8}</style>
<ellipse fill="#ae1e1e" stroke="black" cx="197" cy="-262.85" rx="41.41" ry="18"/>
<text text-anchor="middle" x="197" y="-260.35" font-family="Helvetica,sans-Serif" font-size="10.00" fill="#ffffff">pytermor.util</text>
</g>
<!-- pytermor_common&#45;&gt;pytermor_util -->
<g id="edge15" class="edge">
<title>pytermor_common&#45;&gt;pytermor_util</title><style>.edge>path:hover{stroke-width:8}</style>
<path fill="none" stroke="black" d="M341.28,-512.36C336.85,-461.53 324.59,-332.41 313,-316.85 296.44,-294.61 268.32,-281.45 243.91,-273.8"/>
<polygon fill="#000000" stroke="black" points="244.65,-270.37 234.07,-270.95 242.7,-277.1 244.65,-270.37"/>
</g>
<!-- pytermor_index&#45;&gt;pytermor -->
<g id="edge16" class="edge">
<title>pytermor_index&#45;&gt;pytermor</title><style>.edge>path:hover{stroke-width:8}</style>
<path fill="none" stroke="black" d="M531.97,-327.64C534.89,-307.53 538.08,-273.39 532,-244.85 516.91,-174 475.61,-98.34 452.74,-60.16"/>
<polygon fill="#000000" stroke="black" points="455.54,-58.01 447.36,-51.28 449.55,-61.65 455.54,-58.01"/>
</g>
<!-- pytermor_index&#45;&gt;pytermor_style -->
<g id="edge17" class="edge">
<title>pytermor_index&#45;&gt;pytermor_style</title><style>.edge>path:hover{stroke-width:8}</style>
<path fill="none" stroke="black" d="M515.44,-328.45C505.82,-316.82 492.73,-301.01 481.92,-287.94"/>
<polygon fill="#000000" stroke="black" points="484.61,-285.69 475.54,-280.22 479.22,-290.15 484.61,-285.69"/>
</g>
<!-- pytermor_renderer&#45;&gt;pytermor -->
<g id="edge18" class="edge">
<title>pytermor_renderer&#45;&gt;pytermor</title><style>.edge>path:hover{stroke-width:8}</style>
<path fill="none" stroke="black" d="M312.78,-166.25C308.56,-144.89 305.55,-111.26 321,-88 337.89,-62.57 370.24,-49.16 396.49,-42.2"/>
<polygon fill="#000000" stroke="black" points="397.32,-45.6 406.21,-39.83 395.67,-38.79 397.32,-45.6"/>
</g>
<!-- pytermor_renderer&#45;&gt;pytermor_text -->
<g id="edge19" class="edge">
<title>pytermor_renderer&#45;&gt;pytermor_text</title><style>.edge>path:hover{stroke-width:8}</style>
<path fill="none" stroke="black" d="M332.13,-167.35C339.32,-157.54 348.14,-145.5 355.83,-135.01"/>
<polygon fill="#000000" stroke="black" points="358.87,-136.78 361.96,-126.64 353.23,-132.64 358.87,-136.78"/>
</g>
<!-- pytermor_style&#45;&gt;pytermor -->
<g id="edge20" class="edge">
<title>pytermor_style&#45;&gt;pytermor</title><style>.edge>path:hover{stroke-width:8}</style>
<path fill="none" stroke="black" d="M460.12,-244.8C455.82,-205.8 445.24,-109.8 440.02,-62.39"/>
<polygon fill="#000000" stroke="black" points="443.48,-61.81 438.9,-52.25 436.52,-62.57 443.48,-61.81"/>
</g>
<!-- pytermor_style&#45;&gt;pytermor_renderer -->
<g id="edge21" class="edge">
<title>pytermor_style&#45;&gt;pytermor_renderer</title><style>.edge>path:hover{stroke-width:8}</style>
<path fill="none" stroke="black" d="M434.91,-248.08C412.52,-236.7 380.47,-220.4 355.59,-207.75"/>
<polygon fill="#000000" stroke="black" points="356.94,-204.51 346.44,-203.1 353.77,-210.75 356.94,-204.51"/>
</g>
<!-- pytermor_style&#45;&gt;pytermor_text -->
<g id="edge22" class="edge">
<title>pytermor_style&#45;&gt;pytermor_text</title><style>.edge>path:hover{stroke-width:8}</style>
<path fill="none" stroke="black" d="M452.25,-245.05C436.92,-218.63 407.07,-167.2 389,-136.06"/>
<polygon fill="#000000" stroke="black" points="391.84,-133.99 383.8,-127.1 385.79,-137.5 391.84,-133.99"/>
</g>
<!-- pytermor_text&#45;&gt;pytermor -->
<g id="edge23" class="edge">
<title>pytermor_text&#45;&gt;pytermor</title><style>.edge>path:hover{stroke-width:8}</style>
<path fill="none" stroke="black" d="M387.98,-91.96C396.5,-82.07 407.52,-69.26 416.96,-58.29"/>
<polygon fill="#000000" stroke="black" points="419.62,-60.56 423.49,-50.7 414.31,-56 419.62,-60.56"/>
</g>
<!-- pytermor_util&#45;&gt;pytermor -->
<g id="edge24" class="edge">
<title>pytermor_util&#45;&gt;pytermor</title><style>.edge>path:hover{stroke-width:8}</style>
<path fill="none" stroke="black" d="M199.85,-244.63C203.7,-224.69 211.91,-191.4 227,-166.43 252.43,-124.35 264.01,-115.14 305,-88 334.16,-68.69 371.45,-54.53 398.95,-45.72"/>
<polygon fill="#000000" stroke="black" points="400.1,-49.03 408.61,-42.72 398.02,-42.35 400.1,-49.03"/>
</g>
<!-- pytermor_util&#45;&gt;pytermor_renderer -->
<g id="edge25" class="edge">
<title>pytermor_util&#45;&gt;pytermor_renderer</title><style>.edge>path:hover{stroke-width:8}</style>
<path fill="none" stroke="black" d="M220.04,-247.91C237.96,-237.07 263.11,-221.85 283.44,-209.55"/>
<polygon fill="#000000" stroke="black" points="285.36,-212.48 292.11,-204.31 281.74,-206.49 285.36,-212.48"/>
</g>
<!-- pytermor_util&#45;&gt;pytermor_text -->
<g id="edge26" class="edge">
<title>pytermor_util&#45;&gt;pytermor_text</title><style>.edge>path:hover{stroke-width:8}</style>
<path fill="none" stroke="black" d="M206.41,-245.27C218.7,-224.74 241.88,-189.64 269,-166.43 288.34,-149.87 313.37,-136.23 334.14,-126.54"/>
<polygon fill="#000000" stroke="black" points="335.68,-129.68 343.35,-122.37 332.8,-123.31 335.68,-129.68"/>
</g>
<!-- pytermor_util_auto_float -->
<g id="node11" class="node">
<title>pytermor_util_auto_float</title><style>.edge>path:hover{stroke-width:8}</style>
<ellipse fill="#ce3b3b" stroke="black" cx="102" cy="-439.83" rx="41.94" ry="28.98"/>
<text text-anchor="middle" x="102" y="-448.33" font-family="Helvetica,sans-Serif" font-size="10.00" fill="#ffffff">pytermor.</text>
<text text-anchor="middle" x="102" y="-437.33" font-family="Helvetica,sans-Serif" font-size="10.00" fill="#ffffff">util.</text>
<text text-anchor="middle" x="102" y="-426.33" font-family="Helvetica,sans-Serif" font-size="10.00" fill="#ffffff">auto_float</text>
</g>
<!-- pytermor_util_auto_float&#45;&gt;pytermor_util -->
<g id="edge27" class="edge">
<title>pytermor_util_auto_float&#45;&gt;pytermor_util</title><style>.edge>path:hover{stroke-width:8}</style>
<path fill="none" stroke="black" d="M121.2,-414.08C129.69,-402.52 139.44,-388.35 147,-374.84 160.7,-350.34 160.46,-342.43 172,-316.85 175.95,-308.09 180.39,-298.58 184.42,-290.07"/>
<polygon fill="#000000" stroke="black" points="187.61,-291.5 188.75,-280.97 181.29,-288.5 187.61,-291.5"/>
</g>
<!-- pytermor_util_prefixed_unit -->
<g id="node12" class="node">
<title>pytermor_util_prefixed_unit</title><style>.edge>path:hover{stroke-width:8}</style>
<ellipse fill="#c04040" stroke="black" cx="87" cy="-345.84" rx="50.82" ry="28.98"/>
<text text-anchor="middle" x="87" y="-354.34" font-family="Helvetica,sans-Serif" font-size="10.00" fill="#ffffff">pytermor.</text>
<text text-anchor="middle" x="87" y="-343.34" font-family="Helvetica,sans-Serif" font-size="10.00" fill="#ffffff">util.</text>
<text text-anchor="middle" x="87" y="-332.34" font-family="Helvetica,sans-Serif" font-size="10.00" fill="#ffffff">prefixed_unit</text>
</g>
<!-- pytermor_util_auto_float&#45;&gt;pytermor_util_prefixed_unit -->
<g id="edge28" class="edge">
<title>pytermor_util_auto_float&#45;&gt;pytermor_util_prefixed_unit</title><style>.edge>path:hover{stroke-width:8}</style>
<path fill="none" stroke="black" d="M97.42,-410.73C96.08,-402.53 94.6,-393.43 93.18,-384.72"/>
<polygon fill="#000000" stroke="black" points="96.62,-384.08 91.55,-374.77 89.71,-385.2 96.62,-384.08"/>
</g>
<!-- pytermor_util_prefixed_unit&#45;&gt;pytermor_util -->
<g id="edge29" class="edge">
<title>pytermor_util_prefixed_unit&#45;&gt;pytermor_util</title><style>.edge>path:hover{stroke-width:8}</style>
<path fill="none" stroke="black" d="M117.35,-322.5C133.34,-310.73 152.83,-296.37 168.53,-284.81"/>
<polygon fill="#000000" stroke="black" points="170.84,-287.46 176.82,-278.71 166.69,-281.82 170.84,-287.46"/>
</g>
<!-- pytermor_util_stdlib_ext -->
<g id="node13" class="node">
<title>pytermor_util_stdlib_ext</title><style>.edge>path:hover{stroke-width:8}</style>
<ellipse fill="#cc3333" stroke="black" cx="238" cy="-439.83" rx="41.94" ry="28.98"/>
<text text-anchor="middle" x="238" y="-448.33" font-family="Helvetica,sans-Serif" font-size="10.00" fill="#ffffff">pytermor.</text>
<text text-anchor="middle" x="238" y="-437.33" font-family="Helvetica,sans-Serif" font-size="10.00" fill="#ffffff">util.</text>
<text text-anchor="middle" x="238" y="-426.33" font-family="Helvetica,sans-Serif" font-size="10.00" fill="#ffffff">stdlib_ext</text>
</g>
<!-- pytermor_util_stdlib_ext&#45;&gt;pytermor_util -->
<g id="edge30" class="edge">
<title>pytermor_util_stdlib_ext&#45;&gt;pytermor_util</title><style>.edge>path:hover{stroke-width:8}</style>
<path fill="none" stroke="black" d="M222.63,-412.59C216.75,-401.33 210.6,-387.8 207,-374.84 199.31,-347.12 197.18,-314.16 196.75,-291.4"/>
<polygon fill="#000000" stroke="black" points="200.24,-291.08 196.65,-281.12 193.24,-291.15 200.24,-291.08"/>
</g>
<!-- pytermor_util_time_delta -->
<g id="node15" class="node">
<title>pytermor_util_time_delta</title><style>.edge>path:hover{stroke-width:8}</style>
<ellipse fill="#c04040" stroke="black" cx="260" cy="-345.84" rx="43.68" ry="28.98"/>
<text text-anchor="middle" x="260" y="-354.34" font-family="Helvetica,sans-Serif" font-size="10.00" fill="#ffffff">pytermor.</text>
<text text-anchor="middle" x="260" y="-343.34" font-family="Helvetica,sans-Serif" font-size="10.00" fill="#ffffff">util.</text>
<text text-anchor="middle" x="260" y="-332.34" font-family="Helvetica,sans-Serif" font-size="10.00" fill="#ffffff">time_delta</text>
</g>
<!-- pytermor_util_stdlib_ext&#45;&gt;pytermor_util_time_delta -->
<g id="edge31" class="edge">
<title>pytermor_util_stdlib_ext&#45;&gt;pytermor_util_time_delta</title><style>.edge>path:hover{stroke-width:8}</style>
<path fill="none" stroke="black" d="M244.72,-410.73C246.68,-402.53 248.86,-393.43 250.94,-384.72"/>
<polygon fill="#000000" stroke="black" points="254.4,-385.31 253.32,-374.77 247.59,-383.68 254.4,-385.31"/>
</g>
<!-- pytermor_util_string_filter -->
<g id="node14" class="node">
<title>pytermor_util_string_filter</title><style>.edge>path:hover{stroke-width:8}</style>
<ellipse fill="#ce3b3b" stroke="black" cx="208" cy="-533.81" rx="45.92" ry="28.98"/>
<text text-anchor="middle" x="208" y="-542.31" font-family="Helvetica,sans-Serif" font-size="10.00" fill="#ffffff">pytermor.</text>
<text text-anchor="middle" x="208" y="-531.31" font-family="Helvetica,sans-Serif" font-size="10.00" fill="#ffffff">util.</text>
<text text-anchor="middle" x="208" y="-520.31" font-family="Helvetica,sans-Serif" font-size="10.00" fill="#ffffff">string_filter</text>
</g>
<!-- pytermor_util_string_filter&#45;&gt;pytermor_util -->
<g id="edge32" class="edge">
<title>pytermor_util_string_filter&#45;&gt;pytermor_util</title><style>.edge>path:hover{stroke-width:8}</style>
<path fill="none" stroke="black" d="M196.95,-505.57C192.97,-494.38 188.98,-481.17 187,-468.82 176.9,-405.66 185.89,-330.28 192.15,-290.88"/>
<polygon fill="#000000" stroke="black" points="195.61,-291.43 193.79,-280.99 188.71,-290.28 195.61,-291.43"/>
</g>
<!-- pytermor_util_string_filter&#45;&gt;pytermor_util_stdlib_ext -->
<g id="edge33" class="edge">
<title>pytermor_util_string_filter&#45;&gt;pytermor_util_stdlib_ext</title><style>.edge>path:hover{stroke-width:8}</style>
<path fill="none" stroke="black" d="M217,-505.21C219.79,-496.66 222.91,-487.1 225.87,-478.01"/>
<polygon fill="#000000" stroke="black" points="229.23,-479 229.01,-468.41 222.58,-476.83 229.23,-479"/>
</g>
<!-- pytermor_util_time_delta&#45;&gt;pytermor_util -->
<g id="edge34" class="edge">
<title>pytermor_util_time_delta&#45;&gt;pytermor_util</title><style>.edge>path:hover{stroke-width:8}</style>
<path fill="none" stroke="black" d="M240.41,-319.66C232.62,-309.65 223.7,-298.17 215.97,-288.24"/>
<polygon fill="#000000" stroke="black" points="218.72,-286.07 209.81,-280.32 213.19,-290.37 218.72,-286.07"/>
</g>
</g>
</svg>
