<?xml version="1.0" encoding="UTF-8" standalone="no"?>
<!DOCTYPE svg PUBLIC "-//W3C//DTD SVG 1.1//EN"
 "http://www.w3.org/Graphics/SVG/1.1/DTD/svg11.dtd">
<!-- Generated by graphviz version 2.43.0 (0)
 -->
<!-- Title: G Pages: 1 -->
<svg width="484pt" height="629pt"
 viewBox="0.00 0.00 484.00 628.71" xmlns="http://www.w3.org/2000/svg" xmlns:xlink="http://www.w3.org/1999/xlink">
<g id="graph0" class="graph" transform="scale(1 1) rotate(0) translate(4 624.71)">
<title>G</title><style>.edge>path:hover{stroke-width:8}</style>
<polygon fill="white" stroke="transparent" points="-4,4 -4,-624.71 480,-624.71 480,4 -4,4"/>
<g id="clust1" class="cluster">
<title>cluster_pytermor</title><style>.edge>path:hover{stroke-width:8}</style>
<polygon fill="none" stroke="black" points="8,-8 8,-612.71 468,-612.71 468,-8 8,-8"/>
<text text-anchor="middle" x="238" y="-597.51" font-family="Times,serif" font-size="14.00">pytermor</text>
</g>
<!-- pytermor -->
<g id="node1" class="node">
<title>pytermor</title><style>.edge>path:hover{stroke-width:8}</style>
<ellipse fill="#7a1e1e" stroke="black" cx="117" cy="-34" rx="32.25" ry="18"/>
<text text-anchor="middle" x="117" y="-31.5" font-family="Helvetica,sans-Serif" font-size="10.00" fill="#ffffff">pytermor</text>
</g>
<!-- pytermor__version -->
<g id="node2" class="node">
<title>pytermor__version</title><style>.edge>path:hover{stroke-width:8}</style>
<ellipse fill="#c24747" stroke="black" cx="420" cy="-109.21" rx="40.11" ry="21.43"/>
<text text-anchor="middle" x="420" y="-112.21" font-family="Helvetica,sans-Serif" font-size="10.00" fill="#ffffff">pytermor.</text>
<text text-anchor="middle" x="420" y="-101.21" font-family="Helvetica,sans-Serif" font-size="10.00" fill="#ffffff">_version</text>
</g>
<!-- pytermor__version&#45;&gt;pytermor -->
<g id="edge1" class="edge">
<title>pytermor__version&#45;&gt;pytermor</title><style>.edge>path:hover{stroke-width:8}</style>
<path fill="none" stroke="black" d="M388.86,-95.66C381.44,-92.92 373.5,-90.19 366,-88 293.71,-66.9 207.35,-50.41 157.67,-41.74"/>
<polygon fill="#000000" stroke="black" points="158.09,-38.26 147.64,-40.01 156.9,-45.16 158.09,-38.26"/>
</g>
<!-- pytermor_ansi -->
<g id="node3" class="node">
<title>pytermor_ansi</title><style>.edge>path:hover{stroke-width:8}</style>
<ellipse fill="#e61919" stroke="black" cx="186" cy="-485.28" rx="44.3" ry="18"/>
<text text-anchor="middle" x="186" y="-482.78" font-family="Helvetica,sans-Serif" font-size="10.00" fill="#ffffff">pytermor.ansi</text>
</g>
<!-- pytermor_ansi&#45;&gt;pytermor -->
<g id="edge2" class="edge">
<title>pytermor_ansi&#45;&gt;pytermor</title><style>.edge>path:hover{stroke-width:8}</style>
<path fill="none" stroke="black" d="M155.85,-471.85C112.31,-451.65 37,-407.32 37,-342.28 37,-342.28 37,-342.28 37,-186.64 37,-141.82 35.56,-126.8 58,-88 65.53,-74.99 77.36,-63.43 88.46,-54.46"/>
<polygon fill="#000000" stroke="black" points="90.92,-56.99 96.73,-48.12 86.66,-51.43 90.92,-56.99"/>
</g>
<!-- pytermor_color -->
<g id="node4" class="node">
<title>pytermor_color</title><style>.edge>path:hover{stroke-width:8}</style>
<ellipse fill="#e90c0c" stroke="black" cx="186" cy="-413.28" rx="45.83" ry="18"/>
<text text-anchor="middle" x="186" y="-410.78" font-family="Helvetica,sans-Serif" font-size="10.00" fill="#ffffff">pytermor.color</text>
</g>
<!-- pytermor_ansi&#45;&gt;pytermor_color -->
<g id="edge3" class="edge">
<title>pytermor_ansi&#45;&gt;pytermor_color</title><style>.edge>path:hover{stroke-width:8}</style>
<path fill="none" stroke="black" d="M186,-466.98C186,-459.26 186,-449.99 186,-441.39"/>
<polygon fill="#000000" stroke="black" points="189.5,-441.38 186,-431.38 182.5,-441.38 189.5,-441.38"/>
</g>
<!-- pytermor_cval -->
<g id="node6" class="node">
<title>pytermor_cval</title><style>.edge>path:hover{stroke-width:8}</style>
<ellipse fill="#c43131" stroke="black" cx="100" cy="-341.28" rx="44.3" ry="18"/>
<text text-anchor="middle" x="100" y="-338.78" font-family="Helvetica,sans-Serif" font-size="10.00" fill="#ffffff">pytermor.cval</text>
</g>
<!-- pytermor_ansi&#45;&gt;pytermor_cval -->
<g id="edge4" class="edge">
<title>pytermor_ansi&#45;&gt;pytermor_cval</title><style>.edge>path:hover{stroke-width:8}</style>
<path fill="none" stroke="black" d="M166.17,-469.17C154.55,-459.44 140.37,-445.91 131,-431.28 118.77,-412.18 110.7,-387.68 105.87,-369.23"/>
<polygon fill="#000000" stroke="black" points="109.24,-368.28 103.45,-359.4 102.44,-369.95 109.24,-368.28"/>
</g>
<!-- pytermor_renderer -->
<g id="node7" class="node">
<title>pytermor_renderer</title><style>.edge>path:hover{stroke-width:8}</style>
<ellipse fill="#ac2b2b" stroke="black" cx="314" cy="-187.64" rx="40.11" ry="21.43"/>
<text text-anchor="middle" x="314" y="-190.64" font-family="Helvetica,sans-Serif" font-size="10.00" fill="#ffffff">pytermor.</text>
<text text-anchor="middle" x="314" y="-179.64" font-family="Helvetica,sans-Serif" font-size="10.00" fill="#ffffff">renderer</text>
</g>
<!-- pytermor_ansi&#45;&gt;pytermor_renderer -->
<g id="edge5" class="edge">
<title>pytermor_ansi&#45;&gt;pytermor_renderer</title><style>.edge>path:hover{stroke-width:8}</style>
<path fill="none" stroke="black" d="M206.3,-469.08C217.94,-459.41 231.99,-445.97 241,-431.28 283.34,-362.25 302.53,-267.04 309.98,-218.99"/>
<polygon fill="#000000" stroke="black" points="313.47,-219.33 311.47,-208.93 306.54,-218.31 313.47,-219.33"/>
</g>
<!-- pytermor_color&#45;&gt;pytermor -->
<g id="edge6" class="edge">
<title>pytermor_color&#45;&gt;pytermor</title><style>.edge>path:hover{stroke-width:8}</style>
<path fill="none" stroke="black" d="M182.14,-395.14C177.36,-376.38 167.99,-345.97 153,-323.28 140.18,-303.87 127.14,-307.13 115,-287.28 96.05,-256.29 97.39,-244.77 92,-208.85 84.03,-155.73 78.86,-140.32 91,-88 93.19,-78.57 97.3,-68.88 101.62,-60.41"/>
<polygon fill="#000000" stroke="black" points="104.79,-61.9 106.49,-51.45 98.64,-58.56 104.79,-61.9"/>
</g>
<!-- pytermor_color&#45;&gt;pytermor_cval -->
<g id="edge7" class="edge">
<title>pytermor_color&#45;&gt;pytermor_cval</title><style>.edge>path:hover{stroke-width:8}</style>
<path fill="none" stroke="black" d="M166.91,-396.74C155.22,-387.23 140.07,-374.9 127.15,-364.38"/>
<polygon fill="#000000" stroke="black" points="129,-361.37 119.03,-357.77 124.58,-366.8 129,-361.37"/>
</g>
<!-- pytermor_color&#45;&gt;pytermor_renderer -->
<g id="edge8" class="edge">
<title>pytermor_color&#45;&gt;pytermor_renderer</title><style>.edge>path:hover{stroke-width:8}</style>
<path fill="none" stroke="black" d="M205.08,-396.86C216.34,-387.01 230.26,-373.46 240,-359.28 242.15,-356.15 281.07,-265.55 301.58,-217.67"/>
<polygon fill="#000000" stroke="black" points="304.82,-218.99 305.54,-208.42 298.38,-216.24 304.82,-218.99"/>
</g>
<!-- pytermor_style -->
<g id="node8" class="node">
<title>pytermor_style</title><style>.edge>path:hover{stroke-width:8}</style>
<ellipse fill="#c82323" stroke="black" cx="170" cy="-266.07" rx="45.83" ry="18"/>
<text text-anchor="middle" x="170" y="-263.57" font-family="Helvetica,sans-Serif" font-size="10.00" fill="#ffffff">pytermor.style</text>
</g>
<!-- pytermor_color&#45;&gt;pytermor_style -->
<g id="edge9" class="edge">
<title>pytermor_color&#45;&gt;pytermor_style</title><style>.edge>path:hover{stroke-width:8}</style>
<path fill="none" stroke="black" d="M184.1,-395.05C181.36,-370.16 176.26,-323.89 173,-294.33"/>
<polygon fill="#000000" stroke="black" points="176.47,-293.83 171.9,-284.27 169.51,-294.59 176.47,-293.83"/>
</g>
<!-- pytermor_text -->
<g id="node9" class="node">
<title>pytermor_text</title><style>.edge>path:hover{stroke-width:8}</style>
<ellipse fill="#993333" stroke="black" cx="180" cy="-109.21" rx="43.62" ry="18"/>
<text text-anchor="middle" x="180" y="-106.71" font-family="Helvetica,sans-Serif" font-size="10.00" fill="#ffffff">pytermor.text</text>
</g>
<!-- pytermor_color&#45;&gt;pytermor_text -->
<g id="edge10" class="edge">
<title>pytermor_color&#45;&gt;pytermor_text</title><style>.edge>path:hover{stroke-width:8}</style>
<path fill="none" stroke="black" d="M193.12,-395.28C202.62,-371.59 218.94,-327.06 225,-287.28 233.15,-233.82 229.05,-217.4 211,-166.43 207.26,-155.87 201.68,-144.94 196.28,-135.55"/>
<polygon fill="#000000" stroke="black" points="199.15,-133.54 191.01,-126.75 193.15,-137.13 199.15,-133.54"/>
</g>
<!-- pytermor_common -->
<g id="node5" class="node">
<title>pytermor_common</title><style>.edge>path:hover{stroke-width:8}</style>
<ellipse fill="#f91010" stroke="black" cx="264" cy="-560.49" rx="40.11" ry="21.43"/>
<text text-anchor="middle" x="264" y="-563.49" font-family="Helvetica,sans-Serif" font-size="10.00" fill="#ffffff">pytermor.</text>
<text text-anchor="middle" x="264" y="-552.49" font-family="Helvetica,sans-Serif" font-size="10.00" fill="#ffffff">common</text>
</g>
<!-- pytermor_common&#45;&gt;pytermor -->
<g id="edge11" class="edge">
<title>pytermor_common&#45;&gt;pytermor</title><style>.edge>path:hover{stroke-width:8}</style>
<path fill="none" stroke="black" d="M225.13,-554.67C155.58,-543.63 17,-509.66 17,-414.28 17,-414.28 17,-414.28 17,-186.64 17,-141.91 12.01,-125.1 37,-88 48.13,-71.48 66.31,-58.84 82.53,-50.04"/>
<polygon fill="#000000" stroke="black" points="84.47,-52.98 91.78,-45.31 81.28,-46.75 84.47,-52.98"/>
</g>
<!-- pytermor_common&#45;&gt;pytermor_ansi -->
<g id="edge12" class="edge">
<title>pytermor_common&#45;&gt;pytermor_ansi</title><style>.edge>path:hover{stroke-width:8}</style>
<path fill="none" stroke="black" d="M244.72,-541.39C234.31,-531.62 221.36,-519.47 210.27,-509.06"/>
<polygon fill="#000000" stroke="black" points="212.63,-506.47 202.94,-502.18 207.84,-511.58 212.63,-506.47"/>
</g>
<!-- pytermor_common&#45;&gt;pytermor_color -->
<g id="edge13" class="edge">
<title>pytermor_common&#45;&gt;pytermor_color</title><style>.edge>path:hover{stroke-width:8}</style>
<path fill="none" stroke="black" d="M261.59,-539.27C258.58,-519.77 252.14,-489.96 239,-467.28 232.43,-455.93 222.81,-445.3 213.58,-436.59"/>
<polygon fill="#000000" stroke="black" points="215.75,-433.84 205.98,-429.74 211.06,-439.04 215.75,-433.84"/>
</g>
<!-- pytermor_common&#45;&gt;pytermor_renderer -->
<g id="edge14" class="edge">
<title>pytermor_common&#45;&gt;pytermor_renderer</title><style>.edge>path:hover{stroke-width:8}</style>
<path fill="none" stroke="black" d="M275.57,-540.05C290.62,-512.89 315,-461.57 315,-414.28 315,-414.28 315,-414.28 315,-340.28 315,-298.36 314.61,-249.92 314.32,-219.29"/>
<polygon fill="#000000" stroke="black" points="317.82,-219.21 314.22,-209.24 310.82,-219.28 317.82,-219.21"/>
</g>
<!-- pytermor_common&#45;&gt;pytermor_text -->
<g id="edge15" class="edge">
<title>pytermor_common&#45;&gt;pytermor_text</title><style>.edge>path:hover{stroke-width:8}</style>
<path fill="none" stroke="black" d="M265.57,-538.95C269.38,-479.06 275.19,-300.37 222,-166.43 217.41,-154.87 209.8,-143.59 202.31,-134.2"/>
<polygon fill="#000000" stroke="black" points="204.95,-131.9 195.84,-126.48 199.58,-136.39 204.95,-131.9"/>
</g>
<!-- pytermor_utilstr -->
<g id="node11" class="node">
<title>pytermor_utilstr</title><style>.edge>path:hover{stroke-width:8}</style>
<ellipse fill="#e61919" stroke="black" cx="374" cy="-266.07" rx="40.11" ry="21.43"/>
<text text-anchor="middle" x="374" y="-269.07" font-family="Helvetica,sans-Serif" font-size="10.00" fill="#ffffff">pytermor.</text>
<text text-anchor="middle" x="374" y="-258.07" font-family="Helvetica,sans-Serif" font-size="10.00" fill="#ffffff">utilstr</text>
</g>
<!-- pytermor_common&#45;&gt;pytermor_utilstr -->
<g id="edge16" class="edge">
<title>pytermor_common&#45;&gt;pytermor_utilstr</title><style>.edge>path:hover{stroke-width:8}</style>
<path fill="none" stroke="black" d="M286.17,-542.48C297.92,-532.33 311.62,-518.48 320,-503.28 357.14,-435.96 368.77,-344.37 372.39,-297.47"/>
<polygon fill="#000000" stroke="black" points="375.89,-297.58 373.1,-287.36 368.91,-297.09 375.89,-297.58"/>
</g>
<!-- pytermor_cval&#45;&gt;pytermor -->
<g id="edge17" class="edge">
<title>pytermor_cval&#45;&gt;pytermor</title><style>.edge>path:hover{stroke-width:8}</style>
<path fill="none" stroke="black" d="M93.05,-323.42C77.01,-281.94 41.08,-172.18 72,-88 76.31,-76.26 84.51,-65.34 92.74,-56.49"/>
<polygon fill="#000000" stroke="black" points="95.32,-58.86 99.88,-49.29 90.35,-53.93 95.32,-58.86"/>
</g>
<!-- pytermor_cval&#45;&gt;pytermor_style -->
<g id="edge18" class="edge">
<title>pytermor_cval&#45;&gt;pytermor_style</title><style>.edge>path:hover{stroke-width:8}</style>
<path fill="none" stroke="black" d="M115.54,-324.03C124.87,-314.27 136.91,-301.67 147.3,-290.81"/>
<polygon fill="#000000" stroke="black" points="150.13,-292.92 154.51,-283.27 145.07,-288.08 150.13,-292.92"/>
</g>
<!-- pytermor_renderer&#45;&gt;pytermor -->
<g id="edge19" class="edge">
<title>pytermor_renderer&#45;&gt;pytermor</title><style>.edge>path:hover{stroke-width:8}</style>
<path fill="none" stroke="black" d="M291.68,-169.68C279.16,-159.34 263.91,-145.28 253,-130.43 240.66,-113.62 247.83,-102.65 233,-88 211.68,-66.94 180.48,-53.33 155.8,-45.18"/>
<polygon fill="#000000" stroke="black" points="156.61,-41.77 146.02,-42.12 154.52,-48.45 156.61,-41.77"/>
</g>
<!-- pytermor_renderer&#45;&gt;pytermor_text -->
<g id="edge20" class="edge">
<title>pytermor_renderer&#45;&gt;pytermor_text</title><style>.edge>path:hover{stroke-width:8}</style>
<path fill="none" stroke="black" d="M287.53,-171.54C266.25,-159.4 236.24,-142.29 213.32,-129.22"/>
<polygon fill="#000000" stroke="black" points="215.03,-126.16 204.61,-124.25 211.56,-132.25 215.03,-126.16"/>
</g>
<!-- pytermor_style&#45;&gt;pytermor -->
<g id="edge21" class="edge">
<title>pytermor_style&#45;&gt;pytermor</title><style>.edge>path:hover{stroke-width:8}</style>
<path fill="none" stroke="black" d="M145.54,-250.71C131.41,-240.9 114.91,-226.51 107,-208.85 85.38,-160.59 97.97,-97.12 108.12,-61.76"/>
<polygon fill="#000000" stroke="black" points="111.61,-62.31 111.15,-51.73 104.9,-60.29 111.61,-62.31"/>
</g>
<!-- pytermor_style&#45;&gt;pytermor_renderer -->
<g id="edge22" class="edge">
<title>pytermor_style&#45;&gt;pytermor_renderer</title><style>.edge>path:hover{stroke-width:8}</style>
<path fill="none" stroke="black" d="M196.08,-251.23C218.74,-239.2 251.83,-221.64 277.19,-208.18"/>
<polygon fill="#000000" stroke="black" points="278.96,-211.2 286.15,-203.42 275.68,-205.02 278.96,-211.2"/>
</g>
<!-- pytermor_style&#45;&gt;pytermor_text -->
<g id="edge23" class="edge">
<title>pytermor_style&#45;&gt;pytermor_text</title><style>.edge>path:hover{stroke-width:8}</style>
<path fill="none" stroke="black" d="M183.74,-248.55C191.65,-237.93 200.83,-223.44 205,-208.85 210.18,-190.72 208.92,-184.87 205,-166.43 202.79,-156.04 198.53,-145.23 194.14,-135.91"/>
<polygon fill="#000000" stroke="black" points="197.19,-134.19 189.6,-126.81 190.93,-137.32 197.19,-134.19"/>
</g>
<!-- pytermor_text&#45;&gt;pytermor -->
<g id="edge24" class="edge">
<title>pytermor_text&#45;&gt;pytermor</title><style>.edge>path:hover{stroke-width:8}</style>
<path fill="none" stroke="black" d="M166.02,-91.96C157.5,-82.07 146.48,-69.26 137.04,-58.29"/>
<polygon fill="#000000" stroke="black" points="139.69,-56 130.51,-50.7 134.38,-60.56 139.69,-56"/>
</g>
<!-- pytermor_utilnum -->
<g id="node10" class="node">
<title>pytermor_utilnum</title><style>.edge>path:hover{stroke-width:8}</style>
<ellipse fill="#c04040" stroke="black" cx="302" cy="-109.21" rx="40.11" ry="21.43"/>
<text text-anchor="middle" x="302" y="-112.21" font-family="Helvetica,sans-Serif" font-size="10.00" fill="#ffffff">pytermor.</text>
<text text-anchor="middle" x="302" y="-101.21" font-family="Helvetica,sans-Serif" font-size="10.00" fill="#ffffff">utilnum</text>
</g>
<!-- pytermor_utilnum&#45;&gt;pytermor -->
<g id="edge25" class="edge">
<title>pytermor_utilnum&#45;&gt;pytermor</title><style>.edge>path:hover{stroke-width:8}</style>
<path fill="none" stroke="black" d="M270.62,-95.79C237.78,-82.8 186.34,-62.44 152.15,-48.91"/>
<polygon fill="#000000" stroke="black" points="153.15,-45.54 142.57,-45.12 150.58,-52.05 153.15,-45.54"/>
</g>
<!-- pytermor_utilstr&#45;&gt;pytermor -->
<g id="edge26" class="edge">
<title>pytermor_utilstr&#45;&gt;pytermor</title><style>.edge>path:hover{stroke-width:8}</style>
<path fill="none" stroke="black" d="M379.37,-244.94C381.94,-234.29 384.72,-220.96 386,-208.85 387.98,-190.1 389.93,-184.87 386,-166.43 385.5,-164.09 352.84,-89.51 351,-88 321.98,-64.2 217.89,-47.65 158.78,-39.93"/>
<polygon fill="#000000" stroke="black" points="159.01,-36.43 148.65,-38.64 158.12,-43.38 159.01,-36.43"/>
</g>
<!-- pytermor_utilstr&#45;&gt;pytermor_renderer -->
<g id="edge27" class="edge">
<title>pytermor_utilstr&#45;&gt;pytermor_renderer</title><style>.edge>path:hover{stroke-width:8}</style>
<path fill="none" stroke="black" d="M359.17,-246.17C351.96,-236.99 343.16,-225.78 335.25,-215.71"/>
<polygon fill="#000000" stroke="black" points="337.8,-213.28 328.87,-207.58 332.29,-217.61 337.8,-213.28"/>
</g>
<!-- pytermor_utilstr&#45;&gt;pytermor_text -->
<g id="edge28" class="edge">
<title>pytermor_utilstr&#45;&gt;pytermor_text</title><style>.edge>path:hover{stroke-width:8}</style>
<path fill="none" stroke="black" d="M374.28,-244.74C374.21,-219.39 372.56,-177.97 363,-166.43 358.46,-160.94 277.92,-137.59 225.21,-122.76"/>
<polygon fill="#000000" stroke="black" points="225.97,-119.34 215.4,-120.01 224.08,-126.08 225.97,-119.34"/>
</g>
<!-- pytermor_utilstr&#45;&gt;pytermor_utilnum -->
<g id="edge29" class="edge">
<title>pytermor_utilstr&#45;&gt;pytermor_utilnum</title><style>.edge>path:hover{stroke-width:8}</style>
<path fill="none" stroke="black" d="M380.28,-244.96C385.58,-224.13 390.5,-191.22 378,-166.43 369.98,-150.53 355.11,-138.01 340.64,-128.86"/>
<polygon fill="#000000" stroke="black" points="342.13,-125.68 331.74,-123.6 338.57,-131.7 342.13,-125.68"/>
</g>
<!-- pytermor_utilsys -->
<g id="node12" class="node">
<title>pytermor_utilsys</title><style>.edge>path:hover{stroke-width:8}</style>
<ellipse fill="#ce3b3b" stroke="black" cx="156" cy="-187.64" rx="40.11" ry="21.43"/>
<text text-anchor="middle" x="156" y="-190.64" font-family="Helvetica,sans-Serif" font-size="10.00" fill="#ffffff">pytermor.</text>
<text text-anchor="middle" x="156" y="-179.64" font-family="Helvetica,sans-Serif" font-size="10.00" fill="#ffffff">utilsys</text>
</g>
<!-- pytermor_utilsys&#45;&gt;pytermor -->
<g id="edge30" class="edge">
<title>pytermor_utilsys&#45;&gt;pytermor</title><style>.edge>path:hover{stroke-width:8}</style>
<path fill="none" stroke="black" d="M143.78,-167.37C137.71,-156.85 130.87,-143.37 127,-130.43 120.35,-108.18 117.98,-81.86 117.2,-62.5"/>
<polygon fill="#000000" stroke="black" points="120.69,-62.16 116.9,-52.27 113.69,-62.36 120.69,-62.16"/>
</g>
<!-- pytermor_utilsys&#45;&gt;pytermor_text -->
<g id="edge31" class="edge">
<title>pytermor_utilsys&#45;&gt;pytermor_text</title><style>.edge>path:hover{stroke-width:8}</style>
<path fill="none" stroke="black" d="M162.31,-166.56C165.15,-157.5 168.55,-146.67 171.61,-136.94"/>
<polygon fill="#000000" stroke="black" points="174.97,-137.9 174.63,-127.31 168.3,-135.8 174.97,-137.9"/>
</g>
</g>
</svg>
