<?xml version="1.0" encoding="UTF-8" standalone="no"?>
<!DOCTYPE svg PUBLIC "-//W3C//DTD SVG 1.1//EN"
 "http://www.w3.org/Graphics/SVG/1.1/DTD/svg11.dtd">
<!-- Generated by graphviz version 2.43.0 (0)
 -->
<!-- Title: G Pages: 1 -->
<svg width="448pt" height="754pt"
 viewBox="0.00 0.00 448.00 753.80" xmlns="http://www.w3.org/2000/svg" xmlns:xlink="http://www.w3.org/1999/xlink">
<g id="graph0" class="graph" transform="scale(1 1) rotate(0) translate(4 749.8)">
<title>G</title><style>.edge>path:hover{stroke-width:8}</style>
<polygon fill="white" stroke="transparent" points="-4,4 -4,-749.8 444,-749.8 444,4 -4,4"/>
<g id="clust1" class="cluster">
<title>cluster_pytermor</title><style>.edge>path:hover{stroke-width:8}</style>
<polygon fill="none" stroke="black" points="8,-8 8,-737.8 432,-737.8 432,-8 8,-8"/>
<text text-anchor="middle" x="220" y="-722.6" font-family="Times,serif" font-size="14.00">pytermor</text>
</g>
<!-- pytermor -->
<g id="node1" class="node">
<title>pytermor</title><style>.edge>path:hover{stroke-width:8}</style>
<ellipse fill="#964040" stroke="black" cx="305" cy="-34" rx="32.25" ry="18"/>
<text text-anchor="middle" x="305" y="-31.5" font-family="Helvetica,sans-Serif" font-size="10.00" fill="#ffffff">pytermor</text>
</g>
<!-- pytermor__version -->
<g id="node2" class="node">
<title>pytermor__version</title><style>.edge>path:hover{stroke-width:8}</style>
<ellipse fill="#c24747" stroke="black" cx="384" cy="-109.21" rx="40.11" ry="21.43"/>
<text text-anchor="middle" x="384" y="-112.21" font-family="Helvetica,sans-Serif" font-size="10.00" fill="#ffffff">pytermor.</text>
<text text-anchor="middle" x="384" y="-101.21" font-family="Helvetica,sans-Serif" font-size="10.00" fill="#ffffff">_version</text>
</g>
<!-- pytermor__version&#45;&gt;pytermor -->
<g id="edge1" class="edge">
<title>pytermor__version&#45;&gt;pytermor</title><style>.edge>path:hover{stroke-width:8}</style>
<path fill="none" stroke="black" d="M364.88,-90.49C353.97,-80.38 340.21,-67.63 328.63,-56.89"/>
<polygon fill="#000000" stroke="black" points="330.73,-54.08 321.02,-49.85 325.98,-59.21 330.73,-54.08"/>
</g>
<!-- pytermor_ansi -->
<g id="node3" class="node">
<title>pytermor_ansi</title><style>.edge>path:hover{stroke-width:8}</style>
<ellipse fill="#e61919" stroke="black" cx="193" cy="-610.37" rx="44.3" ry="18"/>
<text text-anchor="middle" x="193" y="-607.87" font-family="Helvetica,sans-Serif" font-size="10.00" fill="#ffffff">pytermor.ansi</text>
</g>
<!-- pytermor_ansi&#45;&gt;pytermor -->
<g id="edge2" class="edge">
<title>pytermor_ansi&#45;&gt;pytermor</title><style>.edge>path:hover{stroke-width:8}</style>
<path fill="none" stroke="black" d="M208.98,-593.56C242.01,-559.75 317.54,-476.47 351,-390.39 375.54,-327.28 376.31,-304.61 362,-238.43 350.86,-186.91 326.28,-181.43 313,-130.43 307.16,-108 305.31,-81.7 304.83,-62.39"/>
<polygon fill="#000000" stroke="black" points="308.33,-62.14 304.69,-52.19 301.33,-62.23 308.33,-62.14"/>
</g>
<!-- pytermor_color -->
<g id="node4" class="node">
<title>pytermor_color</title><style>.edge>path:hover{stroke-width:8}</style>
<ellipse fill="#c43131" stroke="black" cx="378" cy="-538.37" rx="45.83" ry="18"/>
<text text-anchor="middle" x="378" y="-535.87" font-family="Helvetica,sans-Serif" font-size="10.00" fill="#ffffff">pytermor.color</text>
</g>
<!-- pytermor_ansi&#45;&gt;pytermor_color -->
<g id="edge3" class="edge">
<title>pytermor_ansi&#45;&gt;pytermor_color</title><style>.edge>path:hover{stroke-width:8}</style>
<path fill="none" stroke="black" d="M224.38,-597.5C255.25,-585.82 302.56,-567.92 336.52,-555.07"/>
<polygon fill="#000000" stroke="black" points="338.04,-558.24 346.15,-551.42 335.56,-551.69 338.04,-558.24"/>
</g>
<!-- pytermor_text -->
<g id="node6" class="node">
<title>pytermor_text</title><style>.edge>path:hover{stroke-width:8}</style>
<ellipse fill="#a83838" stroke="black" cx="223" cy="-109.21" rx="43.62" ry="18"/>
<text text-anchor="middle" x="223" y="-106.71" font-family="Helvetica,sans-Serif" font-size="10.00" fill="#ffffff">pytermor.text</text>
</g>
<!-- pytermor_ansi&#45;&gt;pytermor_text -->
<g id="edge4" class="edge">
<title>pytermor_ansi&#45;&gt;pytermor_text</title><style>.edge>path:hover{stroke-width:8}</style>
<path fill="none" stroke="black" d="M170.91,-594.63C137.25,-570.2 77,-517.88 77,-456.38 77,-456.38 77,-456.38 77,-266.42 77,-202.13 143.82,-153.34 187.05,-128.5"/>
<polygon fill="#000000" stroke="black" points="188.86,-131.49 195.88,-123.56 185.44,-125.38 188.86,-131.49"/>
</g>
<!-- pytermor_util_string_filter -->
<g id="node11" class="node">
<title>pytermor_util_string_filter</title><style>.edge>path:hover{stroke-width:8}</style>
<ellipse fill="#cc3333" stroke="black" cx="193" cy="-455.38" rx="45.92" ry="28.98"/>
<text text-anchor="middle" x="193" y="-463.88" font-family="Helvetica,sans-Serif" font-size="10.00" fill="#ffffff">pytermor.</text>
<text text-anchor="middle" x="193" y="-452.88" font-family="Helvetica,sans-Serif" font-size="10.00" fill="#ffffff">util.</text>
<text text-anchor="middle" x="193" y="-441.88" font-family="Helvetica,sans-Serif" font-size="10.00" fill="#ffffff">string_filter</text>
</g>
<!-- pytermor_ansi&#45;&gt;pytermor_util_string_filter -->
<g id="edge5" class="edge">
<title>pytermor_ansi&#45;&gt;pytermor_util_string_filter</title><style>.edge>path:hover{stroke-width:8}</style>
<path fill="none" stroke="black" d="M193,-592.12C193,-568.6 193,-525.83 193,-494.56"/>
<polygon fill="#000000" stroke="black" points="196.5,-494.45 193,-484.45 189.5,-494.45 196.5,-494.45"/>
</g>
<!-- pytermor_color&#45;&gt;pytermor -->
<g id="edge6" class="edge">
<title>pytermor_color&#45;&gt;pytermor</title><style>.edge>path:hover{stroke-width:8}</style>
<path fill="none" stroke="black" d="M385.43,-520.36C398.21,-489.51 423,-422 423,-362.4 423,-362.4 423,-362.4 423,-266.42 423,-252.3 414.95,-250.71 408,-238.43 389.64,-205.99 386.55,-196.84 365,-166.43 352.96,-149.43 344.98,-148.71 335,-130.43 323.15,-108.72 315.2,-81.63 310.48,-61.87"/>
<polygon fill="#000000" stroke="black" points="313.87,-60.98 308.24,-52 307.04,-62.52 313.87,-60.98"/>
</g>
<!-- pytermor_color&#45;&gt;pytermor_text -->
<g id="edge7" class="edge">
<title>pytermor_color&#45;&gt;pytermor_text</title><style>.edge>path:hover{stroke-width:8}</style>
<path fill="none" stroke="black" d="M382.13,-520.11C389.23,-488.85 403,-420.7 403,-362.4 403,-362.4 403,-362.4 403,-266.42 403,-193.77 318.33,-147.3 265.14,-125.27"/>
<polygon fill="#000000" stroke="black" points="266.18,-121.92 255.6,-121.44 263.57,-128.41 266.18,-121.92"/>
</g>
<!-- pytermor_common -->
<g id="node5" class="node">
<title>pytermor_common</title><style>.edge>path:hover{stroke-width:8}</style>
<ellipse fill="#f31616" stroke="black" cx="57" cy="-685.59" rx="40.11" ry="21.43"/>
<text text-anchor="middle" x="57" y="-688.59" font-family="Helvetica,sans-Serif" font-size="10.00" fill="#ffffff">pytermor.</text>
<text text-anchor="middle" x="57" y="-677.59" font-family="Helvetica,sans-Serif" font-size="10.00" fill="#ffffff">common</text>
</g>
<!-- pytermor_common&#45;&gt;pytermor -->
<g id="edge8" class="edge">
<title>pytermor_common&#45;&gt;pytermor</title><style>.edge>path:hover{stroke-width:8}</style>
<path fill="none" stroke="black" d="M47.92,-664.86C36.12,-637.36 17,-585.66 17,-539.37 17,-539.37 17,-539.37 17,-183.43 17,-74.28 182.46,-45.32 262.55,-37.69"/>
<polygon fill="#000000" stroke="black" points="263.15,-41.16 272.8,-36.79 262.53,-34.18 263.15,-41.16"/>
</g>
<!-- pytermor_common&#45;&gt;pytermor_ansi -->
<g id="edge9" class="edge">
<title>pytermor_common&#45;&gt;pytermor_ansi</title><style>.edge>path:hover{stroke-width:8}</style>
<path fill="none" stroke="black" d="M84.52,-669.77C105.81,-658.31 135.41,-642.38 158.31,-630.05"/>
<polygon fill="#000000" stroke="black" points="160.21,-633 167.36,-625.18 156.9,-626.84 160.21,-633"/>
</g>
<!-- pytermor_common&#45;&gt;pytermor_color -->
<g id="edge10" class="edge">
<title>pytermor_common&#45;&gt;pytermor_color</title><style>.edge>path:hover{stroke-width:8}</style>
<path fill="none" stroke="black" d="M94.09,-677.08C133.1,-668.38 195.7,-652.13 246,-628.37 284.85,-610.03 325.18,-581.15 350.88,-561.3"/>
<polygon fill="#000000" stroke="black" points="353.29,-563.85 359.01,-554.94 348.97,-558.34 353.29,-563.85"/>
</g>
<!-- pytermor_common&#45;&gt;pytermor_text -->
<g id="edge11" class="edge">
<title>pytermor_common&#45;&gt;pytermor_text</title><style>.edge>path:hover{stroke-width:8}</style>
<path fill="none" stroke="black" d="M52.46,-664.51C46.56,-636.59 37,-584.42 37,-539.37 37,-539.37 37,-539.37 37,-266.42 37,-214.59 58.21,-200.79 97,-166.43 120.13,-145.93 151.95,-131.82 177.83,-122.86"/>
<polygon fill="#000000" stroke="black" points="179.03,-126.15 187.42,-119.67 176.83,-119.5 179.03,-126.15"/>
</g>
<!-- pytermor_util -->
<g id="node7" class="node">
<title>pytermor_util</title><style>.edge>path:hover{stroke-width:8}</style>
<ellipse fill="#993333" stroke="black" cx="223" cy="-184.43" rx="41.41" ry="18"/>
<text text-anchor="middle" x="223" y="-181.93" font-family="Helvetica,sans-Serif" font-size="10.00" fill="#ffffff">pytermor.util</text>
</g>
<!-- pytermor_common&#45;&gt;pytermor_util -->
<g id="edge12" class="edge">
<title>pytermor_common&#45;&gt;pytermor_util</title><style>.edge>path:hover{stroke-width:8}</style>
<path fill="none" stroke="black" d="M57,-663.91C57,-635.74 57,-583.75 57,-539.37 57,-539.37 57,-539.37 57,-360.4 57,-304.57 50.18,-280.39 87,-238.43 109.2,-213.12 144.98,-199.81 174.27,-192.85"/>
<polygon fill="#000000" stroke="black" points="175.31,-196.21 184.33,-190.65 173.81,-189.37 175.31,-196.21"/>
</g>
<!-- pytermor_text&#45;&gt;pytermor -->
<g id="edge13" class="edge">
<title>pytermor_text&#45;&gt;pytermor</title><style>.edge>path:hover{stroke-width:8}</style>
<path fill="none" stroke="black" d="M240.39,-92.69C252.15,-82.19 267.83,-68.18 280.81,-56.6"/>
<polygon fill="#000000" stroke="black" points="283.35,-59.03 288.47,-49.76 278.68,-53.8 283.35,-59.03"/>
</g>
<!-- pytermor_util&#45;&gt;pytermor_text -->
<g id="edge14" class="edge">
<title>pytermor_util&#45;&gt;pytermor_text</title><style>.edge>path:hover{stroke-width:8}</style>
<path fill="none" stroke="black" d="M223,-166.08C223,-157.6 223,-147.19 223,-137.67"/>
<polygon fill="#000000" stroke="black" points="226.5,-137.44 223,-127.44 219.5,-137.44 226.5,-137.44"/>
</g>
<!-- pytermor_util_auto_float -->
<g id="node8" class="node">
<title>pytermor_util_auto_float</title><style>.edge>path:hover{stroke-width:8}</style>
<ellipse fill="#ce3b3b" stroke="black" cx="300" cy="-361.4" rx="41.94" ry="28.98"/>
<text text-anchor="middle" x="300" y="-369.9" font-family="Helvetica,sans-Serif" font-size="10.00" fill="#ffffff">pytermor.</text>
<text text-anchor="middle" x="300" y="-358.9" font-family="Helvetica,sans-Serif" font-size="10.00" fill="#ffffff">util.</text>
<text text-anchor="middle" x="300" y="-347.9" font-family="Helvetica,sans-Serif" font-size="10.00" fill="#ffffff">auto_float</text>
</g>
<!-- pytermor_util_auto_float&#45;&gt;pytermor_util -->
<g id="edge15" class="edge">
<title>pytermor_util_auto_float&#45;&gt;pytermor_util</title><style>.edge>path:hover{stroke-width:8}</style>
<path fill="none" stroke="black" d="M325.13,-338.04C335.91,-326.77 347.33,-312.15 353,-296.41 361.74,-272.17 367.38,-259.81 353,-238.43 335.06,-211.74 301.08,-198.48 272.36,-191.9"/>
<polygon fill="#000000" stroke="black" points="272.96,-188.45 262.45,-189.84 271.53,-195.3 272.96,-188.45"/>
</g>
<!-- pytermor_util_prefixed_unit -->
<g id="node9" class="node">
<title>pytermor_util_prefixed_unit</title><style>.edge>path:hover{stroke-width:8}</style>
<ellipse fill="#c04040" stroke="black" cx="293" cy="-267.42" rx="50.82" ry="28.98"/>
<text text-anchor="middle" x="293" y="-275.92" font-family="Helvetica,sans-Serif" font-size="10.00" fill="#ffffff">pytermor.</text>
<text text-anchor="middle" x="293" y="-264.92" font-family="Helvetica,sans-Serif" font-size="10.00" fill="#ffffff">util.</text>
<text text-anchor="middle" x="293" y="-253.92" font-family="Helvetica,sans-Serif" font-size="10.00" fill="#ffffff">prefixed_unit</text>
</g>
<!-- pytermor_util_auto_float&#45;&gt;pytermor_util_prefixed_unit -->
<g id="edge16" class="edge">
<title>pytermor_util_auto_float&#45;&gt;pytermor_util_prefixed_unit</title><style>.edge>path:hover{stroke-width:8}</style>
<path fill="none" stroke="black" d="M297.86,-332.3C297.25,-324.26 296.57,-315.36 295.92,-306.82"/>
<polygon fill="#000000" stroke="black" points="299.4,-306.37 295.15,-296.66 292.42,-306.9 299.4,-306.37"/>
</g>
<!-- pytermor_util_prefixed_unit&#45;&gt;pytermor_util -->
<g id="edge17" class="edge">
<title>pytermor_util_prefixed_unit&#45;&gt;pytermor_util</title><style>.edge>path:hover{stroke-width:8}</style>
<path fill="none" stroke="black" d="M270.85,-240.79C262.21,-230.8 252.37,-219.4 243.86,-209.56"/>
<polygon fill="#000000" stroke="black" points="246.27,-207 237.08,-201.72 240.97,-211.57 246.27,-207"/>
</g>
<!-- pytermor_util_stdlib_ext -->
<g id="node10" class="node">
<title>pytermor_util_stdlib_ext</title><style>.edge>path:hover{stroke-width:8}</style>
<ellipse fill="#cc3333" stroke="black" cx="162" cy="-361.4" rx="41.94" ry="28.98"/>
<text text-anchor="middle" x="162" y="-369.9" font-family="Helvetica,sans-Serif" font-size="10.00" fill="#ffffff">pytermor.</text>
<text text-anchor="middle" x="162" y="-358.9" font-family="Helvetica,sans-Serif" font-size="10.00" fill="#ffffff">util.</text>
<text text-anchor="middle" x="162" y="-347.9" font-family="Helvetica,sans-Serif" font-size="10.00" fill="#ffffff">stdlib_ext</text>
</g>
<!-- pytermor_util_stdlib_ext&#45;&gt;pytermor_util -->
<g id="edge18" class="edge">
<title>pytermor_util_stdlib_ext&#45;&gt;pytermor_util</title><style>.edge>path:hover{stroke-width:8}</style>
<path fill="none" stroke="black" d="M176.11,-334.11C181.86,-322.73 188.25,-309.13 193,-296.41 203.43,-268.49 211.9,-235.37 217.15,-212.62"/>
<polygon fill="#000000" stroke="black" points="220.61,-213.18 219.4,-202.66 213.78,-211.65 220.61,-213.18"/>
</g>
<!-- pytermor_util_time_delta -->
<g id="node12" class="node">
<title>pytermor_util_time_delta</title><style>.edge>path:hover{stroke-width:8}</style>
<ellipse fill="#c04040" stroke="black" cx="140" cy="-267.42" rx="43.68" ry="28.98"/>
<text text-anchor="middle" x="140" y="-275.92" font-family="Helvetica,sans-Serif" font-size="10.00" fill="#ffffff">pytermor.</text>
<text text-anchor="middle" x="140" y="-264.92" font-family="Helvetica,sans-Serif" font-size="10.00" fill="#ffffff">util.</text>
<text text-anchor="middle" x="140" y="-253.92" font-family="Helvetica,sans-Serif" font-size="10.00" fill="#ffffff">time_delta</text>
</g>
<!-- pytermor_util_stdlib_ext&#45;&gt;pytermor_util_time_delta -->
<g id="edge19" class="edge">
<title>pytermor_util_stdlib_ext&#45;&gt;pytermor_util_time_delta</title><style>.edge>path:hover{stroke-width:8}</style>
<path fill="none" stroke="black" d="M155.28,-332.3C153.32,-324.1 151.14,-315 149.06,-306.3"/>
<polygon fill="#000000" stroke="black" points="152.41,-305.25 146.68,-296.34 145.6,-306.88 152.41,-305.25"/>
</g>
<!-- pytermor_util_string_filter&#45;&gt;pytermor_util -->
<g id="edge20" class="edge">
<title>pytermor_util_string_filter&#45;&gt;pytermor_util</title><style>.edge>path:hover{stroke-width:8}</style>
<path fill="none" stroke="black" d="M203.22,-427.05C206.97,-415.85 210.82,-402.65 213,-390.39 224.17,-327.55 224.6,-252.28 223.86,-212.76"/>
<polygon fill="#000000" stroke="black" points="227.35,-212.51 223.62,-202.6 220.35,-212.67 227.35,-212.51"/>
</g>
<!-- pytermor_util_string_filter&#45;&gt;pytermor_util_stdlib_ext -->
<g id="edge21" class="edge">
<title>pytermor_util_string_filter&#45;&gt;pytermor_util_stdlib_ext</title><style>.edge>path:hover{stroke-width:8}</style>
<path fill="none" stroke="black" d="M183.7,-426.79C180.82,-418.24 177.59,-408.67 174.53,-399.58"/>
<polygon fill="#000000" stroke="black" points="177.8,-398.34 171.29,-389.98 171.17,-400.57 177.8,-398.34"/>
</g>
<!-- pytermor_util_time_delta&#45;&gt;pytermor_util -->
<g id="edge22" class="edge">
<title>pytermor_util_time_delta&#45;&gt;pytermor_util</title><style>.edge>path:hover{stroke-width:8}</style>
<path fill="none" stroke="black" d="M164.01,-242.99C175.21,-232.06 188.5,-219.1 199.62,-208.24"/>
<polygon fill="#000000" stroke="black" points="202.21,-210.6 206.92,-201.11 197.32,-205.59 202.21,-210.6"/>
</g>
</g>
</svg>
