<?xml version="1.0" encoding="UTF-8" standalone="no"?>
<!DOCTYPE svg PUBLIC "-//W3C//DTD SVG 1.1//EN"
 "http://www.w3.org/Graphics/SVG/1.1/DTD/svg11.dtd">
<!-- Generated by graphviz version 2.43.0 (0)
 -->
<!-- Title: G Pages: 1 -->
<svg width="616pt" height="495pt"
 viewBox="0.00 0.00 616.50 495.28" xmlns="http://www.w3.org/2000/svg" xmlns:xlink="http://www.w3.org/1999/xlink">
<g id="graph0" class="graph" transform="scale(1 1) rotate(0) translate(4 491.28)">
<title>G</title><style>.edge>path:hover{stroke-width:8}</style>
<polygon fill="white" stroke="transparent" points="-4,4 -4,-491.28 612.5,-491.28 612.5,4 -4,4"/>
<!-- pytermor -->
<g id="node1" class="node">
<title>pytermor</title><style>.edge>path:hover{stroke-width:8}</style>
<ellipse fill="#3c713c" stroke="black" cx="226.66" cy="-18" rx="32.25" ry="18"/>
<text text-anchor="middle" x="226.66" y="-15.5" font-family="Helvetica,sans-Serif" font-size="10.00" fill="#ffffff">pytermor</text>
</g>
<!-- pytermor__version -->
<g id="node2" class="node">
<title>pytermor__version</title><style>.edge>path:hover{stroke-width:8}</style>
<ellipse fill="#53b653" stroke="black" cx="89.66" cy="-90" rx="31.4" ry="18"/>
<text text-anchor="middle" x="89.66" y="-87.5" font-family="Helvetica,sans-Serif" font-size="10.00" fill="#000000">_version</text>
</g>
<!-- pytermor__version&#45;&gt;pytermor -->
<g id="edge1" class="edge">
<title>pytermor__version&#45;&gt;pytermor</title><style>.edge>path:hover{stroke-width:8}</style>
<path fill="none" stroke="black" d="M112.28,-77.44C134.65,-66.01 169.11,-48.4 194.36,-35.5"/>
<polygon fill="#53b653" stroke="black" points="196.23,-38.48 203.54,-30.81 193.05,-32.24 196.23,-38.48"/>
</g>
<!-- pytermor_ansi -->
<g id="node3" class="node">
<title>pytermor_ansi</title><style>.edge>path:hover{stroke-width:8}</style>
<ellipse fill="#2fdb2f" stroke="black" cx="55.66" cy="-466.07" rx="27" ry="18"/>
<text text-anchor="middle" x="55.66" y="-463.57" font-family="Helvetica,sans-Serif" font-size="10.00" fill="#000000">ansi</text>
</g>
<!-- pytermor_ansi&#45;&gt;pytermor -->
<g id="edge2" class="edge">
<title>pytermor_ansi&#45;&gt;pytermor</title><style>.edge>path:hover{stroke-width:8}</style>
<path fill="none" stroke="black" d="M37.79,-452.38C20.75,-438.6 -1.97,-414.99 0.66,-388.64"/>
<path fill="none" stroke="black" d="M0.66,-386.64C4.82,-345 36.17,-347.25 55.66,-310.21"/>
<path fill="none" stroke="black" d="M55.66,-308.21C74.61,-272.2 103.56,-275.07 110.66,-235"/>
<path fill="none" stroke="black" d="M110.66,-233C122.05,-168.67 125.38,-152.05 148.66,-91"/>
<path fill="none" stroke="black" d="M148.66,-89C156.46,-66.22 177.04,-48.29 195.11,-36.27"/>
<polygon fill="#2fdb2f" stroke="black" points="197.11,-39.15 203.7,-30.86 193.38,-33.23 197.11,-39.15"/>
</g>
<!-- pytermor_color -->
<g id="node4" class="node">
<title>pytermor_color</title><style>.edge>path:hover{stroke-width:8}</style>
<ellipse fill="#18dd18" stroke="black" cx="55.66" cy="-387.64" rx="27" ry="18"/>
<text text-anchor="middle" x="55.66" y="-385.14" font-family="Helvetica,sans-Serif" font-size="10.00" fill="#000000">color</text>
</g>
<!-- pytermor_ansi&#45;&gt;pytermor_color -->
<g id="edge3" class="edge">
<title>pytermor_ansi&#45;&gt;pytermor_color</title><style>.edge>path:hover{stroke-width:8}</style>
<path fill="none" stroke="black" d="M55.66,-447.72C55.66,-438.28 55.66,-426.38 55.66,-415.73"/>
<polygon fill="#2fdb2f" stroke="black" points="59.16,-415.65 55.66,-405.65 52.16,-415.65 59.16,-415.65"/>
</g>
<!-- pytermor_index -->
<g id="node6" class="node">
<title>pytermor_index</title><style>.edge>path:hover{stroke-width:8}</style>
<ellipse fill="#3db83d" stroke="black" cx="110.66" cy="-309.21" rx="27" ry="18"/>
<text text-anchor="middle" x="110.66" y="-306.71" font-family="Helvetica,sans-Serif" font-size="10.00" fill="#000000">index</text>
</g>
<!-- pytermor_ansi&#45;&gt;pytermor_index -->
<g id="edge4" class="edge">
<title>pytermor_ansi&#45;&gt;pytermor_index</title><style>.edge>path:hover{stroke-width:8}</style>
<path fill="none" stroke="black" d="M0.66,-386.64C1.88,-374.37 10.11,-374.23 19.66,-366.43 38.73,-350.85 62.46,-336.33 80.9,-325.95"/>
<polygon fill="#2fdb2f" stroke="black" points="82.69,-328.96 89.75,-321.06 79.31,-322.83 82.69,-328.96"/>
</g>
<!-- pytermor_renderer -->
<g id="node7" class="node">
<title>pytermor_renderer</title><style>.edge>path:hover{stroke-width:8}</style>
<ellipse fill="#35a135" stroke="black" cx="207.66" cy="-162" rx="30.72" ry="18"/>
<text text-anchor="middle" x="207.66" y="-159.5" font-family="Helvetica,sans-Serif" font-size="10.00" fill="#ffffff">renderer</text>
</g>
<!-- pytermor_ansi&#45;&gt;pytermor_renderer -->
<g id="edge5" class="edge">
<title>pytermor_ansi&#45;&gt;pytermor_renderer</title><style>.edge>path:hover{stroke-width:8}</style>
<path fill="none" stroke="black" d="M78.32,-456.15C118.61,-438.9 201.58,-396.71 234.66,-330.43 257.37,-284.92 246.53,-265.45 234.66,-216 232.32,-206.27 227.88,-196.3 223.27,-187.68"/>
<polygon fill="#2fdb2f" stroke="black" points="226.27,-185.89 218.29,-178.93 220.19,-189.35 226.27,-185.89"/>
</g>
<!-- pytermor_color&#45;&gt;pytermor -->
<g id="edge6" class="edge">
<title>pytermor_color&#45;&gt;pytermor</title><style>.edge>path:hover{stroke-width:8}</style>
<path fill="none" stroke="black" d="M51.37,-369.77C48.18,-353.53 45.9,-328.77 55.66,-310.21"/>
</g>
<!-- pytermor_color&#45;&gt;pytermor_index -->
<g id="edge7" class="edge">
<title>pytermor_color&#45;&gt;pytermor_index</title><style>.edge>path:hover{stroke-width:8}</style>
<path fill="none" stroke="black" d="M66.79,-371.17C74.47,-360.5 84.82,-346.11 93.54,-333.99"/>
<polygon fill="#18dd18" stroke="black" points="96.54,-335.82 99.54,-325.66 90.86,-331.73 96.54,-335.82"/>
</g>
<!-- pytermor_color&#45;&gt;pytermor_renderer -->
<g id="edge8" class="edge">
<title>pytermor_color&#45;&gt;pytermor_renderer</title><style>.edge>path:hover{stroke-width:8}</style>
<path fill="none" stroke="black" d="M220.66,-308.21C232.98,-278.1 217,-267.33 220.66,-235"/>
<path fill="none" stroke="black" d="M220.66,-233C222.29,-218.56 219.68,-202.62 216.38,-189.6"/>
<polygon fill="#18dd18" stroke="black" points="219.73,-188.56 213.66,-179.87 212.99,-190.45 219.73,-188.56"/>
</g>
<!-- pytermor_style -->
<g id="node8" class="node">
<title>pytermor_style</title><style>.edge>path:hover{stroke-width:8}</style>
<ellipse fill="#31c431" stroke="black" cx="165.66" cy="-234" rx="27" ry="18"/>
<text text-anchor="middle" x="165.66" y="-231.5" font-family="Helvetica,sans-Serif" font-size="10.00" fill="#000000">style</text>
</g>
<!-- pytermor_color&#45;&gt;pytermor_style -->
<g id="edge9" class="edge">
<title>pytermor_color&#45;&gt;pytermor_style</title><style>.edge>path:hover{stroke-width:8}</style>
<path fill="none" stroke="black" d="M82.59,-384.62C123.46,-379.85 198.73,-363.83 220.66,-310.21"/>
<path fill="none" stroke="black" d="M220.66,-308.21C229.24,-287.22 211.18,-266.89 193.5,-253"/>
<polygon fill="#18dd18" stroke="black" points="195.11,-249.83 184.98,-246.73 190.96,-255.47 195.11,-249.83"/>
</g>
<!-- pytermor_text -->
<g id="node9" class="node">
<title>pytermor_text</title><style>.edge>path:hover{stroke-width:8}</style>
<ellipse fill="#409640" stroke="black" cx="304.66" cy="-90" rx="27" ry="18"/>
<text text-anchor="middle" x="304.66" y="-87.5" font-family="Helvetica,sans-Serif" font-size="10.00" fill="#ffffff">text</text>
</g>
<!-- pytermor_color&#45;&gt;pytermor_text -->
<g id="edge10" class="edge">
<title>pytermor_color&#45;&gt;pytermor_text</title><style>.edge>path:hover{stroke-width:8}</style>
<path fill="none" stroke="black" d="M220.66,-233C222.13,-219.95 264.63,-152.68 288.6,-115.6"/>
<polygon fill="#18dd18" stroke="black" points="291.75,-117.17 294.26,-106.88 285.88,-113.36 291.75,-117.17"/>
</g>
<!-- pytermor_common -->
<g id="node5" class="node">
<title>pytermor_common</title><style>.edge>path:hover{stroke-width:8}</style>
<ellipse fill="#22e722" stroke="black" cx="214.66" cy="-466.07" rx="31.58" ry="18"/>
<text text-anchor="middle" x="214.66" y="-463.57" font-family="Helvetica,sans-Serif" font-size="10.00" fill="#000000">common</text>
</g>
<!-- pytermor_common&#45;&gt;pytermor -->
<g id="edge11" class="edge">
<title>pytermor_common&#45;&gt;pytermor</title><style>.edge>path:hover{stroke-width:8}</style>
<path fill="none" stroke="black" d="M227.49,-449.16C247.98,-422.43 286.79,-365.93 296.66,-310.21"/>
<path fill="none" stroke="black" d="M296.66,-308.21C308.06,-277.74 304.9,-266.48 296.66,-235"/>
<path fill="none" stroke="black" d="M296.66,-233C288.72,-202.71 297.28,-193.43 304.66,-163"/>
<path fill="none" stroke="black" d="M304.66,-161C313.98,-122.55 373.41,-128.1 359.66,-91"/>
<path fill="none" stroke="black" d="M359.66,-89C345.85,-51.75 301.43,-34.05 267.68,-25.82"/>
<polygon fill="#22e722" stroke="black" points="268.12,-22.33 257.6,-23.56 266.59,-29.16 268.12,-22.33"/>
</g>
<!-- pytermor_common&#45;&gt;pytermor_color -->
<g id="edge12" class="edge">
<title>pytermor_common&#45;&gt;pytermor_color</title><style>.edge>path:hover{stroke-width:8}</style>
<path fill="none" stroke="black" d="M191.2,-453.79C163.45,-440.45 117.16,-418.2 86.53,-403.48"/>
<polygon fill="#22e722" stroke="black" points="87.7,-400.16 77.17,-398.98 84.67,-406.47 87.7,-400.16"/>
</g>
<!-- pytermor_common&#45;&gt;pytermor_renderer -->
<g id="edge13" class="edge">
<title>pytermor_common&#45;&gt;pytermor_renderer</title><style>.edge>path:hover{stroke-width:8}</style>
<path fill="none" stroke="black" d="M296.66,-233C289.73,-206.54 264.04,-188.17 242.04,-176.91"/>
<polygon fill="#22e722" stroke="black" points="243.43,-173.69 232.9,-172.51 240.39,-180 243.43,-173.69"/>
</g>
<!-- pytermor_common&#45;&gt;pytermor_text -->
<g id="edge14" class="edge">
<title>pytermor_common&#45;&gt;pytermor_text</title><style>.edge>path:hover{stroke-width:8}</style>
<path fill="none" stroke="black" d="M304.66,-161C308.01,-147.16 308.3,-131.32 307.62,-118.22"/>
<polygon fill="#22e722" stroke="black" points="311.09,-117.67 306.87,-107.95 304.1,-118.18 311.09,-117.67"/>
</g>
<!-- pytermor_util -->
<g id="node10" class="node">
<title>pytermor_util</title><style>.edge>path:hover{stroke-width:8}</style>
<ellipse fill="#28a328" stroke="black" cx="351.66" cy="-234" rx="27" ry="18"/>
<text text-anchor="middle" x="351.66" y="-231.5" font-family="Helvetica,sans-Serif" font-size="10.00" fill="#ffffff">util</text>
</g>
<!-- pytermor_common&#45;&gt;pytermor_util -->
<g id="edge15" class="edge">
<title>pytermor_common&#45;&gt;pytermor_util</title><style>.edge>path:hover{stroke-width:8}</style>
<path fill="none" stroke="black" d="M296.66,-308.21C300.3,-287.67 314.66,-268.95 327.79,-255.58"/>
<polygon fill="#22e722" stroke="black" points="330.52,-257.81 335.3,-248.35 325.67,-252.77 330.52,-257.81"/>
</g>
<!-- pytermor_index&#45;&gt;pytermor -->
<g id="edge16" class="edge">
<title>pytermor_index&#45;&gt;pytermor</title><style>.edge>path:hover{stroke-width:8}</style>
<path fill="none" stroke="black" d="M108.99,-291.2C107.92,-276.27 107.29,-254.02 110.66,-235"/>
</g>
<!-- pytermor_index&#45;&gt;pytermor_style -->
<g id="edge17" class="edge">
<title>pytermor_index&#45;&gt;pytermor_style</title><style>.edge>path:hover{stroke-width:8}</style>
<path fill="none" stroke="black" d="M122.32,-292.69C129.76,-282.79 139.54,-269.76 147.93,-258.6"/>
<polygon fill="#3db83d" stroke="black" points="150.8,-260.6 154.01,-250.5 145.21,-256.4 150.8,-260.6"/>
</g>
<!-- pytermor_renderer&#45;&gt;pytermor -->
<g id="edge18" class="edge">
<title>pytermor_renderer&#45;&gt;pytermor</title><style>.edge>path:hover{stroke-width:8}</style>
<path fill="none" stroke="black" d="M185.55,-149.11C165.23,-136.43 139.54,-114.91 148.66,-91"/>
</g>
<!-- pytermor_renderer&#45;&gt;pytermor_text -->
<g id="edge19" class="edge">
<title>pytermor_renderer&#45;&gt;pytermor_text</title><style>.edge>path:hover{stroke-width:8}</style>
<path fill="none" stroke="black" d="M226.36,-147.5C241.27,-136.74 262.31,-121.56 278.83,-109.64"/>
<polygon fill="#35a135" stroke="black" points="280.93,-112.44 286.99,-103.75 276.84,-106.76 280.93,-112.44"/>
</g>
<!-- pytermor_style&#45;&gt;pytermor -->
<g id="edge20" class="edge">
<title>pytermor_style&#45;&gt;pytermor</title><style>.edge>path:hover{stroke-width:8}</style>
<path fill="none" stroke="black" d="M156.77,-216.73C150.13,-202.45 143.1,-181.18 148.66,-163"/>
<path fill="none" stroke="black" d="M148.66,-161C157.76,-131.25 137.58,-120.07 148.66,-91"/>
</g>
<!-- pytermor_style&#45;&gt;pytermor_renderer -->
<g id="edge21" class="edge">
<title>pytermor_style&#45;&gt;pytermor_renderer</title><style>.edge>path:hover{stroke-width:8}</style>
<path fill="none" stroke="black" d="M175.19,-217.12C180.32,-208.56 186.78,-197.8 192.58,-188.13"/>
<polygon fill="#31c431" stroke="black" points="195.73,-189.68 197.87,-179.31 189.73,-186.08 195.73,-189.68"/>
</g>
<!-- pytermor_style&#45;&gt;pytermor_text -->
<g id="edge22" class="edge">
<title>pytermor_style&#45;&gt;pytermor_text</title><style>.edge>path:hover{stroke-width:8}</style>
<path fill="none" stroke="black" d="M148.66,-161C163.3,-113.11 226.39,-97.94 267.72,-93.16"/>
<polygon fill="#31c431" stroke="black" points="268.11,-96.64 277.71,-92.16 267.41,-89.67 268.11,-96.64"/>
</g>
<!-- pytermor_text&#45;&gt;pytermor -->
<g id="edge23" class="edge">
<title>pytermor_text&#45;&gt;pytermor</title><style>.edge>path:hover{stroke-width:8}</style>
<path fill="none" stroke="black" d="M289.25,-75.17C278.22,-65.27 263.16,-51.75 250.57,-40.46"/>
<polygon fill="#409640" stroke="black" points="252.89,-37.84 243.11,-33.77 248.22,-43.05 252.89,-37.84"/>
</g>
<!-- pytermor_util&#45;&gt;pytermor -->
<g id="edge24" class="edge">
<title>pytermor_util&#45;&gt;pytermor</title><style>.edge>path:hover{stroke-width:8}</style>
<path fill="none" stroke="black" d="M359.66,-161C355.71,-130.14 370.47,-120.17 359.66,-91"/>
</g>
<!-- pytermor_util&#45;&gt;pytermor_renderer -->
<g id="edge25" class="edge">
<title>pytermor_util&#45;&gt;pytermor_renderer</title><style>.edge>path:hover{stroke-width:8}</style>
<path fill="none" stroke="black" d="M330.41,-222.67C306.48,-211.04 267.32,-192 239.67,-178.56"/>
<polygon fill="#28a328" stroke="black" points="240.94,-175.29 230.42,-174.07 237.88,-181.58 240.94,-175.29"/>
</g>
<!-- pytermor_util&#45;&gt;pytermor_text -->
<g id="edge26" class="edge">
<title>pytermor_util&#45;&gt;pytermor_text</title><style>.edge>path:hover{stroke-width:8}</style>
<path fill="none" stroke="black" d="M355.89,-216.01C358.88,-201.83 361.97,-181.08 359.66,-163"/>
<path fill="none" stroke="black" d="M359.66,-161C357.12,-141.14 343.06,-123.45 329.79,-110.82"/>
<polygon fill="#28a328" stroke="black" points="331.95,-108.06 322.17,-103.99 327.28,-113.27 331.95,-108.06"/>
</g>
<!-- pytermor_util_auto_float -->
<g id="node11" class="node">
<title>pytermor_util_auto_float</title><style>.edge>path:hover{stroke-width:8}</style>
<ellipse fill="#47c247" stroke="black" cx="390.66" cy="-387.64" rx="41.94" ry="21.43"/>
<text text-anchor="middle" x="390.66" y="-390.64" font-family="Helvetica,sans-Serif" font-size="10.00" fill="#000000">util.</text>
<text text-anchor="middle" x="390.66" y="-379.64" font-family="Helvetica,sans-Serif" font-size="10.00" fill="#000000">auto_float</text>
</g>
<!-- pytermor_util_auto_float&#45;&gt;pytermor_util -->
<g id="edge27" class="edge">
<title>pytermor_util_auto_float&#45;&gt;pytermor_util</title><style>.edge>path:hover{stroke-width:8}</style>
<path fill="none" stroke="black" d="M374.53,-368C366.63,-357.66 357.93,-344.15 353.66,-330.43 346.72,-308.13 346.82,-281.47 348.3,-262"/>
<polygon fill="#47c247" stroke="black" points="351.79,-262.28 349.24,-252 344.82,-261.63 351.79,-262.28"/>
</g>
<!-- pytermor_util_prefixed_unit -->
<g id="node12" class="node">
<title>pytermor_util_prefixed_unit</title><style>.edge>path:hover{stroke-width:8}</style>
<ellipse fill="#4cb34c" stroke="black" cx="413.66" cy="-309.21" rx="50.82" ry="21.43"/>
<text text-anchor="middle" x="413.66" y="-312.21" font-family="Helvetica,sans-Serif" font-size="10.00" fill="#000000">util.</text>
<text text-anchor="middle" x="413.66" y="-301.21" font-family="Helvetica,sans-Serif" font-size="10.00" fill="#000000">prefixed_unit</text>
</g>
<!-- pytermor_util_auto_float&#45;&gt;pytermor_util_prefixed_unit -->
<g id="edge28" class="edge">
<title>pytermor_util_auto_float&#45;&gt;pytermor_util_prefixed_unit</title><style>.edge>path:hover{stroke-width:8}</style>
<path fill="none" stroke="black" d="M396.7,-366.56C399.14,-358.46 402,-348.95 404.67,-340.07"/>
<polygon fill="#47c247" stroke="black" points="408.05,-341.01 407.58,-330.42 401.34,-338.99 408.05,-341.01"/>
</g>
<!-- pytermor_util_prefixed_unit&#45;&gt;pytermor_util -->
<g id="edge29" class="edge">
<title>pytermor_util_prefixed_unit&#45;&gt;pytermor_util</title><style>.edge>path:hover{stroke-width:8}</style>
<path fill="none" stroke="black" d="M397.37,-288.98C389.21,-279.35 379.29,-267.63 370.78,-257.58"/>
<polygon fill="#4cb34c" stroke="black" points="373.45,-255.32 364.32,-249.95 368.11,-259.84 373.45,-255.32"/>
</g>
<!-- pytermor_util_stdlib_ext -->
<g id="node13" class="node">
<title>pytermor_util_stdlib_ext</title><style>.edge>path:hover{stroke-width:8}</style>
<ellipse fill="#40c040" stroke="black" cx="562.66" cy="-387.64" rx="41.94" ry="21.43"/>
<text text-anchor="middle" x="562.66" y="-390.64" font-family="Helvetica,sans-Serif" font-size="10.00" fill="#000000">util.</text>
<text text-anchor="middle" x="562.66" y="-379.64" font-family="Helvetica,sans-Serif" font-size="10.00" fill="#000000">stdlib_ext</text>
</g>
<!-- pytermor_util_stdlib_ext&#45;&gt;pytermor_util -->
<g id="edge30" class="edge">
<title>pytermor_util_stdlib_ext&#45;&gt;pytermor_util</title><style>.edge>path:hover{stroke-width:8}</style>
<path fill="none" stroke="black" d="M545.77,-368.02C531.65,-352.5 510.94,-329.82 492.66,-310.21"/>
</g>
<!-- pytermor_util_time_delta -->
<g id="node15" class="node">
<title>pytermor_util_time_delta</title><style>.edge>path:hover{stroke-width:8}</style>
<ellipse fill="#4cb34c" stroke="black" cx="564.66" cy="-309.21" rx="43.68" ry="21.43"/>
<text text-anchor="middle" x="564.66" y="-312.21" font-family="Helvetica,sans-Serif" font-size="10.00" fill="#000000">util.</text>
<text text-anchor="middle" x="564.66" y="-301.21" font-family="Helvetica,sans-Serif" font-size="10.00" fill="#000000">time_delta</text>
</g>
<!-- pytermor_util_stdlib_ext&#45;&gt;pytermor_util_time_delta -->
<g id="edge31" class="edge">
<title>pytermor_util_stdlib_ext&#45;&gt;pytermor_util_time_delta</title><style>.edge>path:hover{stroke-width:8}</style>
<path fill="none" stroke="black" d="M563.19,-366.16C563.4,-358.3 563.64,-349.16 563.86,-340.57"/>
<polygon fill="#40c040" stroke="black" points="567.36,-340.57 564.13,-330.49 560.37,-340.39 567.36,-340.57"/>
</g>
<!-- pytermor_util_string_filter -->
<g id="node14" class="node">
<title>pytermor_util_string_filter</title><style>.edge>path:hover{stroke-width:8}</style>
<ellipse fill="#47c247" stroke="black" cx="527.66" cy="-466.07" rx="45.92" ry="21.43"/>
<text text-anchor="middle" x="527.66" y="-469.07" font-family="Helvetica,sans-Serif" font-size="10.00" fill="#000000">util.</text>
<text text-anchor="middle" x="527.66" y="-458.07" font-family="Helvetica,sans-Serif" font-size="10.00" fill="#000000">string_filter</text>
</g>
<!-- pytermor_util_string_filter&#45;&gt;pytermor_util -->
<g id="edge32" class="edge">
<title>pytermor_util_string_filter&#45;&gt;pytermor_util</title><style>.edge>path:hover{stroke-width:8}</style>
<path fill="none" stroke="black" d="M521.45,-444.88C518.29,-434.23 514.53,-420.9 511.66,-408.85 501.31,-365.42 523.1,-342.87 492.66,-310.21"/>
<path fill="none" stroke="black" d="M492.66,-308.21C483.87,-299.57 483.74,-295.09 473.66,-288 446.48,-268.88 411.31,-254.51 385.72,-245.59"/>
<polygon fill="#47c247" stroke="black" points="386.67,-242.22 376.07,-242.33 384.42,-248.85 386.67,-242.22"/>
</g>
<!-- pytermor_util_string_filter&#45;&gt;pytermor_util_stdlib_ext -->
<g id="edge33" class="edge">
<title>pytermor_util_string_filter&#45;&gt;pytermor_util_stdlib_ext</title><style>.edge>path:hover{stroke-width:8}</style>
<path fill="none" stroke="black" d="M536.85,-444.99C540.67,-436.65 545.18,-426.81 549.34,-417.71"/>
<polygon fill="#47c247" stroke="black" points="552.54,-419.13 553.52,-408.59 546.18,-416.22 552.54,-419.13"/>
</g>
<!-- pytermor_util_time_delta&#45;&gt;pytermor_util -->
<g id="edge34" class="edge">
<title>pytermor_util_time_delta&#45;&gt;pytermor_util</title><style>.edge>path:hover{stroke-width:8}</style>
<path fill="none" stroke="black" d="M530.01,-296.1C522.33,-293.43 514.22,-290.61 506.66,-288 464.69,-273.51 416.27,-256.99 384.87,-246.29"/>
<polygon fill="#4cb34c" stroke="black" points="385.9,-242.95 375.31,-243.04 383.65,-249.57 385.9,-242.95"/>
</g>
</g>
</svg>
