<?xml version="1.0" encoding="UTF-8" standalone="no"?>
<!DOCTYPE svg PUBLIC "-//W3C//DTD SVG 1.1//EN"
 "http://www.w3.org/Graphics/SVG/1.1/DTD/svg11.dtd">
<!-- Generated by graphviz version 2.43.0 (0)
 -->
<!-- Title: G Pages: 1 -->
<svg width="403pt" height="548pt"
 viewBox="0.00 0.00 403.04 548.00" xmlns="http://www.w3.org/2000/svg" xmlns:xlink="http://www.w3.org/1999/xlink">
<g id="graph0" class="graph" transform="scale(1 1) rotate(0) translate(4 544)">
<title>G</title><style>.edge>path:hover{stroke-width:8}</style>
<polygon fill="white" stroke="transparent" points="-4,4 -4,-544 399.04,-544 399.04,4 -4,4"/>
<!-- pytermor -->
<g id="node1" class="node">
<title>pytermor</title><style>.edge>path:hover{stroke-width:8}</style>
<ellipse fill="#2e6b2e" stroke="black" cx="248.04" cy="-18" rx="32.25" ry="18"/>
<text text-anchor="middle" x="248.04" y="-15.5" font-family="Helvetica,sans-Serif" font-size="10.00" fill="#ffffff">pytermor</text>
</g>
<!-- pytermor__version -->
<g id="node2" class="node">
<title>pytermor__version</title><style>.edge>path:hover{stroke-width:8}</style>
<ellipse fill="#53b653" stroke="black" cx="81.04" cy="-90" rx="31.4" ry="18"/>
<text text-anchor="middle" x="81.04" y="-87.5" font-family="Helvetica,sans-Serif" font-size="10.00" fill="#000000">_version</text>
</g>
<!-- pytermor__version&#45;&gt;pytermor -->
<g id="edge1" class="edge">
<title>pytermor__version&#45;&gt;pytermor</title><style>.edge>path:hover{stroke-width:8}</style>
<path fill="none" stroke="black" d="M105.68,-78.67C134.21,-66.71 181.39,-46.93 213.56,-33.45"/>
<polygon fill="#53b653" stroke="black" points="215.15,-36.58 223.02,-29.49 212.44,-30.12 215.15,-36.58"/>
</g>
<!-- pytermor_ansi -->
<g id="node3" class="node">
<title>pytermor_ansi</title><style>.edge>path:hover{stroke-width:8}</style>
<ellipse fill="#26d926" stroke="black" cx="72.04" cy="-450" rx="27" ry="18"/>
<text text-anchor="middle" x="72.04" y="-447.5" font-family="Helvetica,sans-Serif" font-size="10.00" fill="#000000">ansi</text>
</g>
<!-- pytermor_ansi&#45;&gt;pytermor -->
<g id="edge2" class="edge">
<title>pytermor_ansi&#45;&gt;pytermor</title><style>.edge>path:hover{stroke-width:8}</style>
<path fill="none" stroke="black" d="M54.71,-435.98C39.91,-423.37 20.47,-402.71 17.04,-379"/>
<path fill="none" stroke="black" d="M17.04,-377C12.58,-346.21 8.23,-336.84 17.04,-307"/>
</g>
<!-- pytermor_color -->
<g id="node4" class="node">
<title>pytermor_color</title><style>.edge>path:hover{stroke-width:8}</style>
<ellipse fill="#18dd18" stroke="black" cx="72.04" cy="-378" rx="27" ry="18"/>
<text text-anchor="middle" x="72.04" y="-375.5" font-family="Helvetica,sans-Serif" font-size="10.00" fill="#000000">color</text>
</g>
<!-- pytermor_ansi&#45;&gt;pytermor_color -->
<g id="edge3" class="edge">
<title>pytermor_ansi&#45;&gt;pytermor_color</title><style>.edge>path:hover{stroke-width:8}</style>
<path fill="none" stroke="black" d="M72.04,-431.7C72.04,-423.98 72.04,-414.71 72.04,-406.11"/>
<polygon fill="#26d926" stroke="black" points="75.54,-406.1 72.04,-396.1 68.54,-406.1 75.54,-406.1"/>
</g>
<!-- pytermor_cval -->
<g id="node6" class="node">
<title>pytermor_cval</title><style>.edge>path:hover{stroke-width:8}</style>
<ellipse fill="#3db83d" stroke="black" cx="72.04" cy="-306" rx="27" ry="18"/>
<text text-anchor="middle" x="72.04" y="-303.5" font-family="Helvetica,sans-Serif" font-size="10.00" fill="#000000">cval</text>
</g>
<!-- pytermor_ansi&#45;&gt;pytermor_cval -->
<g id="edge4" class="edge">
<title>pytermor_ansi&#45;&gt;pytermor_cval</title><style>.edge>path:hover{stroke-width:8}</style>
<path fill="none" stroke="black" d="M17.04,-377C14.06,-356.48 29.31,-338.24 44.5,-325.53"/>
<polygon fill="#26d926" stroke="black" points="47.07,-327.96 52.81,-319.06 42.77,-322.44 47.07,-327.96"/>
</g>
<!-- pytermor_renderer -->
<g id="node7" class="node">
<title>pytermor_renderer</title><style>.edge>path:hover{stroke-width:8}</style>
<ellipse fill="#35a135" stroke="black" cx="199.04" cy="-162" rx="30.72" ry="18"/>
<text text-anchor="middle" x="199.04" y="-159.5" font-family="Helvetica,sans-Serif" font-size="10.00" fill="#ffffff">renderer</text>
</g>
<!-- pytermor_ansi&#45;&gt;pytermor_renderer -->
<g id="edge5" class="edge">
<title>pytermor_ansi&#45;&gt;pytermor_renderer</title><style>.edge>path:hover{stroke-width:8}</style>
<path fill="none" stroke="black" d="M91.22,-436.87C120.25,-417.26 174.25,-375.52 196.04,-324 214.6,-280.09 209.76,-223.23 204.46,-190.16"/>
<polygon fill="#26d926" stroke="black" points="207.91,-189.57 202.75,-180.31 201.01,-190.76 207.91,-189.57"/>
</g>
<!-- pytermor_color&#45;&gt;pytermor -->
<g id="edge6" class="edge">
<title>pytermor_color&#45;&gt;pytermor</title><style>.edge>path:hover{stroke-width:8}</style>
<path fill="none" stroke="black" d="M52.37,-365.33C33.86,-352.67 9.95,-331.01 17.04,-307"/>
</g>
<!-- pytermor_color&#45;&gt;pytermor_cval -->
<g id="edge7" class="edge">
<title>pytermor_color&#45;&gt;pytermor_cval</title><style>.edge>path:hover{stroke-width:8}</style>
<path fill="none" stroke="black" d="M72.04,-359.7C72.04,-351.98 72.04,-342.71 72.04,-334.11"/>
<polygon fill="#18dd18" stroke="black" points="75.54,-334.1 72.04,-324.1 68.54,-334.1 75.54,-334.1"/>
</g>
<!-- pytermor_color&#45;&gt;pytermor_renderer -->
<g id="edge8" class="edge">
<title>pytermor_color&#45;&gt;pytermor_renderer</title><style>.edge>path:hover{stroke-width:8}</style>
<path fill="none" stroke="black" d="M182.04,-305C191.62,-275.4 173.24,-264.84 182.04,-235"/>
<path fill="none" stroke="black" d="M182.04,-233C186.19,-218.9 190.12,-202.98 193.15,-189.9"/>
<polygon fill="#18dd18" stroke="black" points="196.57,-190.62 195.37,-180.1 189.74,-189.07 196.57,-190.62"/>
</g>
<!-- pytermor_style -->
<g id="node8" class="node">
<title>pytermor_style</title><style>.edge>path:hover{stroke-width:8}</style>
<ellipse fill="#2db42d" stroke="black" cx="127.04" cy="-234" rx="27" ry="18"/>
<text text-anchor="middle" x="127.04" y="-231.5" font-family="Helvetica,sans-Serif" font-size="10.00" fill="#ffffff">style</text>
</g>
<!-- pytermor_color&#45;&gt;pytermor_style -->
<g id="edge9" class="edge">
<title>pytermor_color&#45;&gt;pytermor_style</title><style>.edge>path:hover{stroke-width:8}</style>
<path fill="none" stroke="black" d="M96.92,-371C125.56,-362.47 170.18,-343.61 182.04,-307"/>
<path fill="none" stroke="black" d="M182.04,-305C188.71,-284.4 171.61,-265.39 154.76,-252.39"/>
<polygon fill="#18dd18" stroke="black" points="156.77,-249.53 146.61,-246.51 152.67,-255.2 156.77,-249.53"/>
</g>
<!-- pytermor_text -->
<g id="node9" class="node">
<title>pytermor_text</title><style>.edge>path:hover{stroke-width:8}</style>
<ellipse fill="#3d8f3d" stroke="black" cx="221.04" cy="-90" rx="27" ry="18"/>
<text text-anchor="middle" x="221.04" y="-87.5" font-family="Helvetica,sans-Serif" font-size="10.00" fill="#ffffff">text</text>
</g>
<!-- pytermor_color&#45;&gt;pytermor_text -->
<g id="edge10" class="edge">
<title>pytermor_color&#45;&gt;pytermor_text</title><style>.edge>path:hover{stroke-width:8}</style>
<path fill="none" stroke="black" d="M182.04,-233C195.02,-188.95 257.78,-208.92 258.04,-163"/>
<path fill="none" stroke="black" d="M258.04,-161C258.13,-144.02 249.52,-127.14 240.58,-114.2"/>
<polygon fill="#18dd18" stroke="black" points="243.22,-111.88 234.45,-105.93 237.59,-116.04 243.22,-111.88"/>
</g>
<!-- pytermor_common -->
<g id="node5" class="node">
<title>pytermor_common</title><style>.edge>path:hover{stroke-width:8}</style>
<ellipse fill="#10f910" stroke="black" cx="72.04" cy="-522" rx="31.58" ry="18"/>
<text text-anchor="middle" x="72.04" y="-519.5" font-family="Helvetica,sans-Serif" font-size="10.00" fill="#000000">common</text>
</g>
<!-- pytermor_common&#45;&gt;pytermor -->
<g id="edge11" class="edge">
<title>pytermor_common&#45;&gt;pytermor</title><style>.edge>path:hover{stroke-width:8}</style>
<path fill="none" stroke="black" d="M60.29,-505.21C52.87,-494.9 43.35,-480.99 36.04,-468 18.75,-437.33 10.54,-430.39 3.04,-396 -5.5,-356.88 5.7,-345.41 17.04,-307"/>
<path fill="none" stroke="black" d="M17.04,-305C26.23,-266.52 60.91,-272.97 72.04,-235"/>
<path fill="none" stroke="black" d="M72.04,-233C91.72,-165.85 107.88,-153.15 140.04,-91"/>
<path fill="none" stroke="black" d="M140.04,-89C153.69,-60.39 185.38,-41.99 210.92,-31.27"/>
<polygon fill="#10f910" stroke="black" points="212.35,-34.47 220.36,-27.54 209.77,-27.96 212.35,-34.47"/>
</g>
<!-- pytermor_common&#45;&gt;pytermor_ansi -->
<g id="edge12" class="edge">
<title>pytermor_common&#45;&gt;pytermor_ansi</title><style>.edge>path:hover{stroke-width:8}</style>
<path fill="none" stroke="black" d="M72.04,-503.7C72.04,-495.98 72.04,-486.71 72.04,-478.11"/>
<polygon fill="#10f910" stroke="black" points="75.54,-478.1 72.04,-468.1 68.54,-478.1 75.54,-478.1"/>
</g>
<!-- pytermor_common&#45;&gt;pytermor_color -->
<g id="edge13" class="edge">
<title>pytermor_common&#45;&gt;pytermor_color</title><style>.edge>path:hover{stroke-width:8}</style>
<path fill="none" stroke="black" d="M103.2,-518.39C167.16,-512.18 307.71,-493.69 313.04,-451"/>
<path fill="none" stroke="black" d="M313.04,-449C318.26,-407.16 177.8,-388.57 108.98,-381.99"/>
<polygon fill="#10f910" stroke="black" points="109.26,-378.5 98.98,-381.07 108.62,-385.47 109.26,-378.5"/>
</g>
<!-- pytermor_common&#45;&gt;pytermor_renderer -->
<g id="edge14" class="edge">
<title>pytermor_common&#45;&gt;pytermor_renderer</title><style>.edge>path:hover{stroke-width:8}</style>
<path fill="none" stroke="black" d="M313.04,-449C320.85,-386.37 330.88,-367.53 313.04,-307"/>
<path fill="none" stroke="black" d="M313.04,-305C299.76,-267.73 277.71,-269.32 258.04,-235"/>
<path fill="none" stroke="black" d="M258.04,-233C248.08,-215.64 233.65,-198.43 221.56,-185.42"/>
<polygon fill="#10f910" stroke="black" points="223.82,-182.72 214.39,-177.89 218.75,-187.55 223.82,-182.72"/>
</g>
<!-- pytermor_common&#45;&gt;pytermor_style -->
<g id="edge15" class="edge">
<title>pytermor_common&#45;&gt;pytermor_style</title><style>.edge>path:hover{stroke-width:8}</style>
<path fill="none" stroke="black" d="M313.04,-305C293.63,-239.19 231.96,-276.92 168.04,-252 165.11,-250.86 162.09,-249.65 159.06,-248.43"/>
<polygon fill="#10f910" stroke="black" points="160.1,-245.08 149.52,-244.53 157.45,-251.55 160.1,-245.08"/>
</g>
<!-- pytermor_common&#45;&gt;pytermor_text -->
<g id="edge16" class="edge">
<title>pytermor_common&#45;&gt;pytermor_text</title><style>.edge>path:hover{stroke-width:8}</style>
<path fill="none" stroke="black" d="M258.04,-233C242.56,-206.01 257.87,-194.11 258.04,-163"/>
</g>
<!-- pytermor_utilstr -->
<g id="node11" class="node">
<title>pytermor_utilstr</title><style>.edge>path:hover{stroke-width:8}</style>
<ellipse fill="#26d926" stroke="black" cx="313.04" cy="-234" rx="27" ry="18"/>
<text text-anchor="middle" x="313.04" y="-231.5" font-family="Helvetica,sans-Serif" font-size="10.00" fill="#000000">utilstr</text>
</g>
<!-- pytermor_common&#45;&gt;pytermor_utilstr -->
<g id="edge17" class="edge">
<title>pytermor_common&#45;&gt;pytermor_utilstr</title><style>.edge>path:hover{stroke-width:8}</style>
<path fill="none" stroke="black" d="M313.04,-305C309.01,-291.34 308.67,-275.52 309.48,-262.38"/>
<polygon fill="#10f910" stroke="black" points="313,-262.34 310.38,-252.07 306.03,-261.73 313,-262.34"/>
</g>
<!-- pytermor_utilsys -->
<g id="node12" class="node">
<title>pytermor_utilsys</title><style>.edge>path:hover{stroke-width:8}</style>
<ellipse fill="#40c040" stroke="black" cx="368.04" cy="-162" rx="27" ry="18"/>
<text text-anchor="middle" x="368.04" y="-159.5" font-family="Helvetica,sans-Serif" font-size="10.00" fill="#000000">utilsys</text>
</g>
<!-- pytermor_common&#45;&gt;pytermor_utilsys -->
<g id="edge18" class="edge">
<title>pytermor_common&#45;&gt;pytermor_utilsys</title><style>.edge>path:hover{stroke-width:8}</style>
<path fill="none" stroke="black" d="M313.04,-305C303.48,-278.17 337.85,-278.19 349.04,-252 357.5,-232.17 362.34,-208.2 365.01,-190.13"/>
<polygon fill="#10f910" stroke="black" points="368.51,-190.37 366.38,-179.99 361.57,-189.43 368.51,-190.37"/>
</g>
<!-- pytermor_cval&#45;&gt;pytermor -->
<g id="edge19" class="edge">
<title>pytermor_cval&#45;&gt;pytermor</title><style>.edge>path:hover{stroke-width:8}</style>
<path fill="none" stroke="black" d="M69.4,-287.93C67.79,-273.52 66.91,-252.49 72.04,-235"/>
</g>
<!-- pytermor_cval&#45;&gt;pytermor_style -->
<g id="edge20" class="edge">
<title>pytermor_cval&#45;&gt;pytermor_style</title><style>.edge>path:hover{stroke-width:8}</style>
<path fill="none" stroke="black" d="M83.97,-289.81C91.25,-280.55 100.7,-268.52 108.89,-258.09"/>
<polygon fill="#3db83d" stroke="black" points="111.7,-260.18 115.12,-250.16 106.19,-255.86 111.7,-260.18"/>
</g>
<!-- pytermor_renderer&#45;&gt;pytermor -->
<g id="edge21" class="edge">
<title>pytermor_renderer&#45;&gt;pytermor</title><style>.edge>path:hover{stroke-width:8}</style>
<path fill="none" stroke="black" d="M177.01,-149.35C155.64,-136.37 128.06,-114.15 140.04,-91"/>
</g>
<!-- pytermor_renderer&#45;&gt;pytermor_text -->
<g id="edge22" class="edge">
<title>pytermor_renderer&#45;&gt;pytermor_text</title><style>.edge>path:hover{stroke-width:8}</style>
<path fill="none" stroke="black" d="M204.36,-144.05C206.87,-136.06 209.93,-126.33 212.74,-117.4"/>
<polygon fill="#35a135" stroke="black" points="216.1,-118.38 215.76,-107.79 209.42,-116.28 216.1,-118.38"/>
</g>
<!-- pytermor_style&#45;&gt;pytermor -->
<g id="edge23" class="edge">
<title>pytermor_style&#45;&gt;pytermor</title><style>.edge>path:hover{stroke-width:8}</style>
<path fill="none" stroke="black" d="M128.65,-215.91C130.37,-201.48 133.76,-180.45 140.04,-163"/>
<path fill="none" stroke="black" d="M140.04,-161C150.57,-131.73 125.74,-118.63 140.04,-91"/>
</g>
<!-- pytermor_style&#45;&gt;pytermor_renderer -->
<g id="edge24" class="edge">
<title>pytermor_style&#45;&gt;pytermor_renderer</title><style>.edge>path:hover{stroke-width:8}</style>
<path fill="none" stroke="black" d="M141.61,-218.83C151.55,-209.16 164.94,-196.15 176.28,-185.12"/>
<polygon fill="#2db42d" stroke="black" points="179.01,-187.35 183.74,-177.87 174.13,-182.33 179.01,-187.35"/>
</g>
<!-- pytermor_style&#45;&gt;pytermor_text -->
<g id="edge25" class="edge">
<title>pytermor_style&#45;&gt;pytermor_text</title><style>.edge>path:hover{stroke-width:8}</style>
<path fill="none" stroke="black" d="M140.04,-161C148.73,-136.85 171.62,-118.38 190.86,-106.49"/>
<polygon fill="#2db42d" stroke="black" points="192.79,-109.42 199.66,-101.34 189.26,-103.38 192.79,-109.42"/>
</g>
<!-- pytermor_text&#45;&gt;pytermor -->
<g id="edge26" class="edge">
<title>pytermor_text&#45;&gt;pytermor</title><style>.edge>path:hover{stroke-width:8}</style>
<path fill="none" stroke="black" d="M227.43,-72.41C230.55,-64.34 234.37,-54.43 237.87,-45.35"/>
<polygon fill="#3d8f3d" stroke="black" points="241.16,-46.55 241.49,-35.96 234.63,-44.03 241.16,-46.55"/>
</g>
<!-- pytermor_utilnum -->
<g id="node10" class="node">
<title>pytermor_utilnum</title><style>.edge>path:hover{stroke-width:8}</style>
<ellipse fill="#4cb34c" stroke="black" cx="332.04" cy="-90" rx="28.01" ry="18"/>
<text text-anchor="middle" x="332.04" y="-87.5" font-family="Helvetica,sans-Serif" font-size="10.00" fill="#000000">utilnum</text>
</g>
<!-- pytermor_utilnum&#45;&gt;pytermor -->
<g id="edge27" class="edge">
<title>pytermor_utilnum&#45;&gt;pytermor</title><style>.edge>path:hover{stroke-width:8}</style>
<path fill="none" stroke="black" d="M315.44,-75.17C303.29,-65.04 286.59,-51.13 272.86,-39.69"/>
<polygon fill="#4cb34c" stroke="black" points="275.1,-36.99 265.17,-33.28 270.61,-42.37 275.1,-36.99"/>
</g>
<!-- pytermor_utilstr&#45;&gt;pytermor -->
<g id="edge28" class="edge">
<title>pytermor_utilstr&#45;&gt;pytermor</title><style>.edge>path:hover{stroke-width:8}</style>
<path fill="none" stroke="black" d="M296.04,-161C285.57,-119.9 268.98,-73.57 258.3,-45.34"/>
<polygon fill="#26d926" stroke="black" points="261.49,-43.89 254.65,-35.8 254.95,-46.39 261.49,-43.89"/>
</g>
<!-- pytermor_utilstr&#45;&gt;pytermor_renderer -->
<g id="edge29" class="edge">
<title>pytermor_utilstr&#45;&gt;pytermor_renderer</title><style>.edge>path:hover{stroke-width:8}</style>
<path fill="none" stroke="black" d="M293.7,-221.13C275.77,-210.12 248.84,-193.58 228.28,-180.96"/>
<polygon fill="#26d926" stroke="black" points="229.98,-177.89 219.63,-175.64 226.32,-183.86 229.98,-177.89"/>
</g>
<!-- pytermor_utilstr&#45;&gt;pytermor_text -->
<g id="edge30" class="edge">
<title>pytermor_utilstr&#45;&gt;pytermor_text</title><style>.edge>path:hover{stroke-width:8}</style>
<path fill="none" stroke="black" d="M309.02,-216C305.64,-201.81 300.63,-181.06 296.04,-163"/>
<path fill="none" stroke="black" d="M296.04,-161C290.03,-137.42 269.07,-119.06 250.83,-107.08"/>
<polygon fill="#26d926" stroke="black" points="252.51,-104.01 242.17,-101.71 248.83,-109.96 252.51,-104.01"/>
</g>
<!-- pytermor_utilstr&#45;&gt;pytermor_utilnum -->
<g id="edge31" class="edge">
<title>pytermor_utilstr&#45;&gt;pytermor_utilnum</title><style>.edge>path:hover{stroke-width:8}</style>
<path fill="none" stroke="black" d="M296.04,-161C291.75,-144.16 300.6,-126.78 310.6,-113.55"/>
<polygon fill="#26d926" stroke="black" points="313.56,-115.45 317.21,-105.5 308.15,-111.01 313.56,-115.45"/>
</g>
<!-- pytermor_utilsys&#45;&gt;pytermor -->
<g id="edge32" class="edge">
<title>pytermor_utilsys&#45;&gt;pytermor</title><style>.edge>path:hover{stroke-width:8}</style>
<path fill="none" stroke="black" d="M373.43,-144.04C378.43,-124.89 383.15,-93.6 369.04,-72 351.43,-45.07 316.79,-31.74 289.07,-25.19"/>
<polygon fill="#40c040" stroke="black" points="289.72,-21.75 279.21,-23.07 288.25,-28.6 289.72,-21.75"/>
</g>
<!-- pytermor_utilsys&#45;&gt;pytermor_text -->
<g id="edge33" class="edge">
<title>pytermor_utilsys&#45;&gt;pytermor_text</title><style>.edge>path:hover{stroke-width:8}</style>
<path fill="none" stroke="black" d="M346.66,-150.82C321.62,-138.9 279.95,-119.06 251.53,-105.52"/>
<polygon fill="#40c040" stroke="black" points="252.97,-102.33 242.44,-101.19 249.96,-108.65 252.97,-102.33"/>
</g>
</g>
</svg>
