<?xml version="1.0" encoding="UTF-8" standalone="no"?>
<!DOCTYPE svg PUBLIC "-//W3C//DTD SVG 1.1//EN"
 "http://www.w3.org/Graphics/SVG/1.1/DTD/svg11.dtd">
<!-- Generated by graphviz version 2.43.0 (0)
 -->
<!-- Title: G Pages: 1 -->
<svg width="440pt" height="548pt"
 viewBox="0.00 0.00 440.29 548.00" xmlns="http://www.w3.org/2000/svg" xmlns:xlink="http://www.w3.org/1999/xlink">
<g id="graph0" class="graph" transform="scale(1 1) rotate(0) translate(4 544)">
<title>G</title><style>.edge>path:hover{stroke-width:8}</style>
<polygon fill="white" stroke="transparent" points="-4,4 -4,-544 436.29,-544 436.29,4 -4,4"/>
<!-- pytermor -->
<g id="node1" class="node">
<title>pytermor</title><style>.edge>path:hover{stroke-width:8}</style>
<ellipse fill="#267326" stroke="black" cx="186.04" cy="-18" rx="32.25" ry="18"/>
<text text-anchor="middle" x="186.04" y="-15.5" font-family="Helvetica,sans-Serif" font-size="10.00" fill="#ffffff">pytermor</text>
</g>
<!-- pytermor__version -->
<g id="node2" class="node">
<title>pytermor__version</title><style>.edge>path:hover{stroke-width:8}</style>
<ellipse fill="#53b653" stroke="black" cx="51.04" cy="-90" rx="31.4" ry="18"/>
<text text-anchor="middle" x="51.04" y="-87.5" font-family="Helvetica,sans-Serif" font-size="10.00" fill="#000000">_version</text>
</g>
<!-- pytermor__version&#45;&gt;pytermor -->
<g id="edge1" class="edge">
<title>pytermor__version&#45;&gt;pytermor</title><style>.edge>path:hover{stroke-width:8}</style>
<path fill="none" stroke="black" d="M73.63,-77.28C95.6,-65.89 129.17,-48.49 153.91,-35.66"/>
<polygon fill="#53b653" stroke="black" points="155.65,-38.7 162.91,-30.99 152.42,-32.49 155.65,-38.7"/>
</g>
<!-- pytermor_ansi -->
<g id="node3" class="node">
<title>pytermor_ansi</title><style>.edge>path:hover{stroke-width:8}</style>
<ellipse fill="#26d926" stroke="black" cx="72.04" cy="-450" rx="27" ry="18"/>
<text text-anchor="middle" x="72.04" y="-447.5" font-family="Helvetica,sans-Serif" font-size="10.00" fill="#000000">ansi</text>
</g>
<!-- pytermor_ansi&#45;&gt;pytermor -->
<g id="edge2" class="edge">
<title>pytermor_ansi&#45;&gt;pytermor</title><style>.edge>path:hover{stroke-width:8}</style>
<path fill="none" stroke="black" d="M54.71,-435.98C39.91,-423.37 20.47,-402.71 17.04,-379"/>
<path fill="none" stroke="black" d="M17.04,-377C12.58,-346.21 8.23,-336.84 17.04,-307"/>
</g>
<!-- pytermor_color -->
<g id="node4" class="node">
<title>pytermor_color</title><style>.edge>path:hover{stroke-width:8}</style>
<ellipse fill="#18dd18" stroke="black" cx="72.04" cy="-378" rx="27" ry="18"/>
<text text-anchor="middle" x="72.04" y="-375.5" font-family="Helvetica,sans-Serif" font-size="10.00" fill="#000000">color</text>
</g>
<!-- pytermor_ansi&#45;&gt;pytermor_color -->
<g id="edge3" class="edge">
<title>pytermor_ansi&#45;&gt;pytermor_color</title><style>.edge>path:hover{stroke-width:8}</style>
<path fill="none" stroke="black" d="M72.04,-431.7C72.04,-423.98 72.04,-414.71 72.04,-406.11"/>
<polygon fill="#26d926" stroke="black" points="75.54,-406.1 72.04,-396.1 68.54,-406.1 75.54,-406.1"/>
</g>
<!-- pytermor_cval -->
<g id="node6" class="node">
<title>pytermor_cval</title><style>.edge>path:hover{stroke-width:8}</style>
<ellipse fill="#3db83d" stroke="black" cx="72.04" cy="-306" rx="27" ry="18"/>
<text text-anchor="middle" x="72.04" y="-303.5" font-family="Helvetica,sans-Serif" font-size="10.00" fill="#000000">cval</text>
</g>
<!-- pytermor_ansi&#45;&gt;pytermor_cval -->
<g id="edge4" class="edge">
<title>pytermor_ansi&#45;&gt;pytermor_cval</title><style>.edge>path:hover{stroke-width:8}</style>
<path fill="none" stroke="black" d="M17.04,-377C14.06,-356.48 29.31,-338.24 44.5,-325.53"/>
<polygon fill="#26d926" stroke="black" points="47.07,-327.96 52.81,-319.06 42.77,-322.44 47.07,-327.96"/>
</g>
<!-- pytermor_renderer -->
<g id="node7" class="node">
<title>pytermor_renderer</title><style>.edge>path:hover{stroke-width:8}</style>
<ellipse fill="#35a135" stroke="black" cx="207.04" cy="-162" rx="30.72" ry="18"/>
<text text-anchor="middle" x="207.04" y="-159.5" font-family="Helvetica,sans-Serif" font-size="10.00" fill="#ffffff">renderer</text>
</g>
<!-- pytermor_ansi&#45;&gt;pytermor_renderer -->
<g id="edge5" class="edge">
<title>pytermor_ansi&#45;&gt;pytermor_renderer</title><style>.edge>path:hover{stroke-width:8}</style>
<path fill="none" stroke="black" d="M90.91,-436.74C119.52,-416.94 172.98,-374.97 196.04,-324 215.64,-280.65 214.08,-223.98 210.8,-190.72"/>
<polygon fill="#26d926" stroke="black" points="214.24,-189.95 209.65,-180.4 207.28,-190.72 214.24,-189.95"/>
</g>
<!-- pytermor_color&#45;&gt;pytermor -->
<g id="edge6" class="edge">
<title>pytermor_color&#45;&gt;pytermor</title><style>.edge>path:hover{stroke-width:8}</style>
<path fill="none" stroke="black" d="M52.37,-365.33C33.86,-352.67 9.95,-331.01 17.04,-307"/>
</g>
<!-- pytermor_color&#45;&gt;pytermor_cval -->
<g id="edge7" class="edge">
<title>pytermor_color&#45;&gt;pytermor_cval</title><style>.edge>path:hover{stroke-width:8}</style>
<path fill="none" stroke="black" d="M72.04,-359.7C72.04,-351.98 72.04,-342.71 72.04,-334.11"/>
<polygon fill="#18dd18" stroke="black" points="75.54,-334.1 72.04,-324.1 68.54,-334.1 75.54,-334.1"/>
</g>
<!-- pytermor_color&#45;&gt;pytermor_renderer -->
<g id="edge8" class="edge">
<title>pytermor_color&#45;&gt;pytermor_renderer</title><style>.edge>path:hover{stroke-width:8}</style>
<path fill="none" stroke="black" d="M182.04,-233C181.55,-217.58 186.97,-201.3 192.89,-188.32"/>
<polygon fill="#18dd18" stroke="black" points="196.14,-189.63 197.42,-179.11 189.86,-186.54 196.14,-189.63"/>
</g>
<!-- pytermor_style -->
<g id="node8" class="node">
<title>pytermor_style</title><style>.edge>path:hover{stroke-width:8}</style>
<ellipse fill="#2fbc2f" stroke="black" cx="127.04" cy="-234" rx="27" ry="18"/>
<text text-anchor="middle" x="127.04" y="-231.5" font-family="Helvetica,sans-Serif" font-size="10.00" fill="#000000">style</text>
</g>
<!-- pytermor_color&#45;&gt;pytermor_style -->
<g id="edge9" class="edge">
<title>pytermor_color&#45;&gt;pytermor_style</title><style>.edge>path:hover{stroke-width:8}</style>
<path fill="none" stroke="black" d="M96.92,-371C125.56,-362.47 170.18,-343.61 182.04,-307"/>
<path fill="none" stroke="black" d="M182.04,-305C188.71,-284.4 171.61,-265.39 154.76,-252.39"/>
<polygon fill="#18dd18" stroke="black" points="156.77,-249.53 146.61,-246.51 152.67,-255.2 156.77,-249.53"/>
</g>
<!-- pytermor_text -->
<g id="node9" class="node">
<title>pytermor_text</title><style>.edge>path:hover{stroke-width:8}</style>
<ellipse fill="#3d8f3d" stroke="black" cx="186.04" cy="-90" rx="27" ry="18"/>
<text text-anchor="middle" x="186.04" y="-87.5" font-family="Helvetica,sans-Serif" font-size="10.00" fill="#ffffff">text</text>
</g>
<!-- pytermor_color&#45;&gt;pytermor_text -->
<g id="edge10" class="edge">
<title>pytermor_color&#45;&gt;pytermor_text</title><style>.edge>path:hover{stroke-width:8}</style>
<path fill="none" stroke="black" d="M182.04,-305C191.62,-275.4 183.01,-266.1 182.04,-235"/>
<path fill="none" stroke="black" d="M182.04,-233C181.27,-208.53 170.4,-204.25 167.04,-180 164.84,-164.15 164.29,-159.76 167.04,-144 168.62,-134.86 171.64,-125.22 174.82,-116.7"/>
<polygon fill="#18dd18" stroke="black" points="178.11,-117.9 178.54,-107.31 171.6,-115.32 178.11,-117.9"/>
</g>
<!-- pytermor_common -->
<g id="node5" class="node">
<title>pytermor_common</title><style>.edge>path:hover{stroke-width:8}</style>
<ellipse fill="#16f316" stroke="black" cx="72.04" cy="-522" rx="31.58" ry="18"/>
<text text-anchor="middle" x="72.04" y="-519.5" font-family="Helvetica,sans-Serif" font-size="10.00" fill="#000000">common</text>
</g>
<!-- pytermor_common&#45;&gt;pytermor -->
<g id="edge11" class="edge">
<title>pytermor_common&#45;&gt;pytermor</title><style>.edge>path:hover{stroke-width:8}</style>
<path fill="none" stroke="black" d="M60.29,-505.21C52.87,-494.9 43.35,-480.99 36.04,-468 18.75,-437.33 10.54,-430.39 3.04,-396 -5.5,-356.88 5.7,-345.41 17.04,-307"/>
<path fill="none" stroke="black" d="M17.04,-305C26.23,-266.52 64.86,-273.91 72.04,-235"/>
<path fill="none" stroke="black" d="M72.04,-233C83.89,-168.75 92.43,-153.91 110.04,-91"/>
<path fill="none" stroke="black" d="M110.04,-89C115.56,-65.91 135.69,-47.99 153.84,-36.06"/>
<polygon fill="#16f316" stroke="black" points="155.86,-38.93 162.52,-30.69 152.17,-32.97 155.86,-38.93"/>
</g>
<!-- pytermor_common&#45;&gt;pytermor_ansi -->
<g id="edge12" class="edge">
<title>pytermor_common&#45;&gt;pytermor_ansi</title><style>.edge>path:hover{stroke-width:8}</style>
<path fill="none" stroke="black" d="M72.04,-503.7C72.04,-495.98 72.04,-486.71 72.04,-478.11"/>
<polygon fill="#16f316" stroke="black" points="75.54,-478.1 72.04,-468.1 68.54,-478.1 75.54,-478.1"/>
</g>
<!-- pytermor_common&#45;&gt;pytermor_color -->
<g id="edge13" class="edge">
<title>pytermor_common&#45;&gt;pytermor_color</title><style>.edge>path:hover{stroke-width:8}</style>
<path fill="none" stroke="black" d="M103.76,-518.64C169.64,-512.87 315.65,-495.13 321.04,-451"/>
<path fill="none" stroke="black" d="M321.04,-449C326.32,-405.65 179.82,-387.76 109.14,-381.67"/>
<polygon fill="#16f316" stroke="black" points="109.14,-378.16 98.89,-380.83 108.57,-385.14 109.14,-378.16"/>
</g>
<!-- pytermor_common&#45;&gt;pytermor_renderer -->
<g id="edge14" class="edge">
<title>pytermor_common&#45;&gt;pytermor_renderer</title><style>.edge>path:hover{stroke-width:8}</style>
<path fill="none" stroke="black" d="M321.04,-449C328.68,-386.35 332.48,-369.06 321.04,-307"/>
<path fill="none" stroke="black" d="M321.04,-305C312.25,-266.42 285.71,-269.32 266.04,-235"/>
<path fill="none" stroke="black" d="M266.04,-233C256.08,-215.64 241.65,-198.43 229.56,-185.42"/>
<polygon fill="#16f316" stroke="black" points="231.82,-182.72 222.39,-177.89 226.75,-187.55 231.82,-182.72"/>
</g>
<!-- pytermor_common&#45;&gt;pytermor_text -->
<g id="edge15" class="edge">
<title>pytermor_common&#45;&gt;pytermor_text</title><style>.edge>path:hover{stroke-width:8}</style>
<path fill="none" stroke="black" d="M266.04,-233C250.56,-206.01 283.64,-188.65 266.04,-163"/>
<path fill="none" stroke="black" d="M266.04,-161C251.9,-140.4 230.33,-122.01 213.16,-109.25"/>
<polygon fill="#16f316" stroke="black" points="214.8,-106.12 204.64,-103.11 210.7,-111.8 214.8,-106.12"/>
</g>
<!-- pytermor_utilstr -->
<g id="node11" class="node">
<title>pytermor_utilstr</title><style>.edge>path:hover{stroke-width:8}</style>
<ellipse fill="#26d926" stroke="black" cx="321.04" cy="-234" rx="27" ry="18"/>
<text text-anchor="middle" x="321.04" y="-231.5" font-family="Helvetica,sans-Serif" font-size="10.00" fill="#000000">utilstr</text>
</g>
<!-- pytermor_common&#45;&gt;pytermor_utilstr -->
<g id="edge16" class="edge">
<title>pytermor_common&#45;&gt;pytermor_utilstr</title><style>.edge>path:hover{stroke-width:8}</style>
<path fill="none" stroke="black" d="M321.04,-305C318.47,-291.09 318.24,-275.35 318.75,-262.33"/>
<polygon fill="#16f316" stroke="black" points="322.25,-262.31 319.31,-252.13 315.26,-261.92 322.25,-262.31"/>
</g>
<!-- pytermor_cval&#45;&gt;pytermor -->
<g id="edge17" class="edge">
<title>pytermor_cval&#45;&gt;pytermor</title><style>.edge>path:hover{stroke-width:8}</style>
<path fill="none" stroke="black" d="M70.31,-287.87C69.29,-273.6 68.75,-252.81 72.04,-235"/>
</g>
<!-- pytermor_cval&#45;&gt;pytermor_style -->
<g id="edge18" class="edge">
<title>pytermor_cval&#45;&gt;pytermor_style</title><style>.edge>path:hover{stroke-width:8}</style>
<path fill="none" stroke="black" d="M83.97,-289.81C91.25,-280.55 100.7,-268.52 108.89,-258.09"/>
<polygon fill="#3db83d" stroke="black" points="111.7,-260.18 115.12,-250.16 106.19,-255.86 111.7,-260.18"/>
</g>
<!-- pytermor_renderer&#45;&gt;pytermor -->
<g id="edge19" class="edge">
<title>pytermor_renderer&#45;&gt;pytermor</title><style>.edge>path:hover{stroke-width:8}</style>
<path fill="none" stroke="black" d="M179.17,-154.37C147.23,-145.06 100.44,-125.3 110.04,-91"/>
</g>
<!-- pytermor_renderer&#45;&gt;pytermor_text -->
<g id="edge20" class="edge">
<title>pytermor_renderer&#45;&gt;pytermor_text</title><style>.edge>path:hover{stroke-width:8}</style>
<path fill="none" stroke="black" d="M201.95,-144.05C199.55,-136.06 196.63,-126.33 193.95,-117.4"/>
<polygon fill="#35a135" stroke="black" points="197.3,-116.36 191.07,-107.79 190.59,-118.37 197.3,-116.36"/>
</g>
<!-- pytermor_style&#45;&gt;pytermor -->
<g id="edge21" class="edge">
<title>pytermor_style&#45;&gt;pytermor</title><style>.edge>path:hover{stroke-width:8}</style>
<path fill="none" stroke="black" d="M119.48,-216.51C113.91,-202.44 107.66,-181.61 110.04,-163"/>
<path fill="none" stroke="black" d="M110.04,-161C113.97,-130.14 101.65,-120.96 110.04,-91"/>
</g>
<!-- pytermor_style&#45;&gt;pytermor_renderer -->
<g id="edge22" class="edge">
<title>pytermor_style&#45;&gt;pytermor_renderer</title><style>.edge>path:hover{stroke-width:8}</style>
<path fill="none" stroke="black" d="M142.84,-219.17C154.3,-209.14 170.01,-195.39 183.02,-184.01"/>
<polygon fill="#2fbc2f" stroke="black" points="185.49,-186.5 190.71,-177.28 180.88,-181.23 185.49,-186.5"/>
</g>
<!-- pytermor_style&#45;&gt;pytermor_text -->
<g id="edge23" class="edge">
<title>pytermor_style&#45;&gt;pytermor_text</title><style>.edge>path:hover{stroke-width:8}</style>
<path fill="none" stroke="black" d="M110.04,-161C113.22,-136 135.8,-117.36 155.52,-105.63"/>
<polygon fill="#2fbc2f" stroke="black" points="157.28,-108.65 164.31,-100.72 153.87,-102.54 157.28,-108.65"/>
</g>
<!-- pytermor_text&#45;&gt;pytermor -->
<g id="edge24" class="edge">
<title>pytermor_text&#45;&gt;pytermor</title><style>.edge>path:hover{stroke-width:8}</style>
<path fill="none" stroke="black" d="M186.04,-71.7C186.04,-63.98 186.04,-54.71 186.04,-46.11"/>
<polygon fill="#3d8f3d" stroke="black" points="189.54,-46.1 186.04,-36.1 182.54,-46.1 189.54,-46.1"/>
</g>
<!-- pytermor_utilnum -->
<g id="node10" class="node">
<title>pytermor_utilnum</title><style>.edge>path:hover{stroke-width:8}</style>
<ellipse fill="#4cb34c" stroke="black" cx="404.04" cy="-90" rx="28.01" ry="18"/>
<text text-anchor="middle" x="404.04" y="-87.5" font-family="Helvetica,sans-Serif" font-size="10.00" fill="#000000">utilnum</text>
</g>
<!-- pytermor_utilnum&#45;&gt;pytermor -->
<g id="edge25" class="edge">
<title>pytermor_utilnum&#45;&gt;pytermor</title><style>.edge>path:hover{stroke-width:8}</style>
<path fill="none" stroke="black" d="M381.07,-79.26C374.93,-76.78 368.27,-74.19 362.04,-72 315.33,-55.55 260.57,-39.57 224.69,-29.53"/>
<polygon fill="#4cb34c" stroke="black" points="225.22,-26.05 214.64,-26.74 223.34,-32.79 225.22,-26.05"/>
</g>
<!-- pytermor_utilstr&#45;&gt;pytermor -->
<g id="edge26" class="edge">
<title>pytermor_utilstr&#45;&gt;pytermor</title><style>.edge>path:hover{stroke-width:8}</style>
<path fill="none" stroke="black" d="M336.64,-219.26C350.05,-206.3 368.41,-185.55 376.04,-163"/>
<path fill="none" stroke="black" d="M376.04,-161C386.77,-129.26 366.39,-119.03 348.04,-91"/>
</g>
<!-- pytermor_utilstr&#45;&gt;pytermor_renderer -->
<g id="edge27" class="edge">
<title>pytermor_utilstr&#45;&gt;pytermor_renderer</title><style>.edge>path:hover{stroke-width:8}</style>
<path fill="none" stroke="black" d="M301.7,-221.13C283.77,-210.12 256.84,-193.58 236.28,-180.96"/>
<polygon fill="#26d926" stroke="black" points="237.98,-177.89 227.63,-175.64 234.32,-183.86 237.98,-177.89"/>
</g>
<!-- pytermor_utilstr&#45;&gt;pytermor_text -->
<g id="edge28" class="edge">
<title>pytermor_utilstr&#45;&gt;pytermor_text</title><style>.edge>path:hover{stroke-width:8}</style>
<path fill="none" stroke="black" d="M308.21,-217.86C296.67,-203.97 279.5,-182.62 266.04,-163"/>
</g>
<!-- pytermor_utilstr&#45;&gt;pytermor_utilnum -->
<g id="edge29" class="edge">
<title>pytermor_utilstr&#45;&gt;pytermor_utilnum</title><style>.edge>path:hover{stroke-width:8}</style>
<path fill="none" stroke="black" d="M376.04,-161C381.05,-146.18 387.48,-129.94 392.92,-116.83"/>
<polygon fill="#26d926" stroke="black" points="396.2,-118.07 396.84,-107.5 389.74,-115.36 396.2,-118.07"/>
</g>
<!-- pytermor_utilsys -->
<g id="node12" class="node">
<title>pytermor_utilsys</title><style>.edge>path:hover{stroke-width:8}</style>
<ellipse fill="#47c247" stroke="black" cx="321.04" cy="-162" rx="27" ry="18"/>
<text text-anchor="middle" x="321.04" y="-159.5" font-family="Helvetica,sans-Serif" font-size="10.00" fill="#000000">utilsys</text>
</g>
<!-- pytermor_utilsys&#45;&gt;pytermor -->
<g id="edge30" class="edge">
<title>pytermor_utilsys&#45;&gt;pytermor</title><style>.edge>path:hover{stroke-width:8}</style>
<path fill="none" stroke="black" d="M334.39,-146.21C346.05,-131.42 359.45,-108.44 348.04,-91"/>
<path fill="none" stroke="black" d="M348.04,-89C321.53,-48.53 266.1,-31.35 227.5,-24.13"/>
<polygon fill="#47c247" stroke="black" points="228.04,-20.67 217.59,-22.42 226.85,-27.57 228.04,-20.67"/>
</g>
<!-- pytermor_utilsys&#45;&gt;pytermor_text -->
<g id="edge31" class="edge">
<title>pytermor_utilsys&#45;&gt;pytermor_text</title><style>.edge>path:hover{stroke-width:8}</style>
<path fill="none" stroke="black" d="M300.24,-150.22C277.58,-138.47 241.14,-119.57 215.53,-106.3"/>
<polygon fill="#47c247" stroke="black" points="217.12,-103.18 206.63,-101.68 213.9,-109.39 217.12,-103.18"/>
</g>
</g>
</svg>
