<?xml version="1.0" encoding="UTF-8" standalone="no"?>
<!DOCTYPE svg PUBLIC "-//W3C//DTD SVG 1.1//EN"
 "http://www.w3.org/Graphics/SVG/1.1/DTD/svg11.dtd">
<!-- Generated by graphviz version 2.43.0 (0)
 -->
<!-- Title: G Pages: 1 -->
<svg width="622pt" height="639pt"
 viewBox="0.00 0.00 622.01 639.28" xmlns="http://www.w3.org/2000/svg" xmlns:xlink="http://www.w3.org/1999/xlink">
<g id="graph0" class="graph" transform="scale(1 1) rotate(0) translate(4 635.28)">
<title>G</title><style>.edge>path:hover{stroke-width:8}</style>
<polygon fill="white" stroke="transparent" points="-4,4 -4,-635.28 618.01,-635.28 618.01,4 -4,4"/>
<!-- pytermor -->
<g id="node1" class="node">
<title>pytermor</title><style>.edge>path:hover{stroke-width:8}</style>
<ellipse fill="#4b8b4b" stroke="black" cx="117.2" cy="-18" rx="32.25" ry="18"/>
<text text-anchor="middle" x="117.2" y="-15.5" font-family="Helvetica,sans-Serif" font-size="10.00" fill="#ffffff">pytermor</text>
</g>
<!-- pytermor__version -->
<g id="node2" class="node">
<title>pytermor__version</title><style>.edge>path:hover{stroke-width:8}</style>
<ellipse fill="#53b653" stroke="black" cx="31.2" cy="-90" rx="31.4" ry="18"/>
<text text-anchor="middle" x="31.2" y="-87.5" font-family="Helvetica,sans-Serif" font-size="10.00" fill="#000000">_version</text>
</g>
<!-- pytermor__version&#45;&gt;pytermor -->
<g id="edge1" class="edge">
<title>pytermor__version&#45;&gt;pytermor</title><style>.edge>path:hover{stroke-width:8}</style>
<path fill="none" stroke="black" d="M48.6,-74.83C60.99,-64.75 77.84,-51.03 91.74,-39.72"/>
<polygon fill="#53b653" stroke="black" points="93.98,-42.41 99.53,-33.38 89.56,-36.98 93.98,-42.41"/>
</g>
<!-- pytermor_ansi -->
<g id="node3" class="node">
<title>pytermor_ansi</title><style>.edge>path:hover{stroke-width:8}</style>
<ellipse fill="#26d926" stroke="black" cx="282.2" cy="-541.28" rx="27" ry="18"/>
<text text-anchor="middle" x="282.2" y="-538.78" font-family="Helvetica,sans-Serif" font-size="10.00" fill="#000000">ansi</text>
</g>
<!-- pytermor_ansi&#45;&gt;pytermor -->
<g id="edge2" class="edge">
<title>pytermor_ansi&#45;&gt;pytermor</title><style>.edge>path:hover{stroke-width:8}</style>
<path fill="none" stroke="black" d="M265.2,-468.28C281.89,-408.59 339.75,-444.9 394.2,-415.28 447.9,-386.06 466.64,-382.59 507.2,-336.85 536.2,-304.15 593.81,-206.38 599.2,-163"/>
<path fill="none" stroke="black" d="M599.2,-161C607.9,-69.85 278.25,-32.71 159.28,-22.29"/>
<polygon fill="#26d926" stroke="black" points="159.36,-18.78 149.1,-21.42 158.77,-25.76 159.36,-18.78"/>
</g>
<!-- pytermor_color -->
<g id="node4" class="node">
<title>pytermor_color</title><style>.edge>path:hover{stroke-width:8}</style>
<ellipse fill="#3db83d" stroke="black" cx="172.2" cy="-469.28" rx="27" ry="18"/>
<text text-anchor="middle" x="172.2" y="-466.78" font-family="Helvetica,sans-Serif" font-size="10.00" fill="#000000">color</text>
</g>
<!-- pytermor_ansi&#45;&gt;pytermor_color -->
<g id="edge3" class="edge">
<title>pytermor_ansi&#45;&gt;pytermor_color</title><style>.edge>path:hover{stroke-width:8}</style>
<path fill="none" stroke="black" d="M263.04,-528.09C245.53,-516.94 219.44,-500.34 199.71,-487.78"/>
<polygon fill="#26d926" stroke="black" points="201.46,-484.75 191.14,-482.33 197.7,-490.65 201.46,-484.75"/>
</g>
<!-- pytermor_text -->
<g id="node6" class="node">
<title>pytermor_text</title><style>.edge>path:hover{stroke-width:8}</style>
<ellipse fill="#439d43" stroke="black" cx="145.2" cy="-90" rx="27" ry="18"/>
<text text-anchor="middle" x="145.2" y="-87.5" font-family="Helvetica,sans-Serif" font-size="10.00" fill="#ffffff">text</text>
</g>
<!-- pytermor_ansi&#45;&gt;pytermor_text -->
<g id="edge4" class="edge">
<title>pytermor_ansi&#45;&gt;pytermor_text</title><style>.edge>path:hover{stroke-width:8}</style>
<path fill="none" stroke="black" d="M273.53,-524.07C267.03,-509.83 260.08,-488.59 265.2,-470.28"/>
<path fill="none" stroke="black" d="M265.2,-468.28C273.96,-436.94 272.01,-426.89 265.2,-395.07"/>
</g>
<!-- pytermor_util_string_filter -->
<g id="node11" class="node">
<title>pytermor_util_string_filter</title><style>.edge>path:hover{stroke-width:8}</style>
<ellipse fill="#40c040" stroke="black" cx="339.2" cy="-394.07" rx="45.92" ry="21.43"/>
<text text-anchor="middle" x="339.2" y="-397.07" font-family="Helvetica,sans-Serif" font-size="10.00" fill="#000000">util.</text>
<text text-anchor="middle" x="339.2" y="-386.07" font-family="Helvetica,sans-Serif" font-size="10.00" fill="#000000">string_filter</text>
</g>
<!-- pytermor_ansi&#45;&gt;pytermor_util_string_filter -->
<g id="edge5" class="edge">
<title>pytermor_ansi&#45;&gt;pytermor_util_string_filter</title><style>.edge>path:hover{stroke-width:8}</style>
<path fill="none" stroke="black" d="M265.2,-468.28C271.04,-447.38 287.68,-429.98 303.71,-417.39"/>
<polygon fill="#26d926" stroke="black" points="306.03,-420.03 311.97,-411.26 301.86,-414.41 306.03,-420.03"/>
</g>
<!-- pytermor_color&#45;&gt;pytermor -->
<g id="edge6" class="edge">
<title>pytermor_color&#45;&gt;pytermor</title><style>.edge>path:hover{stroke-width:8}</style>
<path fill="none" stroke="black" d="M171.82,-451.25C170.53,-404.7 165.23,-271.57 145.2,-163"/>
<path fill="none" stroke="black" d="M145.2,-161C137.84,-133.49 117.57,-135.22 109.2,-108 102.95,-87.67 105.69,-63.59 109.58,-45.61"/>
<polygon fill="#3db83d" stroke="black" points="113,-46.34 111.94,-35.8 106.2,-44.7 113,-46.34"/>
</g>
<!-- pytermor_color&#45;&gt;pytermor_text -->
<g id="edge7" class="edge">
<title>pytermor_color&#45;&gt;pytermor_text</title><style>.edge>path:hover{stroke-width:8}</style>
<path fill="none" stroke="black" d="M145.2,-161C142.63,-147.09 142.4,-131.35 142.91,-118.33"/>
<polygon fill="#3db83d" stroke="black" points="146.42,-118.31 143.48,-108.13 139.43,-117.92 146.42,-118.31"/>
</g>
<!-- pytermor_common -->
<g id="node5" class="node">
<title>pytermor_common</title><style>.edge>path:hover{stroke-width:8}</style>
<ellipse fill="#22e722" stroke="black" cx="282.2" cy="-613.28" rx="31.58" ry="18"/>
<text text-anchor="middle" x="282.2" y="-610.78" font-family="Helvetica,sans-Serif" font-size="10.00" fill="#000000">common</text>
</g>
<!-- pytermor_common&#45;&gt;pytermor -->
<g id="edge8" class="edge">
<title>pytermor_common&#45;&gt;pytermor</title><style>.edge>path:hover{stroke-width:8}</style>
<path fill="none" stroke="black" d="M599.2,-236.21C581.66,-208.81 610.1,-193.66 599.2,-163"/>
</g>
<!-- pytermor_common&#45;&gt;pytermor_ansi -->
<g id="edge9" class="edge">
<title>pytermor_common&#45;&gt;pytermor_ansi</title><style>.edge>path:hover{stroke-width:8}</style>
<path fill="none" stroke="black" d="M282.2,-594.98C282.2,-587.26 282.2,-577.99 282.2,-569.39"/>
<polygon fill="#22e722" stroke="black" points="285.7,-569.38 282.2,-559.38 278.7,-569.38 285.7,-569.38"/>
</g>
<!-- pytermor_common&#45;&gt;pytermor_color -->
<g id="edge10" class="edge">
<title>pytermor_common&#45;&gt;pytermor_color</title><style>.edge>path:hover{stroke-width:8}</style>
<path fill="none" stroke="black" d="M268.01,-597.17C255.88,-583.63 238.64,-562.8 227.2,-542.28"/>
<path fill="none" stroke="black" d="M227.2,-540.28C217.6,-523.06 203.92,-505.63 192.6,-492.47"/>
<polygon fill="#22e722" stroke="black" points="195.15,-490.06 185.92,-484.86 189.89,-494.68 195.15,-490.06"/>
</g>
<!-- pytermor_common&#45;&gt;pytermor_text -->
<g id="edge11" class="edge">
<title>pytermor_common&#45;&gt;pytermor_text</title><style>.edge>path:hover{stroke-width:8}</style>
<path fill="none" stroke="black" d="M227.2,-540.28C210.96,-511.14 272.18,-427.68 265.2,-395.07"/>
<path fill="none" stroke="black" d="M265.2,-393.07C258.21,-366.99 252.26,-361.9 242.2,-336.85 210.14,-257.06 173.04,-162.34 155.45,-117.31"/>
<polygon fill="#22e722" stroke="black" points="158.61,-115.77 151.71,-107.72 152.09,-118.31 158.61,-115.77"/>
</g>
<!-- pytermor_util -->
<g id="node7" class="node">
<title>pytermor_util</title><style>.edge>path:hover{stroke-width:8}</style>
<ellipse fill="#3d8f3d" stroke="black" cx="365.2" cy="-162" rx="27" ry="18"/>
<text text-anchor="middle" x="365.2" y="-159.5" font-family="Helvetica,sans-Serif" font-size="10.00" fill="#ffffff">util</text>
</g>
<!-- pytermor_common&#45;&gt;pytermor_util -->
<g id="edge12" class="edge">
<title>pytermor_common&#45;&gt;pytermor_util</title><style>.edge>path:hover{stroke-width:8}</style>
<path fill="none" stroke="black" d="M314.05,-612.36C394.43,-610.71 599.2,-594.35 599.2,-470.28 599.2,-470.28 599.2,-470.28 599.2,-393.07 599.2,-324.24 632.18,-298.62 599.2,-238.21"/>
<path fill="none" stroke="black" d="M599.2,-236.21C577.66,-202.56 461.88,-178.89 401.65,-168.66"/>
<polygon fill="#22e722" stroke="black" points="401.88,-165.15 391.44,-166.97 400.73,-172.06 401.88,-165.15"/>
</g>
<!-- pytermor_text&#45;&gt;pytermor -->
<g id="edge13" class="edge">
<title>pytermor_text&#45;&gt;pytermor</title><style>.edge>path:hover{stroke-width:8}</style>
<path fill="none" stroke="black" d="M138.56,-72.41C135.33,-64.34 131.37,-54.43 127.74,-45.35"/>
<polygon fill="#439d43" stroke="black" points="130.95,-43.94 123.98,-35.96 124.45,-46.54 130.95,-43.94"/>
</g>
<!-- pytermor_util&#45;&gt;pytermor_text -->
<g id="edge14" class="edge">
<title>pytermor_util&#45;&gt;pytermor_text</title><style>.edge>path:hover{stroke-width:8}</style>
<path fill="none" stroke="black" d="M341.24,-153.38C301.89,-140.86 223.51,-115.92 178.69,-101.66"/>
<polygon fill="#3d8f3d" stroke="black" points="179.72,-98.31 169.13,-98.62 177.6,-104.98 179.72,-98.31"/>
</g>
<!-- pytermor_util_auto_float -->
<g id="node8" class="node">
<title>pytermor_util_auto_float</title><style>.edge>path:hover{stroke-width:8}</style>
<ellipse fill="#47c247" stroke="black" cx="456.2" cy="-315.64" rx="41.94" ry="21.43"/>
<text text-anchor="middle" x="456.2" y="-318.64" font-family="Helvetica,sans-Serif" font-size="10.00" fill="#000000">util.</text>
<text text-anchor="middle" x="456.2" y="-307.64" font-family="Helvetica,sans-Serif" font-size="10.00" fill="#000000">auto_float</text>
</g>
<!-- pytermor_util_auto_float&#45;&gt;pytermor_util -->
<g id="edge15" class="edge">
<title>pytermor_util_auto_float&#45;&gt;pytermor_util</title><style>.edge>path:hover{stroke-width:8}</style>
<path fill="none" stroke="black" d="M476.11,-296.66C496.32,-276.19 522.24,-242.19 504.2,-216 481.46,-182.99 435.2,-170.53 402.3,-165.83"/>
<polygon fill="#47c247" stroke="black" points="402.49,-162.32 392.13,-164.56 401.62,-169.27 402.49,-162.32"/>
</g>
<!-- pytermor_util_prefixed_unit -->
<g id="node9" class="node">
<title>pytermor_util_prefixed_unit</title><style>.edge>path:hover{stroke-width:8}</style>
<ellipse fill="#4cb34c" stroke="black" cx="444.2" cy="-237.21" rx="50.82" ry="21.43"/>
<text text-anchor="middle" x="444.2" y="-240.21" font-family="Helvetica,sans-Serif" font-size="10.00" fill="#000000">util.</text>
<text text-anchor="middle" x="444.2" y="-229.21" font-family="Helvetica,sans-Serif" font-size="10.00" fill="#000000">prefixed_unit</text>
</g>
<!-- pytermor_util_auto_float&#45;&gt;pytermor_util_prefixed_unit -->
<g id="edge16" class="edge">
<title>pytermor_util_auto_float&#45;&gt;pytermor_util_prefixed_unit</title><style>.edge>path:hover{stroke-width:8}</style>
<path fill="none" stroke="black" d="M452.98,-294.16C451.75,-286.3 450.31,-277.16 448.96,-268.57"/>
<polygon fill="#47c247" stroke="black" points="452.39,-267.82 447.38,-258.49 445.48,-268.91 452.39,-267.82"/>
</g>
<!-- pytermor_util_prefixed_unit&#45;&gt;pytermor_util -->
<g id="edge17" class="edge">
<title>pytermor_util_prefixed_unit&#45;&gt;pytermor_util</title><style>.edge>path:hover{stroke-width:8}</style>
<path fill="none" stroke="black" d="M423.85,-217.36C412.86,-207.17 399.25,-194.56 387.91,-184.05"/>
<polygon fill="#4cb34c" stroke="black" points="390.2,-181.4 380.48,-177.17 385.44,-186.53 390.2,-181.4"/>
</g>
<!-- pytermor_util_stdlib_ext -->
<g id="node10" class="node">
<title>pytermor_util_stdlib_ext</title><style>.edge>path:hover{stroke-width:8}</style>
<ellipse fill="#40c040" stroke="black" cx="293.2" cy="-315.64" rx="41.94" ry="21.43"/>
<text text-anchor="middle" x="293.2" y="-318.64" font-family="Helvetica,sans-Serif" font-size="10.00" fill="#000000">util.</text>
<text text-anchor="middle" x="293.2" y="-307.64" font-family="Helvetica,sans-Serif" font-size="10.00" fill="#000000">stdlib_ext</text>
</g>
<!-- pytermor_util_stdlib_ext&#45;&gt;pytermor_util -->
<g id="edge18" class="edge">
<title>pytermor_util_stdlib_ext&#45;&gt;pytermor_util</title><style>.edge>path:hover{stroke-width:8}</style>
<path fill="none" stroke="black" d="M270.63,-297.79C259.17,-287.78 246.39,-274.01 240.2,-258.43 233.24,-240.9 229.79,-231.72 240.2,-216 259.76,-186.46 299.43,-173.34 328.86,-167.54"/>
<polygon fill="#40c040" stroke="black" points="329.56,-170.97 338.79,-165.78 328.34,-164.08 329.56,-170.97"/>
</g>
<!-- pytermor_util_time_delta -->
<g id="node12" class="node">
<title>pytermor_util_time_delta</title><style>.edge>path:hover{stroke-width:8}</style>
<ellipse fill="#4cb34c" stroke="black" cx="293.2" cy="-237.21" rx="43.68" ry="21.43"/>
<text text-anchor="middle" x="293.2" y="-240.21" font-family="Helvetica,sans-Serif" font-size="10.00" fill="#000000">util.</text>
<text text-anchor="middle" x="293.2" y="-229.21" font-family="Helvetica,sans-Serif" font-size="10.00" fill="#000000">time_delta</text>
</g>
<!-- pytermor_util_stdlib_ext&#45;&gt;pytermor_util_time_delta -->
<g id="edge19" class="edge">
<title>pytermor_util_stdlib_ext&#45;&gt;pytermor_util_time_delta</title><style>.edge>path:hover{stroke-width:8}</style>
<path fill="none" stroke="black" d="M293.2,-294.16C293.2,-286.3 293.2,-277.16 293.2,-268.57"/>
<polygon fill="#40c040" stroke="black" points="296.7,-268.49 293.2,-258.49 289.7,-268.49 296.7,-268.49"/>
</g>
<!-- pytermor_util_string_filter&#45;&gt;pytermor_util -->
<g id="edge20" class="edge">
<title>pytermor_util_string_filter&#45;&gt;pytermor_util</title><style>.edge>path:hover{stroke-width:8}</style>
<path fill="none" stroke="black" d="M341.51,-372.65C346.2,-331.13 356.86,-236.82 362.13,-190.17"/>
<polygon fill="#40c040" stroke="black" points="365.61,-190.52 363.26,-180.19 358.66,-189.73 365.61,-190.52"/>
</g>
<!-- pytermor_util_string_filter&#45;&gt;pytermor_util_stdlib_ext -->
<g id="edge21" class="edge">
<title>pytermor_util_string_filter&#45;&gt;pytermor_util_stdlib_ext</title><style>.edge>path:hover{stroke-width:8}</style>
<path fill="none" stroke="black" d="M327.35,-373.38C322.15,-364.74 315.94,-354.42 310.25,-344.97"/>
<polygon fill="#40c040" stroke="black" points="313.16,-343.02 305.01,-336.25 307.16,-346.63 313.16,-343.02"/>
</g>
<!-- pytermor_util_time_delta&#45;&gt;pytermor_util -->
<g id="edge22" class="edge">
<title>pytermor_util_time_delta&#45;&gt;pytermor_util</title><style>.edge>path:hover{stroke-width:8}</style>
<path fill="none" stroke="black" d="M311.37,-217.74C321.16,-207.78 333.3,-195.44 343.57,-184.99"/>
<polygon fill="#4cb34c" stroke="black" points="346.15,-187.37 350.66,-177.78 341.15,-182.46 346.15,-187.37"/>
</g>
</g>
</svg>
