<?xml version="1.0" encoding="UTF-8" standalone="no"?>
<!DOCTYPE svg PUBLIC "-//W3C//DTD SVG 1.1//EN"
 "http://www.w3.org/Graphics/SVG/1.1/DTD/svg11.dtd">
<!-- Generated by graphviz version 2.43.0 (0)
 -->
<!-- Title: G Pages: 1 -->
<svg width="465pt" height="548pt"
 viewBox="0.00 0.00 464.55 548.00" xmlns="http://www.w3.org/2000/svg" xmlns:xlink="http://www.w3.org/1999/xlink">
<g id="graph0" class="graph" transform="scale(1 1) rotate(0) translate(4 544)">
<title>G</title><style>.edge>path:hover{stroke-width:8}</style>
<polygon fill="white" stroke="transparent" points="-4,4 -4,-544 460.55,-544 460.55,4 -4,4"/>
<!-- pytermor -->
<g id="node1" class="node">
<title>pytermor</title><style>.edge>path:hover{stroke-width:8}</style>
<ellipse fill="#267326" stroke="black" cx="267.29" cy="-18" rx="32.25" ry="18"/>
<text text-anchor="middle" x="267.29" y="-15.5" font-family="Helvetica,sans-Serif" font-size="10.00" fill="#ffffff">pytermor</text>
</g>
<!-- pytermor__version -->
<g id="node2" class="node">
<title>pytermor__version</title><style>.edge>path:hover{stroke-width:8}</style>
<ellipse fill="#53b653" stroke="black" cx="130.29" cy="-90" rx="31.4" ry="18"/>
<text text-anchor="middle" x="130.29" y="-87.5" font-family="Helvetica,sans-Serif" font-size="10.00" fill="#000000">_version</text>
</g>
<!-- pytermor__version&#45;&gt;pytermor -->
<g id="edge1" class="edge">
<title>pytermor__version&#45;&gt;pytermor</title><style>.edge>path:hover{stroke-width:8}</style>
<path fill="none" stroke="black" d="M152.91,-77.44C175.29,-66.01 209.75,-48.4 235,-35.5"/>
<polygon fill="#53b653" stroke="black" points="236.86,-38.48 244.18,-30.81 233.68,-32.24 236.86,-38.48"/>
</g>
<!-- pytermor_ansi -->
<g id="node3" class="node">
<title>pytermor_ansi</title><style>.edge>path:hover{stroke-width:8}</style>
<ellipse fill="#26d926" stroke="black" cx="72.29" cy="-450" rx="27" ry="18"/>
<text text-anchor="middle" x="72.29" y="-447.5" font-family="Helvetica,sans-Serif" font-size="10.00" fill="#000000">ansi</text>
</g>
<!-- pytermor_ansi&#45;&gt;pytermor -->
<g id="edge2" class="edge">
<title>pytermor_ansi&#45;&gt;pytermor</title><style>.edge>path:hover{stroke-width:8}</style>
<path fill="none" stroke="black" d="M54.67,-436.02C39.66,-423.43 20.09,-402.79 17.29,-379"/>
<path fill="none" stroke="black" d="M17.29,-377C13.66,-346.1 7.39,-336.49 17.29,-307"/>
</g>
<!-- pytermor_color -->
<g id="node4" class="node">
<title>pytermor_color</title><style>.edge>path:hover{stroke-width:8}</style>
<ellipse fill="#0ce90c" stroke="black" cx="72.29" cy="-378" rx="27" ry="18"/>
<text text-anchor="middle" x="72.29" y="-375.5" font-family="Helvetica,sans-Serif" font-size="10.00" fill="#000000">color</text>
</g>
<!-- pytermor_ansi&#45;&gt;pytermor_color -->
<g id="edge3" class="edge">
<title>pytermor_ansi&#45;&gt;pytermor_color</title><style>.edge>path:hover{stroke-width:8}</style>
<path fill="none" stroke="black" d="M72.29,-431.7C72.29,-423.98 72.29,-414.71 72.29,-406.11"/>
<polygon fill="#26d926" stroke="black" points="75.79,-406.1 72.29,-396.1 68.79,-406.1 75.79,-406.1"/>
</g>
<!-- pytermor_index_256 -->
<g id="node6" class="node">
<title>pytermor_index_256</title><style>.edge>path:hover{stroke-width:8}</style>
<ellipse fill="#3db83d" stroke="black" cx="81.29" cy="-306" rx="35.82" ry="18"/>
<text text-anchor="middle" x="81.29" y="-303.5" font-family="Helvetica,sans-Serif" font-size="10.00" fill="#000000">index_256</text>
</g>
<!-- pytermor_ansi&#45;&gt;pytermor_index_256 -->
<g id="edge4" class="edge">
<title>pytermor_ansi&#45;&gt;pytermor_index_256</title><style>.edge>path:hover{stroke-width:8}</style>
<path fill="none" stroke="black" d="M17.29,-377C14.75,-355.36 31.94,-337.38 49.14,-325.07"/>
<polygon fill="#26d926" stroke="black" points="51.12,-327.95 57.5,-319.49 47.24,-322.13 51.12,-327.95"/>
</g>
<!-- pytermor_renderer -->
<g id="node8" class="node">
<title>pytermor_renderer</title><style>.edge>path:hover{stroke-width:8}</style>
<ellipse fill="#35a135" stroke="black" cx="267.29" cy="-162" rx="30.72" ry="18"/>
<text text-anchor="middle" x="267.29" y="-159.5" font-family="Helvetica,sans-Serif" font-size="10.00" fill="#ffffff">renderer</text>
</g>
<!-- pytermor_ansi&#45;&gt;pytermor_renderer -->
<g id="edge5" class="edge">
<title>pytermor_ansi&#45;&gt;pytermor_renderer</title><style>.edge>path:hover{stroke-width:8}</style>
<path fill="none" stroke="black" d="M96.74,-442.25C141.22,-428.51 234.28,-392.58 272.29,-324 295.66,-281.85 285.29,-223.48 276.03,-189.83"/>
<polygon fill="#26d926" stroke="black" points="279.27,-188.45 273.1,-179.83 272.55,-190.41 279.27,-188.45"/>
</g>
<!-- pytermor_color&#45;&gt;pytermor -->
<g id="edge6" class="edge">
<title>pytermor_color&#45;&gt;pytermor</title><style>.edge>path:hover{stroke-width:8}</style>
<path fill="none" stroke="black" d="M52.61,-365.45C33.76,-352.73 9.27,-330.88 17.29,-307"/>
</g>
<!-- pytermor_color&#45;&gt;pytermor_index_256 -->
<g id="edge7" class="edge">
<title>pytermor_color&#45;&gt;pytermor_index_256</title><style>.edge>path:hover{stroke-width:8}</style>
<path fill="none" stroke="black" d="M74.47,-360.05C75.46,-352.35 76.66,-343.03 77.77,-334.36"/>
<polygon fill="#0ce90c" stroke="black" points="81.27,-334.64 79.07,-324.28 74.32,-333.75 81.27,-334.64"/>
</g>
<!-- pytermor_index_rgb -->
<g id="node7" class="node">
<title>pytermor_index_rgb</title><style>.edge>path:hover{stroke-width:8}</style>
<ellipse fill="#4cb34c" stroke="black" cx="208.29" cy="-306" rx="34.96" ry="18"/>
<text text-anchor="middle" x="208.29" y="-303.5" font-family="Helvetica,sans-Serif" font-size="10.00" fill="#000000">index_rgb</text>
</g>
<!-- pytermor_color&#45;&gt;pytermor_index_rgb -->
<g id="edge8" class="edge">
<title>pytermor_color&#45;&gt;pytermor_index_rgb</title><style>.edge>path:hover{stroke-width:8}</style>
<path fill="none" stroke="black" d="M92.95,-366.37C114.79,-355.13 149.56,-337.23 175.22,-324.02"/>
<polygon fill="#0ce90c" stroke="black" points="176.93,-327.08 184.22,-319.39 173.73,-320.85 176.93,-327.08"/>
</g>
<!-- pytermor_color&#45;&gt;pytermor_renderer -->
<g id="edge9" class="edge">
<title>pytermor_color&#45;&gt;pytermor_renderer</title><style>.edge>path:hover{stroke-width:8}</style>
<path fill="none" stroke="black" d="M99.42,-377.87C139.87,-377.53 215.2,-370.25 252.29,-324 277.09,-293.07 251.3,-274.02 258.29,-235"/>
<path fill="none" stroke="black" d="M258.29,-233C262.05,-219.24 264.25,-203.52 265.53,-190.47"/>
<polygon fill="#0ce90c" stroke="black" points="269.04,-190.5 266.41,-180.23 262.07,-189.9 269.04,-190.5"/>
</g>
<!-- pytermor_style -->
<g id="node9" class="node">
<title>pytermor_style</title><style>.edge>path:hover{stroke-width:8}</style>
<ellipse fill="#2fbc2f" stroke="black" cx="149.29" cy="-234" rx="27" ry="18"/>
<text text-anchor="middle" x="149.29" y="-231.5" font-family="Helvetica,sans-Serif" font-size="10.00" fill="#000000">style</text>
</g>
<!-- pytermor_color&#45;&gt;pytermor_style -->
<g id="edge10" class="edge">
<title>pytermor_color&#45;&gt;pytermor_style</title><style>.edge>path:hover{stroke-width:8}</style>
<path fill="none" stroke="black" d="M89.84,-364.02C101.81,-354.28 117.09,-339.92 126.29,-324 137.3,-304.94 143.12,-280.58 146.15,-262.17"/>
<polygon fill="#0ce90c" stroke="black" points="149.64,-262.5 147.63,-252.1 142.72,-261.48 149.64,-262.5"/>
</g>
<!-- pytermor_text -->
<g id="node10" class="node">
<title>pytermor_text</title><style>.edge>path:hover{stroke-width:8}</style>
<ellipse fill="#409640" stroke="black" cx="267.29" cy="-90" rx="27" ry="18"/>
<text text-anchor="middle" x="267.29" y="-87.5" font-family="Helvetica,sans-Serif" font-size="10.00" fill="#ffffff">text</text>
</g>
<!-- pytermor_color&#45;&gt;pytermor_text -->
<g id="edge11" class="edge">
<title>pytermor_color&#45;&gt;pytermor_text</title><style>.edge>path:hover{stroke-width:8}</style>
<path fill="none" stroke="black" d="M258.29,-233C270.39,-188.7 340.33,-208.52 334.29,-163"/>
<path fill="none" stroke="black" d="M334.29,-161C331.3,-138.42 312.73,-120.14 295.9,-107.94"/>
<polygon fill="#0ce90c" stroke="black" points="297.58,-104.85 287.34,-102.11 293.64,-110.63 297.58,-104.85"/>
</g>
<!-- pytermor_common -->
<g id="node5" class="node">
<title>pytermor_common</title><style>.edge>path:hover{stroke-width:8}</style>
<ellipse fill="#16f316" stroke="black" cx="72.29" cy="-522" rx="31.58" ry="18"/>
<text text-anchor="middle" x="72.29" y="-519.5" font-family="Helvetica,sans-Serif" font-size="10.00" fill="#000000">common</text>
</g>
<!-- pytermor_common&#45;&gt;pytermor -->
<g id="edge12" class="edge">
<title>pytermor_common&#45;&gt;pytermor</title><style>.edge>path:hover{stroke-width:8}</style>
<path fill="none" stroke="black" d="M60.54,-505.21C53.13,-494.9 43.61,-480.99 36.29,-468 19.01,-437.33 10.8,-430.39 3.29,-396 -5.25,-356.88 4.54,-344.96 17.29,-307"/>
<path fill="none" stroke="black" d="M17.29,-305C28.61,-264.39 65.56,-274.11 81.29,-235"/>
<path fill="none" stroke="black" d="M81.29,-233C110.88,-159.44 154.87,-162.43 189.29,-91"/>
<path fill="none" stroke="black" d="M189.29,-89C198.76,-66.86 219.28,-48.9 236.9,-36.72"/>
<polygon fill="#16f316" stroke="black" points="238.83,-39.64 245.26,-31.21 234.98,-33.79 238.83,-39.64"/>
</g>
<!-- pytermor_common&#45;&gt;pytermor_ansi -->
<g id="edge13" class="edge">
<title>pytermor_common&#45;&gt;pytermor_ansi</title><style>.edge>path:hover{stroke-width:8}</style>
<path fill="none" stroke="black" d="M72.29,-503.7C72.29,-495.98 72.29,-486.71 72.29,-478.11"/>
<polygon fill="#16f316" stroke="black" points="75.79,-478.1 72.29,-468.1 68.79,-478.1 75.79,-478.1"/>
</g>
<!-- pytermor_common&#45;&gt;pytermor_color -->
<g id="edge14" class="edge">
<title>pytermor_common&#45;&gt;pytermor_color</title><style>.edge>path:hover{stroke-width:8}</style>
<path fill="none" stroke="black" d="M104.03,-520.62C183.19,-518.81 383.43,-508.54 389.29,-451"/>
<path fill="none" stroke="black" d="M389.29,-449C395.06,-392.41 194.62,-381.54 109.59,-379.47"/>
<polygon fill="#16f316" stroke="black" points="109.42,-375.97 99.34,-379.26 109.27,-382.97 109.42,-375.97"/>
</g>
<!-- pytermor_common&#45;&gt;pytermor_renderer -->
<g id="edge15" class="edge">
<title>pytermor_common&#45;&gt;pytermor_renderer</title><style>.edge>path:hover{stroke-width:8}</style>
<path fill="none" stroke="black" d="M389.29,-449C395.69,-386.21 400.74,-369.06 389.29,-307"/>
<path fill="none" stroke="black" d="M389.29,-305C380.5,-266.42 354.77,-268.86 334.29,-235"/>
<path fill="none" stroke="black" d="M334.29,-233C323.16,-214.59 306.43,-197.1 292.47,-184.21"/>
<polygon fill="#16f316" stroke="black" points="294.41,-181.26 284.63,-177.18 289.74,-186.46 294.41,-181.26"/>
</g>
<!-- pytermor_common&#45;&gt;pytermor_text -->
<g id="edge16" class="edge">
<title>pytermor_common&#45;&gt;pytermor_text</title><style>.edge>path:hover{stroke-width:8}</style>
<path fill="none" stroke="black" d="M334.29,-233C318.19,-206.38 338.38,-193.84 334.29,-163"/>
</g>
<!-- pytermor_utilstr -->
<g id="node12" class="node">
<title>pytermor_utilstr</title><style>.edge>path:hover{stroke-width:8}</style>
<ellipse fill="#26d926" stroke="black" cx="389.29" cy="-234" rx="27" ry="18"/>
<text text-anchor="middle" x="389.29" y="-231.5" font-family="Helvetica,sans-Serif" font-size="10.00" fill="#000000">utilstr</text>
</g>
<!-- pytermor_common&#45;&gt;pytermor_utilstr -->
<g id="edge17" class="edge">
<title>pytermor_common&#45;&gt;pytermor_utilstr</title><style>.edge>path:hover{stroke-width:8}</style>
<path fill="none" stroke="black" d="M389.29,-305C386.72,-291.09 386.49,-275.35 387,-262.33"/>
<polygon fill="#16f316" stroke="black" points="390.51,-262.31 387.57,-252.13 383.52,-261.92 390.51,-262.31"/>
</g>
<!-- pytermor_index_256&#45;&gt;pytermor -->
<g id="edge18" class="edge">
<title>pytermor_index_256&#45;&gt;pytermor</title><style>.edge>path:hover{stroke-width:8}</style>
<path fill="none" stroke="black" d="M77.84,-287.92C75.67,-273.32 74.44,-252.03 81.29,-235"/>
</g>
<!-- pytermor_index_256&#45;&gt;pytermor_style -->
<g id="edge19" class="edge">
<title>pytermor_index_256&#45;&gt;pytermor_style</title><style>.edge>path:hover{stroke-width:8}</style>
<path fill="none" stroke="black" d="M96.38,-289.46C105.7,-279.87 117.8,-267.42 128.08,-256.84"/>
<polygon fill="#3db83d" stroke="black" points="130.71,-259.15 135.17,-249.54 125.69,-254.27 130.71,-259.15"/>
</g>
<!-- pytermor_index_rgb&#45;&gt;pytermor -->
<g id="edge20" class="edge">
<title>pytermor_index_rgb&#45;&gt;pytermor</title><style>.edge>path:hover{stroke-width:8}</style>
<path fill="none" stroke="black" d="M205.8,-287.81C199.04,-240.17 181.35,-108.8 189.29,-91"/>
</g>
<!-- pytermor_renderer&#45;&gt;pytermor -->
<g id="edge21" class="edge">
<title>pytermor_renderer&#45;&gt;pytermor</title><style>.edge>path:hover{stroke-width:8}</style>
<path fill="none" stroke="black" d="M241.56,-151.77C214.32,-140.34 176.84,-118.92 189.29,-91"/>
</g>
<!-- pytermor_renderer&#45;&gt;pytermor_text -->
<g id="edge22" class="edge">
<title>pytermor_renderer&#45;&gt;pytermor_text</title><style>.edge>path:hover{stroke-width:8}</style>
<path fill="none" stroke="black" d="M267.29,-143.7C267.29,-135.98 267.29,-126.71 267.29,-118.11"/>
<polygon fill="#35a135" stroke="black" points="270.79,-118.1 267.29,-108.1 263.79,-118.1 270.79,-118.1"/>
</g>
<!-- pytermor_style&#45;&gt;pytermor -->
<g id="edge23" class="edge">
<title>pytermor_style&#45;&gt;pytermor</title><style>.edge>path:hover{stroke-width:8}</style>
<path fill="none" stroke="black" d="M152.52,-215.9C155.71,-201.29 161.43,-179.99 170.29,-163"/>
<path fill="none" stroke="black" d="M170.29,-161C185.2,-132.42 176.16,-120.44 189.29,-91"/>
</g>
<!-- pytermor_style&#45;&gt;pytermor_renderer -->
<g id="edge24" class="edge">
<title>pytermor_style&#45;&gt;pytermor_renderer</title><style>.edge>path:hover{stroke-width:8}</style>
<path fill="none" stroke="black" d="M168.78,-221.44C187.56,-210.3 216.24,-193.28 237.82,-180.48"/>
<polygon fill="#2fbc2f" stroke="black" points="239.77,-183.4 246.59,-175.28 236.2,-177.38 239.77,-183.4"/>
</g>
<!-- pytermor_style&#45;&gt;pytermor_text -->
<g id="edge25" class="edge">
<title>pytermor_style&#45;&gt;pytermor_text</title><style>.edge>path:hover{stroke-width:8}</style>
<path fill="none" stroke="black" d="M170.29,-161C183.99,-134.74 212.54,-116.01 235.13,-104.58"/>
<polygon fill="#2fbc2f" stroke="black" points="236.9,-107.61 244.39,-100.12 233.86,-101.3 236.9,-107.61"/>
</g>
<!-- pytermor_text&#45;&gt;pytermor -->
<g id="edge26" class="edge">
<title>pytermor_text&#45;&gt;pytermor</title><style>.edge>path:hover{stroke-width:8}</style>
<path fill="none" stroke="black" d="M267.29,-71.7C267.29,-63.98 267.29,-54.71 267.29,-46.11"/>
<polygon fill="#409640" stroke="black" points="270.79,-46.1 267.29,-36.1 263.79,-46.1 270.79,-46.1"/>
</g>
<!-- pytermor_utilnum -->
<g id="node11" class="node">
<title>pytermor_utilnum</title><style>.edge>path:hover{stroke-width:8}</style>
<ellipse fill="#4cb34c" stroke="black" cx="428.29" cy="-162" rx="28.01" ry="18"/>
<text text-anchor="middle" x="428.29" y="-159.5" font-family="Helvetica,sans-Serif" font-size="10.00" fill="#000000">utilnum</text>
</g>
<!-- pytermor_utilnum&#45;&gt;pytermor -->
<g id="edge27" class="edge">
<title>pytermor_utilnum&#45;&gt;pytermor</title><style>.edge>path:hover{stroke-width:8}</style>
<path fill="none" stroke="black" d="M416.02,-145.74C404.65,-131.58 387.28,-109.9 372.29,-91"/>
</g>
<!-- pytermor_utilstr&#45;&gt;pytermor -->
<g id="edge28" class="edge">
<title>pytermor_utilstr&#45;&gt;pytermor</title><style>.edge>path:hover{stroke-width:8}</style>
<path fill="none" stroke="black" d="M372.29,-161C359.3,-132.73 391.62,-115.38 372.29,-91"/>
<path fill="none" stroke="black" d="M372.29,-89C353.39,-65.16 324.1,-46.59 301.25,-34.58"/>
<polygon fill="#26d926" stroke="black" points="302.72,-31.4 292.22,-30 299.55,-37.64 302.72,-31.4"/>
</g>
<!-- pytermor_utilstr&#45;&gt;pytermor_renderer -->
<g id="edge29" class="edge">
<title>pytermor_utilstr&#45;&gt;pytermor_renderer</title><style>.edge>path:hover{stroke-width:8}</style>
<path fill="none" stroke="black" d="M369.42,-221.6C349.83,-210.36 319.67,-193.05 297.19,-180.15"/>
<polygon fill="#26d926" stroke="black" points="298.8,-177.04 288.38,-175.1 295.32,-183.12 298.8,-177.04"/>
</g>
<!-- pytermor_utilstr&#45;&gt;pytermor_text -->
<g id="edge30" class="edge">
<title>pytermor_utilstr&#45;&gt;pytermor_text</title><style>.edge>path:hover{stroke-width:8}</style>
<path fill="none" stroke="black" d="M387.04,-215.99C384.68,-201.43 380.18,-180.16 372.29,-163"/>
<path fill="none" stroke="black" d="M372.29,-161C358.82,-131.7 326.13,-112.95 300.77,-102.31"/>
<polygon fill="#26d926" stroke="black" points="302.05,-99.05 291.47,-98.62 299.47,-105.56 302.05,-99.05"/>
</g>
<!-- pytermor_utilstr&#45;&gt;pytermor_utilnum -->
<g id="edge31" class="edge">
<title>pytermor_utilstr&#45;&gt;pytermor_utilnum</title><style>.edge>path:hover{stroke-width:8}</style>
<path fill="none" stroke="black" d="M398.34,-216.76C403.11,-208.19 409.07,-197.49 414.42,-187.9"/>
<polygon fill="#26d926" stroke="black" points="417.49,-189.59 419.29,-179.15 411.37,-186.18 417.49,-189.59"/>
</g>
<!-- pytermor_utilsys -->
<g id="node13" class="node">
<title>pytermor_utilsys</title><style>.edge>path:hover{stroke-width:8}</style>
<ellipse fill="#53b653" stroke="black" cx="427.29" cy="-90" rx="27" ry="18"/>
<text text-anchor="middle" x="427.29" y="-87.5" font-family="Helvetica,sans-Serif" font-size="10.00" fill="#000000">utilsys</text>
</g>
<!-- pytermor_utilsys&#45;&gt;pytermor -->
<g id="edge32" class="edge">
<title>pytermor_utilsys&#45;&gt;pytermor</title><style>.edge>path:hover{stroke-width:8}</style>
<path fill="none" stroke="black" d="M405.38,-79.41C378.54,-67.67 332.78,-47.65 301.35,-33.9"/>
<polygon fill="#53b653" stroke="black" points="302.65,-30.65 292.09,-29.85 299.85,-37.06 302.65,-30.65"/>
</g>
</g>
</svg>
