<?xml version="1.0" encoding="UTF-8" standalone="no"?>
<!DOCTYPE svg PUBLIC "-//W3C//DTD SVG 1.1//EN"
 "http://www.w3.org/Graphics/SVG/1.1/DTD/svg11.dtd">
<!-- Generated by graphviz version 2.43.0 (0)
 -->
<!-- Title: G Pages: 1 -->
<svg width="462pt" height="639pt"
 viewBox="0.00 0.00 461.99 639.28" xmlns="http://www.w3.org/2000/svg" xmlns:xlink="http://www.w3.org/1999/xlink">
<g id="graph0" class="graph" transform="scale(1 1) rotate(0) translate(4 635.28)">
<title>G</title><style>.edge>path:hover{stroke-width:8}</style>
<polygon fill="white" stroke="transparent" points="-4,4 -4,-635.28 457.99,-635.28 457.99,4 -4,4"/>
<!-- pytermor -->
<g id="node1" class="node">
<title>pytermor</title><style>.edge>path:hover{stroke-width:8}</style>
<ellipse fill="#439d43" stroke="black" cx="117.2" cy="-18" rx="32.25" ry="18"/>
<text text-anchor="middle" x="117.2" y="-15.5" font-family="Helvetica,sans-Serif" font-size="10.00" fill="#ffffff">pytermor</text>
</g>
<!-- pytermor__version -->
<g id="node2" class="node">
<title>pytermor__version</title><style>.edge>path:hover{stroke-width:8}</style>
<ellipse fill="#53b653" stroke="black" cx="31.2" cy="-90" rx="31.4" ry="18"/>
<text text-anchor="middle" x="31.2" y="-87.5" font-family="Helvetica,sans-Serif" font-size="10.00" fill="#000000">_version</text>
</g>
<!-- pytermor__version&#45;&gt;pytermor -->
<g id="edge1" class="edge">
<title>pytermor__version&#45;&gt;pytermor</title><style>.edge>path:hover{stroke-width:8}</style>
<path fill="none" stroke="black" d="M48.6,-74.83C60.99,-64.75 77.84,-51.03 91.74,-39.72"/>
<polygon fill="#53b653" stroke="black" points="93.98,-42.41 99.53,-33.38 89.56,-36.98 93.98,-42.41"/>
</g>
<!-- pytermor_ansi -->
<g id="node3" class="node">
<title>pytermor_ansi</title><style>.edge>path:hover{stroke-width:8}</style>
<ellipse fill="#26d926" stroke="black" cx="395.2" cy="-541.28" rx="27" ry="18"/>
<text text-anchor="middle" x="395.2" y="-538.78" font-family="Helvetica,sans-Serif" font-size="10.00" fill="#000000">ansi</text>
</g>
<!-- pytermor_ansi&#45;&gt;pytermor -->
<g id="edge2" class="edge">
<title>pytermor_ansi&#45;&gt;pytermor</title><style>.edge>path:hover{stroke-width:8}</style>
<path fill="none" stroke="black" d="M368.14,-540.15C289.38,-539.05 63.97,-530.61 34.2,-470.28"/>
<path fill="none" stroke="black" d="M34.2,-468.28C-15.64,-367.28 -1.56,-311.47 58.2,-216 82.22,-177.62 131.59,-206.18 145.2,-163"/>
<path fill="none" stroke="black" d="M145.2,-161C153.02,-133.62 117.57,-135.22 109.2,-108 102.95,-87.67 105.69,-63.59 109.58,-45.61"/>
<polygon fill="#26d926" stroke="black" points="113,-46.34 111.94,-35.8 106.2,-44.7 113,-46.34"/>
</g>
<!-- pytermor_color -->
<g id="node4" class="node">
<title>pytermor_color</title><style>.edge>path:hover{stroke-width:8}</style>
<ellipse fill="#3db83d" stroke="black" cx="395.2" cy="-469.28" rx="27" ry="18"/>
<text text-anchor="middle" x="395.2" y="-466.78" font-family="Helvetica,sans-Serif" font-size="10.00" fill="#000000">color</text>
</g>
<!-- pytermor_ansi&#45;&gt;pytermor_color -->
<g id="edge3" class="edge">
<title>pytermor_ansi&#45;&gt;pytermor_color</title><style>.edge>path:hover{stroke-width:8}</style>
<path fill="none" stroke="black" d="M395.2,-522.98C395.2,-515.26 395.2,-505.99 395.2,-497.39"/>
<polygon fill="#26d926" stroke="black" points="398.7,-497.38 395.2,-487.38 391.7,-497.38 398.7,-497.38"/>
</g>
<!-- pytermor_render -->
<g id="node6" class="node">
<title>pytermor_render</title><style>.edge>path:hover{stroke-width:8}</style>
<ellipse fill="#3d8f3d" stroke="black" cx="145.2" cy="-90" rx="27" ry="18"/>
<text text-anchor="middle" x="145.2" y="-87.5" font-family="Helvetica,sans-Serif" font-size="10.00" fill="#ffffff">render</text>
</g>
<!-- pytermor_ansi&#45;&gt;pytermor_render -->
<g id="edge4" class="edge">
<title>pytermor_ansi&#45;&gt;pytermor_render</title><style>.edge>path:hover{stroke-width:8}</style>
<path fill="none" stroke="black" d="M145.2,-161C149.48,-147.42 149.84,-131.6 148.97,-118.44"/>
<polygon fill="#26d926" stroke="black" points="152.43,-117.76 148.02,-108.12 145.46,-118.4 152.43,-117.76"/>
</g>
<!-- pytermor_util_string_filter -->
<g id="node11" class="node">
<title>pytermor_util_string_filter</title><style>.edge>path:hover{stroke-width:8}</style>
<ellipse fill="#33cc33" stroke="black" cx="108.2" cy="-394.07" rx="45.92" ry="21.43"/>
<text text-anchor="middle" x="108.2" y="-397.07" font-family="Helvetica,sans-Serif" font-size="10.00" fill="#000000">util.</text>
<text text-anchor="middle" x="108.2" y="-386.07" font-family="Helvetica,sans-Serif" font-size="10.00" fill="#000000">string_filter</text>
</g>
<!-- pytermor_ansi&#45;&gt;pytermor_util_string_filter -->
<g id="edge5" class="edge">
<title>pytermor_ansi&#45;&gt;pytermor_util_string_filter</title><style>.edge>path:hover{stroke-width:8}</style>
<path fill="none" stroke="black" d="M34.2,-468.28C23.47,-446.53 44.32,-427.47 66.59,-414.25"/>
<polygon fill="#26d926" stroke="black" points="68.44,-417.23 75.47,-409.3 65.03,-411.11 68.44,-417.23"/>
</g>
<!-- pytermor_color&#45;&gt;pytermor -->
<g id="edge6" class="edge">
<title>pytermor_color&#45;&gt;pytermor</title><style>.edge>path:hover{stroke-width:8}</style>
<path fill="none" stroke="black" d="M412.2,-161C351.71,-74.59 223.91,-38.84 158.16,-25.71"/>
<polygon fill="#3db83d" stroke="black" points="158.64,-22.24 148.16,-23.79 157.32,-29.11 158.64,-22.24"/>
</g>
<!-- pytermor_color&#45;&gt;pytermor_render -->
<g id="edge7" class="edge">
<title>pytermor_color&#45;&gt;pytermor_render</title><style>.edge>path:hover{stroke-width:8}</style>
<path fill="none" stroke="black" d="M398.62,-451.07C409.58,-394.02 441.44,-212 412.2,-163"/>
<path fill="none" stroke="black" d="M412.2,-161C385.79,-123.27 248.51,-102.73 181.75,-94.84"/>
<polygon fill="#3db83d" stroke="black" points="182,-91.35 171.66,-93.69 181.2,-98.3 182,-91.35"/>
</g>
<!-- pytermor_common -->
<g id="node5" class="node">
<title>pytermor_common</title><style>.edge>path:hover{stroke-width:8}</style>
<ellipse fill="#3bce3b" stroke="black" cx="422.2" cy="-613.28" rx="31.58" ry="18"/>
<text text-anchor="middle" x="422.2" y="-610.78" font-family="Helvetica,sans-Serif" font-size="10.00" fill="#000000">common</text>
</g>
<!-- pytermor_common&#45;&gt;pytermor_ansi -->
<g id="edge8" class="edge">
<title>pytermor_common&#45;&gt;pytermor_ansi</title><style>.edge>path:hover{stroke-width:8}</style>
<path fill="none" stroke="black" d="M415.66,-595.33C412.58,-587.34 408.83,-577.61 405.38,-568.68"/>
<polygon fill="#3bce3b" stroke="black" points="408.54,-567.14 401.67,-559.07 402.01,-569.66 408.54,-567.14"/>
</g>
<!-- pytermor_common&#45;&gt;pytermor_color -->
<g id="edge9" class="edge">
<title>pytermor_common&#45;&gt;pytermor_color</title><style>.edge>path:hover{stroke-width:8}</style>
<path fill="none" stroke="black" d="M432.75,-596.04C440.66,-582.3 450.14,-561.78 450.2,-542.28"/>
<path fill="none" stroke="black" d="M450.2,-540.28C450.26,-519.81 435.53,-501.78 421.3,-489.15"/>
<polygon fill="#3bce3b" stroke="black" points="423.47,-486.4 413.55,-482.7 419,-491.78 423.47,-486.4"/>
</g>
<!-- pytermor_common&#45;&gt;pytermor_render -->
<g id="edge10" class="edge">
<title>pytermor_common&#45;&gt;pytermor_render</title><style>.edge>path:hover{stroke-width:8}</style>
<path fill="none" stroke="black" d="M450.2,-540.28C450.39,-475.74 450.2,-459.61 450.2,-395.07 450.2,-395.07 450.2,-395.07 450.2,-236.21 450.2,-193.86 457.15,-172.91 426.2,-144 391.33,-111.43 250.4,-97.89 182.34,-93.17"/>
<polygon fill="#3bce3b" stroke="black" points="182.28,-89.65 172.07,-92.48 181.82,-96.64 182.28,-89.65"/>
</g>
<!-- pytermor_render&#45;&gt;pytermor -->
<g id="edge11" class="edge">
<title>pytermor_render&#45;&gt;pytermor</title><style>.edge>path:hover{stroke-width:8}</style>
<path fill="none" stroke="black" d="M138.56,-72.41C135.33,-64.34 131.37,-54.43 127.74,-45.35"/>
<polygon fill="#3d8f3d" stroke="black" points="130.95,-43.94 123.98,-35.96 124.45,-46.54 130.95,-43.94"/>
</g>
<!-- pytermor_util -->
<g id="node7" class="node">
<title>pytermor_util</title><style>.edge>path:hover{stroke-width:8}</style>
<ellipse fill="#409640" stroke="black" cx="200.2" cy="-162" rx="27" ry="18"/>
<text text-anchor="middle" x="200.2" y="-159.5" font-family="Helvetica,sans-Serif" font-size="10.00" fill="#ffffff">util</text>
</g>
<!-- pytermor_util&#45;&gt;pytermor_render -->
<g id="edge12" class="edge">
<title>pytermor_util&#45;&gt;pytermor_render</title><style>.edge>path:hover{stroke-width:8}</style>
<path fill="none" stroke="black" d="M188.26,-145.81C180.99,-136.55 171.54,-124.52 163.34,-114.09"/>
<polygon fill="#409640" stroke="black" points="166.04,-111.86 157.11,-106.16 160.54,-116.18 166.04,-111.86"/>
</g>
<!-- pytermor_util_auto_float -->
<g id="node8" class="node">
<title>pytermor_util_auto_float</title><style>.edge>path:hover{stroke-width:8}</style>
<ellipse fill="#47c247" stroke="black" cx="280.2" cy="-315.64" rx="41.94" ry="21.43"/>
<text text-anchor="middle" x="280.2" y="-318.64" font-family="Helvetica,sans-Serif" font-size="10.00" fill="#000000">util.</text>
<text text-anchor="middle" x="280.2" y="-307.64" font-family="Helvetica,sans-Serif" font-size="10.00" fill="#000000">auto_float</text>
</g>
<!-- pytermor_util_auto_float&#45;&gt;pytermor_util -->
<g id="edge13" class="edge">
<title>pytermor_util_auto_float&#45;&gt;pytermor_util</title><style>.edge>path:hover{stroke-width:8}</style>
<path fill="none" stroke="black" d="M296.8,-296.1C313.21,-275.42 333.65,-241.52 317.2,-216 299.52,-188.58 263.83,-175.19 236.49,-168.75"/>
<polygon fill="#47c247" stroke="black" points="236.99,-165.28 226.48,-166.61 235.53,-172.12 236.99,-165.28"/>
</g>
<!-- pytermor_util_prefixed_unit -->
<g id="node9" class="node">
<title>pytermor_util_prefixed_unit</title><style>.edge>path:hover{stroke-width:8}</style>
<ellipse fill="#4cb34c" stroke="black" cx="257.2" cy="-237.21" rx="50.82" ry="21.43"/>
<text text-anchor="middle" x="257.2" y="-240.21" font-family="Helvetica,sans-Serif" font-size="10.00" fill="#000000">util.</text>
<text text-anchor="middle" x="257.2" y="-229.21" font-family="Helvetica,sans-Serif" font-size="10.00" fill="#000000">prefixed_unit</text>
</g>
<!-- pytermor_util_auto_float&#45;&gt;pytermor_util_prefixed_unit -->
<g id="edge14" class="edge">
<title>pytermor_util_auto_float&#45;&gt;pytermor_util_prefixed_unit</title><style>.edge>path:hover{stroke-width:8}</style>
<path fill="none" stroke="black" d="M274.16,-294.56C271.72,-286.46 268.86,-276.95 266.18,-268.07"/>
<polygon fill="#47c247" stroke="black" points="269.51,-266.99 263.28,-258.42 262.81,-269.01 269.51,-266.99"/>
</g>
<!-- pytermor_util_prefixed_unit&#45;&gt;pytermor_util -->
<g id="edge15" class="edge">
<title>pytermor_util_prefixed_unit&#45;&gt;pytermor_util</title><style>.edge>path:hover{stroke-width:8}</style>
<path fill="none" stroke="black" d="M241.92,-216.59C234.68,-207.29 225.97,-196.1 218.39,-186.36"/>
<polygon fill="#4cb34c" stroke="black" points="220.99,-184 212.08,-178.26 215.46,-188.3 220.99,-184"/>
</g>
<!-- pytermor_util_stdlib_ext -->
<g id="node10" class="node">
<title>pytermor_util_stdlib_ext</title><style>.edge>path:hover{stroke-width:8}</style>
<ellipse fill="#40c040" stroke="black" cx="142.2" cy="-315.64" rx="41.94" ry="21.43"/>
<text text-anchor="middle" x="142.2" y="-318.64" font-family="Helvetica,sans-Serif" font-size="10.00" fill="#000000">util.</text>
<text text-anchor="middle" x="142.2" y="-307.64" font-family="Helvetica,sans-Serif" font-size="10.00" fill="#000000">stdlib_ext</text>
</g>
<!-- pytermor_util_stdlib_ext&#45;&gt;pytermor_util -->
<g id="edge16" class="edge">
<title>pytermor_util_stdlib_ext&#45;&gt;pytermor_util</title><style>.edge>path:hover{stroke-width:8}</style>
<path fill="none" stroke="black" d="M113.25,-300.21C90.45,-286.61 63.8,-264.43 72.2,-238.21"/>
</g>
<!-- pytermor_util_time_delta -->
<g id="node12" class="node">
<title>pytermor_util_time_delta</title><style>.edge>path:hover{stroke-width:8}</style>
<ellipse fill="#4cb34c" stroke="black" cx="144.2" cy="-237.21" rx="43.68" ry="21.43"/>
<text text-anchor="middle" x="144.2" y="-240.21" font-family="Helvetica,sans-Serif" font-size="10.00" fill="#000000">util.</text>
<text text-anchor="middle" x="144.2" y="-229.21" font-family="Helvetica,sans-Serif" font-size="10.00" fill="#000000">time_delta</text>
</g>
<!-- pytermor_util_stdlib_ext&#45;&gt;pytermor_util_time_delta -->
<g id="edge17" class="edge">
<title>pytermor_util_stdlib_ext&#45;&gt;pytermor_util_time_delta</title><style>.edge>path:hover{stroke-width:8}</style>
<path fill="none" stroke="black" d="M142.74,-294.16C142.94,-286.3 143.18,-277.16 143.4,-268.57"/>
<polygon fill="#40c040" stroke="black" points="146.91,-268.57 143.67,-258.49 139.91,-268.39 146.91,-268.57"/>
</g>
<!-- pytermor_util_string_filter&#45;&gt;pytermor_render -->
<g id="edge18" class="edge">
<title>pytermor_util_string_filter&#45;&gt;pytermor_render</title><style>.edge>path:hover{stroke-width:8}</style>
<path fill="none" stroke="black" d="M152.45,-388.15C210.87,-380.67 308.95,-364.3 331.2,-336.85 365.03,-295.11 358.46,-263.94 334.2,-216 302.73,-153.84 224.35,-117.86 179.02,-101.59"/>
<polygon fill="#33cc33" stroke="black" points="179.93,-98.2 169.34,-98.23 177.64,-104.81 179.93,-98.2"/>
</g>
<!-- pytermor_util_string_filter&#45;&gt;pytermor_util -->
<g id="edge19" class="edge">
<title>pytermor_util_string_filter&#45;&gt;pytermor_util</title><style>.edge>path:hover{stroke-width:8}</style>
<path fill="none" stroke="black" d="M96.82,-373.23C81.27,-343.5 56.96,-285.79 72.2,-238.21"/>
<path fill="none" stroke="black" d="M72.2,-236.21C75.9,-224.45 81.27,-223.31 91.2,-216 104.31,-206.35 141.4,-189 168.69,-176.78"/>
<polygon fill="#33cc33" stroke="black" points="170.16,-179.96 177.88,-172.7 167.32,-173.56 170.16,-179.96"/>
</g>
<!-- pytermor_util_string_filter&#45;&gt;pytermor_util_stdlib_ext -->
<g id="edge20" class="edge">
<title>pytermor_util_string_filter&#45;&gt;pytermor_util_stdlib_ext</title><style>.edge>path:hover{stroke-width:8}</style>
<path fill="none" stroke="black" d="M117.13,-372.99C120.8,-364.74 125.13,-355.02 129.14,-346"/>
<polygon fill="#33cc33" stroke="black" points="132.46,-347.14 133.33,-336.59 126.06,-344.3 132.46,-347.14"/>
</g>
<!-- pytermor_util_time_delta&#45;&gt;pytermor_util -->
<g id="edge21" class="edge">
<title>pytermor_util_time_delta&#45;&gt;pytermor_util</title><style>.edge>path:hover{stroke-width:8}</style>
<path fill="none" stroke="black" d="M158.91,-216.98C166.03,-207.67 174.64,-196.42 182.15,-186.6"/>
<polygon fill="#4cb34c" stroke="black" points="185.11,-188.49 188.4,-178.42 179.55,-184.24 185.11,-188.49"/>
</g>
</g>
</svg>
