<?xml version="1.0" encoding="UTF-8" standalone="no"?>
<!DOCTYPE svg PUBLIC "-//W3C//DTD SVG 1.1//EN"
 "http://www.w3.org/Graphics/SVG/1.1/DTD/svg11.dtd">
<!-- Generated by graphviz version 2.43.0 (0)
 -->
<!-- Title: G Pages: 1 -->
<svg width="487pt" height="476pt"
 viewBox="0.00 0.00 486.77 476.00" xmlns="http://www.w3.org/2000/svg" xmlns:xlink="http://www.w3.org/1999/xlink">
<g id="graph0" class="graph" transform="scale(1 1) rotate(0) translate(4 472)">
<title>G</title><style>.edge>path:hover{stroke-width:8}</style>
<polygon fill="white" stroke="transparent" points="-4,4 -4,-472 482.77,-472 482.77,4 -4,4"/>
<!-- pytermor -->
<g id="node1" class="node">
<title>pytermor</title><style>.edge>path:hover{stroke-width:8}</style>
<ellipse fill="#267326" stroke="black" cx="174.71" cy="-18" rx="32.25" ry="18"/>
<text text-anchor="middle" x="174.71" y="-15.5" font-family="Helvetica,sans-Serif" font-size="10.00" fill="#ffffff">pytermor</text>
</g>
<!-- pytermor__version -->
<g id="node2" class="node">
<title>pytermor__version</title><style>.edge>path:hover{stroke-width:8}</style>
<ellipse fill="#53b653" stroke="black" cx="88.71" cy="-90" rx="31.4" ry="18"/>
<text text-anchor="middle" x="88.71" y="-87.5" font-family="Helvetica,sans-Serif" font-size="10.00" fill="#000000">_version</text>
</g>
<!-- pytermor__version&#45;&gt;pytermor -->
<g id="edge1" class="edge">
<title>pytermor__version&#45;&gt;pytermor</title><style>.edge>path:hover{stroke-width:8}</style>
<path fill="none" stroke="black" d="M106.12,-74.83C118.51,-64.75 135.36,-51.03 149.26,-39.72"/>
<polygon fill="#53b653" stroke="black" points="151.5,-42.41 157.04,-33.38 147.08,-36.98 151.5,-42.41"/>
</g>
<!-- pytermor_ansi -->
<g id="node3" class="node">
<title>pytermor_ansi</title><style>.edge>path:hover{stroke-width:8}</style>
<ellipse fill="#26d926" stroke="black" cx="99.71" cy="-378" rx="27" ry="18"/>
<text text-anchor="middle" x="99.71" y="-375.5" font-family="Helvetica,sans-Serif" font-size="10.00" fill="#000000">ansi</text>
</g>
<!-- pytermor_ansi&#45;&gt;pytermor -->
<g id="edge2" class="edge">
<title>pytermor_ansi&#45;&gt;pytermor</title><style>.edge>path:hover{stroke-width:8}</style>
<path fill="none" stroke="black" d="M78.3,-366.58C58.22,-355.2 30.71,-334.81 26.71,-307"/>
<path fill="none" stroke="black" d="M26.71,-305C22.13,-273.09 -2.61,-265.54 7.71,-235"/>
</g>
<!-- pytermor_color -->
<g id="node4" class="node">
<title>pytermor_color</title><style>.edge>path:hover{stroke-width:8}</style>
<ellipse fill="#18dd18" stroke="black" cx="182.71" cy="-306" rx="27" ry="18"/>
<text text-anchor="middle" x="182.71" y="-303.5" font-family="Helvetica,sans-Serif" font-size="10.00" fill="#000000">color</text>
</g>
<!-- pytermor_ansi&#45;&gt;pytermor_color -->
<g id="edge3" class="edge">
<title>pytermor_ansi&#45;&gt;pytermor_color</title><style>.edge>path:hover{stroke-width:8}</style>
<path fill="none" stroke="black" d="M116.11,-363.17C128.36,-352.85 145.27,-338.58 158.98,-327.01"/>
<polygon fill="#26d926" stroke="black" points="161.25,-329.69 166.63,-320.56 156.73,-324.33 161.25,-329.69"/>
</g>
<!-- pytermor_cval -->
<g id="node6" class="node">
<title>pytermor_cval</title><style>.edge>path:hover{stroke-width:8}</style>
<ellipse fill="#49ac49" stroke="black" cx="62.71" cy="-234" rx="27" ry="18"/>
<text text-anchor="middle" x="62.71" y="-231.5" font-family="Helvetica,sans-Serif" font-size="10.00" fill="#000000">cval</text>
</g>
<!-- pytermor_ansi&#45;&gt;pytermor_cval -->
<g id="edge4" class="edge">
<title>pytermor_ansi&#45;&gt;pytermor_cval</title><style>.edge>path:hover{stroke-width:8}</style>
<path fill="none" stroke="black" d="M26.71,-305C23.89,-287.97 32.62,-270.7 42.19,-257.58"/>
<polygon fill="#26d926" stroke="black" points="45.04,-259.61 48.48,-249.59 39.54,-255.28 45.04,-259.61"/>
</g>
<!-- pytermor_renderer -->
<g id="node7" class="node">
<title>pytermor_renderer</title><style>.edge>path:hover{stroke-width:8}</style>
<ellipse fill="#339933" stroke="black" cx="244.71" cy="-162" rx="30.72" ry="18"/>
<text text-anchor="middle" x="244.71" y="-159.5" font-family="Helvetica,sans-Serif" font-size="10.00" fill="#ffffff">renderer</text>
</g>
<!-- pytermor_ansi&#45;&gt;pytermor_renderer -->
<g id="edge5" class="edge">
<title>pytermor_ansi&#45;&gt;pytermor_renderer</title><style>.edge>path:hover{stroke-width:8}</style>
<path fill="none" stroke="black" d="M26.71,-305C25.8,-299.5 155.88,-218.08 215.5,-181.07"/>
<polygon fill="#26d926" stroke="black" points="217.45,-183.98 224.1,-175.74 213.76,-178.03 217.45,-183.98"/>
</g>
<!-- pytermor_color&#45;&gt;pytermor -->
<g id="edge6" class="edge">
<title>pytermor_color&#45;&gt;pytermor</title><style>.edge>path:hover{stroke-width:8}</style>
<path fill="none" stroke="black" d="M174.56,-288.62C162.46,-262.42 141.79,-209.34 147.71,-163"/>
<path fill="none" stroke="black" d="M147.71,-161C151.66,-130.14 144.81,-121.98 147.71,-91"/>
</g>
<!-- pytermor_color&#45;&gt;pytermor_cval -->
<g id="edge7" class="edge">
<title>pytermor_color&#45;&gt;pytermor_cval</title><style>.edge>path:hover{stroke-width:8}</style>
<path fill="none" stroke="black" d="M162.9,-293.44C143.44,-282.09 113.56,-264.66 91.49,-251.78"/>
<polygon fill="#18dd18" stroke="black" points="92.96,-248.59 82.56,-246.58 89.43,-254.64 92.96,-248.59"/>
</g>
<!-- pytermor_color&#45;&gt;pytermor_renderer -->
<g id="edge8" class="edge">
<title>pytermor_color&#45;&gt;pytermor_renderer</title><style>.edge>path:hover{stroke-width:8}</style>
<path fill="none" stroke="black" d="M203.67,-294.24C218.73,-285.22 237.87,-270.8 246.71,-252 255.79,-232.71 254.5,-208.37 251.39,-190.02"/>
<polygon fill="#18dd18" stroke="black" points="254.78,-189.13 249.41,-179.99 247.91,-190.48 254.78,-189.13"/>
</g>
<!-- pytermor_style -->
<g id="node8" class="node">
<title>pytermor_style</title><style>.edge>path:hover{stroke-width:8}</style>
<ellipse fill="#2fbc2f" stroke="black" cx="210.71" cy="-234" rx="27" ry="18"/>
<text text-anchor="middle" x="210.71" y="-231.5" font-family="Helvetica,sans-Serif" font-size="10.00" fill="#000000">style</text>
</g>
<!-- pytermor_color&#45;&gt;pytermor_style -->
<g id="edge9" class="edge">
<title>pytermor_color&#45;&gt;pytermor_style</title><style>.edge>path:hover{stroke-width:8}</style>
<path fill="none" stroke="black" d="M189.35,-288.41C192.63,-280.22 196.66,-270.14 200.33,-260.95"/>
<polygon fill="#18dd18" stroke="black" points="203.66,-262.05 204.13,-251.47 197.16,-259.45 203.66,-262.05"/>
</g>
<!-- pytermor_text -->
<g id="node9" class="node">
<title>pytermor_text</title><style>.edge>path:hover{stroke-width:8}</style>
<ellipse fill="#3d8f3d" stroke="black" cx="202.71" cy="-90" rx="27" ry="18"/>
<text text-anchor="middle" x="202.71" y="-87.5" font-family="Helvetica,sans-Serif" font-size="10.00" fill="#ffffff">text</text>
</g>
<!-- pytermor_color&#45;&gt;pytermor_text -->
<g id="edge10" class="edge">
<title>pytermor_color&#45;&gt;pytermor_text</title><style>.edge>path:hover{stroke-width:8}</style>
<path fill="none" stroke="black" d="M147.71,-161C150.25,-141.14 164.31,-123.45 177.58,-110.82"/>
<polygon fill="#18dd18" stroke="black" points="180.09,-113.27 185.2,-103.99 175.42,-108.06 180.09,-113.27"/>
</g>
<!-- pytermor_common -->
<g id="node5" class="node">
<title>pytermor_common</title><style>.edge>path:hover{stroke-width:8}</style>
<ellipse fill="#10f910" stroke="black" cx="99.71" cy="-450" rx="31.58" ry="18"/>
<text text-anchor="middle" x="99.71" y="-447.5" font-family="Helvetica,sans-Serif" font-size="10.00" fill="#000000">common</text>
</g>
<!-- pytermor_common&#45;&gt;pytermor -->
<g id="edge11" class="edge">
<title>pytermor_common&#45;&gt;pytermor</title><style>.edge>path:hover{stroke-width:8}</style>
<path fill="none" stroke="black" d="M85.02,-434.02C64.53,-412.03 28.14,-368.74 12.71,-324 -0.2,-286.55 -4.98,-272.53 7.71,-235"/>
<path fill="none" stroke="black" d="M7.71,-233C17.91,-194.77 39.84,-195.28 62.71,-163"/>
<path fill="none" stroke="black" d="M62.71,-161C91.01,-121.07 143.15,-139.73 147.71,-91"/>
<path fill="none" stroke="black" d="M147.71,-89C149.16,-73.6 155.07,-57.43 161,-44.51"/>
<polygon fill="#10f910" stroke="black" points="164.23,-45.86 165.46,-35.34 157.94,-42.8 164.23,-45.86"/>
</g>
<!-- pytermor_common&#45;&gt;pytermor_ansi -->
<g id="edge12" class="edge">
<title>pytermor_common&#45;&gt;pytermor_ansi</title><style>.edge>path:hover{stroke-width:8}</style>
<path fill="none" stroke="black" d="M99.71,-431.7C99.71,-423.98 99.71,-414.71 99.71,-406.11"/>
<polygon fill="#10f910" stroke="black" points="103.21,-406.1 99.71,-396.1 96.21,-406.1 103.21,-406.1"/>
</g>
<!-- pytermor_common&#45;&gt;pytermor_color -->
<g id="edge13" class="edge">
<title>pytermor_common&#45;&gt;pytermor_color</title><style>.edge>path:hover{stroke-width:8}</style>
<path fill="none" stroke="black" d="M130.32,-444.87C188.51,-436.27 311.12,-414.23 331.71,-379"/>
<path fill="none" stroke="black" d="M331.71,-377C344.74,-354.71 265.19,-329.02 217.23,-315.83"/>
<polygon fill="#10f910" stroke="black" points="218.08,-312.44 207.52,-313.21 216.26,-319.19 218.08,-312.44"/>
</g>
<!-- pytermor_common&#45;&gt;pytermor_renderer -->
<g id="edge14" class="edge">
<title>pytermor_common&#45;&gt;pytermor_renderer</title><style>.edge>path:hover{stroke-width:8}</style>
<path fill="none" stroke="black" d="M303.71,-305C289.57,-277.29 309.73,-265.52 303.71,-235"/>
<path fill="none" stroke="black" d="M303.71,-233C299.79,-213.06 285.06,-195.57 271.3,-183.06"/>
<polygon fill="#10f910" stroke="black" points="273.27,-180.14 263.4,-176.29 268.72,-185.45 273.27,-180.14"/>
</g>
<!-- pytermor_common&#45;&gt;pytermor_style -->
<g id="edge15" class="edge">
<title>pytermor_common&#45;&gt;pytermor_style</title><style>.edge>path:hover{stroke-width:8}</style>
<path fill="none" stroke="black" d="M331.71,-377C348.62,-348.07 318.95,-336.84 303.71,-307"/>
<path fill="none" stroke="black" d="M303.71,-305C290.74,-279.6 263.81,-260.93 242.26,-249.29"/>
<polygon fill="#10f910" stroke="black" points="243.59,-246.05 233.1,-244.59 240.4,-252.27 243.59,-246.05"/>
</g>
<!-- pytermor_common&#45;&gt;pytermor_text -->
<g id="edge16" class="edge">
<title>pytermor_common&#45;&gt;pytermor_text</title><style>.edge>path:hover{stroke-width:8}</style>
<path fill="none" stroke="black" d="M303.71,-233C295.9,-193.32 307.67,-177.3 284.71,-144 272.46,-126.22 252.09,-113.01 234.72,-104.23"/>
<polygon fill="#10f910" stroke="black" points="235.98,-100.95 225.45,-99.8 232.97,-107.27 235.98,-100.95"/>
</g>
<!-- pytermor_utilmisc -->
<g id="node10" class="node">
<title>pytermor_utilmisc</title><style>.edge>path:hover{stroke-width:8}</style>
<ellipse fill="#26d926" stroke="black" cx="360.71" cy="-306" rx="29.37" ry="18"/>
<text text-anchor="middle" x="360.71" y="-303.5" font-family="Helvetica,sans-Serif" font-size="10.00" fill="#000000">utilmisc</text>
</g>
<!-- pytermor_common&#45;&gt;pytermor_utilmisc -->
<g id="edge17" class="edge">
<title>pytermor_common&#45;&gt;pytermor_utilmisc</title><style>.edge>path:hover{stroke-width:8}</style>
<path fill="none" stroke="black" d="M331.71,-377C339.75,-363.24 346.68,-346.83 351.74,-333.36"/>
<polygon fill="#10f910" stroke="black" points="355.12,-334.32 355.24,-323.72 348.54,-331.93 355.12,-334.32"/>
</g>
<!-- pytermor_utilstr -->
<g id="node12" class="node">
<title>pytermor_utilstr</title><style>.edge>path:hover{stroke-width:8}</style>
<ellipse fill="#23c823" stroke="black" cx="407.71" cy="-234" rx="27" ry="18"/>
<text text-anchor="middle" x="407.71" y="-231.5" font-family="Helvetica,sans-Serif" font-size="10.00" fill="#000000">utilstr</text>
</g>
<!-- pytermor_common&#45;&gt;pytermor_utilstr -->
<g id="edge18" class="edge">
<title>pytermor_common&#45;&gt;pytermor_utilstr</title><style>.edge>path:hover{stroke-width:8}</style>
<path fill="none" stroke="black" d="M331.71,-377C350.87,-344.22 380.47,-357.3 398.71,-324 409.01,-305.21 410.82,-280.83 410.3,-262.34"/>
<polygon fill="#10f910" stroke="black" points="413.79,-262.03 409.78,-252.22 406.8,-262.39 413.79,-262.03"/>
</g>
<!-- pytermor_cval&#45;&gt;pytermor -->
<g id="edge19" class="edge">
<title>pytermor_cval&#45;&gt;pytermor</title><style>.edge>path:hover{stroke-width:8}</style>
<path fill="none" stroke="black" d="M57.63,-216.09C54.12,-200.79 51.82,-178.37 62.71,-163"/>
</g>
<!-- pytermor_renderer&#45;&gt;pytermor -->
<g id="edge20" class="edge">
<title>pytermor_renderer&#45;&gt;pytermor</title><style>.edge>path:hover{stroke-width:8}</style>
<path fill="none" stroke="black" d="M221.72,-150.1C192.5,-135.46 146.01,-109.2 147.71,-91"/>
</g>
<!-- pytermor_renderer&#45;&gt;pytermor_text -->
<g id="edge21" class="edge">
<title>pytermor_renderer&#45;&gt;pytermor_text</title><style>.edge>path:hover{stroke-width:8}</style>
<path fill="none" stroke="black" d="M234.97,-144.76C229.83,-136.19 223.41,-125.49 217.66,-115.9"/>
<polygon fill="#339933" stroke="black" points="220.55,-113.92 212.4,-107.15 214.55,-117.52 220.55,-113.92"/>
</g>
<!-- pytermor_style&#45;&gt;pytermor -->
<g id="edge22" class="edge">
<title>pytermor_style&#45;&gt;pytermor</title><style>.edge>path:hover{stroke-width:8}</style>
<path fill="none" stroke="black" d="M203.65,-216.33C198,-202.33 190.28,-181.68 185.71,-163"/>
<path fill="none" stroke="black" d="M185.71,-161C177.32,-126.61 144.41,-126.25 147.71,-91"/>
</g>
<!-- pytermor_style&#45;&gt;pytermor_renderer -->
<g id="edge23" class="edge">
<title>pytermor_style&#45;&gt;pytermor_renderer</title><style>.edge>path:hover{stroke-width:8}</style>
<path fill="none" stroke="black" d="M218.6,-216.76C222.62,-208.49 227.6,-198.23 232.13,-188.9"/>
<polygon fill="#2fbc2f" stroke="black" points="235.41,-190.16 236.64,-179.63 229.12,-187.1 235.41,-190.16"/>
</g>
<!-- pytermor_style&#45;&gt;pytermor_text -->
<g id="edge24" class="edge">
<title>pytermor_style&#45;&gt;pytermor_text</title><style>.edge>path:hover{stroke-width:8}</style>
<path fill="none" stroke="black" d="M185.71,-161C182.12,-146.28 185.73,-129.82 190.54,-116.56"/>
<polygon fill="#2fbc2f" stroke="black" points="193.85,-117.71 194.34,-107.13 187.36,-115.09 193.85,-117.71"/>
</g>
<!-- pytermor_text&#45;&gt;pytermor -->
<g id="edge25" class="edge">
<title>pytermor_text&#45;&gt;pytermor</title><style>.edge>path:hover{stroke-width:8}</style>
<path fill="none" stroke="black" d="M196.08,-72.41C192.85,-64.34 188.89,-54.43 185.26,-45.35"/>
<polygon fill="#3d8f3d" stroke="black" points="188.46,-43.94 181.5,-35.96 181.96,-46.54 188.46,-43.94"/>
</g>
<!-- pytermor_utilmisc&#45;&gt;pytermor -->
<g id="edge26" class="edge">
<title>pytermor_utilmisc&#45;&gt;pytermor</title><style>.edge>path:hover{stroke-width:8}</style>
<path fill="none" stroke="black" d="M341.71,-161C330.06,-132.15 367.67,-108.15 341.71,-91"/>
<path fill="none" stroke="black" d="M341.71,-89C300.89,-62.03 247.98,-41.98 212.77,-30.41"/>
<polygon fill="#26d926" stroke="black" points="213.48,-26.96 202.89,-27.23 211.33,-33.62 213.48,-26.96"/>
</g>
<!-- pytermor_utilmisc&#45;&gt;pytermor_renderer -->
<g id="edge27" class="edge">
<title>pytermor_utilmisc&#45;&gt;pytermor_renderer</title><style>.edge>path:hover{stroke-width:8}</style>
<path fill="none" stroke="black" d="M357.71,-288.07C354.76,-273.56 349.56,-252.32 341.71,-235"/>
<path fill="none" stroke="black" d="M341.71,-233C329.74,-206.56 301.93,-188.13 279.15,-176.84"/>
<polygon fill="#26d926" stroke="black" points="280.61,-173.66 270.07,-172.58 277.64,-180 280.61,-173.66"/>
</g>
<!-- pytermor_utilmisc&#45;&gt;pytermor_text -->
<g id="edge28" class="edge">
<title>pytermor_utilmisc&#45;&gt;pytermor_text</title><style>.edge>path:hover{stroke-width:8}</style>
<path fill="none" stroke="black" d="M341.71,-233C328.88,-204.66 353.37,-191.85 341.71,-163"/>
<path fill="none" stroke="black" d="M341.71,-161C325.41,-120.64 274.58,-103.36 239.14,-96.09"/>
<polygon fill="#26d926" stroke="black" points="239.61,-92.62 229.14,-94.22 238.32,-99.5 239.61,-92.62"/>
</g>
<!-- pytermor_utilmisc&#45;&gt;pytermor_utilstr -->
<g id="edge29" class="edge">
<title>pytermor_utilmisc&#45;&gt;pytermor_utilstr</title><style>.edge>path:hover{stroke-width:8}</style>
<path fill="none" stroke="black" d="M371.38,-289.12C377.27,-280.34 384.71,-269.26 391.32,-259.42"/>
<polygon fill="#26d926" stroke="black" points="394.42,-261.07 397.09,-250.82 388.61,-257.17 394.42,-261.07"/>
</g>
<!-- pytermor_utilnum -->
<g id="node11" class="node">
<title>pytermor_utilnum</title><style>.edge>path:hover{stroke-width:8}</style>
<ellipse fill="#4cb34c" stroke="black" cx="435.71" cy="-162" rx="28.01" ry="18"/>
<text text-anchor="middle" x="435.71" y="-159.5" font-family="Helvetica,sans-Serif" font-size="10.00" fill="#000000">utilnum</text>
</g>
<!-- pytermor_utilnum&#45;&gt;pytermor -->
<g id="edge30" class="edge">
<title>pytermor_utilnum&#45;&gt;pytermor</title><style>.edge>path:hover{stroke-width:8}</style>
<path fill="none" stroke="black" d="M418.93,-147.31C400.54,-132.59 369.88,-108.89 341.71,-91"/>
</g>
<!-- pytermor_utilstr&#45;&gt;pytermor -->
<g id="edge31" class="edge">
<title>pytermor_utilstr&#45;&gt;pytermor</title><style>.edge>path:hover{stroke-width:8}</style>
<path fill="none" stroke="black" d="M428.67,-222.5C444.01,-213.54 463.66,-199.07 472.71,-180 479.58,-165.55 481.66,-157.27 472.71,-144 437.61,-91.92 394.73,-124.67 341.71,-91"/>
</g>
<!-- pytermor_utilstr&#45;&gt;pytermor_renderer -->
<g id="edge32" class="edge">
<title>pytermor_utilstr&#45;&gt;pytermor_renderer</title><style>.edge>path:hover{stroke-width:8}</style>
<path fill="none" stroke="black" d="M385.39,-223.41C357.66,-211.5 310.09,-191.07 278.03,-177.31"/>
<polygon fill="#23c823" stroke="black" points="279.19,-174 268.62,-173.27 276.43,-180.43 279.19,-174"/>
</g>
<!-- pytermor_utilstr&#45;&gt;pytermor_text -->
<g id="edge33" class="edge">
<title>pytermor_utilstr&#45;&gt;pytermor_text</title><style>.edge>path:hover{stroke-width:8}</style>
<path fill="none" stroke="black" d="M402.01,-216.15C394.44,-196.22 379.22,-163.31 355.71,-144 321.91,-116.22 272.65,-102.63 239.23,-96.24"/>
<polygon fill="#23c823" stroke="black" points="239.43,-92.72 228.97,-94.41 238.2,-99.62 239.43,-92.72"/>
</g>
<!-- pytermor_utilstr&#45;&gt;pytermor_utilnum -->
<g id="edge34" class="edge">
<title>pytermor_utilstr&#45;&gt;pytermor_utilnum</title><style>.edge>path:hover{stroke-width:8}</style>
<path fill="none" stroke="black" d="M414.35,-216.41C417.58,-208.34 421.54,-198.43 425.17,-189.35"/>
<polygon fill="#23c823" stroke="black" points="428.47,-190.54 428.93,-179.96 421.97,-187.94 428.47,-190.54"/>
</g>
</g>
</svg>
