<?xml version="1.0" encoding="UTF-8" standalone="no"?>
<!DOCTYPE svg PUBLIC "-//W3C//DTD SVG 1.1//EN"
 "http://www.w3.org/Graphics/SVG/1.1/DTD/svg11.dtd">
<!-- Generated by graphviz version 2.43.0 (0)
 -->
<!-- Title: G Pages: 1 -->
<svg width="520pt" height="639pt"
 viewBox="0.00 0.00 520.20 639.28" xmlns="http://www.w3.org/2000/svg" xmlns:xlink="http://www.w3.org/1999/xlink">
<g id="graph0" class="graph" transform="scale(1 1) rotate(0) translate(4 635.28)">
<title>G</title><style>.edge>path:hover{stroke-width:8}</style>
<polygon fill="white" stroke="transparent" points="-4,4 -4,-635.28 516.2,-635.28 516.2,4 -4,4"/>
<!-- pytermor -->
<g id="node1" class="node">
<title>pytermor</title><style>.edge>path:hover{stroke-width:8}</style>
<ellipse fill="#4e924e" stroke="black" cx="117.2" cy="-18" rx="32.25" ry="18"/>
<text text-anchor="middle" x="117.2" y="-15.5" font-family="Helvetica,sans-Serif" font-size="10.00" fill="#ffffff">pytermor</text>
</g>
<!-- pytermor__version -->
<g id="node2" class="node">
<title>pytermor__version</title><style>.edge>path:hover{stroke-width:8}</style>
<ellipse fill="#53b653" stroke="black" cx="31.2" cy="-90" rx="31.4" ry="18"/>
<text text-anchor="middle" x="31.2" y="-87.5" font-family="Helvetica,sans-Serif" font-size="10.00" fill="#000000">_version</text>
</g>
<!-- pytermor__version&#45;&gt;pytermor -->
<g id="edge1" class="edge">
<title>pytermor__version&#45;&gt;pytermor</title><style>.edge>path:hover{stroke-width:8}</style>
<path fill="none" stroke="black" d="M48.6,-74.83C60.99,-64.75 77.84,-51.03 91.74,-39.72"/>
<polygon fill="#53b653" stroke="black" points="93.98,-42.41 99.53,-33.38 89.56,-36.98 93.98,-42.41"/>
</g>
<!-- pytermor_ansi -->
<g id="node3" class="node">
<title>pytermor_ansi</title><style>.edge>path:hover{stroke-width:8}</style>
<ellipse fill="#26d926" stroke="black" cx="402.2" cy="-541.28" rx="27" ry="18"/>
<text text-anchor="middle" x="402.2" y="-538.78" font-family="Helvetica,sans-Serif" font-size="10.00" fill="#000000">ansi</text>
</g>
<!-- pytermor_ansi&#45;&gt;pytermor -->
<g id="edge2" class="edge">
<title>pytermor_ansi&#45;&gt;pytermor</title><style>.edge>path:hover{stroke-width:8}</style>
<path fill="none" stroke="black" d="M375.35,-539.08C305.85,-535.27 123.86,-520.56 100.2,-470.28"/>
<path fill="none" stroke="black" d="M100.2,-468.28C52.33,-366.54 89.68,-324.5 119.2,-216 126.09,-190.68 142.92,-189.14 145.2,-163"/>
<path fill="none" stroke="black" d="M145.2,-161C145.73,-132.53 117.57,-135.22 109.2,-108 102.95,-87.67 105.69,-63.59 109.58,-45.61"/>
<polygon fill="#26d926" stroke="black" points="113,-46.34 111.94,-35.8 106.2,-44.7 113,-46.34"/>
</g>
<!-- pytermor_color -->
<g id="node4" class="node">
<title>pytermor_color</title><style>.edge>path:hover{stroke-width:8}</style>
<ellipse fill="#3db83d" stroke="black" cx="457.2" cy="-469.28" rx="27" ry="18"/>
<text text-anchor="middle" x="457.2" y="-466.78" font-family="Helvetica,sans-Serif" font-size="10.00" fill="#000000">color</text>
</g>
<!-- pytermor_ansi&#45;&gt;pytermor_color -->
<g id="edge3" class="edge">
<title>pytermor_ansi&#45;&gt;pytermor_color</title><style>.edge>path:hover{stroke-width:8}</style>
<path fill="none" stroke="black" d="M414.13,-525.09C421.41,-515.83 430.86,-503.8 439.05,-493.37"/>
<polygon fill="#26d926" stroke="black" points="441.86,-495.46 445.29,-485.44 436.36,-491.14 441.86,-495.46"/>
</g>
<!-- pytermor_text -->
<g id="node6" class="node">
<title>pytermor_text</title><style>.edge>path:hover{stroke-width:8}</style>
<ellipse fill="#439d43" stroke="black" cx="145.2" cy="-90" rx="27" ry="18"/>
<text text-anchor="middle" x="145.2" y="-87.5" font-family="Helvetica,sans-Serif" font-size="10.00" fill="#ffffff">text</text>
</g>
<!-- pytermor_ansi&#45;&gt;pytermor_text -->
<g id="edge4" class="edge">
<title>pytermor_ansi&#45;&gt;pytermor_text</title><style>.edge>path:hover{stroke-width:8}</style>
<path fill="none" stroke="black" d="M145.2,-161C146.43,-146.91 146.54,-131.16 146.3,-118.17"/>
<polygon fill="#26d926" stroke="black" points="149.79,-117.91 146.03,-108.01 142.79,-118.1 149.79,-117.91"/>
</g>
<!-- pytermor_util_string_filter -->
<g id="node11" class="node">
<title>pytermor_util_string_filter</title><style>.edge>path:hover{stroke-width:8}</style>
<ellipse fill="#40c040" stroke="black" cx="174.2" cy="-394.07" rx="45.92" ry="21.43"/>
<text text-anchor="middle" x="174.2" y="-397.07" font-family="Helvetica,sans-Serif" font-size="10.00" fill="#000000">util.</text>
<text text-anchor="middle" x="174.2" y="-386.07" font-family="Helvetica,sans-Serif" font-size="10.00" fill="#000000">string_filter</text>
</g>
<!-- pytermor_ansi&#45;&gt;pytermor_util_string_filter -->
<g id="edge5" class="edge">
<title>pytermor_ansi&#45;&gt;pytermor_util_string_filter</title><style>.edge>path:hover{stroke-width:8}</style>
<path fill="none" stroke="black" d="M100.2,-468.28C89.87,-446.34 110.71,-427.28 132.87,-414.12"/>
<polygon fill="#26d926" stroke="black" points="134.67,-417.12 141.69,-409.19 131.25,-411.01 134.67,-417.12"/>
</g>
<!-- pytermor_color&#45;&gt;pytermor -->
<g id="edge6" class="edge">
<title>pytermor_color&#45;&gt;pytermor</title><style>.edge>path:hover{stroke-width:8}</style>
<path fill="none" stroke="black" d="M440.2,-161C363.1,-75.97 225.82,-39.34 157.76,-25.81"/>
<polygon fill="#3db83d" stroke="black" points="158.32,-22.35 147.84,-23.91 157,-29.23 158.32,-22.35"/>
</g>
<!-- pytermor_color&#45;&gt;pytermor_text -->
<g id="edge7" class="edge">
<title>pytermor_color&#45;&gt;pytermor_text</title><style>.edge>path:hover{stroke-width:8}</style>
<path fill="none" stroke="black" d="M461.47,-451.41C472.86,-402.4 499.25,-257.54 440.2,-163"/>
<path fill="none" stroke="black" d="M440.2,-161C405.81,-123.08 253.37,-102.37 182.13,-94.61"/>
<polygon fill="#3db83d" stroke="black" points="182.14,-91.09 171.82,-93.52 181.4,-98.05 182.14,-91.09"/>
</g>
<!-- pytermor_common -->
<g id="node5" class="node">
<title>pytermor_common</title><style>.edge>path:hover{stroke-width:8}</style>
<ellipse fill="#2fdb2f" stroke="black" cx="429.2" cy="-613.28" rx="31.58" ry="18"/>
<text text-anchor="middle" x="429.2" y="-610.78" font-family="Helvetica,sans-Serif" font-size="10.00" fill="#000000">common</text>
</g>
<!-- pytermor_common&#45;&gt;pytermor_ansi -->
<g id="edge8" class="edge">
<title>pytermor_common&#45;&gt;pytermor_ansi</title><style>.edge>path:hover{stroke-width:8}</style>
<path fill="none" stroke="black" d="M422.66,-595.33C419.58,-587.34 415.83,-577.61 412.38,-568.68"/>
<polygon fill="#2fdb2f" stroke="black" points="415.54,-567.14 408.67,-559.07 409.01,-569.66 415.54,-567.14"/>
</g>
<!-- pytermor_common&#45;&gt;pytermor_color -->
<g id="edge9" class="edge">
<title>pytermor_common&#45;&gt;pytermor_color</title><style>.edge>path:hover{stroke-width:8}</style>
<path fill="none" stroke="black" d="M457.2,-540.28C459.81,-526.38 460.04,-510.64 459.53,-497.62"/>
<polygon fill="#2fdb2f" stroke="black" points="463.01,-497.2 458.95,-487.42 456.02,-497.6 463.01,-497.2"/>
</g>
<!-- pytermor_common&#45;&gt;pytermor_text -->
<g id="edge10" class="edge">
<title>pytermor_common&#45;&gt;pytermor_text</title><style>.edge>path:hover{stroke-width:8}</style>
<path fill="none" stroke="black" d="M457.2,-540.28C463.35,-512.48 482.11,-513.51 493.2,-487.28 509.49,-448.74 512.2,-436.91 512.2,-395.07 512.2,-395.07 512.2,-395.07 512.2,-236.21 512.2,-187.8 494.44,-170.92 454.2,-144 410.11,-114.51 254.03,-99.2 182.05,-93.57"/>
<polygon fill="#2fdb2f" stroke="black" points="182.3,-90.08 172.07,-92.81 181.77,-97.06 182.3,-90.08"/>
</g>
<!-- pytermor_util -->
<g id="node7" class="node">
<title>pytermor_util</title><style>.edge>path:hover{stroke-width:8}</style>
<ellipse fill="#3d8f3d" stroke="black" cx="244.2" cy="-162" rx="27" ry="18"/>
<text text-anchor="middle" x="244.2" y="-159.5" font-family="Helvetica,sans-Serif" font-size="10.00" fill="#ffffff">util</text>
</g>
<!-- pytermor_common&#45;&gt;pytermor_util -->
<g id="edge11" class="edge">
<title>pytermor_common&#45;&gt;pytermor_util</title><style>.edge>path:hover{stroke-width:8}</style>
<path fill="none" stroke="black" d="M437.9,-595.86C444.71,-582.02 453.6,-561.45 457.2,-542.28"/>
<path fill="none" stroke="black" d="M457.2,-540.28C462.45,-512.29 430.6,-514.16 421.2,-487.28 384.55,-382.48 439.25,-342.87 402.2,-238.21"/>
</g>
<!-- pytermor_text&#45;&gt;pytermor -->
<g id="edge12" class="edge">
<title>pytermor_text&#45;&gt;pytermor</title><style>.edge>path:hover{stroke-width:8}</style>
<path fill="none" stroke="black" d="M138.56,-72.41C135.33,-64.34 131.37,-54.43 127.74,-45.35"/>
<polygon fill="#439d43" stroke="black" points="130.95,-43.94 123.98,-35.96 124.45,-46.54 130.95,-43.94"/>
</g>
<!-- pytermor_util&#45;&gt;pytermor_text -->
<g id="edge13" class="edge">
<title>pytermor_util&#45;&gt;pytermor_text</title><style>.edge>path:hover{stroke-width:8}</style>
<path fill="none" stroke="black" d="M226.04,-148.16C210.83,-137.41 188.91,-121.91 171.73,-109.76"/>
<polygon fill="#3d8f3d" stroke="black" points="173.43,-106.67 163.24,-103.76 169.39,-112.39 173.43,-106.67"/>
</g>
<!-- pytermor_util_auto_float -->
<g id="node8" class="node">
<title>pytermor_util_auto_float</title><style>.edge>path:hover{stroke-width:8}</style>
<ellipse fill="#47c247" stroke="black" cx="327.2" cy="-315.64" rx="41.94" ry="21.43"/>
<text text-anchor="middle" x="327.2" y="-318.64" font-family="Helvetica,sans-Serif" font-size="10.00" fill="#000000">util.</text>
<text text-anchor="middle" x="327.2" y="-307.64" font-family="Helvetica,sans-Serif" font-size="10.00" fill="#000000">auto_float</text>
</g>
<!-- pytermor_util_auto_float&#45;&gt;pytermor_util -->
<g id="edge14" class="edge">
<title>pytermor_util_auto_float&#45;&gt;pytermor_util</title><style>.edge>path:hover{stroke-width:8}</style>
<path fill="none" stroke="black" d="M357.5,-301.02C382.29,-287.66 411.82,-265.38 402.2,-238.21"/>
<path fill="none" stroke="black" d="M402.2,-236.21C385.18,-188.13 321.98,-171.63 280.85,-165.96"/>
<polygon fill="#47c247" stroke="black" points="281.26,-162.49 270.91,-164.74 280.41,-169.43 281.26,-162.49"/>
</g>
<!-- pytermor_util_prefixed_unit -->
<g id="node9" class="node">
<title>pytermor_util_prefixed_unit</title><style>.edge>path:hover{stroke-width:8}</style>
<ellipse fill="#4cb34c" stroke="black" cx="323.2" cy="-237.21" rx="50.82" ry="21.43"/>
<text text-anchor="middle" x="323.2" y="-240.21" font-family="Helvetica,sans-Serif" font-size="10.00" fill="#000000">util.</text>
<text text-anchor="middle" x="323.2" y="-229.21" font-family="Helvetica,sans-Serif" font-size="10.00" fill="#000000">prefixed_unit</text>
</g>
<!-- pytermor_util_auto_float&#45;&gt;pytermor_util_prefixed_unit -->
<g id="edge15" class="edge">
<title>pytermor_util_auto_float&#45;&gt;pytermor_util_prefixed_unit</title><style>.edge>path:hover{stroke-width:8}</style>
<path fill="none" stroke="black" d="M326.13,-294.16C325.72,-286.3 325.24,-277.16 324.79,-268.57"/>
<polygon fill="#47c247" stroke="black" points="328.28,-268.29 324.26,-258.49 321.29,-268.65 328.28,-268.29"/>
</g>
<!-- pytermor_util_prefixed_unit&#45;&gt;pytermor_util -->
<g id="edge16" class="edge">
<title>pytermor_util_prefixed_unit&#45;&gt;pytermor_util</title><style>.edge>path:hover{stroke-width:8}</style>
<path fill="none" stroke="black" d="M302.85,-217.36C291.86,-207.17 278.25,-194.56 266.91,-184.05"/>
<polygon fill="#4cb34c" stroke="black" points="269.2,-181.4 259.48,-177.17 264.44,-186.53 269.2,-181.4"/>
</g>
<!-- pytermor_util_stdlib_ext -->
<g id="node10" class="node">
<title>pytermor_util_stdlib_ext</title><style>.edge>path:hover{stroke-width:8}</style>
<ellipse fill="#40c040" stroke="black" cx="174.2" cy="-315.64" rx="41.94" ry="21.43"/>
<text text-anchor="middle" x="174.2" y="-318.64" font-family="Helvetica,sans-Serif" font-size="10.00" fill="#000000">util.</text>
<text text-anchor="middle" x="174.2" y="-307.64" font-family="Helvetica,sans-Serif" font-size="10.00" fill="#000000">stdlib_ext</text>
</g>
<!-- pytermor_util_stdlib_ext&#45;&gt;pytermor_util -->
<g id="edge17" class="edge">
<title>pytermor_util_stdlib_ext&#45;&gt;pytermor_util</title><style>.edge>path:hover{stroke-width:8}</style>
<path fill="none" stroke="black" d="M199.2,-298.39C217.03,-284.86 238.76,-263.73 244.2,-238.21"/>
<path fill="none" stroke="black" d="M244.2,-236.21C247.38,-221.3 247.58,-204.29 246.89,-190.42"/>
<polygon fill="#40c040" stroke="black" points="250.36,-189.82 246.19,-180.08 243.37,-190.29 250.36,-189.82"/>
</g>
<!-- pytermor_util_time_delta -->
<g id="node12" class="node">
<title>pytermor_util_time_delta</title><style>.edge>path:hover{stroke-width:8}</style>
<ellipse fill="#4cb34c" stroke="black" cx="172.2" cy="-237.21" rx="43.68" ry="21.43"/>
<text text-anchor="middle" x="172.2" y="-240.21" font-family="Helvetica,sans-Serif" font-size="10.00" fill="#000000">util.</text>
<text text-anchor="middle" x="172.2" y="-229.21" font-family="Helvetica,sans-Serif" font-size="10.00" fill="#000000">time_delta</text>
</g>
<!-- pytermor_util_stdlib_ext&#45;&gt;pytermor_util_time_delta -->
<g id="edge18" class="edge">
<title>pytermor_util_stdlib_ext&#45;&gt;pytermor_util_time_delta</title><style>.edge>path:hover{stroke-width:8}</style>
<path fill="none" stroke="black" d="M173.66,-294.16C173.46,-286.3 173.22,-277.16 172.99,-268.57"/>
<polygon fill="#40c040" stroke="black" points="176.49,-268.39 172.73,-258.49 169.49,-268.57 176.49,-268.39"/>
</g>
<!-- pytermor_util_string_filter&#45;&gt;pytermor_util -->
<g id="edge19" class="edge">
<title>pytermor_util_string_filter&#45;&gt;pytermor_util</title><style>.edge>path:hover{stroke-width:8}</style>
<path fill="none" stroke="black" d="M195.32,-375.05C205.9,-364.89 217.95,-351.35 225.2,-336.85 245.16,-296.92 234.9,-281.88 244.2,-238.21"/>
</g>
<!-- pytermor_util_string_filter&#45;&gt;pytermor_util_stdlib_ext -->
<g id="edge20" class="edge">
<title>pytermor_util_string_filter&#45;&gt;pytermor_util_stdlib_ext</title><style>.edge>path:hover{stroke-width:8}</style>
<path fill="none" stroke="black" d="M174.2,-372.59C174.2,-364.73 174.2,-355.58 174.2,-346.99"/>
<polygon fill="#40c040" stroke="black" points="177.7,-346.91 174.2,-336.91 170.7,-346.91 177.7,-346.91"/>
</g>
<!-- pytermor_util_time_delta&#45;&gt;pytermor_util -->
<g id="edge21" class="edge">
<title>pytermor_util_time_delta&#45;&gt;pytermor_util</title><style>.edge>path:hover{stroke-width:8}</style>
<path fill="none" stroke="black" d="M190.37,-217.74C200.16,-207.78 212.3,-195.44 222.57,-184.99"/>
<polygon fill="#4cb34c" stroke="black" points="225.15,-187.37 229.66,-177.78 220.15,-182.46 225.15,-187.37"/>
</g>
</g>
</svg>
