<?xml version="1.0" encoding="UTF-8" standalone="no"?>
<!DOCTYPE svg PUBLIC "-//W3C//DTD SVG 1.1//EN"
 "http://www.w3.org/Graphics/SVG/1.1/DTD/svg11.dtd">
<!-- Generated by graphviz version 2.43.0 (0)
 -->
<!-- Title: G Pages: 1 -->
<svg width="384pt" height="548pt"
 viewBox="0.00 0.00 383.50 548.00" xmlns="http://www.w3.org/2000/svg" xmlns:xlink="http://www.w3.org/1999/xlink">
<g id="graph0" class="graph" transform="scale(1 1) rotate(0) translate(4 544)">
<title>G</title><style>.edge>path:hover{stroke-width:8}</style>
<polygon fill="white" stroke="transparent" points="-4,4 -4,-544 379.5,-544 379.5,4 -4,4"/>
<!-- pytermor -->
<g id="node1" class="node">
<title>pytermor</title><style>.edge>path:hover{stroke-width:8}</style>
<ellipse fill="#2e6b2e" stroke="black" cx="232" cy="-18" rx="32.25" ry="18"/>
<text text-anchor="middle" x="232" y="-15.5" font-family="Helvetica,sans-Serif" font-size="10.00" fill="#ffffff">pytermor</text>
</g>
<!-- pytermor__version -->
<g id="node2" class="node">
<title>pytermor__version</title><style>.edge>path:hover{stroke-width:8}</style>
<ellipse fill="#53b653" stroke="black" cx="47" cy="-90" rx="31.4" ry="18"/>
<text text-anchor="middle" x="47" y="-87.5" font-family="Helvetica,sans-Serif" font-size="10.00" fill="#000000">_version</text>
</g>
<!-- pytermor__version&#45;&gt;pytermor -->
<g id="edge1" class="edge">
<title>pytermor__version&#45;&gt;pytermor</title><style>.edge>path:hover{stroke-width:8}</style>
<path fill="none" stroke="black" d="M72.34,-79.41C104.45,-67.26 159.99,-46.25 196.36,-32.48"/>
<polygon fill="#53b653" stroke="black" points="197.96,-35.62 206.08,-28.81 195.49,-29.07 197.96,-35.62"/>
</g>
<!-- pytermor_ansi -->
<g id="node3" class="node">
<title>pytermor_ansi</title><style>.edge>path:hover{stroke-width:8}</style>
<ellipse fill="#26d926" stroke="black" cx="112" cy="-450" rx="27" ry="18"/>
<text text-anchor="middle" x="112" y="-447.5" font-family="Helvetica,sans-Serif" font-size="10.00" fill="#000000">ansi</text>
</g>
<!-- pytermor_ansi&#45;&gt;pytermor -->
<g id="edge2" class="edge">
<title>pytermor_ansi&#45;&gt;pytermor</title><style>.edge>path:hover{stroke-width:8}</style>
<path fill="none" stroke="black" d="M91.16,-438.51C71.48,-427.07 44.1,-406.63 38,-379"/>
<path fill="none" stroke="black" d="M38,-377C24.4,-315.37 14.79,-293.69 38,-235"/>
<path fill="none" stroke="black" d="M38,-233C53.69,-201.27 69.93,-197.87 76,-163"/>
</g>
<!-- pytermor_color -->
<g id="node4" class="node">
<title>pytermor_color</title><style>.edge>path:hover{stroke-width:8}</style>
<ellipse fill="#18dd18" stroke="black" cx="141" cy="-378" rx="27" ry="18"/>
<text text-anchor="middle" x="141" y="-375.5" font-family="Helvetica,sans-Serif" font-size="10.00" fill="#000000">color</text>
</g>
<!-- pytermor_ansi&#45;&gt;pytermor_color -->
<g id="edge3" class="edge">
<title>pytermor_ansi&#45;&gt;pytermor_color</title><style>.edge>path:hover{stroke-width:8}</style>
<path fill="none" stroke="black" d="M118.87,-432.41C122.27,-424.22 126.44,-414.14 130.25,-404.95"/>
<polygon fill="#26d926" stroke="black" points="133.58,-406.05 134.18,-395.47 127.12,-403.37 133.58,-406.05"/>
</g>
<!-- pytermor_cval -->
<g id="node6" class="node">
<title>pytermor_cval</title><style>.edge>path:hover{stroke-width:8}</style>
<ellipse fill="#3db83d" stroke="black" cx="93" cy="-306" rx="27" ry="18"/>
<text text-anchor="middle" x="93" y="-303.5" font-family="Helvetica,sans-Serif" font-size="10.00" fill="#000000">cval</text>
</g>
<!-- pytermor_ansi&#45;&gt;pytermor_cval -->
<g id="edge4" class="edge">
<title>pytermor_ansi&#45;&gt;pytermor_cval</title><style>.edge>path:hover{stroke-width:8}</style>
<path fill="none" stroke="black" d="M38,-377C33.44,-356.31 49.53,-337.7 65.47,-324.88"/>
<polygon fill="#26d926" stroke="black" points="67.78,-327.53 73.68,-318.73 63.58,-321.93 67.78,-327.53"/>
</g>
<!-- pytermor_renderer -->
<g id="node7" class="node">
<title>pytermor_renderer</title><style>.edge>path:hover{stroke-width:8}</style>
<ellipse fill="#35a135" stroke="black" cx="135" cy="-162" rx="30.72" ry="18"/>
<text text-anchor="middle" x="135" y="-159.5" font-family="Helvetica,sans-Serif" font-size="10.00" fill="#ffffff">renderer</text>
</g>
<!-- pytermor_ansi&#45;&gt;pytermor_renderer -->
<g id="edge5" class="edge">
<title>pytermor_ansi&#45;&gt;pytermor_renderer</title><style>.edge>path:hover{stroke-width:8}</style>
<path fill="none" stroke="black" d="M38,-233C48.74,-205.84 76.95,-187.4 100.2,-176.29"/>
<polygon fill="#26d926" stroke="black" points="101.79,-179.41 109.46,-172.11 98.91,-173.03 101.79,-179.41"/>
</g>
<!-- pytermor_color&#45;&gt;pytermor -->
<g id="edge6" class="edge">
<title>pytermor_color&#45;&gt;pytermor</title><style>.edge>path:hover{stroke-width:8}</style>
<path fill="none" stroke="black" d="M148.71,-360.66C155.01,-346.69 163.72,-325.91 169,-307"/>
<path fill="none" stroke="black" d="M169,-305C179.65,-266.89 128.86,-271.67 114,-235"/>
<path fill="none" stroke="black" d="M114,-233C100.71,-200.19 69.93,-197.87 76,-163"/>
</g>
<!-- pytermor_color&#45;&gt;pytermor_cval -->
<g id="edge7" class="edge">
<title>pytermor_color&#45;&gt;pytermor_cval</title><style>.edge>path:hover{stroke-width:8}</style>
<path fill="none" stroke="black" d="M130.11,-361.12C124.03,-352.26 116.34,-341.04 109.54,-331.12"/>
<polygon fill="#18dd18" stroke="black" points="112.39,-329.09 103.85,-322.82 106.62,-333.05 112.39,-329.09"/>
</g>
<!-- pytermor_color&#45;&gt;pytermor_renderer -->
<g id="edge8" class="edge">
<title>pytermor_color&#45;&gt;pytermor_renderer</title><style>.edge>path:hover{stroke-width:8}</style>
<path fill="none" stroke="black" d="M114,-233C108.1,-218.43 112.83,-201.56 119.28,-188.04"/>
<polygon fill="#18dd18" stroke="black" points="122.56,-189.33 124.16,-178.86 116.38,-186.05 122.56,-189.33"/>
</g>
<!-- pytermor_style -->
<g id="node8" class="node">
<title>pytermor_style</title><style>.edge>path:hover{stroke-width:8}</style>
<ellipse fill="#2db42d" stroke="black" cx="169" cy="-234" rx="27" ry="18"/>
<text text-anchor="middle" x="169" y="-231.5" font-family="Helvetica,sans-Serif" font-size="10.00" fill="#ffffff">style</text>
</g>
<!-- pytermor_color&#45;&gt;pytermor_style -->
<g id="edge9" class="edge">
<title>pytermor_color&#45;&gt;pytermor_style</title><style>.edge>path:hover{stroke-width:8}</style>
<path fill="none" stroke="black" d="M169,-305C172.83,-291.28 173.16,-275.46 172.38,-262.33"/>
<polygon fill="#18dd18" stroke="black" points="175.84,-261.71 171.52,-252.04 168.87,-262.29 175.84,-261.71"/>
</g>
<!-- pytermor_text -->
<g id="node9" class="node">
<title>pytermor_text</title><style>.edge>path:hover{stroke-width:8}</style>
<ellipse fill="#3d8f3d" stroke="black" cx="205" cy="-90" rx="27" ry="18"/>
<text text-anchor="middle" x="205" y="-87.5" font-family="Helvetica,sans-Serif" font-size="10.00" fill="#ffffff">text</text>
</g>
<!-- pytermor_color&#45;&gt;pytermor_text -->
<g id="edge10" class="edge">
<title>pytermor_color&#45;&gt;pytermor_text</title><style>.edge>path:hover{stroke-width:8}</style>
<path fill="none" stroke="black" d="M169,-305C182.92,-255.18 247.37,-284.62 262,-235"/>
<path fill="none" stroke="black" d="M262,-233C270.8,-203.16 269.63,-193.16 262,-163"/>
</g>
<!-- pytermor_common -->
<g id="node5" class="node">
<title>pytermor_common</title><style>.edge>path:hover{stroke-width:8}</style>
<ellipse fill="#10f910" stroke="black" cx="112" cy="-522" rx="31.58" ry="18"/>
<text text-anchor="middle" x="112" y="-519.5" font-family="Helvetica,sans-Serif" font-size="10.00" fill="#000000">common</text>
</g>
<!-- pytermor_common&#45;&gt;pytermor -->
<g id="edge11" class="edge">
<title>pytermor_common&#45;&gt;pytermor</title><style>.edge>path:hover{stroke-width:8}</style>
<path fill="none" stroke="black" d="M91.46,-508.05C59.12,-485.9 0,-437.4 0,-379 0,-379 0,-379 0,-305 0,-264.03 3.66,-251.56 24,-216 40.39,-187.36 70.34,-195.51 76,-163"/>
<path fill="none" stroke="black" d="M76,-161C81.07,-127.53 88.91,-120.22 106,-91"/>
<path fill="none" stroke="black" d="M106,-89C124.62,-57.17 163.54,-38.79 193.23,-28.93"/>
<polygon fill="#10f910" stroke="black" points="194.41,-32.23 202.91,-25.9 192.32,-25.55 194.41,-32.23"/>
</g>
<!-- pytermor_common&#45;&gt;pytermor_ansi -->
<g id="edge12" class="edge">
<title>pytermor_common&#45;&gt;pytermor_ansi</title><style>.edge>path:hover{stroke-width:8}</style>
<path fill="none" stroke="black" d="M112,-503.7C112,-495.98 112,-486.71 112,-478.11"/>
<polygon fill="#10f910" stroke="black" points="115.5,-478.1 112,-468.1 108.5,-478.1 115.5,-478.1"/>
</g>
<!-- pytermor_common&#45;&gt;pytermor_color -->
<g id="edge13" class="edge">
<title>pytermor_common&#45;&gt;pytermor_color</title><style>.edge>path:hover{stroke-width:8}</style>
<path fill="none" stroke="black" d="M143.67,-519.25C184.44,-514.99 251.35,-500.44 262,-451"/>
<path fill="none" stroke="black" d="M262,-449C270.56,-409.25 216.1,-391.55 177.43,-384.06"/>
<polygon fill="#10f910" stroke="black" points="177.96,-380.6 167.5,-382.29 176.73,-387.49 177.96,-380.6"/>
</g>
<!-- pytermor_common&#45;&gt;pytermor_renderer -->
<g id="edge14" class="edge">
<title>pytermor_common&#45;&gt;pytermor_renderer</title><style>.edge>path:hover{stroke-width:8}</style>
<path fill="none" stroke="black" d="M262,-305C251.65,-249.49 198.61,-204.86 164.43,-181.29"/>
<polygon fill="#10f910" stroke="black" points="166.02,-178.14 155.76,-175.48 162.12,-183.95 166.02,-178.14"/>
</g>
<!-- pytermor_common&#45;&gt;pytermor_style -->
<g id="edge15" class="edge">
<title>pytermor_common&#45;&gt;pytermor_style</title><style>.edge>path:hover{stroke-width:8}</style>
<path fill="none" stroke="black" d="M262,-449C275.29,-387.3 270.12,-369.59 262,-307"/>
<path fill="none" stroke="black" d="M262,-305C259.08,-289.36 224.58,-266.48 198.45,-251.18"/>
<polygon fill="#10f910" stroke="black" points="200.03,-248.06 189.61,-246.11 196.54,-254.13 200.03,-248.06"/>
</g>
<!-- pytermor_common&#45;&gt;pytermor_text -->
<g id="edge16" class="edge">
<title>pytermor_common&#45;&gt;pytermor_text</title><style>.edge>path:hover{stroke-width:8}</style>
<path fill="none" stroke="black" d="M262,-305C256.3,-274.42 253.2,-264.84 262,-235"/>
</g>
<!-- pytermor_utilstr -->
<g id="node11" class="node">
<title>pytermor_utilstr</title><style>.edge>path:hover{stroke-width:8}</style>
<ellipse fill="#26d926" stroke="black" cx="317" cy="-234" rx="27" ry="18"/>
<text text-anchor="middle" x="317" y="-231.5" font-family="Helvetica,sans-Serif" font-size="10.00" fill="#000000">utilstr</text>
</g>
<!-- pytermor_common&#45;&gt;pytermor_utilstr -->
<g id="edge17" class="edge">
<title>pytermor_common&#45;&gt;pytermor_utilstr</title><style>.edge>path:hover{stroke-width:8}</style>
<path fill="none" stroke="black" d="M262,-305C258.14,-284.3 273.97,-265.8 289.62,-253.03"/>
<polygon fill="#10f910" stroke="black" points="291.85,-255.74 297.69,-246.89 287.61,-250.17 291.85,-255.74"/>
</g>
<!-- pytermor_cval&#45;&gt;pytermor -->
<g id="edge18" class="edge">
<title>pytermor_cval&#45;&gt;pytermor</title><style>.edge>path:hover{stroke-width:8}</style>
<path fill="none" stroke="black" d="M87.85,-288.3C80.34,-261.67 68.1,-208 76,-163"/>
</g>
<!-- pytermor_cval&#45;&gt;pytermor_style -->
<g id="edge19" class="edge">
<title>pytermor_cval&#45;&gt;pytermor_style</title><style>.edge>path:hover{stroke-width:8}</style>
<path fill="none" stroke="black" d="M108.38,-290.83C119.2,-280.87 133.86,-267.37 146.05,-256.14"/>
<polygon fill="#3db83d" stroke="black" points="148.66,-258.49 153.64,-249.14 143.92,-253.34 148.66,-258.49"/>
</g>
<!-- pytermor_renderer&#45;&gt;pytermor -->
<g id="edge20" class="edge">
<title>pytermor_renderer&#45;&gt;pytermor</title><style>.edge>path:hover{stroke-width:8}</style>
<path fill="none" stroke="black" d="M120.89,-145.97C109.01,-131.4 95.51,-108.94 106,-91"/>
</g>
<!-- pytermor_renderer&#45;&gt;pytermor_text -->
<g id="edge21" class="edge">
<title>pytermor_renderer&#45;&gt;pytermor_text</title><style>.edge>path:hover{stroke-width:8}</style>
<path fill="none" stroke="black" d="M149.85,-146.15C159.63,-136.37 172.6,-123.4 183.5,-112.5"/>
<polygon fill="#35a135" stroke="black" points="186.06,-114.89 190.65,-105.35 181.11,-109.94 186.06,-114.89"/>
</g>
<!-- pytermor_style&#45;&gt;pytermor -->
<g id="edge22" class="edge">
<title>pytermor_style&#45;&gt;pytermor</title><style>.edge>path:hover{stroke-width:8}</style>
<path fill="none" stroke="black" d="M147.97,-222.65C119.59,-207.94 72.87,-180.81 76,-163"/>
</g>
<!-- pytermor_style&#45;&gt;pytermor_renderer -->
<g id="edge23" class="edge">
<title>pytermor_style&#45;&gt;pytermor_renderer</title><style>.edge>path:hover{stroke-width:8}</style>
<path fill="none" stroke="black" d="M161.11,-216.76C157.1,-208.49 152.11,-198.23 147.58,-188.9"/>
<polygon fill="#2db42d" stroke="black" points="150.6,-187.1 143.08,-179.63 144.3,-190.16 150.6,-187.1"/>
</g>
<!-- pytermor_style&#45;&gt;pytermor_text -->
<g id="edge24" class="edge">
<title>pytermor_style&#45;&gt;pytermor_text</title><style>.edge>path:hover{stroke-width:8}</style>
<path fill="none" stroke="black" d="M193.91,-226.63C224.29,-217.29 270.65,-197.19 262,-163"/>
<path fill="none" stroke="black" d="M262,-161C257.02,-141.31 242.48,-123.62 229.33,-110.95"/>
<polygon fill="#2db42d" stroke="black" points="231.58,-108.26 221.83,-104.09 226.85,-113.42 231.58,-108.26"/>
</g>
<!-- pytermor_text&#45;&gt;pytermor -->
<g id="edge25" class="edge">
<title>pytermor_text&#45;&gt;pytermor</title><style>.edge>path:hover{stroke-width:8}</style>
<path fill="none" stroke="black" d="M211.4,-72.41C214.51,-64.34 218.33,-54.43 221.83,-45.35"/>
<polygon fill="#3d8f3d" stroke="black" points="225.13,-46.55 225.46,-35.96 218.6,-44.03 225.13,-46.55"/>
</g>
<!-- pytermor_utilnum -->
<g id="node10" class="node">
<title>pytermor_utilnum</title><style>.edge>path:hover{stroke-width:8}</style>
<ellipse fill="#4cb34c" stroke="black" cx="316" cy="-90" rx="28.01" ry="18"/>
<text text-anchor="middle" x="316" y="-87.5" font-family="Helvetica,sans-Serif" font-size="10.00" fill="#000000">utilnum</text>
</g>
<!-- pytermor_utilnum&#45;&gt;pytermor -->
<g id="edge26" class="edge">
<title>pytermor_utilnum&#45;&gt;pytermor</title><style>.edge>path:hover{stroke-width:8}</style>
<path fill="none" stroke="black" d="M299.4,-75.17C287.25,-65.04 270.56,-51.13 256.83,-39.69"/>
<polygon fill="#4cb34c" stroke="black" points="259.06,-36.99 249.14,-33.28 254.58,-42.37 259.06,-36.99"/>
</g>
<!-- pytermor_utilstr&#45;&gt;pytermor -->
<g id="edge27" class="edge">
<title>pytermor_utilstr&#45;&gt;pytermor</title><style>.edge>path:hover{stroke-width:8}</style>
<path fill="none" stroke="black" d="M372,-161C377.67,-120.95 378.56,-103.34 353,-72 332.95,-47.42 299.24,-33.92 272.48,-26.72"/>
<polygon fill="#26d926" stroke="black" points="273.16,-23.28 262.61,-24.25 271.47,-30.07 273.16,-23.28"/>
</g>
<!-- pytermor_utilstr&#45;&gt;pytermor_renderer -->
<g id="edge28" class="edge">
<title>pytermor_utilstr&#45;&gt;pytermor_renderer</title><style>.edge>path:hover{stroke-width:8}</style>
<path fill="none" stroke="black" d="M293.95,-224.13C262.56,-212.06 206.12,-190.35 169.63,-176.32"/>
<polygon fill="#26d926" stroke="black" points="170.49,-172.9 159.9,-172.58 167.98,-179.43 170.49,-172.9"/>
</g>
<!-- pytermor_utilstr&#45;&gt;pytermor_text -->
<g id="edge29" class="edge">
<title>pytermor_utilstr&#45;&gt;pytermor_text</title><style>.edge>path:hover{stroke-width:8}</style>
<path fill="none" stroke="black" d="M300.54,-219.51C286.55,-206.72 267.84,-186.07 262,-163"/>
</g>
<!-- pytermor_utilstr&#45;&gt;pytermor_utilnum -->
<g id="edge30" class="edge">
<title>pytermor_utilstr&#45;&gt;pytermor_utilnum</title><style>.edge>path:hover{stroke-width:8}</style>
<path fill="none" stroke="black" d="M334.36,-219.99C349.19,-207.38 368.64,-186.72 372,-163"/>
<path fill="none" stroke="black" d="M372,-161C374.94,-140.27 359.32,-121.99 343.84,-109.32"/>
<polygon fill="#26d926" stroke="black" points="345.92,-106.51 335.85,-103.22 341.67,-112.07 345.92,-106.51"/>
</g>
<!-- pytermor_utilsys -->
<g id="node12" class="node">
<title>pytermor_utilsys</title><style>.edge>path:hover{stroke-width:8}</style>
<ellipse fill="#47c247" stroke="black" cx="317" cy="-162" rx="27" ry="18"/>
<text text-anchor="middle" x="317" y="-159.5" font-family="Helvetica,sans-Serif" font-size="10.00" fill="#000000">utilsys</text>
</g>
<!-- pytermor_utilsys&#45;&gt;pytermor -->
<g id="edge31" class="edge">
<title>pytermor_utilsys&#45;&gt;pytermor</title><style>.edge>path:hover{stroke-width:8}</style>
<path fill="none" stroke="black" d="M305.12,-145.61C297.32,-135.23 287.1,-121.1 279,-108 266.28,-87.44 253.58,-63.1 244.59,-45.08"/>
<polygon fill="#47c247" stroke="black" points="247.57,-43.2 240.01,-35.78 241.29,-46.3 247.57,-43.2"/>
</g>
<!-- pytermor_utilsys&#45;&gt;pytermor_text -->
<g id="edge32" class="edge">
<title>pytermor_utilsys&#45;&gt;pytermor_text</title><style>.edge>path:hover{stroke-width:8}</style>
<path fill="none" stroke="black" d="M298,-149.13C280.06,-137.91 252.95,-120.97 232.62,-108.26"/>
<polygon fill="#47c247" stroke="black" points="234.43,-105.26 224.09,-102.93 230.72,-111.2 234.43,-105.26"/>
</g>
</g>
</svg>
