<?xml version="1.0" encoding="UTF-8" standalone="no"?>
<!DOCTYPE svg PUBLIC "-//W3C//DTD SVG 1.1//EN"
 "http://www.w3.org/Graphics/SVG/1.1/DTD/svg11.dtd">
<!-- Generated by graphviz version 2.43.0 (0)
 -->
<!-- Title: G Pages: 1 -->
<svg width="514pt" height="423pt"
 viewBox="0.00 0.00 514.00 423.28" xmlns="http://www.w3.org/2000/svg" xmlns:xlink="http://www.w3.org/1999/xlink">
<g id="graph0" class="graph" transform="scale(1 1) rotate(0) translate(4 419.28)">
<title>G</title><style>.edge>path:hover{stroke-width:8}</style>
<polygon fill="white" stroke="transparent" points="-4,4 -4,-419.28 510,-419.28 510,4 -4,4"/>
<!-- pytermor -->
<g id="node1" class="node">
<title>pytermor</title><style>.edge>path:hover{stroke-width:8}</style>
<ellipse fill="#409640" stroke="black" cx="117.2" cy="-18" rx="32.25" ry="18"/>
<text text-anchor="middle" x="117.2" y="-15.5" font-family="Helvetica,sans-Serif" font-size="10.00" fill="#ffffff">pytermor</text>
</g>
<!-- pytermor__version -->
<g id="node2" class="node">
<title>pytermor__version</title><style>.edge>path:hover{stroke-width:8}</style>
<ellipse fill="#53b653" stroke="black" cx="31.2" cy="-90" rx="31.4" ry="18"/>
<text text-anchor="middle" x="31.2" y="-87.5" font-family="Helvetica,sans-Serif" font-size="10.00" fill="#000000">_version</text>
</g>
<!-- pytermor__version&#45;&gt;pytermor -->
<g id="edge1" class="edge">
<title>pytermor__version&#45;&gt;pytermor</title><style>.edge>path:hover{stroke-width:8}</style>
<path fill="none" stroke="black" d="M48.6,-74.83C60.99,-64.75 77.84,-51.03 91.74,-39.72"/>
<polygon fill="#53b653" stroke="black" points="93.98,-42.41 99.53,-33.38 89.56,-36.98 93.98,-42.41"/>
</g>
<!-- pytermor_ansi -->
<g id="node3" class="node">
<title>pytermor_ansi</title><style>.edge>path:hover{stroke-width:8}</style>
<ellipse fill="#3bce3b" stroke="black" cx="79.2" cy="-237.21" rx="27" ry="18"/>
<text text-anchor="middle" x="79.2" y="-234.71" font-family="Helvetica,sans-Serif" font-size="10.00" fill="#000000">ansi</text>
</g>
<!-- pytermor_ansi&#45;&gt;pytermor -->
<g id="edge2" class="edge">
<title>pytermor_ansi&#45;&gt;pytermor</title><style>.edge>path:hover{stroke-width:8}</style>
<path fill="none" stroke="black" d="M80.73,-219.14C82.32,-204.17 85.27,-181.91 90.2,-163"/>
<path fill="none" stroke="black" d="M90.2,-161C98.05,-130.9 90.29,-122.11 90.2,-91"/>
<path fill="none" stroke="black" d="M90.2,-89C90.15,-73.53 95.96,-57.36 102.2,-44.45"/>
<polygon fill="#3bce3b" stroke="black" points="105.45,-45.78 106.96,-35.29 99.24,-42.55 105.45,-45.78"/>
</g>
<!-- pytermor_color -->
<g id="node4" class="node">
<title>pytermor_color</title><style>.edge>path:hover{stroke-width:8}</style>
<ellipse fill="#3db83d" stroke="black" cx="145.2" cy="-162" rx="27" ry="18"/>
<text text-anchor="middle" x="145.2" y="-159.5" font-family="Helvetica,sans-Serif" font-size="10.00" fill="#000000">color</text>
</g>
<!-- pytermor_ansi&#45;&gt;pytermor_color -->
<g id="edge3" class="edge">
<title>pytermor_ansi&#45;&gt;pytermor_color</title><style>.edge>path:hover{stroke-width:8}</style>
<path fill="none" stroke="black" d="M92.56,-221.4C101.86,-211.08 114.44,-197.12 124.97,-185.44"/>
<polygon fill="#3bce3b" stroke="black" points="127.77,-187.56 131.86,-177.79 122.57,-182.88 127.77,-187.56"/>
</g>
<!-- pytermor_text -->
<g id="node6" class="node">
<title>pytermor_text</title><style>.edge>path:hover{stroke-width:8}</style>
<ellipse fill="#409640" stroke="black" cx="145.2" cy="-90" rx="27" ry="18"/>
<text text-anchor="middle" x="145.2" y="-87.5" font-family="Helvetica,sans-Serif" font-size="10.00" fill="#ffffff">text</text>
</g>
<!-- pytermor_ansi&#45;&gt;pytermor_text -->
<g id="edge4" class="edge">
<title>pytermor_ansi&#45;&gt;pytermor_text</title><style>.edge>path:hover{stroke-width:8}</style>
<path fill="none" stroke="black" d="M90.2,-161C95.17,-141.93 108.84,-124.49 121.3,-111.78"/>
<polygon fill="#3bce3b" stroke="black" points="124.07,-113.98 128.82,-104.51 119.2,-108.95 124.07,-113.98"/>
</g>
<!-- pytermor_color&#45;&gt;pytermor -->
<g id="edge5" class="edge">
<title>pytermor_color&#45;&gt;pytermor</title><style>.edge>path:hover{stroke-width:8}</style>
<path fill="none" stroke="black" d="M126.92,-148.58C110.94,-136.1 90.27,-115.26 90.2,-91"/>
</g>
<!-- pytermor_color&#45;&gt;pytermor_text -->
<g id="edge6" class="edge">
<title>pytermor_color&#45;&gt;pytermor_text</title><style>.edge>path:hover{stroke-width:8}</style>
<path fill="none" stroke="black" d="M145.2,-143.7C145.2,-135.98 145.2,-126.71 145.2,-118.11"/>
<polygon fill="#3db83d" stroke="black" points="148.7,-118.1 145.2,-108.1 141.7,-118.1 148.7,-118.1"/>
</g>
<!-- pytermor_common -->
<g id="node5" class="node">
<title>pytermor_common</title><style>.edge>path:hover{stroke-width:8}</style>
<ellipse fill="#3bce3b" stroke="black" cx="156.2" cy="-237.21" rx="31.58" ry="18"/>
<text text-anchor="middle" x="156.2" y="-234.71" font-family="Helvetica,sans-Serif" font-size="10.00" fill="#000000">common</text>
</g>
<!-- pytermor_common&#45;&gt;pytermor_color -->
<g id="edge7" class="edge">
<title>pytermor_common&#45;&gt;pytermor_color</title><style>.edge>path:hover{stroke-width:8}</style>
<path fill="none" stroke="black" d="M153.65,-219.23C152.35,-210.61 150.75,-199.92 149.28,-190.19"/>
<polygon fill="#3bce3b" stroke="black" points="152.72,-189.51 147.77,-180.14 145.8,-190.55 152.72,-189.51"/>
</g>
<!-- pytermor_common&#45;&gt;pytermor_text -->
<g id="edge8" class="edge">
<title>pytermor_common&#45;&gt;pytermor_text</title><style>.edge>path:hover{stroke-width:8}</style>
<path fill="none" stroke="black" d="M166.3,-219.79C176.38,-201.28 189.29,-170.32 181.2,-144 177.91,-133.31 171.66,-122.85 165.27,-114.08"/>
<polygon fill="#3bce3b" stroke="black" points="167.85,-111.69 158.95,-105.93 162.31,-115.98 167.85,-111.69"/>
</g>
<!-- pytermor_util -->
<g id="node7" class="node">
<title>pytermor_util</title><style>.edge>path:hover{stroke-width:8}</style>
<ellipse fill="#339933" stroke="black" cx="295.2" cy="-162" rx="27" ry="18"/>
<text text-anchor="middle" x="295.2" y="-159.5" font-family="Helvetica,sans-Serif" font-size="10.00" fill="#ffffff">util</text>
</g>
<!-- pytermor_common&#45;&gt;pytermor_util -->
<g id="edge9" class="edge">
<title>pytermor_common&#45;&gt;pytermor_util</title><style>.edge>path:hover{stroke-width:8}</style>
<path fill="none" stroke="black" d="M178.84,-224.29C202.41,-211.87 239.44,-192.37 265.38,-178.71"/>
<polygon fill="#3bce3b" stroke="black" points="267.17,-181.72 274.38,-173.96 263.91,-175.53 267.17,-181.72"/>
</g>
<!-- pytermor_text&#45;&gt;pytermor -->
<g id="edge10" class="edge">
<title>pytermor_text&#45;&gt;pytermor</title><style>.edge>path:hover{stroke-width:8}</style>
<path fill="none" stroke="black" d="M138.56,-72.41C135.33,-64.34 131.37,-54.43 127.74,-45.35"/>
<polygon fill="#409640" stroke="black" points="130.95,-43.94 123.98,-35.96 124.45,-46.54 130.95,-43.94"/>
</g>
<!-- pytermor_util&#45;&gt;pytermor -->
<g id="edge11" class="edge">
<title>pytermor_util&#45;&gt;pytermor</title><style>.edge>path:hover{stroke-width:8}</style>
<path fill="none" stroke="black" d="M278.45,-147.64C247.24,-122.74 179.96,-69.07 142.94,-39.53"/>
<polygon fill="#339933" stroke="black" points="145.08,-36.77 135.08,-33.27 140.72,-42.24 145.08,-36.77"/>
</g>
<!-- pytermor_util&#45;&gt;pytermor_text -->
<g id="edge12" class="edge">
<title>pytermor_util&#45;&gt;pytermor_text</title><style>.edge>path:hover{stroke-width:8}</style>
<path fill="none" stroke="black" d="M273.71,-150.97C248.09,-139.02 205.09,-118.95 175.95,-105.35"/>
<polygon fill="#339933" stroke="black" points="177.19,-102.07 166.65,-101.01 174.23,-108.41 177.19,-102.07"/>
</g>
<!-- pytermor_util_auto_float -->
<g id="node8" class="node">
<title>pytermor_util_auto_float</title><style>.edge>path:hover{stroke-width:8}</style>
<ellipse fill="#47c247" stroke="black" cx="256.2" cy="-315.64" rx="41.94" ry="21.43"/>
<text text-anchor="middle" x="256.2" y="-318.64" font-family="Helvetica,sans-Serif" font-size="10.00" fill="#000000">util.</text>
<text text-anchor="middle" x="256.2" y="-307.64" font-family="Helvetica,sans-Serif" font-size="10.00" fill="#000000">auto_float</text>
</g>
<!-- pytermor_util_auto_float&#45;&gt;pytermor_util -->
<g id="edge13" class="edge">
<title>pytermor_util_auto_float&#45;&gt;pytermor_util</title><style>.edge>path:hover{stroke-width:8}</style>
<path fill="none" stroke="black" d="M245.07,-294.97C235.05,-274.49 223.54,-241.86 235.2,-216 241.84,-201.28 254.81,-189 267,-179.99"/>
<polygon fill="#47c247" stroke="black" points="269.01,-182.85 275.22,-174.27 265.01,-177.1 269.01,-182.85"/>
</g>
<!-- pytermor_util_prefixed_unit -->
<g id="node9" class="node">
<title>pytermor_util_prefixed_unit</title><style>.edge>path:hover{stroke-width:8}</style>
<ellipse fill="#4cb34c" stroke="black" cx="295.2" cy="-237.21" rx="50.82" ry="21.43"/>
<text text-anchor="middle" x="295.2" y="-240.21" font-family="Helvetica,sans-Serif" font-size="10.00" fill="#000000">util.</text>
<text text-anchor="middle" x="295.2" y="-229.21" font-family="Helvetica,sans-Serif" font-size="10.00" fill="#000000">prefixed_unit</text>
</g>
<!-- pytermor_util_auto_float&#45;&gt;pytermor_util_prefixed_unit -->
<g id="edge14" class="edge">
<title>pytermor_util_auto_float&#45;&gt;pytermor_util_prefixed_unit</title><style>.edge>path:hover{stroke-width:8}</style>
<path fill="none" stroke="black" d="M266.24,-294.96C270.58,-286.47 275.73,-276.36 280.48,-267.05"/>
<polygon fill="#47c247" stroke="black" points="283.63,-268.59 285.05,-258.09 277.39,-265.41 283.63,-268.59"/>
</g>
<!-- pytermor_util_prefixed_unit&#45;&gt;pytermor_util -->
<g id="edge15" class="edge">
<title>pytermor_util_prefixed_unit&#45;&gt;pytermor_util</title><style>.edge>path:hover{stroke-width:8}</style>
<path fill="none" stroke="black" d="M295.2,-215.82C295.2,-207.97 295.2,-198.86 295.2,-190.45"/>
<polygon fill="#4cb34c" stroke="black" points="298.7,-190.31 295.2,-180.31 291.7,-190.31 298.7,-190.31"/>
</g>
<!-- pytermor_util_stdlib_ext -->
<g id="node10" class="node">
<title>pytermor_util_stdlib_ext</title><style>.edge>path:hover{stroke-width:8}</style>
<ellipse fill="#40c040" stroke="black" cx="446.2" cy="-315.64" rx="41.94" ry="21.43"/>
<text text-anchor="middle" x="446.2" y="-318.64" font-family="Helvetica,sans-Serif" font-size="10.00" fill="#000000">util.</text>
<text text-anchor="middle" x="446.2" y="-307.64" font-family="Helvetica,sans-Serif" font-size="10.00" fill="#000000">stdlib_ext</text>
</g>
<!-- pytermor_util_stdlib_ext&#45;&gt;pytermor_util -->
<g id="edge16" class="edge">
<title>pytermor_util_stdlib_ext&#45;&gt;pytermor_util</title><style>.edge>path:hover{stroke-width:8}</style>
<path fill="none" stroke="black" d="M467.37,-297.21C489.76,-276.65 519.3,-241.99 499.2,-216 478.89,-189.75 384.93,-174.09 331.89,-167.19"/>
<polygon fill="#40c040" stroke="black" points="332.23,-163.7 321.87,-165.93 331.35,-170.65 332.23,-163.7"/>
</g>
<!-- pytermor_util_time_delta -->
<g id="node12" class="node">
<title>pytermor_util_time_delta</title><style>.edge>path:hover{stroke-width:8}</style>
<ellipse fill="#4cb34c" stroke="black" cx="446.2" cy="-237.21" rx="43.68" ry="21.43"/>
<text text-anchor="middle" x="446.2" y="-240.21" font-family="Helvetica,sans-Serif" font-size="10.00" fill="#000000">util.</text>
<text text-anchor="middle" x="446.2" y="-229.21" font-family="Helvetica,sans-Serif" font-size="10.00" fill="#000000">time_delta</text>
</g>
<!-- pytermor_util_stdlib_ext&#45;&gt;pytermor_util_time_delta -->
<g id="edge17" class="edge">
<title>pytermor_util_stdlib_ext&#45;&gt;pytermor_util_time_delta</title><style>.edge>path:hover{stroke-width:8}</style>
<path fill="none" stroke="black" d="M446.2,-294.16C446.2,-286.3 446.2,-277.16 446.2,-268.57"/>
<polygon fill="#40c040" stroke="black" points="449.7,-268.49 446.2,-258.49 442.7,-268.49 449.7,-268.49"/>
</g>
<!-- pytermor_util_string_filter -->
<g id="node11" class="node">
<title>pytermor_util_string_filter</title><style>.edge>path:hover{stroke-width:8}</style>
<ellipse fill="#47c247" stroke="black" cx="410.2" cy="-394.07" rx="45.92" ry="21.43"/>
<text text-anchor="middle" x="410.2" y="-397.07" font-family="Helvetica,sans-Serif" font-size="10.00" fill="#000000">util.</text>
<text text-anchor="middle" x="410.2" y="-386.07" font-family="Helvetica,sans-Serif" font-size="10.00" fill="#000000">string_filter</text>
</g>
<!-- pytermor_util_string_filter&#45;&gt;pytermor_util -->
<g id="edge18" class="edge">
<title>pytermor_util_string_filter&#45;&gt;pytermor_util</title><style>.edge>path:hover{stroke-width:8}</style>
<path fill="none" stroke="black" d="M404.62,-372.97C392.45,-329.48 363.92,-229.48 355.2,-216 346.57,-202.67 333.69,-190.68 322.08,-181.49"/>
<polygon fill="#47c247" stroke="black" points="324,-178.56 313.92,-175.31 319.78,-184.14 324,-178.56"/>
</g>
<!-- pytermor_util_string_filter&#45;&gt;pytermor_util_stdlib_ext -->
<g id="edge19" class="edge">
<title>pytermor_util_string_filter&#45;&gt;pytermor_util_stdlib_ext</title><style>.edge>path:hover{stroke-width:8}</style>
<path fill="none" stroke="black" d="M419.66,-372.99C423.58,-364.65 428.22,-354.81 432.51,-345.71"/>
<polygon fill="#47c247" stroke="black" points="435.71,-347.12 436.8,-336.59 429.38,-344.14 435.71,-347.12"/>
</g>
<!-- pytermor_util_time_delta&#45;&gt;pytermor_util -->
<g id="edge20" class="edge">
<title>pytermor_util_time_delta&#45;&gt;pytermor_util</title><style>.edge>path:hover{stroke-width:8}</style>
<path fill="none" stroke="black" d="M416,-221.57C389.79,-208.86 352.01,-190.55 325.7,-177.79"/>
<polygon fill="#4cb34c" stroke="black" points="327.1,-174.58 316.57,-173.36 324.05,-180.88 327.1,-174.58"/>
</g>
</g>
</svg>
