<?xml version="1.0" encoding="UTF-8" standalone="no"?>
<!DOCTYPE svg PUBLIC "-//W3C//DTD SVG 1.1//EN"
 "http://www.w3.org/Graphics/SVG/1.1/DTD/svg11.dtd">
<!-- Generated by graphviz version 2.43.0 (0)
 -->
<!-- Title: G Pages: 1 -->
<svg width="380pt" height="548pt"
 viewBox="0.00 0.00 379.55 548.00" xmlns="http://www.w3.org/2000/svg" xmlns:xlink="http://www.w3.org/1999/xlink">
<g id="graph0" class="graph" transform="scale(1 1) rotate(0) translate(4 544)">
<title>G</title><style>.edge>path:hover{stroke-width:8}</style>
<polygon fill="white" stroke="transparent" points="-4,4 -4,-544 375.55,-544 375.55,4 -4,4"/>
<!-- pytermor -->
<g id="node1" class="node">
<title>pytermor</title><style>.edge>path:hover{stroke-width:8}</style>
<ellipse fill="#267326" stroke="black" cx="227.04" cy="-18" rx="32.25" ry="18"/>
<text text-anchor="middle" x="227.04" y="-15.5" font-family="Helvetica,sans-Serif" font-size="10.00" fill="#ffffff">pytermor</text>
</g>
<!-- pytermor__version -->
<g id="node2" class="node">
<title>pytermor__version</title><style>.edge>path:hover{stroke-width:8}</style>
<ellipse fill="#53b653" stroke="black" cx="43.04" cy="-90" rx="31.4" ry="18"/>
<text text-anchor="middle" x="43.04" y="-87.5" font-family="Helvetica,sans-Serif" font-size="10.00" fill="#000000">_version</text>
</g>
<!-- pytermor__version&#45;&gt;pytermor -->
<g id="edge1" class="edge">
<title>pytermor__version&#45;&gt;pytermor</title><style>.edge>path:hover{stroke-width:8}</style>
<path fill="none" stroke="black" d="M68.62,-79.27C100.57,-67.11 155.41,-46.25 191.44,-32.54"/>
<polygon fill="#53b653" stroke="black" points="192.97,-35.7 201.07,-28.88 190.48,-29.16 192.97,-35.7"/>
</g>
<!-- pytermor_ansi -->
<g id="node3" class="node">
<title>pytermor_ansi</title><style>.edge>path:hover{stroke-width:8}</style>
<ellipse fill="#26d926" stroke="black" cx="72.04" cy="-450" rx="27" ry="18"/>
<text text-anchor="middle" x="72.04" y="-447.5" font-family="Helvetica,sans-Serif" font-size="10.00" fill="#000000">ansi</text>
</g>
<!-- pytermor_ansi&#45;&gt;pytermor -->
<g id="edge2" class="edge">
<title>pytermor_ansi&#45;&gt;pytermor</title><style>.edge>path:hover{stroke-width:8}</style>
<path fill="none" stroke="black" d="M54.71,-435.98C39.91,-423.37 20.47,-402.71 17.04,-379"/>
<path fill="none" stroke="black" d="M17.04,-377C12.58,-346.21 8.23,-336.84 17.04,-307"/>
</g>
<!-- pytermor_color -->
<g id="node4" class="node">
<title>pytermor_color</title><style>.edge>path:hover{stroke-width:8}</style>
<ellipse fill="#19e619" stroke="black" cx="72.04" cy="-378" rx="27" ry="18"/>
<text text-anchor="middle" x="72.04" y="-375.5" font-family="Helvetica,sans-Serif" font-size="10.00" fill="#000000">color</text>
</g>
<!-- pytermor_ansi&#45;&gt;pytermor_color -->
<g id="edge3" class="edge">
<title>pytermor_ansi&#45;&gt;pytermor_color</title><style>.edge>path:hover{stroke-width:8}</style>
<path fill="none" stroke="black" d="M72.04,-431.7C72.04,-423.98 72.04,-414.71 72.04,-406.11"/>
<polygon fill="#26d926" stroke="black" points="75.54,-406.1 72.04,-396.1 68.54,-406.1 75.54,-406.1"/>
</g>
<!-- pytermor_cval -->
<g id="node6" class="node">
<title>pytermor_cval</title><style>.edge>path:hover{stroke-width:8}</style>
<ellipse fill="#3db83d" stroke="black" cx="72.04" cy="-306" rx="27" ry="18"/>
<text text-anchor="middle" x="72.04" y="-303.5" font-family="Helvetica,sans-Serif" font-size="10.00" fill="#000000">cval</text>
</g>
<!-- pytermor_ansi&#45;&gt;pytermor_cval -->
<g id="edge4" class="edge">
<title>pytermor_ansi&#45;&gt;pytermor_cval</title><style>.edge>path:hover{stroke-width:8}</style>
<path fill="none" stroke="black" d="M17.04,-377C14.06,-356.48 29.31,-338.24 44.5,-325.53"/>
<polygon fill="#26d926" stroke="black" points="47.07,-327.96 52.81,-319.06 42.77,-322.44 47.07,-327.96"/>
</g>
<!-- pytermor_renderer -->
<g id="node7" class="node">
<title>pytermor_renderer</title><style>.edge>path:hover{stroke-width:8}</style>
<ellipse fill="#35a135" stroke="black" cx="199.04" cy="-162" rx="30.72" ry="18"/>
<text text-anchor="middle" x="199.04" y="-159.5" font-family="Helvetica,sans-Serif" font-size="10.00" fill="#ffffff">renderer</text>
</g>
<!-- pytermor_ansi&#45;&gt;pytermor_renderer -->
<g id="edge5" class="edge">
<title>pytermor_ansi&#45;&gt;pytermor_renderer</title><style>.edge>path:hover{stroke-width:8}</style>
<path fill="none" stroke="black" d="M91.22,-436.87C120.25,-417.26 174.25,-375.52 196.04,-324 214.6,-280.09 209.76,-223.23 204.46,-190.16"/>
<polygon fill="#26d926" stroke="black" points="207.91,-189.57 202.75,-180.31 201.01,-190.76 207.91,-189.57"/>
</g>
<!-- pytermor_color&#45;&gt;pytermor -->
<g id="edge6" class="edge">
<title>pytermor_color&#45;&gt;pytermor</title><style>.edge>path:hover{stroke-width:8}</style>
<path fill="none" stroke="black" d="M52.37,-365.33C33.86,-352.67 9.95,-331.01 17.04,-307"/>
</g>
<!-- pytermor_color&#45;&gt;pytermor_cval -->
<g id="edge7" class="edge">
<title>pytermor_color&#45;&gt;pytermor_cval</title><style>.edge>path:hover{stroke-width:8}</style>
<path fill="none" stroke="black" d="M72.04,-359.7C72.04,-351.98 72.04,-342.71 72.04,-334.11"/>
<polygon fill="#19e619" stroke="black" points="75.54,-334.1 72.04,-324.1 68.54,-334.1 75.54,-334.1"/>
</g>
<!-- pytermor_color&#45;&gt;pytermor_renderer -->
<g id="edge8" class="edge">
<title>pytermor_color&#45;&gt;pytermor_renderer</title><style>.edge>path:hover{stroke-width:8}</style>
<path fill="none" stroke="black" d="M182.04,-233C180.77,-218.35 184.26,-202.39 188.39,-189.42"/>
<polygon fill="#19e619" stroke="black" points="191.78,-190.33 191.77,-179.73 185.17,-188.02 191.78,-190.33"/>
</g>
<!-- pytermor_style -->
<g id="node8" class="node">
<title>pytermor_style</title><style>.edge>path:hover{stroke-width:8}</style>
<ellipse fill="#2db42d" stroke="black" cx="127.04" cy="-234" rx="27" ry="18"/>
<text text-anchor="middle" x="127.04" y="-231.5" font-family="Helvetica,sans-Serif" font-size="10.00" fill="#ffffff">style</text>
</g>
<!-- pytermor_color&#45;&gt;pytermor_style -->
<g id="edge9" class="edge">
<title>pytermor_color&#45;&gt;pytermor_style</title><style>.edge>path:hover{stroke-width:8}</style>
<path fill="none" stroke="black" d="M93.46,-366.54C113.49,-355.12 140.81,-334.71 144.04,-307"/>
<path fill="none" stroke="black" d="M144.04,-305C145.75,-290.3 142.24,-274.23 137.98,-261.2"/>
<polygon fill="#19e619" stroke="black" points="141.16,-259.71 134.48,-251.48 134.57,-262.08 141.16,-259.71"/>
</g>
<!-- pytermor_text -->
<g id="node9" class="node">
<title>pytermor_text</title><style>.edge>path:hover{stroke-width:8}</style>
<ellipse fill="#3d8f3d" stroke="black" cx="199.04" cy="-90" rx="27" ry="18"/>
<text text-anchor="middle" x="199.04" y="-87.5" font-family="Helvetica,sans-Serif" font-size="10.00" fill="#ffffff">text</text>
</g>
<!-- pytermor_color&#45;&gt;pytermor_text -->
<g id="edge10" class="edge">
<title>pytermor_color&#45;&gt;pytermor_text</title><style>.edge>path:hover{stroke-width:8}</style>
<path fill="none" stroke="black" d="M95.19,-368.45C114.77,-360.05 142.09,-345.37 158.04,-324 182.53,-291.16 185.55,-275.82 182.04,-235"/>
<path fill="none" stroke="black" d="M182.04,-233C182.12,-207.32 164.26,-205.14 159.04,-180 155.78,-164.33 153.95,-159.17 159.04,-144 162.85,-132.62 170.18,-121.73 177.53,-112.81"/>
<polygon fill="#19e619" stroke="black" points="180.23,-115.04 184.19,-105.22 174.96,-110.43 180.23,-115.04"/>
</g>
<!-- pytermor_common -->
<g id="node5" class="node">
<title>pytermor_common</title><style>.edge>path:hover{stroke-width:8}</style>
<ellipse fill="#16f316" stroke="black" cx="72.04" cy="-522" rx="31.58" ry="18"/>
<text text-anchor="middle" x="72.04" y="-519.5" font-family="Helvetica,sans-Serif" font-size="10.00" fill="#000000">common</text>
</g>
<!-- pytermor_common&#45;&gt;pytermor -->
<g id="edge11" class="edge">
<title>pytermor_common&#45;&gt;pytermor</title><style>.edge>path:hover{stroke-width:8}</style>
<path fill="none" stroke="black" d="M60.29,-505.21C52.87,-494.9 43.35,-480.99 36.04,-468 18.75,-437.33 10.54,-430.39 3.04,-396 -5.5,-356.88 5.7,-345.41 17.04,-307"/>
<path fill="none" stroke="black" d="M17.04,-305C26.23,-266.52 67.02,-274.25 72.04,-235"/>
<path fill="none" stroke="black" d="M72.04,-233C80.21,-169.02 77.46,-150.64 102.04,-91"/>
<path fill="none" stroke="black" d="M102.04,-89C114.91,-54.04 155.51,-36.03 186.99,-27.1"/>
<polygon fill="#16f316" stroke="black" points="188.06,-30.43 196.84,-24.51 186.28,-23.66 188.06,-30.43"/>
</g>
<!-- pytermor_common&#45;&gt;pytermor_ansi -->
<g id="edge12" class="edge">
<title>pytermor_common&#45;&gt;pytermor_ansi</title><style>.edge>path:hover{stroke-width:8}</style>
<path fill="none" stroke="black" d="M72.04,-503.7C72.04,-495.98 72.04,-486.71 72.04,-478.11"/>
<polygon fill="#16f316" stroke="black" points="75.54,-478.1 72.04,-468.1 68.54,-478.1 75.54,-478.1"/>
</g>
<!-- pytermor_common&#45;&gt;pytermor_renderer -->
<g id="edge13" class="edge">
<title>pytermor_common&#45;&gt;pytermor_renderer</title><style>.edge>path:hover{stroke-width:8}</style>
<path fill="none" stroke="black" d="M201.04,-449C249.89,-385.17 301.52,-386.55 313.04,-307"/>
<path fill="none" stroke="black" d="M313.04,-305C315.42,-265.51 277.71,-269.32 258.04,-235"/>
<path fill="none" stroke="black" d="M258.04,-233C248.08,-215.64 233.65,-198.43 221.56,-185.42"/>
<polygon fill="#16f316" stroke="black" points="223.82,-182.72 214.39,-177.89 218.75,-187.55 223.82,-182.72"/>
</g>
<!-- pytermor_common&#45;&gt;pytermor_style -->
<g id="edge14" class="edge">
<title>pytermor_common&#45;&gt;pytermor_style</title><style>.edge>path:hover{stroke-width:8}</style>
<path fill="none" stroke="black" d="M101,-514.58C132.03,-505.97 179.69,-487.37 201.04,-451"/>
<path fill="none" stroke="black" d="M201.04,-449C235.46,-390.35 136.17,-374.55 144.04,-307"/>
</g>
<!-- pytermor_common&#45;&gt;pytermor_text -->
<g id="edge15" class="edge">
<title>pytermor_common&#45;&gt;pytermor_text</title><style>.edge>path:hover{stroke-width:8}</style>
<path fill="none" stroke="black" d="M258.04,-233C242.56,-206.01 273.65,-189.91 258.04,-163"/>
<path fill="none" stroke="black" d="M258.04,-161C247.86,-143.47 233.18,-126.03 221.01,-112.95"/>
<polygon fill="#16f316" stroke="black" points="223.25,-110.22 213.82,-105.4 218.19,-115.05 223.25,-110.22"/>
</g>
<!-- pytermor_utilstr -->
<g id="node11" class="node">
<title>pytermor_utilstr</title><style>.edge>path:hover{stroke-width:8}</style>
<ellipse fill="#26d926" stroke="black" cx="313.04" cy="-234" rx="27" ry="18"/>
<text text-anchor="middle" x="313.04" y="-231.5" font-family="Helvetica,sans-Serif" font-size="10.00" fill="#000000">utilstr</text>
</g>
<!-- pytermor_common&#45;&gt;pytermor_utilstr -->
<g id="edge16" class="edge">
<title>pytermor_common&#45;&gt;pytermor_utilstr</title><style>.edge>path:hover{stroke-width:8}</style>
<path fill="none" stroke="black" d="M313.04,-305C315.06,-291 315.25,-275.26 314.84,-262.25"/>
<polygon fill="#16f316" stroke="black" points="318.33,-261.91 314.39,-252.07 311.34,-262.22 318.33,-261.91"/>
</g>
<!-- pytermor_cval&#45;&gt;pytermor -->
<g id="edge17" class="edge">
<title>pytermor_cval&#45;&gt;pytermor</title><style>.edge>path:hover{stroke-width:8}</style>
<path fill="none" stroke="black" d="M70.83,-287.95C70.12,-273.73 69.74,-252.96 72.04,-235"/>
</g>
<!-- pytermor_cval&#45;&gt;pytermor_style -->
<g id="edge18" class="edge">
<title>pytermor_cval&#45;&gt;pytermor_style</title><style>.edge>path:hover{stroke-width:8}</style>
<path fill="none" stroke="black" d="M83.97,-289.81C91.25,-280.55 100.7,-268.52 108.89,-258.09"/>
<polygon fill="#3db83d" stroke="black" points="111.7,-260.18 115.12,-250.16 106.19,-255.86 111.7,-260.18"/>
</g>
<!-- pytermor_renderer&#45;&gt;pytermor -->
<g id="edge19" class="edge">
<title>pytermor_renderer&#45;&gt;pytermor</title><style>.edge>path:hover{stroke-width:8}</style>
<path fill="none" stroke="black" d="M171.32,-154.34C138.03,-144.74 88.27,-124.41 102.04,-91"/>
</g>
<!-- pytermor_renderer&#45;&gt;pytermor_text -->
<g id="edge20" class="edge">
<title>pytermor_renderer&#45;&gt;pytermor_text</title><style>.edge>path:hover{stroke-width:8}</style>
<path fill="none" stroke="black" d="M199.04,-143.7C199.04,-135.98 199.04,-126.71 199.04,-118.11"/>
<polygon fill="#35a135" stroke="black" points="202.54,-118.1 199.04,-108.1 195.54,-118.1 202.54,-118.1"/>
</g>
<!-- pytermor_style&#45;&gt;pytermor -->
<g id="edge21" class="edge">
<title>pytermor_style&#45;&gt;pytermor</title><style>.edge>path:hover{stroke-width:8}</style>
<path fill="none" stroke="black" d="M116.6,-217.08C108.67,-203.21 99.52,-182.32 102.04,-163"/>
<path fill="none" stroke="black" d="M102.04,-161C106.05,-130.15 90.18,-119.77 102.04,-91"/>
</g>
<!-- pytermor_style&#45;&gt;pytermor_renderer -->
<g id="edge22" class="edge">
<title>pytermor_style&#45;&gt;pytermor_renderer</title><style>.edge>path:hover{stroke-width:8}</style>
<path fill="none" stroke="black" d="M141.61,-218.83C151.55,-209.16 164.94,-196.15 176.28,-185.12"/>
<polygon fill="#2db42d" stroke="black" points="179.01,-187.35 183.74,-177.87 174.13,-182.33 179.01,-187.35"/>
</g>
<!-- pytermor_style&#45;&gt;pytermor_text -->
<g id="edge23" class="edge">
<title>pytermor_style&#45;&gt;pytermor_text</title><style>.edge>path:hover{stroke-width:8}</style>
<path fill="none" stroke="black" d="M102.04,-161C106.05,-130.14 138.6,-111.42 164.91,-101.21"/>
<polygon fill="#2db42d" stroke="black" points="166.39,-104.39 174.61,-97.7 164.01,-97.81 166.39,-104.39"/>
</g>
<!-- pytermor_text&#45;&gt;pytermor -->
<g id="edge24" class="edge">
<title>pytermor_text&#45;&gt;pytermor</title><style>.edge>path:hover{stroke-width:8}</style>
<path fill="none" stroke="black" d="M205.67,-72.41C208.9,-64.34 212.86,-54.43 216.49,-45.35"/>
<polygon fill="#3d8f3d" stroke="black" points="219.79,-46.54 220.25,-35.96 213.29,-43.94 219.79,-46.54"/>
</g>
<!-- pytermor_utilnum -->
<g id="node10" class="node">
<title>pytermor_utilnum</title><style>.edge>path:hover{stroke-width:8}</style>
<ellipse fill="#4cb34c" stroke="black" cx="312.04" cy="-90" rx="28.01" ry="18"/>
<text text-anchor="middle" x="312.04" y="-87.5" font-family="Helvetica,sans-Serif" font-size="10.00" fill="#000000">utilnum</text>
</g>
<!-- pytermor_utilnum&#45;&gt;pytermor -->
<g id="edge25" class="edge">
<title>pytermor_utilnum&#45;&gt;pytermor</title><style>.edge>path:hover{stroke-width:8}</style>
<path fill="none" stroke="black" d="M295.24,-75.17C282.95,-65.04 266.05,-51.13 252.16,-39.69"/>
<polygon fill="#4cb34c" stroke="black" points="254.32,-36.94 244.38,-33.28 249.87,-42.34 254.32,-36.94"/>
</g>
<!-- pytermor_utilstr&#45;&gt;pytermor -->
<g id="edge26" class="edge">
<title>pytermor_utilstr&#45;&gt;pytermor</title><style>.edge>path:hover{stroke-width:8}</style>
<path fill="none" stroke="black" d="M368.04,-161C373.71,-120.95 374.64,-103.31 349.04,-72 328.74,-47.2 294.6,-33.71 267.59,-26.56"/>
<polygon fill="#26d926" stroke="black" points="268.17,-23.1 257.63,-24.12 266.51,-29.9 268.17,-23.1"/>
</g>
<!-- pytermor_utilstr&#45;&gt;pytermor_renderer -->
<g id="edge27" class="edge">
<title>pytermor_utilstr&#45;&gt;pytermor_renderer</title><style>.edge>path:hover{stroke-width:8}</style>
<path fill="none" stroke="black" d="M293.7,-221.13C275.77,-210.12 248.84,-193.58 228.28,-180.96"/>
<polygon fill="#26d926" stroke="black" points="229.98,-177.89 219.63,-175.64 226.32,-183.86 229.98,-177.89"/>
</g>
<!-- pytermor_utilstr&#45;&gt;pytermor_text -->
<g id="edge28" class="edge">
<title>pytermor_utilstr&#45;&gt;pytermor_text</title><style>.edge>path:hover{stroke-width:8}</style>
<path fill="none" stroke="black" d="M299.49,-218.32C287.46,-204.74 269.98,-183.59 258.04,-163"/>
</g>
<!-- pytermor_utilstr&#45;&gt;pytermor_utilnum -->
<g id="edge29" class="edge">
<title>pytermor_utilstr&#45;&gt;pytermor_utilnum</title><style>.edge>path:hover{stroke-width:8}</style>
<path fill="none" stroke="black" d="M330.39,-219.99C345.22,-207.38 364.68,-186.72 368.04,-163"/>
<path fill="none" stroke="black" d="M368.04,-161C370.97,-140.27 355.35,-121.99 339.87,-109.32"/>
<polygon fill="#26d926" stroke="black" points="341.96,-106.51 331.89,-103.22 337.71,-112.07 341.96,-106.51"/>
</g>
<!-- pytermor_utilsys -->
<g id="node12" class="node">
<title>pytermor_utilsys</title><style>.edge>path:hover{stroke-width:8}</style>
<ellipse fill="#47c247" stroke="black" cx="313.04" cy="-162" rx="27" ry="18"/>
<text text-anchor="middle" x="313.04" y="-159.5" font-family="Helvetica,sans-Serif" font-size="10.00" fill="#000000">utilsys</text>
</g>
<!-- pytermor_utilsys&#45;&gt;pytermor -->
<g id="edge30" class="edge">
<title>pytermor_utilsys&#45;&gt;pytermor</title><style>.edge>path:hover{stroke-width:8}</style>
<path fill="none" stroke="black" d="M301.19,-145.59C293.41,-135.2 283.19,-121.06 275.04,-108 262.17,-87.4 249.18,-63.06 239.97,-45.05"/>
<polygon fill="#47c247" stroke="black" points="242.91,-43.1 235.27,-35.76 236.66,-46.26 242.91,-43.1"/>
</g>
<!-- pytermor_utilsys&#45;&gt;pytermor_text -->
<g id="edge31" class="edge">
<title>pytermor_utilsys&#45;&gt;pytermor_text</title><style>.edge>path:hover{stroke-width:8}</style>
<path fill="none" stroke="black" d="M293.7,-149.13C275.44,-137.91 247.84,-120.97 227.15,-108.26"/>
<polygon fill="#47c247" stroke="black" points="228.82,-105.18 218.47,-102.93 225.16,-111.15 228.82,-105.18"/>
</g>
</g>
</svg>
