<?xml version="1.0" encoding="UTF-8" standalone="no"?>
<!DOCTYPE svg PUBLIC "-//W3C//DTD SVG 1.1//EN"
 "http://www.w3.org/Graphics/SVG/1.1/DTD/svg11.dtd">
<!-- Generated by graphviz version 2.43.0 (0)
 -->
<!-- Title: G Pages: 1 -->
<svg width="405pt" height="548pt"
 viewBox="0.00 0.00 404.88 548.00" xmlns="http://www.w3.org/2000/svg" xmlns:xlink="http://www.w3.org/1999/xlink">
<g id="graph0" class="graph" transform="scale(1 1) rotate(0) translate(4 544)">
<title>G</title><style>.edge>path:hover{stroke-width:8}</style>
<polygon fill="white" stroke="transparent" points="-4,4 -4,-544 400.88,-544 400.88,4 -4,4"/>
<!-- pytermor -->
<g id="node1" class="node">
<title>pytermor</title><style>.edge>path:hover{stroke-width:8}</style>
<ellipse fill="#2e6b2e" stroke="black" cx="245.04" cy="-18" rx="36.49" ry="18"/>
<text text-anchor="middle" x="245.04" y="-15.5" font-family="Helvetica,sans-Serif" font-size="10.00" fill="#ffffff">pytermor</text>
</g>
<!-- pytermor__version -->
<g id="node2" class="node">
<title>pytermor__version</title><style>.edge>path:hover{stroke-width:8}</style>
<ellipse fill="#53b653" stroke="black" cx="72.04" cy="-90" rx="34.29" ry="18"/>
<text text-anchor="middle" x="72.04" y="-87.5" font-family="Helvetica,sans-Serif" font-size="10.00" fill="#000000">_version</text>
</g>
<!-- pytermor__version&#45;&gt;pytermor -->
<g id="edge1" class="edge">
<title>pytermor__version&#45;&gt;pytermor</title><style>.edge>path:hover{stroke-width:8}</style>
<path fill="none" stroke="black" d="M98.31,-78.37C127.65,-66.5 175.33,-47.2 208.34,-33.85"/>
<polygon fill="#53b653" stroke="black" points="209.7,-37.07 217.65,-30.08 207.07,-30.59 209.7,-37.07"/>
</g>
<!-- pytermor_ansi -->
<g id="node3" class="node">
<title>pytermor_ansi</title><style>.edge>path:hover{stroke-width:8}</style>
<ellipse fill="#26d926" stroke="black" cx="72.04" cy="-450" rx="27" ry="18"/>
<text text-anchor="middle" x="72.04" y="-447.5" font-family="Helvetica,sans-Serif" font-size="10.00" fill="#000000">ansi</text>
</g>
<!-- pytermor_ansi&#45;&gt;pytermor -->
<g id="edge2" class="edge">
<title>pytermor_ansi&#45;&gt;pytermor</title><style>.edge>path:hover{stroke-width:8}</style>
<path fill="none" stroke="black" d="M54.71,-435.98C39.91,-423.37 20.47,-402.71 17.04,-379"/>
<path fill="none" stroke="black" d="M17.04,-377C12.58,-346.21 8.23,-336.84 17.04,-307"/>
</g>
<!-- pytermor_color -->
<g id="node4" class="node">
<title>pytermor_color</title><style>.edge>path:hover{stroke-width:8}</style>
<ellipse fill="#18dd18" stroke="black" cx="72.04" cy="-378" rx="27" ry="18"/>
<text text-anchor="middle" x="72.04" y="-375.5" font-family="Helvetica,sans-Serif" font-size="10.00" fill="#000000">color</text>
</g>
<!-- pytermor_ansi&#45;&gt;pytermor_color -->
<g id="edge3" class="edge">
<title>pytermor_ansi&#45;&gt;pytermor_color</title><style>.edge>path:hover{stroke-width:8}</style>
<path fill="none" stroke="black" d="M72.04,-431.7C72.04,-423.98 72.04,-414.71 72.04,-406.11"/>
<polygon fill="#26d926" stroke="black" points="75.54,-406.1 72.04,-396.1 68.54,-406.1 75.54,-406.1"/>
</g>
<!-- pytermor_cval -->
<g id="node6" class="node">
<title>pytermor_cval</title><style>.edge>path:hover{stroke-width:8}</style>
<ellipse fill="#3db83d" stroke="black" cx="72.04" cy="-306" rx="27" ry="18"/>
<text text-anchor="middle" x="72.04" y="-303.5" font-family="Helvetica,sans-Serif" font-size="10.00" fill="#000000">cval</text>
</g>
<!-- pytermor_ansi&#45;&gt;pytermor_cval -->
<g id="edge4" class="edge">
<title>pytermor_ansi&#45;&gt;pytermor_cval</title><style>.edge>path:hover{stroke-width:8}</style>
<path fill="none" stroke="black" d="M17.04,-377C14.06,-356.48 29.31,-338.24 44.5,-325.53"/>
<polygon fill="#26d926" stroke="black" points="47.07,-327.96 52.81,-319.06 42.77,-322.44 47.07,-327.96"/>
</g>
<!-- pytermor_renderer -->
<g id="node7" class="node">
<title>pytermor_renderer</title><style>.edge>path:hover{stroke-width:8}</style>
<ellipse fill="#35a135" stroke="black" cx="196.04" cy="-162" rx="34.29" ry="18"/>
<text text-anchor="middle" x="196.04" y="-159.5" font-family="Helvetica,sans-Serif" font-size="10.00" fill="#ffffff">renderer</text>
</g>
<!-- pytermor_ansi&#45;&gt;pytermor_renderer -->
<g id="edge5" class="edge">
<title>pytermor_ansi&#45;&gt;pytermor_renderer</title><style>.edge>path:hover{stroke-width:8}</style>
<path fill="none" stroke="black" d="M91.34,-436.92C120.52,-417.37 174.73,-375.72 196.04,-324 214.19,-279.92 208.16,-223.12 202.1,-190.11"/>
<polygon fill="#26d926" stroke="black" points="205.53,-189.41 200.17,-180.27 198.67,-190.76 205.53,-189.41"/>
</g>
<!-- pytermor_color&#45;&gt;pytermor -->
<g id="edge6" class="edge">
<title>pytermor_color&#45;&gt;pytermor</title><style>.edge>path:hover{stroke-width:8}</style>
<path fill="none" stroke="black" d="M52.37,-365.33C33.86,-352.67 9.95,-331.01 17.04,-307"/>
</g>
<!-- pytermor_color&#45;&gt;pytermor_cval -->
<g id="edge7" class="edge">
<title>pytermor_color&#45;&gt;pytermor_cval</title><style>.edge>path:hover{stroke-width:8}</style>
<path fill="none" stroke="black" d="M72.04,-359.7C72.04,-351.98 72.04,-342.71 72.04,-334.11"/>
<polygon fill="#18dd18" stroke="black" points="75.54,-334.1 72.04,-324.1 68.54,-334.1 75.54,-334.1"/>
</g>
<!-- pytermor_color&#45;&gt;pytermor_renderer -->
<g id="edge8" class="edge">
<title>pytermor_color&#45;&gt;pytermor_renderer</title><style>.edge>path:hover{stroke-width:8}</style>
<path fill="none" stroke="black" d="M182.04,-305C191.62,-275.4 173.46,-264.91 182.04,-235"/>
<path fill="none" stroke="black" d="M182.04,-233C186.01,-219.13 189.27,-203.4 191.63,-190.37"/>
<polygon fill="#18dd18" stroke="black" points="195.14,-190.61 193.41,-180.16 188.25,-189.41 195.14,-190.61"/>
</g>
<!-- pytermor_style -->
<g id="node8" class="node">
<title>pytermor_style</title><style>.edge>path:hover{stroke-width:8}</style>
<ellipse fill="#2db42d" stroke="black" cx="127.04" cy="-234" rx="27" ry="18"/>
<text text-anchor="middle" x="127.04" y="-231.5" font-family="Helvetica,sans-Serif" font-size="10.00" fill="#ffffff">style</text>
</g>
<!-- pytermor_color&#45;&gt;pytermor_style -->
<g id="edge9" class="edge">
<title>pytermor_color&#45;&gt;pytermor_style</title><style>.edge>path:hover{stroke-width:8}</style>
<path fill="none" stroke="black" d="M96.92,-371C125.56,-362.47 170.18,-343.61 182.04,-307"/>
<path fill="none" stroke="black" d="M182.04,-305C188.71,-284.4 171.61,-265.39 154.76,-252.39"/>
<polygon fill="#18dd18" stroke="black" points="156.77,-249.53 146.61,-246.51 152.67,-255.2 156.77,-249.53"/>
</g>
<!-- pytermor_text -->
<g id="node9" class="node">
<title>pytermor_text</title><style>.edge>path:hover{stroke-width:8}</style>
<ellipse fill="#3d8f3d" stroke="black" cx="218.04" cy="-90" rx="27" ry="18"/>
<text text-anchor="middle" x="218.04" y="-87.5" font-family="Helvetica,sans-Serif" font-size="10.00" fill="#ffffff">text</text>
</g>
<!-- pytermor_color&#45;&gt;pytermor_text -->
<g id="edge10" class="edge">
<title>pytermor_color&#45;&gt;pytermor_text</title><style>.edge>path:hover{stroke-width:8}</style>
<path fill="none" stroke="black" d="M182.04,-233C194.69,-188.86 258.53,-208.92 258.04,-163"/>
<path fill="none" stroke="black" d="M258.04,-161C257.85,-143.43 248.23,-126.27 238.47,-113.33"/>
<polygon fill="#18dd18" stroke="black" points="241.14,-111.06 232.14,-105.48 235.69,-115.46 241.14,-111.06"/>
</g>
<!-- pytermor_common -->
<g id="node5" class="node">
<title>pytermor_common</title><style>.edge>path:hover{stroke-width:8}</style>
<ellipse fill="#10f910" stroke="black" cx="72.04" cy="-522" rx="34.96" ry="18"/>
<text text-anchor="middle" x="72.04" y="-519.5" font-family="Helvetica,sans-Serif" font-size="10.00" fill="#000000">common</text>
</g>
<!-- pytermor_common&#45;&gt;pytermor -->
<g id="edge11" class="edge">
<title>pytermor_common&#45;&gt;pytermor</title><style>.edge>path:hover{stroke-width:8}</style>
<path fill="none" stroke="black" d="M59.95,-504.74C52.59,-494.48 43.24,-480.79 36.04,-468 18.75,-437.33 10.54,-430.39 3.04,-396 -5.5,-356.88 5.7,-345.41 17.04,-307"/>
<path fill="none" stroke="black" d="M17.04,-305C26.23,-266.52 61.67,-273.18 72.04,-235"/>
<path fill="none" stroke="black" d="M72.04,-233C90.07,-166.54 102.85,-152.4 134.04,-91"/>
<path fill="none" stroke="black" d="M134.04,-89C147.4,-60.46 178.73,-42.32 204.71,-31.68"/>
<polygon fill="#10f910" stroke="black" points="206.28,-34.83 214.35,-27.96 203.76,-28.29 206.28,-34.83"/>
</g>
<!-- pytermor_common&#45;&gt;pytermor_ansi -->
<g id="edge12" class="edge">
<title>pytermor_common&#45;&gt;pytermor_ansi</title><style>.edge>path:hover{stroke-width:8}</style>
<path fill="none" stroke="black" d="M72.04,-503.7C72.04,-495.98 72.04,-486.71 72.04,-478.11"/>
<polygon fill="#10f910" stroke="black" points="75.54,-478.1 72.04,-468.1 68.54,-478.1 75.54,-478.1"/>
</g>
<!-- pytermor_common&#45;&gt;pytermor_color -->
<g id="edge13" class="edge">
<title>pytermor_common&#45;&gt;pytermor_color</title><style>.edge>path:hover{stroke-width:8}</style>
<path fill="none" stroke="black" d="M106.17,-518.1C171.4,-511.61 307.79,-493.05 313.04,-451"/>
<path fill="none" stroke="black" d="M313.04,-449C318.26,-407.16 177.8,-388.57 108.98,-381.99"/>
<polygon fill="#10f910" stroke="black" points="109.26,-378.5 98.98,-381.07 108.62,-385.47 109.26,-378.5"/>
</g>
<!-- pytermor_common&#45;&gt;pytermor_renderer -->
<g id="edge14" class="edge">
<title>pytermor_common&#45;&gt;pytermor_renderer</title><style>.edge>path:hover{stroke-width:8}</style>
<path fill="none" stroke="black" d="M313.04,-449C320.85,-386.37 330.88,-367.53 313.04,-307"/>
<path fill="none" stroke="black" d="M313.04,-305C299.76,-267.73 278.02,-269.15 258.04,-235"/>
<path fill="none" stroke="black" d="M258.04,-233C247.69,-215.31 232.47,-198.05 219.7,-185.09"/>
<polygon fill="#10f910" stroke="black" points="222.09,-182.53 212.52,-177.99 217.17,-187.51 222.09,-182.53"/>
</g>
<!-- pytermor_common&#45;&gt;pytermor_style -->
<g id="edge15" class="edge">
<title>pytermor_common&#45;&gt;pytermor_style</title><style>.edge>path:hover{stroke-width:8}</style>
<path fill="none" stroke="black" d="M313.04,-305C293.63,-239.19 231.96,-276.92 168.04,-252 165.11,-250.86 162.09,-249.65 159.06,-248.43"/>
<polygon fill="#10f910" stroke="black" points="160.1,-245.08 149.52,-244.53 157.45,-251.55 160.1,-245.08"/>
</g>
<!-- pytermor_common&#45;&gt;pytermor_text -->
<g id="edge16" class="edge">
<title>pytermor_common&#45;&gt;pytermor_text</title><style>.edge>path:hover{stroke-width:8}</style>
<path fill="none" stroke="black" d="M258.04,-233C242.32,-206.15 258.37,-194.11 258.04,-163"/>
</g>
<!-- pytermor_utilstr -->
<g id="node11" class="node">
<title>pytermor_utilstr</title><style>.edge>path:hover{stroke-width:8}</style>
<ellipse fill="#26d926" stroke="black" cx="313.04" cy="-234" rx="27" ry="18"/>
<text text-anchor="middle" x="313.04" y="-231.5" font-family="Helvetica,sans-Serif" font-size="10.00" fill="#000000">utilstr</text>
</g>
<!-- pytermor_common&#45;&gt;pytermor_utilstr -->
<g id="edge17" class="edge">
<title>pytermor_common&#45;&gt;pytermor_utilstr</title><style>.edge>path:hover{stroke-width:8}</style>
<path fill="none" stroke="black" d="M313.04,-305C309.01,-291.34 308.67,-275.52 309.48,-262.38"/>
<polygon fill="#10f910" stroke="black" points="313,-262.34 310.38,-252.07 306.03,-261.73 313,-262.34"/>
</g>
<!-- pytermor_utilsys -->
<g id="node12" class="node">
<title>pytermor_utilsys</title><style>.edge>path:hover{stroke-width:8}</style>
<ellipse fill="#40c040" stroke="black" cx="368.04" cy="-162" rx="28.69" ry="18"/>
<text text-anchor="middle" x="368.04" y="-159.5" font-family="Helvetica,sans-Serif" font-size="10.00" fill="#000000">utilsys</text>
</g>
<!-- pytermor_common&#45;&gt;pytermor_utilsys -->
<g id="edge18" class="edge">
<title>pytermor_common&#45;&gt;pytermor_utilsys</title><style>.edge>path:hover{stroke-width:8}</style>
<path fill="none" stroke="black" d="M313.04,-305C303.48,-278.17 337.85,-278.19 349.04,-252 357.5,-232.17 362.34,-208.2 365.01,-190.13"/>
<polygon fill="#10f910" stroke="black" points="368.51,-190.37 366.38,-179.99 361.57,-189.43 368.51,-190.37"/>
</g>
<!-- pytermor_cval&#45;&gt;pytermor -->
<g id="edge19" class="edge">
<title>pytermor_cval&#45;&gt;pytermor</title><style>.edge>path:hover{stroke-width:8}</style>
<path fill="none" stroke="black" d="M69.58,-287.98C68.08,-273.6 67.26,-252.59 72.04,-235"/>
</g>
<!-- pytermor_cval&#45;&gt;pytermor_style -->
<g id="edge20" class="edge">
<title>pytermor_cval&#45;&gt;pytermor_style</title><style>.edge>path:hover{stroke-width:8}</style>
<path fill="none" stroke="black" d="M83.97,-289.81C91.25,-280.55 100.7,-268.52 108.89,-258.09"/>
<polygon fill="#3db83d" stroke="black" points="111.7,-260.18 115.12,-250.16 106.19,-255.86 111.7,-260.18"/>
</g>
<!-- pytermor_renderer&#45;&gt;pytermor -->
<g id="edge21" class="edge">
<title>pytermor_renderer&#45;&gt;pytermor</title><style>.edge>path:hover{stroke-width:8}</style>
<path fill="none" stroke="black" d="M171.87,-148.86C149.77,-135.98 122.2,-114.3 134.04,-91"/>
</g>
<!-- pytermor_renderer&#45;&gt;pytermor_text -->
<g id="edge22" class="edge">
<title>pytermor_renderer&#45;&gt;pytermor_text</title><style>.edge>path:hover{stroke-width:8}</style>
<path fill="none" stroke="black" d="M201.36,-144.05C203.87,-136.06 206.93,-126.33 209.74,-117.4"/>
<polygon fill="#35a135" stroke="black" points="213.1,-118.38 212.76,-107.79 206.42,-116.28 213.1,-118.38"/>
</g>
<!-- pytermor_style&#45;&gt;pytermor -->
<g id="edge23" class="edge">
<title>pytermor_style&#45;&gt;pytermor</title><style>.edge>path:hover{stroke-width:8}</style>
<path fill="none" stroke="black" d="M126.74,-215.9C126.97,-201.47 128.4,-180.43 134.04,-163"/>
<path fill="none" stroke="black" d="M134.04,-161C143.6,-131.4 119.95,-118.74 134.04,-91"/>
</g>
<!-- pytermor_style&#45;&gt;pytermor_renderer -->
<g id="edge24" class="edge">
<title>pytermor_style&#45;&gt;pytermor_renderer</title><style>.edge>path:hover{stroke-width:8}</style>
<path fill="none" stroke="black" d="M141.33,-218.5C150.7,-209 163.13,-196.38 173.77,-185.58"/>
<polygon fill="#2db42d" stroke="black" points="176.27,-188.04 180.8,-178.46 171.29,-183.12 176.27,-188.04"/>
</g>
<!-- pytermor_style&#45;&gt;pytermor_text -->
<g id="edge25" class="edge">
<title>pytermor_style&#45;&gt;pytermor_text</title><style>.edge>path:hover{stroke-width:8}</style>
<path fill="none" stroke="black" d="M134.04,-161C142.18,-135.78 166.43,-117.25 186.79,-105.61"/>
<polygon fill="#2db42d" stroke="black" points="188.66,-108.58 195.8,-100.75 185.34,-102.42 188.66,-108.58"/>
</g>
<!-- pytermor_text&#45;&gt;pytermor -->
<g id="edge26" class="edge">
<title>pytermor_text&#45;&gt;pytermor</title><style>.edge>path:hover{stroke-width:8}</style>
<path fill="none" stroke="black" d="M224.43,-72.41C227.55,-64.34 231.37,-54.43 234.87,-45.35"/>
<polygon fill="#3d8f3d" stroke="black" points="238.16,-46.55 238.49,-35.96 231.63,-44.03 238.16,-46.55"/>
</g>
<!-- pytermor_utilnum -->
<g id="node10" class="node">
<title>pytermor_utilnum</title><style>.edge>path:hover{stroke-width:8}</style>
<ellipse fill="#4cb34c" stroke="black" cx="333.04" cy="-90" rx="31.58" ry="18"/>
<text text-anchor="middle" x="333.04" y="-87.5" font-family="Helvetica,sans-Serif" font-size="10.00" fill="#000000">utilnum</text>
</g>
<!-- pytermor_utilnum&#45;&gt;pytermor -->
<g id="edge27" class="edge">
<title>pytermor_utilnum&#45;&gt;pytermor</title><style>.edge>path:hover{stroke-width:8}</style>
<path fill="none" stroke="black" d="M315.23,-74.83C302.63,-64.82 285.54,-51.22 271.37,-39.95"/>
<polygon fill="#4cb34c" stroke="black" points="273.43,-37.11 263.42,-33.63 269.07,-42.59 273.43,-37.11"/>
</g>
<!-- pytermor_utilstr&#45;&gt;pytermor -->
<g id="edge28" class="edge">
<title>pytermor_utilstr&#45;&gt;pytermor</title><style>.edge>path:hover{stroke-width:8}</style>
<path fill="none" stroke="black" d="M296.04,-161C285.06,-119.74 267.39,-73.46 255.99,-45.28"/>
<polygon fill="#26d926" stroke="black" points="259.13,-43.69 252.11,-35.75 252.65,-46.33 259.13,-43.69"/>
</g>
<!-- pytermor_utilstr&#45;&gt;pytermor_renderer -->
<g id="edge29" class="edge">
<title>pytermor_utilstr&#45;&gt;pytermor_renderer</title><style>.edge>path:hover{stroke-width:8}</style>
<path fill="none" stroke="black" d="M293.45,-221.28C275.12,-210.32 247.47,-193.77 226.3,-181.11"/>
<polygon fill="#26d926" stroke="black" points="228.05,-178.07 217.67,-175.94 224.45,-184.08 228.05,-178.07"/>
</g>
<!-- pytermor_utilstr&#45;&gt;pytermor_text -->
<g id="edge30" class="edge">
<title>pytermor_utilstr&#45;&gt;pytermor_text</title><style>.edge>path:hover{stroke-width:8}</style>
<path fill="none" stroke="black" d="M309.12,-215.97C305.8,-201.77 300.82,-181.01 296.04,-163"/>
<path fill="none" stroke="black" d="M296.04,-161C289.57,-136.71 267.38,-118.26 248.31,-106.41"/>
<polygon fill="#26d926" stroke="black" points="249.95,-103.32 239.56,-101.28 246.42,-109.36 249.95,-103.32"/>
</g>
<!-- pytermor_utilstr&#45;&gt;pytermor_utilnum -->
<g id="edge31" class="edge">
<title>pytermor_utilstr&#45;&gt;pytermor_utilnum</title><style>.edge>path:hover{stroke-width:8}</style>
<path fill="none" stroke="black" d="M296.04,-161C291.53,-144.06 300.69,-126.62 311.03,-113.39"/>
<polygon fill="#26d926" stroke="black" points="313.72,-115.63 317.5,-105.74 308.37,-111.11 313.72,-115.63"/>
</g>
<!-- pytermor_utilsys&#45;&gt;pytermor -->
<g id="edge32" class="edge">
<title>pytermor_utilsys&#45;&gt;pytermor</title><style>.edge>path:hover{stroke-width:8}</style>
<path fill="none" stroke="black" d="M374.81,-144.34C381.41,-125.19 388.52,-93.61 374.04,-72 355.46,-44.29 319.53,-31.06 290.29,-24.74"/>
<polygon fill="#40c040" stroke="black" points="290.75,-21.27 280.27,-22.79 289.41,-28.14 290.75,-21.27"/>
</g>
<!-- pytermor_utilsys&#45;&gt;pytermor_text -->
<g id="edge33" class="edge">
<title>pytermor_utilsys&#45;&gt;pytermor_text</title><style>.edge>path:hover{stroke-width:8}</style>
<path fill="none" stroke="black" d="M345.58,-150.52C319.88,-138.53 277.64,-118.81 248.87,-105.39"/>
<polygon fill="#40c040" stroke="black" points="250.21,-102.15 239.67,-101.1 247.25,-108.5 250.21,-102.15"/>
</g>
</g>
</svg>
