<?xml version="1.0" encoding="UTF-8" standalone="no"?>
<!DOCTYPE svg PUBLIC "-//W3C//DTD SVG 20010904//EN"
              "http://www.w3.org/TR/2001/REC-SVG-20010904/DTD/svg10.dtd">

<svg xmlns="http://www.w3.org/2000/svg"
     width="1.70667in" height="1.70667in"
     viewBox="0 0 512 512">
  <path id="Selection"
        fill="none" stroke="black" stroke-width="1"
        d="M 269.00,31.42
           C 269.00,31.42 246.00,36.44 246.00,36.44
             246.00,36.44 231.00,41.11 231.00,41.11
             231.00,41.11 219.00,42.61 219.00,42.61
             209.73,44.24 192.80,48.44 184.00,51.50
             130.87,70.04 84.92,108.64 59.26,159.00
             51.58,174.08 44.40,192.52 40.50,209.00
             37.61,221.21 35.02,243.45 35.00,256.00
             35.00,256.00 36.10,277.00 36.10,277.00
             36.10,277.00 36.10,287.00 36.10,287.00
             42.06,333.93 63.26,379.78 96.04,414.00
             112.01,430.67 139.00,450.08 160.00,459.98
             160.00,459.98 172.00,464.87 172.00,464.87
             188.67,472.02 209.91,478.02 228.00,479.96
             228.00,479.96 236.00,479.96 236.00,479.96
             236.00,479.96 246.00,481.00 246.00,481.00
             266.85,481.24 287.65,480.34 308.00,475.50
             308.00,475.50 318.00,472.42 318.00,472.42
             318.00,472.42 332.00,468.30 332.00,468.30
             341.33,464.97 350.31,460.62 359.00,455.95
             359.00,455.95 376.00,446.46 376.00,446.46
             414.57,421.61 444.19,385.54 461.20,343.00
             464.53,334.68 469.40,320.60 471.34,312.00
             471.34,312.00 473.61,298.00 473.61,298.00
             474.70,291.99 475.92,288.29 476.00,282.00
             476.00,282.00 477.00,258.00 477.00,258.00
             477.00,258.00 476.00,243.00 476.00,243.00
             475.86,230.48 472.48,214.15 469.15,202.00
             457.79,160.53 434.56,122.61 402.00,94.29
             390.23,84.05 373.79,72.67 360.00,65.32
             360.00,65.32 343.04,57.29 343.04,57.29
             337.52,54.36 339.78,52.72 330.00,47.16
             322.85,43.09 314.75,41.23 307.00,38.65
             293.48,34.14 283.78,29.62 269.00,31.42 Z
           M 311.00,48.00
           C 306.11,48.10 298.03,46.04 295.00,42.00
             305.40,42.05 302.51,38.99 311.00,48.00 Z
           M 330.00,52.00
           C 330.00,52.00 333.00,55.00 333.00,55.00
             330.94,54.21 330.00,54.35 330.00,52.00 Z
           M 333.00,72.00
           C 333.00,72.00 333.00,74.00 333.00,74.00
             333.00,74.00 329.00,74.00 329.00,74.00
             329.00,74.00 329.00,72.00 329.00,72.00
             329.00,72.00 333.00,72.00 333.00,72.00 Z
           M 339.00,74.25
           C 344.16,75.45 350.60,80.04 355.00,83.14
             364.01,89.51 372.42,96.23 380.30,103.92
             380.30,103.92 394.47,118.29 394.47,118.29
             418.89,146.57 435.05,182.08 440.28,219.00
             441.38,226.75 442.99,234.12 443.00,242.00
             443.00,242.00 443.00,257.00 443.00,257.00
             442.97,277.08 435.06,309.49 427.13,328.00
             403.08,384.16 360.26,421.99 301.00,436.89
             301.00,436.89 291.00,439.54 291.00,439.54
             291.00,439.54 270.00,441.09 270.00,441.09
             270.00,441.09 260.00,442.00 260.00,442.00
             260.00,442.00 256.00,442.00 256.00,442.00
             256.00,442.00 246.00,441.09 246.00,441.09
             246.00,441.09 227.00,439.70 227.00,439.70
             218.65,438.46 200.94,433.09 193.00,429.81
             169.83,420.25 147.78,407.04 130.17,388.91
             114.62,372.90 99.94,350.76 91.60,330.00
             91.60,330.00 86.44,314.00 86.44,314.00
             86.44,314.00 83.85,306.09 83.85,306.09
             83.85,306.09 82.01,294.72 82.01,294.72
             82.01,294.72 79.09,278.00 79.09,278.00
             79.09,278.00 79.09,261.00 79.09,261.00
             79.02,247.15 79.20,245.67 81.75,232.04
             81.75,232.04 84.49,217.00 84.49,217.00
             91.47,191.03 104.39,166.75 121.46,146.00
             135.11,129.42 159.52,110.56 179.00,101.32
             179.00,101.32 202.00,92.51 202.00,92.51
             208.21,90.44 225.04,85.28 231.00,85.35
             234.94,85.41 242.06,88.36 246.00,89.64
             252.25,91.67 265.63,94.92 272.00,95.00
             289.50,95.20 290.46,92.62 306.00,87.59
             306.00,87.59 323.00,82.24 323.00,82.24
             328.35,80.07 333.83,75.38 339.00,74.25 Z
           M 311.00,78.00
           C 311.00,78.00 307.00,80.00 307.00,80.00
             305.73,87.22 302.68,83.75 295.00,85.00
             298.13,79.72 305.34,78.86 311.00,78.00 Z
           M 252.00,113.42
           C 252.00,113.42 242.00,114.29 242.00,114.29
             230.93,115.65 218.41,119.08 208.00,123.06
             174.23,135.99 144.83,163.36 129.32,196.00
             91.54,275.51 132.10,374.21 218.00,399.42
             229.80,402.89 243.66,405.85 256.00,406.00
             283.49,406.32 304.29,402.19 329.00,389.75
             344.39,382.01 360.37,370.08 371.57,357.00
             392.29,332.81 407.62,300.35 408.00,268.00
             408.15,255.10 408.11,242.72 405.55,230.00
             398.89,196.90 379.55,165.31 353.00,144.51
             338.91,133.47 323.03,125.32 306.00,119.98
             290.32,115.05 268.35,111.43 252.00,113.42 Z
           M 159.00,191.00
           C 159.00,191.00 227.00,233.32 227.00,233.32
             227.00,233.32 242.00,242.80 242.00,242.80
             242.00,242.80 248.40,248.21 248.40,248.21
             248.40,248.21 249.00,259.00 249.00,259.00
             249.00,259.00 247.98,264.82 247.98,264.82
             247.98,264.82 228.00,278.66 228.00,278.66
             228.00,278.66 158.00,322.00 158.00,322.00
             158.00,322.00 158.00,309.00 158.00,309.00
             158.00,309.00 158.57,302.32 158.57,302.32
             158.57,302.32 175.00,290.42 175.00,290.42
             175.00,290.42 205.00,271.31 205.00,271.31
             205.00,271.31 228.00,257.00 228.00,257.00
             228.00,257.00 176.00,223.00 176.00,223.00
             176.00,223.00 158.57,210.67 158.57,210.67
             158.57,210.67 158.00,204.00 158.00,204.00
             158.00,204.00 159.00,191.00 159.00,191.00 Z" />
</svg>
