<?xml version="1.0" encoding="UTF-8" standalone="no"?>
<svg
   width="1.0000006in"
   height="1.0181458in"
   viewBox="0 0 299.99959 305.44314"
   version="1.1"
   id="svg186"
   sodipodi:docname="logo-white-bg-96px.svg"
   inkscape:version="1.2 (1:1.2+202206011327+fc4e4096c5)"
   xmlns:inkscape="http://www.inkscape.org/namespaces/inkscape"
   xmlns:sodipodi="http://sodipodi.sourceforge.net/DTD/sodipodi-0.dtd"
   xmlns="http://www.w3.org/2000/svg"
   xmlns:svg="http://www.w3.org/2000/svg">
  <defs
     id="defs190" />
  <sodipodi:namedview
     id="namedview188"
     pagecolor="#ffffff"
     bordercolor="#000000"
     borderopacity="0.25"
     inkscape:showpageshadow="2"
     inkscape:pageopacity="0.0"
     inkscape:pagecheckerboard="0"
     inkscape:deskcolor="#d1d1d1"
     inkscape:document-units="in"
     showgrid="false"
     inkscape:zoom="3.4533833"
     inkscape:cx="84.699547"
     inkscape:cy="38.657742"
     inkscape:window-width="1920"
     inkscape:window-height="1016"
     inkscape:window-x="0"
     inkscape:window-y="27"
     inkscape:window-maximized="1"
     inkscape:current-layer="svg186" />
  <path
     style="display:inline;fill:#000000;fill-opacity:1;stroke-width:0.678732"
     d="m 158.82331,0.27493049 -15.61084,3.40723501 -10.18098,3.169679 -8.14479,1.018098 C 118.59486,8.9762755 107.10392,11.82695 101.13108,13.90387 65.07004,26.487563 33.88231,52.686622 16.46604,86.867572 11.253378,97.102852 6.380082,109.61867 3.733027,120.80417 1.771491,129.09149 0.013575,144.18649 0,152.70458 l 0.746605,14.25338 v 6.78732 c 4.045244,31.85289 18.434364,62.97276 40.683205,86.19897 10.83935,11.31446 29.15833,24.48865 43.4117,31.2081 l 8.14479,3.319 c 11.31446,4.85294 25.73073,8.92533 38.00899,10.24207 h 5.42986 l 6.78732,0.70588 c 14.15156,0.1629 28.26919,-0.44796 42.08139,-3.73303 l 6.78732,-2.09049 9.50225,-2.79638 c 6.33257,-2.26017 12.42758,-5.21266 18.32576,-8.38234 l 11.53845,-6.44117 c 26.1787,-16.86649 46.28274,-41.34835 57.82797,-70.22162 2.26018,-5.64705 5.56561,-15.2036 6.88235,-21.04069 l 1.54072,-9.50225 c 0.73982,-4.07918 1.56787,-6.59049 1.62217,-10.85971 l 0.67873,-16.28957 -0.67873,-10.18098 c -0.095,-8.49773 -2.38914,-19.58143 -4.64932,-27.82802 -4.61428,-16.844538 -12.11393,-32.826148 -22.12947,-47.064708 -6.72029,-9.5539 -14.5733,-18.32303 -23.44739,-26.04153 -7.98867,-6.95021 -19.14703,-14.67418 -28.50674,-19.662864 l -11.5113,-5.450219 c -3.7466,-1.988685 -2.21267,-3.101806 -8.85067,-6.875556 C 195.37303,8.1957335 189.8753,6.9332925 184.61513,5.1821635 175.43867,2.1210825 168.85497,-0.94678651 158.82331,0.27493049 Z"
     id="Selection"
     sodipodi:nodetypes="ccccccccccccccccccccccccccccscccccc" />
  <path
     style="fill:#ffffff;fill-opacity:1;stroke-width:0.678732"
     d="m 206.33455,29.345022 c 3.50226,0.81448 7.87329,3.92986 10.85972,6.03393 6.11537,4.32352 11.82351,8.8846 17.17192,14.10405 0,0 9.61763,9.75338 9.61763,9.75338 16.57464,19.19455 27.54295,43.296328 31.09272,68.355118 0.7466,5.26017 1.83936,10.26242 1.84615,15.61083 0,0 0,10.18098 0,10.18098 -0.0204,13.62894 -5.38913,35.62665 -10.77148,48.18998 -16.32351,38.1176 -45.38681,63.79403 -85.60848,73.90714 0,0 -6.78732,1.79864 -6.78732,1.79864 0,0 -14.25337,1.05203 -14.25337,1.05203 0,0 -6.78732,0.61765 -6.78732,0.61765 0,0 -2.71493,0 -2.71493,0 0,0 -6.78732,-0.61765 -6.78732,-0.61765 0,0 -12.89591,-0.94343 -12.89591,-0.94343 -5.66741,-0.84163 -17.68776,-4.48642 -23.07689,-6.71266 -15.72622,-6.48868 -30.69227,-15.45473 -42.64474,-27.76015 -10.55428,-10.8665 -20.51807,-25.89363 -26.17869,-39.9841 0,0 -3.50226,-10.85972 -3.50226,-10.85972 0,0 -1.75792,-5.36877 -1.75792,-5.36877 0,0 -1.24886,-7.71718 -1.24886,-7.71718 0,0 -1.9819,-11.3484 -1.9819,-11.3484 0,0 0,-11.53845 0,-11.53845 -0.0475,-9.40044 0.0747,-10.40496 1.80542,-19.65608 0,0 1.85973,-10.20813 1.85973,-10.20813 4.73755,-17.62667 13.50677,-34.106288 25.09273,-48.189978 9.26469,-11.25338 25.83254,-24.05427 39.05424,-30.32575 0,0 15.61084,-5.97963 15.61084,-5.97963 4.21492,-1.40497 15.63798,-4.90723 19.68323,-4.85972 2.6742,0.0407 7.50677,2.04298 10.18098,2.91176 4.24207,1.37783 13.32351,3.58371 17.64703,3.638 11.87781,0.13575 12.5294,-1.61538 23.07689,-5.0294 0,0 11.53845,-3.63122 11.53845,-3.63122 3.63122,-1.47285 7.35067,-4.6561 10.85971,-5.42307 z"
     id="path1009" />
  <path
     style="fill:#000000;fill-opacity:1;stroke-width:0.678732"
     d="m 147.28486,55.930962 c 0,0 -6.78732,0.5905 -6.78732,0.5905 -7.51356,0.92307 -16.01129,3.25112 -23.07689,5.95248 -22.92078,8.77601 -42.87551,27.3529 -53.40264,49.506718 -25.6425,53.96599 1.88688,120.95684 60.18996,138.06768 8.00904,2.3552 17.41627,4.36424 25.79182,4.46605 18.65834,0.2172 32.77597,-2.58596 49.54744,-11.02939 10.44569,-5.25339 21.29183,-13.35066 28.89363,-22.22848 14.06333,-16.41853 24.46829,-38.45017 24.72621,-60.40715 0.10181,-8.75565 0.0747,-17.15835 -1.6629,-25.79182 -4.52035,-22.46603 -17.64703,-43.907178 -35.66737,-58.024808 -9.56333,-7.4932 -20.3416,-13.02487 -31.90041,-16.6493 -10.64251,-3.34615 -25.55426,-5.80316 -36.65153,-4.45248 z"
     id="path1013" />
  <path
     style="fill:#ffffff;fill-opacity:1;stroke-width:0.678732"
     d="m 84.16278,108.587 c 0,0 46.15378,28.72394 46.15378,28.72394 0,0 10.18098,6.43438 10.18098,6.43438 0,0 4.34389,3.67194 4.34389,3.67194 0,0 0.40724,7.32352 0.40724,7.32352 0,0 -0.69231,3.95022 -0.69231,3.95022 0,0 -13.56107,9.39365 -13.56107,9.39365 0,0 -47.51124,29.41625 -47.51124,29.41625 0,0 0,-8.82352 0,-8.82352 0,0 0.38687,-4.53393 0.38687,-4.53393 0,0 11.15157,-8.07691 11.15157,-8.07691 0,0 20.36196,-12.97057 20.36196,-12.97057 0,0 15.61084,-9.71266 15.61084,-9.71266 0,0 -35.29407,-23.07689 -35.29407,-23.07689 0,0 -11.8303,-8.36876 -11.8303,-8.36876 0,0 -0.38687,-4.52715 -0.38687,-4.52715 0,0 0.67873,-8.82351 0.67873,-8.82351 z"
     id="path1015" />
</svg>
