<?xml version="1.0" encoding="UTF-8" standalone="no"?>
<svg
   width="4.44444in"
   height="4.44444in"
   viewBox="0 0 400 400"
   version="1.1"
   id="svg2111"
   sodipodi:docname="es7s-bw.svg"
   inkscape:version="1.2 (1:1.2+202206011327+fc4e4096c5)"
   xmlns:inkscape="http://www.inkscape.org/namespaces/inkscape"
   xmlns:sodipodi="http://sodipodi.sourceforge.net/DTD/sodipodi-0.dtd"
   xmlns="http://www.w3.org/2000/svg"
   xmlns:svg="http://www.w3.org/2000/svg">
  <defs
     id="defs2115" />
  <sodipodi:namedview
     id="namedview2113"
     pagecolor="#ffffff"
     bordercolor="#000000"
     borderopacity="0.25"
     inkscape:showpageshadow="2"
     inkscape:pageopacity="0.0"
     inkscape:pagecheckerboard="0"
     inkscape:deskcolor="#d1d1d1"
     inkscape:document-units="in"
     showgrid="false"
     inkscape:zoom="1"
     inkscape:cx="213"
     inkscape:cy="229.5"
     inkscape:window-width="1920"
     inkscape:window-height="1016"
     inkscape:window-x="0"
     inkscape:window-y="27"
     inkscape:window-maximized="1"
     inkscape:current-layer="svg2111" />
  <path
     id="Selection"
     fill="none"
     stroke="black"
     stroke-width="1"
     d="M 186.00,0.21            C 186.00,0.21 169.00,2.28 169.00,2.28              157.04,3.98 143.38,7.64 132.00,11.69              80.81,29.92 38.81,69.36 16.86,119.00              -18.30,198.54 2.53,293.30 68.00,350.71              87.85,368.12 111.95,381.72 137.00,390.00              152.54,395.14 175.67,399.81 192.00,400.00              229.33,400.43 258.46,394.64 292.00,377.75              312.92,367.22 327.53,355.49 344.00,339.00              357.94,325.03 369.41,308.63 378.25,291.00              419.30,209.11 401.34,110.09 332.00,49.29              315.52,34.83 295.36,22.54 275.00,14.40              255.17,6.47 228.39,0.10 207.00,0.21              207.00,0.21 186.00,0.21 186.00,0.21 Z"
     style="fill:#000000;stroke:none;fill-opacity:1" />
  <path
     id="+10px"
     d="M 202.3226 24.832789 C 196.67416 24.700133 191.33294 24.888342 186.63044 25.460842 C 174.03045 27.25084 161.84984 28.450403 149.56986 32.250399 C 100.6699 47.390384 62.179439 80.189733 40.779461 126.91969 C 9.9594916 194.20962 25.129604 276.81945 79.579549 327.5394 C 98.299531 344.98938 120.18912 357.90934 144.41909 366.05934 C 158.07908 370.64933 178.42928 374.80926 192.79927 374.96926 C 224.56924 375.34926 250.62911 370.51908 279.26909 356.1991 C 298.37907 346.63911 317.25941 332.54951 331.1594 316.30953 C 348.58938 295.95955 360.99929 274.21914 368.37928 248.37916 C 386.06927 186.35922 367.65946 115.15004 319.40951 71.510083 C 299.13953 53.180101 278.41084 41.360558 252.50087 32.920566 C 238.97838 28.51057 219.26789 25.230757 202.3226 24.832789 z M 202.17062 34.797399 C 218.15263 35.172399 236.74228 38.265092 249.49977 42.420087 C 273.92974 50.390079 293.48067 61.539678 312.59065 78.819661 C 358.09061 119.97962 375.45988 187.13982 358.7699 245.61976 C 351.80991 269.99973 340.10951 290.50028 323.67953 309.69026 C 310.55954 325.01024 292.75988 338.29933 274.7299 347.30932 C 247.72992 360.8093 223.15024 365.36929 193.20027 365.0193 C 179.65028 364.8593 160.44948 360.93925 147.5795 356.60925 C 124.71952 348.91926 104.08036 336.73924 86.420377 320.27926 C 35.080428 272.43931 20.779558 194.53978 49.839529 131.07985 C 70.019508 87.00989 106.31001 56.079345 152.42997 41.799359 C 164.00995 38.209363 175.4902 37.08066 187.37019 35.390661 C 191.80518 34.850662 196.84328 34.672399 202.17062 34.797399 z "
     style="fill:#ffffff;stroke:none" />
  <path
     id="path202"
     fill="none"
     stroke="#000000"
     stroke-width="1"
     d="m 283.41,232.52 c 3.35,3.38 6.95,7.02 10.36,10.47 3.58,-3.56 7.19,-7.17 10.42,-10.39 -3.36,-3.59 -6.81,-7.26 -10.31,-11 -3.61,3.76 -7.09,7.4 -10.47,10.92 M 158.3,107.49 c 3.39,3.41 6.99,7.04 10.39,10.46 3.63,-3.58 7.27,-7.17 10.65,-10.5 -3.42,-3.63 -6.87,-7.3 -10.4,-11.06 -3.66,3.82 -7.14,7.46 -10.64,11.1 m 129.35,141.84 c -3.42,-3.67 -6.89,-7.37 -10.44,-11.17 -3.63,3.78 -7.13,7.41 -10.55,10.96 3.41,3.43 7.02,7.07 10.54,10.61 3.58,-3.56 7.21,-7.18 10.45,-10.4 M 152.32,112.94 c -3.75,3.9 -7.27,7.56 -10.65,11.08 3.43,3.43 7.04,7.06 10.54,10.57 3.55,-3.54 7.17,-7.15 10.61,-10.58 -3.41,-3.59 -6.88,-7.25 -10.5,-11.07 m 147.23,135.74 c 3.62,3.65 7.32,7.36 10.86,10.92 3.56,-3.55 7.17,-7.17 10.65,-10.64 -3.59,-3.6 -7.26,-7.29 -10.89,-10.93 -3.53,3.54 -7.12,7.14 -10.62,10.65 M 185.35,134.64 c 3.58,-3.58 7.2,-7.2 10.74,-10.73 -3.63,-3.63 -7.32,-7.34 -10.84,-10.87 -3.57,3.55 -7.19,7.16 -10.79,10.74 3.62,3.61 7.31,7.29 10.89,10.86 m -16.74,16.77 c 3.73,-3.72 7.36,-7.33 10.81,-10.76 -3.64,-3.65 -7.33,-7.36 -11.12,-11.17 -3.38,3.48 -6.87,7.06 -10.52,10.81 3.75,3.85 7.32,7.52 10.83,11.12 m 108.59,53.36 c -3.68,3.86 -7.16,7.51 -10.57,11.08 3.54,3.55 7.25,7.25 10.91,10.92 3.54,-3.55 7.14,-7.14 10.5,-10.49 -3.52,-3.74 -7.07,-7.5 -10.84,-11.51 M 152.36,101.61 c 3.63,-3.61 7.26,-7.21 10.41,-10.34 -3.51,-3.71 -7.07,-7.49 -10.78,-11.43 -3.54,3.7 -7.01,7.34 -10.43,10.93 3.54,3.56 7.22,7.25 10.8,10.84 m 97.62,131.25 c 3.18,3.06 6.69,6.43 10.2,9.82 0.52,0.5 0.97,0.39 1.43,-0.04 1,-0.91 2.02,-1.81 2.99,-2.76 2.41,-2.38 4.8,-4.78 6.95,-6.92 -3.63,-3.85 -7.18,-7.61 -10.88,-11.54 -3.64,3.9 -7.1,7.6 -10.69,11.44 m 43.77,43.54 c 3.6,-3.6 7.22,-7.22 10.74,-10.75 -3.63,-3.65 -7.32,-7.36 -10.88,-10.94 -3.56,3.56 -7.18,7.18 -10.78,10.77 3.61,3.61 7.3,7.3 10.92,10.92 M 146.45,107.8 c -3.58,-3.8 -7.13,-7.55 -10.8,-11.44 -3.66,3.85 -7.16,7.52 -10.54,11.07 3.47,3.49 7.16,7.2 10.82,10.88 3.54,-3.53 7.13,-7.13 10.52,-10.51 m 6.24,-46.92 c 2.18,0.38 3.83,1.65 5.37,3.16 11.48,11.34 23.02,22.63 34.46,34.02 6.17,6.15 12.18,12.45 18.23,18.71 1.06,1.1 2,2.32 2.95,3.51 1.96,2.46 2.21,4.51 -0.12,7.75 -1.21,1.68 -2.68,3.19 -4.12,4.68 -3.94,4.06 -7.93,8.06 -11.89,12.08 -0.35,0.36 -0.69,0.74 -1.08,1.15 2.74,2.69 5.43,5.34 8.25,8.1 0.88,-0.83 1.82,-1.73 2.77,-2.62 3.09,-2.91 6.14,-5.87 9.29,-8.71 2.82,-2.54 6.18,-4.01 9.94,-4.45 1.2,-0.14 2.48,-0.05 3.65,0.24 1.28,0.32 2.2,0.06 3.08,-0.86 3.13,-3.28 6.99,-5.17 11.43,-5.89 7.38,-1.19 13.7,0.98 18.83,6.35 7.85,8.22 8.02,20.34 0.5,28.83 -1.14,1.28 -1.84,2.48 -1.48,4.41 0.87,4.6 -0.81,8.65 -3.64,12.15 -2.45,3.04 -5.21,5.82 -7.84,8.71 -0.17,0.19 -0.33,0.38 -0.45,0.51 2.76,2.7 5.48,5.36 8.29,8.12 0.07,-0.07 0.4,-0.36 0.72,-0.67 4.1,-3.95 8.19,-7.9 12.3,-11.84 0.45,-0.44 0.97,-0.85 1.52,-1.15 3.26,-1.77 4.68,-1.64 6.91,0.14 2.12,1.69 4.24,3.41 6.15,5.33 15.78,15.71 31.51,31.46 47.23,47.22 1.43,1.44 2.78,2.98 4.04,4.58 0.88,1.12 1.54,2.42 2.29,3.63 0,0 0,1.79 0,1.79 -1.56,4.22 -5,6.99 -7.99,10.02 -10.15,10.28 -20.44,20.42 -30.69,30.6 -1.3,1.28 -2.65,2.53 -4.13,3.59 -2.38,1.71 -4.58,2.05 -6.74,0.17 -3.59,-3.11 -7.22,-6.19 -10.58,-9.54 -14.21,-14.15 -28.35,-28.37 -42.47,-42.61 -1.88,-1.89 -3.63,-3.94 -5.28,-6.04 -2.15,-2.74 -2.21,-4.89 -0.03,-7.61 2.04,-2.54 4.29,-4.94 6.58,-7.26 3.53,-3.56 7.18,-7 10.85,-10.57 -3.01,-2.9 -5.79,-5.57 -8.64,-8.32 -5.82,5.84 -11.77,11.82 -17.92,18 -7.29,-20.96 -21.55,-34.7 -41.97,-42.34 4.75,-4.73 9.51,-9.46 14.24,-14.16 -2.97,-2.92 -5.69,-5.6 -8.52,-8.37 -1.65,1.6 -3.47,3.42 -5.33,5.19 -2.8,2.66 -5.52,5.41 -8.47,7.9 -3.03,2.56 -5.42,2.57 -8.41,-0.07 -4.43,-3.9 -8.75,-7.93 -12.92,-12.09 -13.16,-13.11 -26.24,-26.28 -39.3,-39.47 -2.02,-2.05 -3.81,-4.33 -5.64,-6.56 -1.66,-2.04 -1.4,-4.24 -0.02,-6.24 1.1,-1.6 2.39,-3.1 3.76,-4.48 11.71,-11.72 23.45,-23.41 35.19,-35.1 1.66,-1.65 3.41,-3.17 5.83,-3.62 0,0 1.02,0 1.02,0 z M 90.5,267.46 c 0.25,-1.93 0.49,-3.86 0.77,-5.78 0.09,-0.63 0.22,-1.25 0.39,-1.86 0.61,-2.21 3.29,-3.35 5.29,-2.17 0.37,0.22 0.63,0.89 0.66,1.37 0.14,2.84 0.2,5.68 0.29,8.52 0.13,3.65 0.28,7.32 1.54,10.79 4.8,13.13 13.74,21.65 27.64,24.46 3.79,0.77 7.66,0.89 11.53,0.44 1.05,-0.12 2.12,-0.11 3.18,-0.05 1.26,0.09 1.88,0.8 1.98,2.06 0.28,3.54 0.31,3.66 -3.08,4.39 -2.47,0.53 -5.02,0.68 -7.53,1 -0.46,0.05 -0.92,0.12 -1.37,0.18 0,0 -4.59,0 -4.59,0 -0.71,-0.08 -1.43,-0.16 -2.14,-0.25 -1.72,-0.2 -3.49,-0.22 -5.16,-0.64 -14.41,-3.63 -24.07,-12.33 -28.1,-26.83 -0.63,-2.27 -0.88,-4.64 -1.3,-6.96 0,0 0,-8.67 0,-8.67 z m 51.1,-34.41 c -3.04,-4.46 -6.04,-8.61 -8.78,-12.93 -4.14,-6.52 -7.8,-13.31 -10.01,-20.77 -0.85,-2.86 -1.28,-5.77 -1.06,-8.78 0.18,-2.51 1.44,-4.3 3.35,-5.73 4.3,-3.23 9.21,-5.04 14.46,-5.86 13.43,-2.09 26.21,0.49 38.3,6.24 23.32,11.1 37.9,29.4 43.53,54.64 2,8.95 2.23,18 -0.4,26.95 -0.97,3.28 -2.57,6.24 -4.52,9.05 -1.97,2.85 -4.64,3.88 -8,3.68 -4.12,-0.24 -7.99,-1.46 -11.76,-2.98 -9.35,-3.77 -17.77,-9.14 -25.85,-15.08 -0.61,-0.44 -1.1,-1.03 -1.77,-1.67 0.41,-0.34 0.69,-0.64 1.03,-0.85 2.62,-1.56 5.27,-3.08 7.87,-4.69 0.76,-0.47 1.25,-0.14 1.82,0.26 3.83,2.74 7.6,5.56 11.51,8.17 2.03,1.36 4.24,2.51 6.5,3.45 2.89,1.21 4.44,-0.18 3.94,-3.27 -0.61,-3.79 -2.26,-7.18 -4.12,-10.47 -4.78,-8.49 -10.92,-15.95 -17.57,-23.02 -8.05,-8.56 -16.71,-16.42 -26.54,-22.92 -4.14,-2.74 -8.39,-5.3 -13.23,-6.66 -1.08,-0.3 -2.25,-0.43 -3.37,-0.43 -1.74,-0.01 -2.77,1.26 -2.17,2.89 0.82,2.21 1.73,4.45 3.01,6.41 2.59,3.97 5.4,7.8 8.26,11.6 1.08,1.42 1.34,2.54 0.34,4.15 -1.66,2.7 -3.08,5.54 -4.77,8.62 m 5.43,17.39 c 1.38,-2.29 2.72,-4.54 4.08,-6.78 2.97,-4.94 6.02,-9.85 8.91,-14.84 1.96,-3.39 4.48,-3.34 7.16,-1.71 3.26,1.98 5.89,4.63 7.41,8.17 1.28,3.01 0.48,4.2 -1.58,5.49 -6.75,4.25 -13.44,8.58 -20.16,12.88 -1.7,1.09 -1.69,1.09 -1.12,3.01 1.38,4.63 0.56,8.73 -3,12.11 -3.35,3.19 -9.12,3.83 -13.43,1.56 -4.04,-2.13 -6.33,-6.78 -5.65,-11.47 1.24,-8.49 9.3,-12.61 16.82,-8.6 0.11,0.06 0.24,0.08 0.56,0.18 m -11.77,43.2 c -11.44,-0.25 -19.59,-4.15 -24.67,-13.41 -2.63,-4.8 -3.36,-10.01 -2.87,-15.39 0.19,-2.15 0.52,-4.29 1,-6.39 0.39,-1.7 1.38,-2.2 3.15,-1.99 1.61,0.2 2.48,1.1 2.63,2.72 0.32,3.38 0.32,6.81 1.04,10.1 2.05,9.4 10.36,16.35 19.93,17.06 2.16,0.16 4.32,0.33 6.47,0.51 1.69,0.14 2.63,0.98 2.83,2.54 0.2,1.52 -0.49,2.78 -2.14,3.12 -2.81,0.57 -5.67,0.88 -7.37,1.13"
     style="display:inline;fill:#ffffff;stroke:none" />
</svg>
